<?xml version="1.0" encoding="UTF-8"?>
<!DOCTYPE svg PUBLIC "-//W3C//DTD SVG 1.1//EN" "http://www.w3.org/Graphics/SVG/1.1/DTD/svg11.dtd">
<!-- Creator: CorelDRAW -->
<svg xmlns="http://www.w3.org/2000/svg" xml:space="preserve" width="210mm" height="297mm" version="1.1" style="shape-rendering:geometricPrecision; text-rendering:geometricPrecision; image-rendering:optimizeQuality; fill-rule:evenodd; clip-rule:evenodd"
viewBox="0 0 21000 29700"
 xmlns:xlink="http://www.w3.org/1999/xlink"
 xmlns:xodm="http://www.corel.com/coreldraw/odm/2003">
 <defs>
  <style type="text/css">
   <![CDATA[
    .fil0 {fill:#2B2A29}
   ]]>
  </style>
 </defs>
 <g id="Layer_x0020_1">
  <metadata id="CorelCorpID_0Corel-Layer"/>
  <path class="fil0" d="M10347.27 14580.06c48.94,0 88.62,39.1 88.62,87.32 0,48.22 -39.68,87.32 -88.62,87.32 -48.94,0 -88.62,-39.1 -88.62,-87.32 0,-48.22 39.68,-87.32 88.62,-87.32zm2261.07 -5857.73c112.81,0 204.25,85.33 204.25,190.59 0,105.26 -91.44,190.58 -204.25,190.58 -112.8,0 -204.25,-85.32 -204.25,-190.58 0,-105.26 91.45,-190.59 204.25,-190.59zm359.91 390.81c1631.21,234.8 2900.71,1558.72 2900.71,3337.13 0,1778.41 -1508.33,3368.96 -3368.96,3368.96 -1860.63,0 -3368.96,-1552.78 -3368.96,-3368.96 0,-1816.18 1389.77,-3211.14 3126.95,-3345.86 -293.12,-716.83 1034.4,-682.13 710.26,8.73zm-1232.89 6249.58c48.94,0 88.62,39.1 88.62,87.32 0,48.22 -39.68,87.32 -88.62,87.32 -48.94,0 -88.62,-39.1 -88.62,-87.32 0,-48.22 39.68,-87.32 88.62,-87.32zm1722.59 -94.54c48.94,0 88.62,39.1 88.62,87.32 0,48.22 -39.68,87.32 -88.62,87.32 -48.94,0 -88.62,-39.1 -88.62,-87.32 0,-48.22 39.68,-87.32 88.62,-87.32zm1241.37 -766.06c48.94,0 88.62,39.1 88.62,87.32 0,48.22 -39.68,87.32 -88.62,87.32 -48.94,0 -88.62,-39.1 -88.62,-87.32 0,-48.22 39.68,-87.32 88.62,-87.32zm-2508.79 -4925.16c129.69,-37.34 175.1,165.06 59.53,251.35 -179.69,-94.39 -173.53,-237.27 -59.53,-251.35zm-334.58 1643.26l245.04 52.67c-7.29,-95.15 -63.01,-154.75 -131.45,-207.9 -74.35,-13.01 -3.46,-7.84 -69.77,-4.48 -9.35,28.28 -9.91,51.58 -16.62,79.07 -8.38,34.35 -20.33,47.59 -27.2,80.64zm-309.5 -114.24c54.33,38.06 114,80.77 202.96,91.59 60.99,-101.94 9.24,-229.94 -31.24,-243.76 -35.96,-12.27 -93.07,19.49 -116.59,37.4 -32.87,25.03 -58.8,55.42 -55.13,114.77zm-598.14 -534.17c67.33,-66.19 1317.56,-484.31 1138.38,-610.13 -36.57,-28.77 -103.14,-105.07 -120.59,-149.73 -19.98,-51.14 -20.04,-112.97 -7.66,-163.02 5.8,-23.45 11.51,-39.85 22.09,-63 10.98,-24.02 31.74,-43.76 12.9,-52.85 -154.78,-74.71 -677.59,490.02 -770.14,599.81 -65.17,77.31 -240.2,328.22 -274.98,438.92zm1713.26 4649.28c18.52,-38.85 20.74,-84 8.78,-124.59 -386.2,-38.22 -612,-46.33 -964.16,-180.06 -282.09,-107.11 -529.62,-262.51 -726.21,-416.53 -209.28,-163.95 -397.29,-372.52 -555.19,-587.69 -360.4,-491.12 -544.29,-1119.97 -531.6,-1751.34 6.17,-306.89 78.86,-694.5 183.18,-956.51 109.51,-275.05 229.79,-515.43 401.59,-741.11 110.1,-144.63 277.05,-329.89 416.44,-448.11 25.73,-21.83 141.02,-110.77 155.22,-131.73 -465.47,145.64 -998.68,830.99 -1192.78,1253.11 -466.52,1014.62 -302.26,2222.82 413.85,3082.56 99.45,119.39 202.74,213 311.4,314.25 53.95,50.27 110.61,89.84 174.17,139.33 348.52,271.35 850.55,480.41 1318.14,539.32 148.09,18.65 455.99,45.91 587.17,9.1zm-2022.42 -3112.85c-20.01,243 126.91,683.08 214.78,875.24 150.19,328.42 233.64,432.29 437.63,688.59 18.37,23.07 45.13,47.44 65.63,69.64 255.7,276.87 570.9,484.42 928.41,621.12 68.65,26.25 371.49,138.7 437.06,123.46 11.57,-144.18 12.75,-302.37 15.11,-447.66 1.96,-120.82 20.22,-356.51 3.99,-463.77 -29.83,-17.65 -94.43,-18.07 -191.53,-69.06 -428.79,-225.15 -399.73,-792.37 -316.36,-1208.3 11.5,-57.4 40.23,-155.87 46.74,-216.56 -3.39,26.23 -59.15,124.09 -76.49,166.29l-213.39 575.19c-91.03,248.09 -149.62,602.81 -461.11,579.67 -453.76,-33.71 -571.63,-701.51 -526.29,-1060.22 20.31,-160.74 61.61,-267.23 95.79,-410.11 -56.95,25.48 -421.64,169.06 -459.97,176.48zm1907.12 -2621.73l-55.97 197.98c-15.22,46.03 -62.45,158.02 -63.37,200.39 40.59,55.13 52.34,43.99 90.3,125.52 0.93,14.07 -99.75,167.2 -121.1,187.31 -48.78,-7.25 -107.03,-41.86 -135.27,-73.42 -348.93,361.66 -1339.47,629.9 -1449.35,754.18 -44.37,110.29 -79.31,197.94 -108.24,317.84 -61.43,254.56 -123.34,486.72 -102.96,761.22 123.03,-27.63 939.32,-479.31 1010.3,-582.45 -21.32,-16.89 -90.08,-54.74 -114.02,-67.65 -272.93,-147.28 -38.41,-352.94 -28.86,-406.19 9.47,-52.78 -10.81,-440.57 410.64,-153 134.49,91.76 362.46,285.83 363.28,459.2 0.38,79.64 -71.48,241.9 -110.59,275.58 -43.13,37.14 -289.86,-24.78 -369.64,-19.32l-83.76 131.64c-98.08,92.56 -141.63,126.55 -263.22,202.41 -62.33,38.89 -87.39,91.49 -111.77,218.1 -52.25,271.36 -87.76,451.4 -5.31,723.99 33.88,112.02 62.66,205.45 174.21,217.11 197.21,20.61 294.1,-392.79 343.36,-538.96 103.98,-308.58 244.2,-743.68 449.21,-964.69 40.91,-44.1 211.64,-159.98 332.07,-127.87 129.73,34.6 40.24,282.82 21.75,354.47 -66.41,257.38 -125.81,494.37 -175,765.87 -37.55,207.23 -15.18,400.98 148.1,527.96 43.04,33.46 92.89,74.02 158.53,73.78 14.23,-61.72 12.94,-580.14 13.6,-683.38 1.15,-178.71 22.24,-1755.46 4.84,-1871.2 -8.87,-58.94 -51.29,-164.39 -35.83,-213.6 30.97,-98.61 140.06,-290.05 197.33,-338 92.12,46.65 298.08,712.82 273.47,924.71l-141.13 30.79c-16.03,73.61 -39.69,2108.66 -28.27,2150.22 123.21,-61.45 236.46,-140.5 306.64,-272.16 152.93,-286.91 -5.73,-1275.93 -84.63,-1641.38 -60.23,-153.68 62.84,-593.22 216.06,-640.48 0.37,219.68 -94.31,284 -59.86,420.41 31.81,125.97 135.92,144.15 201.18,5.45 71.71,-362.12 -3.36,-1201.25 -310.5,-1340.86 -118,-51.18 -232.43,-83.58 -364.71,-101.38 -97.43,-13.12 -305.62,-30.7 -391.51,9.86zm1482.39 982.99c26.76,69.35 34.14,202.03 57.18,289.49 198.68,289.22 -194.84,671.3 -382.06,385.02 -89.8,141.31 3.33,267.16 33.73,487.31 148.18,403.96 87.83,1169.34 386.47,1409.34 76.75,47.66 251.87,68.22 351.53,-24.7 204.21,-190.38 -560.44,-1960.13 15.09,-1966.73l129.61 174.64c41.8,62.05 78.06,127.73 118.15,195.07 29.93,50.28 89.14,151.89 107.97,205.22 71.9,203.62 -106.45,133.41 -152.6,114.95 18.25,129 63.71,280.18 94.88,408.06 34.69,142.31 64.35,282.56 87.61,429.66 60.53,382.78 -43.51,944.87 -470.57,1026.65 -465.64,89.16 -663.48,-189.55 -780.92,-583.93 45.58,106.28 -448.27,560.42 -603.04,502.12 -7.18,258.74 4.69,517.91 -2.54,773.08 -1.69,59.59 -16.68,189.59 -7.14,239.33 280.62,53.07 743.12,-16.55 999.38,-97.53 524.35,-165.72 980,-534.33 1191.11,-1061.31 111.79,-279.05 191.88,-581.06 202.05,-926.43 9.99,-339.57 -28.53,-719.51 -129.33,-999.52 -76.77,-213.27 -58.58,-183.33 -159.56,-398.08 -162.91,-346.46 -449,-713.33 -750.83,-943.58 -239.34,-182.58 -255.28,-187.71 -523.11,-323.7 -82.96,-42.13 -193.25,-78.44 -226.52,-99.86 335.61,332.1 78.48,1217.49 233.59,1329.26 197.26,73.06 81.65,-277.89 87.32,-326.28 -5.84,-87.86 45.62,-197.27 92.55,-217.55z"/>
 </g>
</svg>
