<?xml version="1.0" encoding="UTF-8"?>
<!DOCTYPE svg PUBLIC "-//W3C//DTD SVG 1.1//EN" "http://www.w3.org/Graphics/SVG/1.1/DTD/svg11.dtd">
<!-- Creator: CorelDRAW -->
<svg xmlns="http://www.w3.org/2000/svg" xml:space="preserve" width="210mm" height="297mm" version="1.1" style="shape-rendering:geometricPrecision; text-rendering:geometricPrecision; image-rendering:optimizeQuality; fill-rule:evenodd; clip-rule:evenodd"
viewBox="0 0 21000 29700"
 xmlns:xlink="http://www.w3.org/1999/xlink"
 xmlns:xodm="http://www.corel.com/coreldraw/odm/2003">
 <defs>
  <style type="text/css">
   <![CDATA[
    .fil0 {fill:#2B2A29}
   ]]>
  </style>
 </defs>
 <g id="Layer_x0020_1">
  <metadata id="CorelCorpID_0Corel-Layer"/>
  <path class="fil0" d="M8347.27 17230.06c48.94,0 88.62,39.1 88.62,87.32 0,48.22 -39.68,87.32 -88.62,87.32 -48.94,0 -88.62,-39.1 -88.62,-87.32 0,-48.22 39.68,-87.32 88.62,-87.32zm2261.07 -5857.72c112.81,0 204.24,85.33 204.24,190.59 0,105.26 -91.43,190.58 -204.24,190.58 -112.8,0 -204.25,-85.32 -204.25,-190.58 0,-105.26 91.45,-190.59 204.25,-190.59zm359.9 390.81c1631.21,234.8 2900.71,1558.72 2900.71,3337.12 0,1778.41 -1508.33,3368.96 -3368.95,3368.96 -1860.63,0 -3368.96,-1552.78 -3368.96,-3368.96 0,-1816.17 1389.77,-3211.13 3126.95,-3345.85 -293.12,-716.83 1034.39,-682.13 710.25,8.73zm-1232.88 6249.57c48.94,0 88.62,39.1 88.62,87.32 0,48.22 -39.68,87.32 -88.62,87.32 -48.94,0 -88.62,-39.1 -88.62,-87.32 0,-48.22 39.68,-87.32 88.62,-87.32zm1722.58 -94.54c48.94,0 88.62,39.1 88.62,87.32 0,48.22 -39.68,87.32 -88.62,87.32 -48.94,0 -88.62,-39.1 -88.62,-87.32 0,-48.22 39.68,-87.32 88.62,-87.32zm1241.37 -766.06c48.94,0 88.62,39.1 88.62,87.32 0,48.22 -39.68,87.32 -88.62,87.32 -48.94,0 -88.62,-39.1 -88.62,-87.32 0,-48.22 39.68,-87.32 88.62,-87.32zm-2508.78 -4925.15c129.69,-37.34 175.1,165.06 59.53,251.35 -179.69,-94.39 -173.53,-237.27 -59.53,-251.35zm-314.58 1623.26l245.04 52.67c-7.29,-95.15 -63.01,-154.75 -131.45,-207.9 -74.35,-13.01 -3.46,-7.84 -69.77,-4.48 -9.35,28.28 -9.91,51.58 -16.62,79.07 -8.38,34.35 -20.33,47.59 -27.2,80.64zm-309.5 -114.24c54.33,38.06 114,80.77 202.96,91.59 60.99,-101.94 9.24,-229.94 -31.24,-243.76 -35.96,-12.27 -93.07,19.49 -116.59,37.4 -32.87,25.03 -58.8,55.42 -55.13,114.77zm-618.14 -514.17c67.33,-66.19 1267.56,-444.31 1088.38,-570.13 -36.57,-28.77 -103.14,-105.07 -120.59,-149.73 -19.98,-51.14 -20.04,-112.97 -7.66,-163.02 5.8,-23.45 11.51,-39.85 22.09,-63 10.98,-24.02 31.74,-43.76 12.9,-52.85 -154.78,-74.71 -627.59,450.02 -720.14,559.81 -65.17,77.31 -240.2,328.22 -274.98,438.92zm1713.26 4649.27c18.52,-38.85 20.74,-84 8.78,-124.59 -386.2,-38.22 -612,-46.33 -964.16,-180.06 -282.09,-107.11 -529.62,-262.51 -726.21,-416.53 -209.28,-163.95 -397.29,-372.52 -555.19,-587.69 -360.4,-491.12 -544.29,-1119.97 -531.6,-1751.33 6.17,-306.89 78.86,-694.5 183.18,-956.51 109.51,-275.05 229.79,-515.43 401.59,-741.11 110.1,-144.63 277.05,-329.89 416.44,-448.11 25.73,-21.83 141.02,-110.77 155.22,-131.73 -465.47,145.64 -998.68,830.99 -1192.78,1253.11 -466.52,1014.62 -302.26,2222.81 413.85,3082.55 99.45,119.39 202.74,213 311.4,314.25 53.95,50.27 110.61,89.84 174.17,139.33 348.52,271.35 850.55,480.41 1318.14,539.32 148.09,18.65 455.99,45.91 587.17,9.1zm-2042.42 -3032.84c-20.01,242.99 146.91,603.07 234.78,795.23 150.19,328.42 233.64,432.29 437.63,688.59 18.37,23.07 45.13,47.44 65.63,69.64 255.7,276.87 570.9,484.42 928.41,621.12 68.65,26.25 341.49,168.7 407.06,153.46 11.57,-144.18 12.75,-302.37 15.11,-447.66 1.96,-120.82 20.22,-356.51 3.99,-463.77 -29.83,-17.65 -64.43,-48.07 -161.53,-99.06 -428.79,-225.15 -399.73,-792.37 -316.36,-1208.3 11.5,-57.4 40.23,-155.86 46.74,-216.55 -3.39,26.23 -59.15,124.09 -76.49,166.28l-213.39 575.19c-91.03,248.09 -149.62,602.81 -461.11,579.67 -453.76,-33.71 -571.63,-701.51 -526.29,-1060.22 20.31,-160.73 61.61,-267.22 95.79,-410.1 -56.95,25.48 -441.64,249.06 -479.97,256.48zm1997.12 -2701.73l-55.97 197.98c-15.22,46.03 -62.45,158.02 -63.37,200.39 40.59,55.13 52.34,43.99 90.3,125.52 0.93,14.07 -99.75,167.2 -121.1,187.31 -48.78,-7.25 -107.03,-41.86 -135.27,-73.42 -348.93,361.66 -1389.47,629.9 -1499.35,754.18 -44.37,110.29 -99.31,197.94 -128.24,317.84 -61.43,254.56 -143.34,446.72 -122.96,721.22 123.03,-27.63 939.32,-479.31 1010.3,-582.45 -21.32,-16.89 -90.08,-54.74 -114.02,-67.65 -272.93,-147.28 1.59,-332.94 11.14,-386.19 9.47,-52.78 -10.81,-440.57 410.64,-153 134.49,91.76 362.46,285.83 363.28,459.2 0.38,79.64 -91.48,261.9 -130.59,295.58 -43.13,37.14 -279.86,-14.78 -359.64,-9.32l-83.76 131.64c-203.04,191.62 -285.83,194.4 -347.15,512.83 -28.48,147.93 -94.37,736.25 121.06,758.77 197.21,20.61 264.1,-312.79 313.36,-458.96 103.98,-308.57 244.2,-743.67 449.21,-964.68 40.91,-44.1 281.64,-159.98 402.07,-127.87 129.73,34.6 40.24,282.82 21.75,354.47 -66.41,257.38 -125.81,494.37 -175,765.86 -37.55,207.23 -15.18,400.98 148.1,527.96 43.04,33.46 32.89,104.02 98.53,103.78 14.23,-61.72 12.94,-580.14 13.6,-683.38 1.15,-178.7 52.23,-1785.45 34.84,-1901.19 -8.87,-58.94 -51.29,-164.39 -35.83,-213.6 30.97,-98.61 140.05,-290.05 197.32,-338 92.12,46.65 298.08,712.82 273.47,924.71l-91.13 80.79c-16.03,73.61 -39.69,2108.65 -28.27,2150.21 123.21,-61.45 186.46,-190.5 256.64,-322.16 152.93,-286.91 -25.73,-1275.92 -104.63,-1641.37 -60.23,-153.68 92.84,-623.22 246.06,-670.48 0.37,219.68 -84.31,314 -49.86,450.41 31.81,125.97 65.92,144.15 131.18,5.45 71.71,-362.12 6.64,-1231.25 -300.5,-1370.86 -118,-51.18 -192.43,-53.58 -324.71,-71.38 -97.43,-13.12 -235.61,-30.7 -321.5,9.86zm1452.38 982.99c26.76,69.35 34.14,202.03 57.18,289.49 198.68,289.22 -234.84,671.3 -422.06,385.02 -89.8,141.31 3.33,267.16 33.73,487.31 148.18,403.96 87.83,1169.33 386.47,1409.33 76.75,47.66 171.87,68.22 271.53,-24.7 204.21,-190.38 -520.44,-1980.12 55.09,-1986.72l209.61 174.64c41.8,62.05 78.06,127.73 118.15,195.07 29.93,50.28 89.14,151.89 107.97,205.22 71.9,203.62 -146.45,153.41 -192.6,134.95 18.25,129 63.71,280.18 94.88,408.06 34.69,142.3 64.35,282.55 87.61,429.65 60.53,382.78 -43.51,944.87 -470.57,1026.65 -465.64,89.16 -663.48,-169.55 -780.92,-563.93 45.58,106.28 -398.27,590.42 -553.04,532.12 -7.18,258.74 4.69,517.91 -2.54,773.08 -1.69,59.59 -16.68,189.59 -7.14,239.33 280.62,53.07 693.12,-66.55 949.38,-147.53 524.35,-165.72 980,-534.33 1191.11,-1061.31 111.79,-279.05 191.88,-581.06 202.05,-926.43 9.99,-339.56 -28.53,-719.5 -129.33,-999.51 -76.77,-213.27 -58.58,-183.33 -159.56,-398.08 -162.91,-346.46 -449,-713.33 -750.83,-943.58 -244.29,-186.36 -435.84,-276.6 -679.63,-433.56 335.61,332.1 18.48,1217.49 173.59,1329.26 197.26,73.06 51.65,-267.89 57.32,-316.28 -5.84,-87.86 105.62,-197.27 152.55,-217.55z"/>
 </g>
</svg>
