<?xml version="1.0" encoding="UTF-8"?>
<!DOCTYPE svg PUBLIC "-//W3C//DTD SVG 1.1//EN" "http://www.w3.org/Graphics/SVG/1.1/DTD/svg11.dtd">
<!-- Creator: CorelDRAW -->
<svg xmlns="http://www.w3.org/2000/svg" xml:space="preserve" width="210mm" height="297mm" version="1.1" style="shape-rendering:geometricPrecision; text-rendering:geometricPrecision; image-rendering:optimizeQuality; fill-rule:evenodd; clip-rule:evenodd"
viewBox="0 0 21000 29700"
 xmlns:xlink="http://www.w3.org/1999/xlink"
 xmlns:xodm="http://www.corel.com/coreldraw/odm/2003">
 <defs>
  <style type="text/css">
   <![CDATA[
    .str0 {stroke:#E31E24;stroke-width:7.62;stroke-miterlimit:22.9256}
    .fil0 {fill:none}
   ]]>
  </style>
 </defs>
 <g id="Layer_x0020_1">
  <metadata id="CorelCorpID_0Corel-Layer"/>
  <path class="fil0 str0" d="M9799.34 9245.28c-197.8,-236.95 87.29,-414.37 350.88,-714.46 120.02,180.95 439.36,372.79 362.65,640.51 -2.81,25.29 18.84,30.1 64.96,14.43 112.94,-21.91 155.64,40.04 128.1,185.84 147.47,121.18 145.14,173.18 -34.28,194.86 -123.57,14.93 -185.78,18.75 -185.78,18.75 -84.21,68.05 -65.91,164.63 54.9,289.76 356.78,35.9 571.31,204.68 643.59,506.34 1021.48,17.3 1439.36,310.12 1332.95,933.36 588.67,-222.21 1184.71,-138.01 1666.24,376.44 210.76,225.17 449.8,485.96 824.14,698.33 8.54,4.84 12.3,14.89 9.05,24.14 -3.25,9.26 -12.46,14.74 -22.14,13.19 -404.09,-64.6 -764.18,-190.7 -1080.27,-378.26 -565.72,-312.85 -1074.75,-343.79 -1527.07,-92.83 161.84,675.99 93.77,1154.07 -204.23,1434.24 296.17,449.34 1132.08,583.44 1798.68,193.78 285.96,-167.15 367.11,-459.43 1019.24,-727.35 8.58,-3.54 18.13,-0.92 23.72,6.5 5.59,7.41 5.46,17.34 -0.33,24.61 -177.93,223.52 -380.94,453.52 -525.16,679.54 -246.82,293.89 -526.38,466.38 -838.66,517.46 -195.76,96.87 -205.67,180.14 -29.74,249.81 219.59,125.8 392.08,332 517.47,618.58 166.67,-215.85 283.64,-318.95 350.93,-309.29 64.49,116.6 -72.32,193.93 -172.5,481.79 -86.05,266.16 15.5,464.87 214.61,448.16 205.29,-45.25 380.07,-486.08 189.85,-769.35 336.93,61.23 457.87,219.84 362.83,475.83 -25.64,81.95 -114.86,187.02 -267.66,315.23 -149.01,114.13 -115.31,165.68 101.11,154.65 222.73,-66.33 465.03,-192.62 726.9,-378.84 8.15,-5.8 19.13,-4.79 26.09,2.39 6.96,7.19 7.62,18.19 1.57,26.15 -176.1,231.64 -437.53,471.34 -784.29,719.07 -206.14,100.19 -156.01,239.54 150.39,228.06 1458.53,70.03 1559.22,1685.81 -19.48,2479.69 -1033.59,530.83 -2228.78,738.69 -3585.58,623.58 -151.76,2.81 -126.81,59.37 17.74,139.72 634.15,352.85 1387.64,438.91 2260.47,258.2 251.48,100.48 228.34,635.57 -66.46,756.67 -422.16,104.35 -1159.41,-20.69 -2211.75,-375.12 -59.94,122.56 25.68,437.55 95.46,561.27 329.97,7.33 578.42,401.55 300.07,736.04 -314.65,296.61 -669.32,0.96 -827.97,-171.13 -299.21,154.41 -583.36,166.81 -855.66,10.24 -177.61,417.69 -774.76,475.84 -989.74,163.64 -115.71,-224.18 -33.3,-380.52 169,-595.17 155.12,-175.62 65.21,-448.79 -85.77,-384.61 -664.13,275.02 -1208.13,415.35 -1632,420.99 -376.84,17.01 -510.51,-705.9 -166.59,-752.85 1012.19,71.35 1772.75,-101.26 2281.68,-532.97 113.67,-108.72 -72.48,-156.39 -345.43,-21.71 -877.27,446.79 -1933.49,450.54 -3006.65,8.17 -1188.29,-624.27 -1709.97,-1394.43 -1472.22,-2236.94 154.23,-446.56 375.69,-611.66 656.22,-761.99 120.2,-75.24 105.3,-126.95 -93.56,-265.07 -274.81,-210 -588.72,-654.97 -654.87,-1247.38 -47.21,-422.79 4.5,-812.86 83.15,-1164.23 20.22,-83.27 144.02,-40.6 363.83,109.15 365.37,294.59 633.9,575.25 805.6,841.98 115.84,120.1 185.75,110.02 257.89,-22.19 94.52,-236.2 254.19,-400.78 464.56,-513.15 143.82,-104.35 98.28,-147.19 -98.75,-249.47 -310.95,-161.4 -561.75,-423.05 -793.02,-627.3 -80.16,-70.79 -163.24,-187.64 -336.63,-280.16 -8.57,-4.57 -12.6,-14.32 -9.77,-23.61 2.83,-9.27 11.61,-15.11 21.25,-14.13 272.51,27.54 505.54,273.31 946.65,487.82 864.06,379.56 1408.93,412.67 2110.17,-306.65 -329.58,-289.5 -473.39,-726.32 -421,-1226.59 -236.11,-322.22 -673.74,-366.07 -1273.37,-51.98 -713.74,373.86 -1035.88,803.58 -1662.84,627.53 -8.9,-2.5 -14.79,-10.39 -14.67,-19.63 0.12,-9.24 6.25,-16.97 15.22,-19.22 809.21,-202.42 1290.25,-2059.22 2600.83,-1356.9 24.02,-630.15 450.51,-930.87 1280.77,-941.74 -84.71,-211.56 205.51,-445.44 561.32,-535.33 142.47,-35.99 180.91,-99.14 109.15,-270.27 -42.45,2.02 -478.93,11.24 -301.45,-166.32 107.41,-34.65 161.12,-51.97 161.12,-51.97 -90.16,-121.88 -54.18,-171.52 114.34,-140.33zm-2026 11187.39c96.65,0 175,78.35 175,175 0,96.65 -78.35,175 -175,175 -96.65,0 -175,-78.35 -175,-175 0,-96.65 78.35,-175 175,-175zm2792.13 361.14c96.65,0 175,78.35 175,175 0,96.65 -78.35,175 -175,175 -96.65,0 -175,-78.35 -175,-175 0,-96.65 78.35,-175 175,-175zm2840.19 -699.43c96.65,0 175,78.35 175,175 0,96.65 -78.35,175 -175,175 -96.65,0 -175,-78.35 -175,-175 0,-96.65 78.35,-175 175,-175zm-3256.35 -11291.73c96.65,0 175,78.35 175,175 0,96.65 -78.35,175 -175,175 -96.65,0 -175,-78.35 -175,-175 0,-96.65 78.35,-175 175,-175zm338.11 10908.86c148.31,166.43 339.26,382.99 339.26,563.3 0,180.31 -146.15,326.46 -326.46,326.46 -180.31,0 -300.86,-133.35 -300.86,-313.66 0,-180.31 126.95,-454.48 288.06,-576.1zm-4055.16 -446.57c960.71,358.69 1821.76,406.42 2583.16,143.2 101.07,-32.61 102.9,-74.84 5.5,-126.68 -1436.64,-623.7 -1223.68,-1000.06 -2170.07,-1790.03 -338.6,-263.96 -1026.21,-265.59 -1195.2,247.85 -217.43,660.58 292.98,1283.52 776.61,1525.66zm8902.02 -1792.34c15.07,716.92 -1585.86,1789.54 -3265.89,1680.97 -176.76,-6.8 -208.78,-54.83 -96.06,-144.08 1132.75,-1233.46 1853.18,-2031.26 2593.51,-2153.25 454.27,-27.79 710.41,177.66 768.44,616.36zm-3910.4 -1708.95c-515.9,-512.72 -625.21,-804.98 -254.33,-1208.09 223.69,-253.34 424.48,-552.29 562.22,-803.16 249.59,276.36 655.63,499.46 1194.69,662.61 1171.01,516.08 459.32,1002.44 1054.16,1331.91 -429.45,53.52 -630.24,182.92 -602.37,388.2 10.59,128.9 197.99,222.6 562.21,281.1 -464.6,389.77 -761.32,726.65 -890.17,1010.65 -104.34,-684.65 -238.2,-1097.38 -401.58,-1238.21 288.29,-18.65 649.71,-618.79 522.05,-1177.97 -465.33,781.24 -1063.24,932.95 -1793.72,455.13 35.69,209.71 53.54,314.57 46.84,297.83zm-2721.29 131.73c-989.09,8.57 -1361.37,-441.82 -1116.84,-1351.15 691.24,-142.31 1133.81,-405.24 1327.71,-788.81 232.45,214.82 245.47,529.82 39.05,945.02 -354.83,620.38 -169.99,1135.84 554.52,1546.39 777.49,429.47 1108.12,780.92 991.88,1054.37 -173.86,242.3 -408.17,216.26 -702.91,-78.1 -397.6,385.21 -257.02,718.44 421.74,999.69 895.74,158.02 1442.45,-255.91 1640.12,-1241.81 -5.72,-270.56 -99.44,-575.15 -281.16,-913.78 282.22,112.43 498.29,154.08 648.23,124.96 470.18,639.77 436.33,1282.8 -101.53,1929.1 -917.95,800.21 -1954.09,930.38 -3108.41,390.5 -1079.99,-563.26 -1184.13,-1435.39 -312.4,-2616.38zm-1694.79 -695.1c284.74,-452.34 420.12,-652.79 406.13,-601.37 -449.63,-20.72 -585.01,179.73 -406.13,601.37zm-1038.74 273.36c-275.98,-318.59 -507.67,-513.85 -695.09,-585.76 78.95,734.69 245.56,1226.72 499.84,1476.11 607.51,49.32 1086.53,223.74 1437.05,523.27 177.64,-352.87 354.67,-597.59 531.09,-734.15 -336.6,-34.18 -552.68,-161.74 -648.24,-382.69 -12.13,178.62 -35.56,319.2 -70.29,421.74 -223.89,124.97 -335.83,187.45 -335.83,187.45 21.56,-258.47 -27.9,-484.96 -148.39,-679.48 -381.83,283.78 -608.33,328.03 -679.48,132.77 -64.36,-182.74 -27.91,-302.5 109.34,-359.26zm5056.93 771.69c456.12,604.95 409.54,1086.3 -139.74,1444.06 204.37,-628.34 56.86,-1101.93 -442.54,-1420.77 -917.26,-378.93 -1185.11,-949.56 -803.55,-1711.9 249.3,-487.68 233.77,-941.86 -46.58,-1362.54 -207.51,-176.23 -331.73,-121.89 -372.66,163.03 -640.86,-522.66 -621.45,-1155.4 58.23,-1898.23 206.39,12.77 408.25,63.23 605.57,151.39 281.52,119.09 580.43,72.5 896.72,-139.75 461.11,-102.13 787.19,37.62 978.23,419.24 180.94,486.72 80.01,1006.89 -302.79,1560.52 -248.44,-217.39 -372.66,-326.08 -372.66,-326.08 -142.65,88.89 -185.35,267.46 -128.1,535.7 -13.75,156.61 -153.5,486.57 -419.24,989.88 -208.26,567.48 -45.22,1099.29 489.11,1595.45zm-1405.95 -5074.18c-587.91,-165.39 -1045.97,-80.38 -1374.18,255.01 -10.43,-540.39 378.01,-836.24 1295.12,-645.31 9.44,179.45 79.06,390.3 79.06,390.3zm1166.94 -38.03c343.21,-241.43 810.71,-189.49 1402.52,155.84 -7.47,-457.56 -661.8,-845.68 -1485.06,-509.73 42.5,179.45 82.54,353.89 82.54,353.89zm-888.89 -664.08c-183.14,-50.29 -250.69,-69.05 -360.21,-123.82 245.14,-75.04 367.71,-112.56 367.71,-112.56 -27.33,102.77 -29.83,181.56 -7.5,236.38zm559.08 -3.76c183.14,-50.29 250.69,-69.05 360.21,-123.82 -245.14,-75.04 -367.71,-112.56 -367.71,-112.56 27.33,102.77 29.83,181.56 7.5,236.38z"/>
 </g>
</svg>
