<?xml version="1.0" encoding="UTF-8"?>
<!DOCTYPE svg PUBLIC "-//W3C//DTD SVG 1.1//EN" "http://www.w3.org/Graphics/SVG/1.1/DTD/svg11.dtd">
<!-- Creator: CorelDRAW -->
<svg xmlns="http://www.w3.org/2000/svg" xml:space="preserve" width="210mm" height="297mm" version="1.1" style="shape-rendering:geometricPrecision; text-rendering:geometricPrecision; image-rendering:optimizeQuality; fill-rule:evenodd; clip-rule:evenodd"
viewBox="0 0 21000 29700"
 xmlns:xlink="http://www.w3.org/1999/xlink"
 xmlns:xodm="http://www.corel.com/coreldraw/odm/2003">
 <defs>
  <style type="text/css">
   <![CDATA[
    .fil0 {fill:#2B2A29}
   ]]>
  </style>
 </defs>
 <g id="Layer_x0020_1">
  <metadata id="CorelCorpID_0Corel-Layer"/>
  <path class="fil0" d="M7339.86 12789.43c-93.46,0 -169.22,75.76 -169.22,169.22 0,93.46 75.76,169.23 169.22,169.23 93.46,0 169.23,-75.77 169.23,-169.23 0,-93.46 -75.77,-169.22 -169.23,-169.22zm6989.23 0c93.45,0 169.22,75.76 169.22,169.22 0,93.46 -75.77,169.23 -169.22,169.23 -93.46,0 -169.23,-75.77 -169.23,-169.23 0,-93.46 75.77,-169.22 169.23,-169.22zm-5246.95 1561.96c-93.46,0 -169.23,75.77 -169.23,169.23 0,93.46 75.77,169.23 169.23,169.23 93.46,0 169.22,-75.77 169.22,-169.23 0,-93.46 -75.76,-169.23 -169.22,-169.23zm1739.18 1882.22c93.46,0 169.23,75.77 169.23,169.23 0,93.45 -75.77,169.22 -169.23,169.22 -93.46,0 -169.23,-75.77 -169.23,-169.22 0,-93.46 75.77,-169.23 169.23,-169.23zm1765.49 -1882.22c93.46,0 169.23,75.77 169.23,169.23 0,93.46 -75.77,169.23 -169.23,169.23 -93.46,0 -169.23,-75.77 -169.23,-169.23 0,-93.46 75.77,-169.23 169.23,-169.23zm-2671.6 -1552.92c504.45,-11.84 829.6,5.04 975.31,50.64 -20.64,1122.38 -144.54,1836.47 -602.67,2387.25 -333.9,-409.66 -694.58,-722.1 -1064.37,-1025.11 426.34,-86.48 691.44,-694.06 691.73,-1412.78zm32.06 -4420.62c-890.74,-920.85 -2213.52,-1057.91 -3403,-162.01 -1189.48,895.9 -1096.79,3826.28 821.77,5311.39 1918.56,1485.11 2861.34,2605.41 3458.01,3507.52 596.67,-902.11 1539.45,-2022.41 3458.01,-3507.52 1918.56,-1485.11 2016.97,-4411.18 821.77,-5311.39 -1195.2,-900.21 -2535.18,-755.5 -3427.35,187.12 -270.02,-243.59 -557.09,-365.44 -861.18,-365.44 -290.78,0 -580.14,113.45 -868.03,340.33zm-396.87 2988.44c39.15,-37.88 78.66,-64.48 118.48,-79.83 397.17,-53.93 800.47,-86.94 1209.91,-98.96 7.38,440.78 14.35,838.01 15.05,1197.83 -318.62,-51.73 -653.8,-48.01 -1005.55,11.08 -46.75,-349.46 -155.85,-706.92 -337.89,-1030.12zm-623.12 2545.7c-394.12,-330.44 93.08,-962.77 598.68,-1086.3 1.81,47.04 2.6,95.1 2.4,144.09 54.49,847.04 -212.46,1268.01 -601.08,942.21zm2254.36 -2656.42c-1.49,-51.42 77.55,-68.75 123.83,-73.06 101.74,-9.48 204.76,2.51 307.7,5.64 123.02,1369.19 59.63,2693.42 -190.17,3972.72 -211.13,249.14 -412.24,534.28 -598.95,877 -113.97,-209.17 -233.31,-396.9 -356.98,-568.09 578.15,-666.23 777.07,-2069.44 714.57,-4214.21zm-4104.94 -2107.4c1090.35,-1103.4 2613.03,-312.39 3747.35,1416.66 102.89,-156.84 208.98,-305.94 317.63,-446.62 147.14,217.15 305.01,412.23 473.52,585.27 -1115.89,-16.2 -2217.62,100.26 -3305.21,349.38 -288.16,-4.04 -434.35,77.17 -438.62,194.93 54.4,198.74 138.34,372 300.53,349.28 119.25,-33.64 239.13,-65.25 359.57,-94.81 226.86,-21.5 340.96,-38.94 340.96,-38.94 335.43,203.63 541.48,549.85 619.82,1021.14 -100.4,27.59 -202.1,59.41 -305.03,95.44 -534.56,277.78 -742.96,639.77 -625.22,1085.99 -113.88,-98.09 -227.67,-200.12 -340.85,-308.56 -1638.52,-1569.82 -2241.56,-3098.94 -1144.45,-4209.16zm4891.24 1384.33c-271.26,-60.43 -494.98,-300.89 -585.64,-707.21 1042.3,-1190.78 2269.47,-1607.73 3189.1,-677.12 1097.09,1110.22 494.07,2639.36 -1144.45,4209.16 -567.43,543.65 -1150.19,926.4 -1685.85,1459.67 202.58,-1322.46 260.48,-2161.29 243.22,-3500.64 -0.7,-54.63 91.52,-99.21 148.2,-101.67 127.91,-5.53 256.05,20.15 384.93,33.1 0,0 116.43,-157.05 349.26,-471.11 -172.65,-17.62 -345.02,-32.13 -517,-43.5 391.66,-212.91 635.44,-532.12 731.34,-957.56 -140.46,-134.41 -210.16,-125.93 -209.1,25.5 -75.79,259.91 -183.53,456.78 -346.83,603.33 -43.59,39.15 -101.06,73.2 -151.47,92.24 -28.63,-23.47 -47.02,-63.7 -55.17,-120.6 52.51,-49.49 85.3,-119.7 85.3,-197.55 0,-149.89 -121.51,-271.39 -271.4,-271.39 -149.89,0 -271.4,121.5 -271.4,271.39 0,102.46 56.8,191.66 140.58,237.85 -2.35,41.65 -13.56,80.37 -33.62,116.11zm-1143.89 -713.22c-131.57,-350.95 -293.03,-668.4 -479.25,-946.36 169.23,-132.4 326.09,-198.61 470.5,-198.61 151.71,0 307.54,76.61 467.47,229.84 -177.53,270.51 -332.03,577.2 -458.72,915.13z"/>
 </g>
</svg>
