<?xml version="1.0" encoding="UTF-8"?>
<!DOCTYPE svg PUBLIC "-//W3C//DTD SVG 1.1//EN" "http://www.w3.org/Graphics/SVG/1.1/DTD/svg11.dtd">
<!-- Creator: CorelDRAW -->
<svg xmlns="http://www.w3.org/2000/svg" xml:space="preserve" width="210mm" height="297mm" version="1.1" style="shape-rendering:geometricPrecision; text-rendering:geometricPrecision; image-rendering:optimizeQuality; fill-rule:evenodd; clip-rule:evenodd"
viewBox="0 0 21000 29700"
 xmlns:xlink="http://www.w3.org/1999/xlink"
 xmlns:xodm="http://www.corel.com/coreldraw/odm/2003">
 <defs>
  <style type="text/css">
   <![CDATA[
    .str0 {stroke:black;stroke-width:7.62;stroke-miterlimit:22.9256}
    .fil0 {fill:#2B2A29}
   ]]>
  </style>
 </defs>
 <g id="Layer_x0020_1">
  <metadata id="CorelCorpID_0Corel-Layer"/>
  <path class="fil0 str0" d="M16280.09 17421.08l388.4 -28.53c398.01,-1.62 186.66,-155.03 286.23,977.23 59.6,677.7 -1224.65,1376.63 -1511.66,201.46 -54.24,-222.12 36.19,-146.35 192.59,-162.45 242.76,-25.01 424.96,-82.74 566.03,-296.29 211.47,-320.15 28.51,-561.6 78.41,-691.42zm952.8 2481.59c63.3,0 114.61,51.31 114.61,114.61 0,63.3 -51.31,114.61 -114.61,114.61 -63.3,0 -114.61,-51.31 -114.61,-114.61 0,-63.3 51.31,-114.61 114.61,-114.61zm-3458.59 96.99c63.3,0 114.61,51.31 114.61,114.61 0,63.3 -51.31,114.61 -114.61,114.61 -63.3,0 -114.61,-51.31 -114.61,-114.61 0,-63.3 51.31,-114.61 114.61,-114.61zm-1477.2 13.64c63.3,0 114.61,51.31 114.61,114.61 0,63.3 -51.31,114.61 -114.61,114.61 -63.3,0 -114.61,-51.31 -114.61,-114.61 0,-63.3 51.31,-114.61 114.61,-114.61zm-3467.86 56.52c63.3,0 114.61,51.31 114.61,114.61 0,63.3 -51.31,114.61 -114.61,114.61 -63.3,0 -114.61,-51.31 -114.61,-114.61 0,-63.3 51.31,-114.61 114.61,-114.61zm-3973.13 -2.09c63.3,0 114.61,51.31 114.61,114.61 0,63.3 -51.31,114.61 -114.61,114.61 -63.3,0 -114.61,-51.31 -114.61,-114.61 0,-63.3 51.31,-114.61 114.61,-114.61zm2149.69 -2764.54l-1805.65 75.05 -115.72 -203.26c85.26,-54.6 255.77,186.16 396.6,59.48 265.95,-239.22 -8.55,-175.95 -100.5,-235.64 -370.35,-240.37 154.21,-1121.06 1042.73,-241.2 57.06,56.51 577.94,530.34 582.54,545.57zm5432.71 -1721.85c-160.35,802.21 -449.68,180.74 -374.89,-137.27 31.24,-132.81 167.82,-309.58 295.83,-363.26 122.06,-51.19 93.65,427.58 79.06,500.53zm-1543.72 -1439.82c206.01,2.37 1237.07,0.55 1354.23,-30.34l207.94 718.35c-219.59,63.53 -674.9,338.39 -805.18,529.12 -202.09,295.85 -192.82,702.24 179.45,844.83 343.22,131.47 698.73,-9.43 895.76,-303.98 251.44,-375.88 238.49,-607.67 288.75,-972.69l518.69 -80.87 16.81 1359.21 -27.36 989.41c-2.89,104.78 -2616.9,45.89 -2914.8,48.97l44.25 -1365.63c80.22,2.6 76.32,185.51 98.44,248.78 42.89,122.62 132.79,95.9 130.7,-67.64 -2.8,-218.56 -2.52,-437.01 -2.52,-655.82 0,-424.97 14.7,-840.73 14.84,-1261.7zm2086.07 -30.19l525.9 -15.95 19.96 16.9 -12.38 549.26 -497.28 86.6 -36.2 -636.81zm-2932.15 -1068.23c-241.64,0 -187.02,-345.15 -235.12,-420.23l-246.28 157.76c3.92,208.63 46.86,446.8 115.71,628.17 54.9,144.63 235.85,414.53 237.95,513.89l-614.07 13.01c-14.16,-667.95 -117.97,-782.99 -148.8,-1144.93 441.85,-160.14 445.39,-129.58 619.68,-627.18 111.61,-318.65 154.38,-638.53 299.99,-946.86 279.67,-592.21 1000.14,-514.92 1197.97,599.35 92.45,520.69 183.82,1714 -370.98,1995.2 -343.85,174.28 -535.88,-367.44 -564.54,-613.94 -60.34,-519.04 52.1,-612.72 198.33,-1044.84 -535.24,14.54 -489.84,434.2 -489.84,890.6zm3423.3 -1624.87c43.77,72.85 55.25,2274.47 9.32,2370.81 -65.35,67.66 -2225.84,196.14 -1950.43,-79.65 466.49,-570.97 526.18,-1248.99 478.59,-1959.12 -47.26,-705.33 -110.78,-443.6 457.95,-264.93 182.37,57.29 351.66,72.4 541.86,50.29 90.68,-10.54 425.79,-137.51 462.71,-117.4zm-1846.48 -2757.41l-27.86 -397.93 6.41 -15.08 228.29 -46.56 38.81 10.61 -245.65 448.96zm-359.65 -1020.74c-82.05,-468.69 576.5,-533.76 672.64,-137.16 116.23,479.5 -607.14,511.32 -672.64,137.16zm-4185.86 3562.43l103.69 359.02c40.29,20.73 380.8,-75.01 449.18,-90.86l-3.66 -15.82c-28.61,-343.4 -233.96,-381.84 2.29,-784.4 350.17,-502.99 818.51,-416.16 873,385.37 17.21,306.44 -91.95,496.26 -293.01,714.14 -725.31,786.02 -164.43,348.99 193.59,1091.01 121.54,251.9 164.61,555.77 125.89,831.83 -42.71,304.49 -394.47,255.53 -698.04,336.65 63.48,237.27 -31.73,181.01 463.47,145.81 -53.16,206.96 -577.52,444.97 -702.4,31.16 -173.72,-575.64 158.06,-749.07 198.48,-896.13 -80.66,-37.67 -462.36,-37.25 -523.67,10.49 -38.43,29.92 -145.9,339.1 -173.97,390.28l-39.49 4.16 -36.71 -348.76c-603.81,-319.17 -706.03,1673.31 1388.53,1241.43 224.93,-46.39 400.4,-152.58 551.98,-323.94 144.99,-163.89 1537.93,-297.46 1286.22,150.54 -45.31,80.64 -573.06,9.45 -747.46,29.31 -1410.82,160.61 -1830.55,1321.21 -1128.33,1757.84 381.75,237.37 1006.39,95.64 1286.6,-246.21 305.24,-372.38 237.95,-1134.17 -349.66,-1002.67l132.96 273.87c-112.3,53.27 -422.06,-364.45 -518.89,-6.69 86.24,96.28 225.43,82.72 293.17,315.4 42.28,145.2 32.89,385.69 -106.24,480.47 -538.23,366.67 -635.88,-989.4 94.79,-1345.38 200.96,-97.91 915.23,-113.79 1083.88,-14.54l-41.21 2571.24 -2482.39 71.11c-256.09,3.87 -151.94,18.76 -315.4,-115.12 -56.08,-45.94 -231.65,-99.32 -204.65,-195.58l380.39 96.83c56.38,-61.39 108.72,-261.85 141.06,-348.13 -102.54,-38.43 -354.87,96.75 -534.28,-3.53 -131.93,-73.74 -258.65,-155.01 -384.38,-239.07 -297.6,-198.98 -553.77,-312.08 -922.68,-309.31 -348.97,2.62 -690.2,14.21 -961.97,270.92 -409.96,387.25 -168.81,514.65 -122.05,887.31l-624.51 51.53 0.38 205.44 497.57 1.31 -111.34 2756.51c61.61,24.08 443.78,18.35 507.4,4.34l-37.55 -899.19 69.71 -0.44 35.47 392.9c64.77,15.79 181.59,40.97 244.59,15.35l2.1 -2265.48 1048.91 -16.32c-13,136.2 -475.06,349.45 -294.85,895.03 46.07,139.5 168.07,263.45 300.73,323.89 110.78,50.48 369.58,-17.58 440.38,-115.01l-170.54 -253.63c124.2,-75.99 174.61,172.35 362.37,158.4 85.91,-6.37 246.5,-173.78 267.42,-260.12 -188.85,-100.87 -797.7,-111.87 -522.35,-641.08 176.55,-339.34 600.2,-51.42 666.62,319.63 54.02,301.72 -45.59,693.53 -279.94,898.28 -518.97,453.4 -665,15.56 -985.51,135.65l129.49 400.73 -237.78 -55.38 -92.34 258.17c49.07,39.92 1391.88,428.63 1568.98,482.27l107.77 -218.11c-65.82,-78.74 -189.6,-152.46 -272.25,-217.16l25.94 -57.09 376.83 59.38c35.48,-59.64 95.55,-123.94 89.01,-194.5l-877.88 -290.1c25.9,-78.35 615.81,-94.98 941.74,-568.91 375.94,-546.63 -101.81,-918.14 -104.16,-1098.58l882.45 -11.51c6.83,524.59 -325.56,2563.47 -141.75,2853.54l372.53 -19.66c33.83,-43.46 38.01,-652.87 55.73,-757.73l163.97 304.52 69.93 -23.47 18.46 -2373.9c442.41,-8.61 2779.29,-73.97 3012.87,-57.49l-1.25 358.69 -195.97 -253.24c-168.04,100.22 -54.37,372.54 -71.46,596.42 -19.36,253.5 -53.59,349.66 -167.23,576.6 -146.95,293.48 -447.32,721.59 -806.1,723.73 -544.27,3.23 -522.87,-596.6 -448.1,-998.27 26.64,-143.13 99.56,-453.72 256.27,-502.39 215.38,-66.88 247.13,329.74 280.25,460.02l241.32 -43.7c19.93,-64.85 -14.97,-210.97 -22.41,-283.08l38 -24.4 249.82 251.8c230.41,-88.43 -48.79,-922.87 -971.69,-564.29 -458.76,178.24 -705.11,691.76 -721.11,1170.34 -18.13,542.53 385.07,948.8 933.21,917.83 677.67,-38.28 998.94,-712.93 1152.5,-714.49l11.97 1179.35c49.85,25.65 346.62,5.63 405.67,-7.62l-41.3 -839.66 34.46 -9.72 121.37 360.77 84.41 -12.79 15.42 -2356.89 816.67 0.41 40.25 2846.63c49.21,25.18 305.96,-15.33 368.3,-22.52 35.69,-56.09 9.79,-696.99 23.24,-813.56l132.66 330.25 94.28 -14.59 -30.31 -2329.65c287.71,-8.44 611.73,-30.01 896.28,-45.71 301.31,-16.62 463.61,-27.95 589.56,318.09 80.57,221.34 -50.84,585.11 -339.14,533.88 -204.17,-36.27 -613.99,-241.77 -515.48,245.05 175.86,869.16 774.95,1262.12 1597.54,918.21 194.87,-81.47 484.09,-339.61 583.47,-366.51l60.69 1148.96c36.44,18.07 375.38,-0.16 386.52,-22.62l-57.06 -861.32 40.65 -2.72 119.08 370.45 80.76 -11.34 -89.68 -2307.71 380.47 -94.3c95.91,-282.85 -734.62,-162.4 -890.94,-163.1 -515.53,-2.31 -2755.79,124.65 -2862.11,62.93 41.52,-1368.91 52.5,-1092.27 33.93,-3095.97l406.68 -31.01c20.48,-57.82 61.71,-179.72 60.88,-240.63l-508.97 -5.29 -70.09 -2553.6c638.31,151.5 1137.05,212.06 1560.46,-384.3 363.57,-512.07 294.34,-1154.46 -32.44,-1663.77 -333.47,-519.73 -560.27,-1056.99 -159.87,-1605.72 229.18,-314.09 -896.24,-258.13 -677.73,960.3 92.49,515.78 596.3,1144.23 490.69,1630.81 -110.26,507.98 -1033.26,902.05 -1276.22,310.7 -98.61,-240.01 -57.11,-672.24 81.27,-893.08 262.55,-419 306.61,-120.08 174.92,-732.35 -53.08,-246.77 -424.23,-1469.67 -526.89,-1650.98 -38.35,7.89 -477.85,1730.59 -520.68,1908.25 -133.48,553.66 267.72,316.73 318.82,802.28 30.58,290.48 35.82,793.7 -302.39,907.78 -954.38,321.9 -1145.83,-540.3 -824.99,-1240.7 275.34,-601.05 576.72,-1281.4 -56.61,-1778.47 245.46,-1076.15 -1037.02,-1342.45 -1411.86,-536.07 -261.65,562.87 318.47,731.09 332.75,1034.64 9.3,197.81 -112.96,1053.18 -434.93,985.78 -34.15,-148.24 173.75,-1085.27 -424.54,-960.87 -534.44,111.13 -243.61,990.63 -297.65,1070.88 -165.28,92.1 -378.5,-358.01 -419.39,-482.44 -96.81,-294.66 -19.42,-518.79 43.16,-800.2 -473.28,-0.55 -298.53,418.64 -415.61,667.96 -189.68,-16.48 -223.6,-333.77 -237.5,-489.84 -827.6,51.03 10.39,1291.23 891.45,1438.98 433.62,72.72 861.03,8.78 1267.67,-155.63 447.62,-180.99 615.31,-527.06 854.11,-645.08 -6.44,235 -196.8,596.21 -276.98,836.28 -41.56,124.4 -89.94,301.64 -119.22,429.99 -26.75,117.32 -31.25,474.47 -53.03,510.71 -103.2,50.77 -453.89,-552.17 -1035.21,-425.96 -936.93,203.4 -769.38,1379.9 -1143.27,1928.98 -230.56,338.58 -1041.57,98.56 -1112.85,-14.43 65.27,-168.62 682.74,-521.7 880.98,-944.78 452.12,-964.91 -1099.53,-1625.48 -2092.55,-979.28 -374.86,243.94 -715.67,789.21 -599.34,1241.26l455.48 26.15 108.58 -367.56z"/>
 </g>
</svg>
