<?xml version="1.0" encoding="UTF-8"?>
<!DOCTYPE svg PUBLIC "-//W3C//DTD SVG 1.1//EN" "http://www.w3.org/Graphics/SVG/1.1/DTD/svg11.dtd">
<!-- Creator: CorelDRAW -->
<svg xmlns="http://www.w3.org/2000/svg" xml:space="preserve" width="210mm" height="297mm" version="1.1" style="shape-rendering:geometricPrecision; text-rendering:geometricPrecision; image-rendering:optimizeQuality; fill-rule:evenodd; clip-rule:evenodd"
viewBox="0 0 21000 29700"
 xmlns:xlink="http://www.w3.org/1999/xlink"
 xmlns:xodm="http://www.corel.com/coreldraw/odm/2003">
 <defs>
  <style type="text/css">
   <![CDATA[
    .str0 {stroke:black;stroke-width:7.62;stroke-miterlimit:2.61313}
    .fil0 {fill:#1B1C20}
    .fil1 {fill:#FEFEFE}
   ]]>
  </style>
 </defs>
 <g id="Layer_x0020_1">
  <metadata id="CorelCorpID_0Corel-Layer"/>
  <path class="fil0 str0" d="M9731.83 5418.13l-419.9 82.05c-1787.59,349.25 -3832.99,1826.2 -4747.4,3389.07 -1761.33,3009.96 -769.15,7197.39 2163.79,9105.84l422.18 263.38c276.12,156.89 312.87,178.47 608.19,306.05 219.25,94.71 421.25,183.65 655.67,258.47 492.91,157.33 621.75,189.87 1118.75,255.01 136.68,17.91 255.6,42.34 406.24,53.22 8737.3,356.38 10275.55,-11315.34 2227.33,-13560.32 -182.94,-51.03 -371.27,-86.63 -559.9,-114.36l-195.89 -38.41c3.5,-153.23 93.28,-196.03 37.17,-457.21 -56.11,-261.18 -282.54,-550.44 -431.13,-626.61 -148.59,-76.17 -122.75,-51.42 -189.96,-72.05 -438.88,-134.74 -844,72.43 -1059.57,456.72 -90.56,161.4 -91.34,404.37 -57.67,581.72 7.37,39.14 61.17,109.8 22.1,117.43z"/>
  <path class="fil1 str0" d="M9426.98 15884.48c-21.27,29.25 -6.31,71.06 -92.17,87.7l-309.53 112.32c-164.51,87.73 -120.03,327.93 -150.21,485.18 -23.86,124.38 -26.6,250.23 -49.51,372.87 -54.91,293.99 -41.42,474.29 26.4,749.68 23.52,95.5 89.69,226.63 142.32,280.4 223.22,228.07 1439.43,321.63 1726.32,281.03 41.86,-5.93 33.35,-16.55 65.14,-43.82l166.75 -147.31c55.01,-51.38 116.87,-97.73 159.83,-161.45 31.65,-46.94 63.8,-84.56 68.89,-146.53 8.59,-104.54 -36.45,-267.23 -59.68,-368.65 -13.84,-60.39 -27.2,-109.51 -38.55,-171.92 -5.13,-28.21 -11.05,-51.6 -16.97,-83.54 -15.14,-81.55 3.16,-55.53 -24.15,-91.99l-438.57 30.36c28.23,-657.7 38.67,-1552.55 2.87,-2218.65 -9.22,-171.7 -69.95,-467.17 -103.38,-643.87 -18.8,-99.37 -26.63,-218.61 -54.03,-320.24 -30.54,-113.27 -51.72,-197.58 -61.29,-322.88 -15.52,-203.4 34.12,-202.86 85.05,-290.71 43.35,-74.8 -56.03,-108.6 -9.13,-321.15 34.08,-154.48 46.81,-149.57 95.54,-278.18 39.64,-104.61 74,-148.2 103.56,-277.36 22.55,-98.5 54.69,-198.97 80.3,-291.13 17.84,-64.19 30.47,-155.04 75.53,-204.83 33.98,-37.54 65.16,-53.46 94.34,-100.42 10.65,-17.13 20.79,-42.98 29.56,-63.25 23.56,-54.5 23.64,-96.41 27.01,-161.37 6.2,-119.73 -19.99,-462.28 1.5,-547.09 18.02,-71.11 67.87,-265.08 8.39,-323.11 -37.35,-36.43 -62.32,-61.65 -115.74,-79.81 -46.32,-15.75 -91.07,-25.7 -130.23,-54.82 -20.18,-15.01 -64.7,-90.38 -67.3,-110.17 -14.13,-107.74 -68.17,-95.37 -169.59,-203.43l-187.45 -185.03c-63.03,-54.71 -121.57,-138.9 -177.69,-203.55 -103.23,-118.92 -83.57,-100.69 -54.9,-267.75 18.11,-105.54 57.35,-196.39 86.3,-293.87 20.11,-67.71 68.09,-165.54 52.08,-231.55 -5.77,-23.82 3.19,-47.74 4.28,-64.35 4.49,-67.93 78.61,-162.75 116.63,-217.86 32.04,-46.45 102.08,-192.9 123.5,-249.87 36.46,-96.99 79.88,-167.47 125.39,-254.88 76.93,-147.76 121.89,-142.85 122.3,-261.67 0.32,-93.48 -27.05,-283.07 2.71,-357.92 92.39,-8.12 94.31,31.76 116.62,107.75 18.23,62.1 9.42,161.87 38.04,211.4 28.45,-13.38 36.19,-32.14 63.21,-59.06 20.77,-20.69 40.01,-42.71 61.79,-65.21 43.92,-45.37 73.85,-99.48 112.06,-138.62 103.51,112.91 -78.38,265.11 -115.08,365.53 -4.17,11.4 -7.48,20.49 -7.98,37.43 -0.48,16.79 -1.01,0.74 0.74,16.72 5.44,49.69 75.86,38.91 156.11,52.11 45.55,7.49 105.82,16.05 133.23,41.44l4.1 4.5c45.64,85.39 -276.54,60.78 -290.51,61.67 12.6,29.08 27.47,63.16 50.24,87.62 30.81,33.07 104.27,40.98 63.91,74.81 -66.47,55.72 -141.05,-60.03 -236.23,-29.02 -74.35,87.6 -129.94,116.45 -191.09,205.95 -34.01,49.77 -26.53,134.8 -42.78,194.25 -13.64,49.94 -36.98,69.45 -33.81,128.88 126.09,37.04 0.67,203.24 -28.93,290.73 -37.97,112.25 -43.45,190.56 -44.79,318.35 -1.6,153.25 27.5,166.31 119.61,234.68 72.72,53.97 146.95,91.28 224.15,140.09 189.36,119.73 388.89,211.24 592.61,303.97 81.27,36.99 182.61,63.77 260.62,105.16 37.57,19.93 83.74,43.98 122.48,62.89 31.78,-13.59 166.93,-62.52 179.34,-84.17 38.32,-66.88 -41.31,-86.4 -74.42,-113.93 -14.13,-11.75 -20,-21.26 -35.18,-32.58l-87.8 -48.63c-29.96,-24.47 -9.18,-12.28 -28.32,-39.33 -17.1,-24.17 -19.09,-13.06 -32.45,-45.56 19.66,-46.93 67.54,-69.98 55.46,-135.48 -6.82,-36.96 -0.91,-30.31 8.39,-74.97 0.27,-1.33 0.94,-3.81 1.1,-5.05 0.14,-1.11 0.47,-3.59 0.49,-4.62 0.01,-0.96 -0.11,-3.41 -0.23,-4.29 -0.1,-0.86 -0.69,-3.22 -0.92,-4.03 -0.23,-0.8 -1.23,-3.04 -1.56,-3.8l-23.01 -30.22c42.05,-69.97 33.97,-72.41 123.01,-136.26 25.92,-18.59 39.01,-48.59 34.23,-82.92 -4.5,-32.23 -12.57,-22.76 -13.89,-43.3 -5.57,-86.7 80.19,-250.06 153.38,-301.12 51.7,-36.08 87.92,-38.49 129.73,-64.38 20.88,-12.92 1.77,-6.39 22.14,-11.91 51.85,-14.06 64.71,17.98 78.15,24.87 22.01,11.27 72.68,9.59 105.23,12.66 311.26,29.38 230.42,50.84 302.65,95.98 10.36,6.47 24.44,11.39 35.82,18.53 18.77,-8.97 -1.02,1.6 21.37,-15.5 1.89,-1.44 7.69,-6.05 9.73,-7.56 1.56,-1.15 3.65,-2.61 5.23,-3.75 48.15,-34.87 15.56,-23.87 40.5,-50.44 33.55,-35.73 102.72,-16.84 143.42,-16.15 132.26,2.26 403.67,-231.98 414.62,157.82 1.53,54.52 -9.17,109.82 -26.28,152.01l-67.9 109.57c-45.4,77.78 -39.86,143.07 -73.29,196.2 -109.61,174.19 -43.7,76.35 -46.26,313.16 -0.81,75.24 -18.93,87.33 -51.28,124.6 -33.13,38.17 -48.14,57.27 -88.77,88.25l-69.11 58.2c-21.49,16.6 -10.74,11.01 -25.52,25.1l-95.97 92.94 42.48 35.93c47.81,65.66 1.06,69 12.49,121.32 11.08,50.72 134.23,191.55 170.45,246.19 180.67,272.52 219.03,916.62 435.85,1223.69 174.68,247.39 225.38,360.62 364.3,634.42 78.55,154.81 122.86,309.97 240.68,428.87l76.5 84.29c44.81,48.57 36.64,47.45 35.64,129.31 -0.94,77.32 26.49,221.63 44.48,299.81 19.65,85.39 45.52,200.78 38.66,293.34 -5.32,71.8 -9.65,80.05 -64.3,107.21 -32.06,15.93 -66.51,54.91 -121.71,27.63 -46.04,-22.28 -89.27,-141.68 -100.68,-189.46 -20.27,-84.93 -33.57,-159.7 -57.71,-238.29 -11.64,-37.91 -32.64,-69.34 -37.3,-106.48 -22.21,-177.07 25.99,-97.46 -94.87,-193.75 -28.29,-22.54 -61.38,-41.64 -86.65,-67.7 29.31,-105.92 155.13,-81.36 30.41,-198.01 -117.33,-109.73 -248.78,-265.14 -347.49,-389.18l-132.75 -163.44c-85.48,-92.81 -272.11,-512.86 -345.8,-678.69 -8.89,-20.01 -15.57,-34.88 -25.11,-51.17 -11.8,-20.14 -17.88,-31 -41.07,-33.51 -46.92,110.01 6.21,381.28 16.51,498.17 15.21,172.74 6.91,370.95 13.07,549.54 6.07,175.55 48.67,279.36 44.91,508.62 -2.89,175.87 -14.35,371.98 -2.04,546.03 9.34,8.48 27.87,17.81 39.66,27.78 116.42,98.45 95.4,59.81 111.12,229.72 4.6,49.74 18.11,59.57 30.4,100.96 17.21,57.97 16.13,49.74 51.16,85.88 16.16,16.67 14.77,22.53 29.85,38l114.32 90.03c39.71,23.71 52.81,26.57 86.33,57.19 182.61,166.83 218.54,301.08 339.82,480.37l395.78 561.19c19.14,27.09 41.4,42.85 70.9,64.27 12.42,9.03 5.59,5.18 21.08,12.34l63.58 38.86c53.28,50.14 159.19,91.81 206.59,208.1 62.5,153.37 -34.97,344.32 288.9,527.98 49.32,-30.85 58.47,-62.11 93.78,-96.35 36.4,-35.29 56.59,-64.77 86.79,-99.36 1311.66,-1452.49 1760.76,-3327.54 1450,-5066.47 -310.76,-1738.93 -1383.31,-3341.43 -3113.43,-4240.27 -384.98,-200.01 -670.35,-301.11 -1079.01,-436.35 -262.78,-86.96 -663.06,-149.67 -953.5,-191.35 -2426.99,-348.27 -4557.1,967.6 -5902.76,2934.95 -1771.03,2589.23 -525.48,6667.69 2162.31,8156.66 31.76,17.6 94.53,61.32 126.89,73.43 29.44,-72.09 -117.24,-147.59 -68.64,-277.43 25.62,-68.44 22.32,-185.76 -6.85,-261.76 -16.81,-43.79 -17.79,-30.66 -37.75,-63.98 -53.04,-88.5 -108.62,-202.12 -30.9,-283.44 59.37,-62.12 188.73,5.93 261.5,-43.29 96.86,-65.52 176.01,-161.36 246.51,-252.82 131.54,-170.63 78.08,-188.93 30.17,-267.12 -46.96,-76.65 -81.42,-209.92 -76.12,-317.73 3.51,-71.5 30.14,-114.25 -23.9,-166.44 -50.01,-48.3 -50.17,-61.21 -49.21,-154.59 0.78,-75.59 50.23,-319.15 28.24,-357.13 -16.09,-27.78 -91.65,-68.81 -105.83,-97.84 -42.85,-87.76 20.55,-214.1 17.76,-246.02 -1.51,-17.32 -22.56,-54.53 -30.83,-71 -98.65,-196.47 62.21,-486.39 -96.38,-495.03 -42.48,-2.31 -93.86,49.1 -113.16,77.12 -104.91,152.31 76.18,948.95 -241.23,980.94 -28.74,2.89 -135.3,-34.13 -156.87,-47.69 1.67,-83.1 52.98,-79.07 84.54,-112.01 15.75,-16.44 76.82,-102.53 84.07,-127.82 27.27,-95.1 60.61,-251.68 39.45,-357.89 -55.11,-6.4 -88.47,17.67 -126.44,-9.12 -24.38,-17.2 -10.55,-16.64 -38.14,-38.78 -16.63,-13.34 -31.27,-17.3 -45.88,-27.6 -5.28,-106.49 64.19,-82.94 89.74,-129.83 6.62,-12.16 16.84,-42.15 22.49,-56.05 29.12,-71.55 19.67,-192.15 19.5,-281.17 -0.27,-140.78 4.44,-255.06 70.44,-372.36 18.53,-32.92 53.16,-64.91 55.45,-93.31 -44.51,-26.97 -144.25,-26.53 -204.52,-61.56 23.39,-184.71 72.75,-67.97 75.65,-471.84 1.38,-193.53 -37.71,-262.04 64.38,-313.17 19.97,-10 -3.72,-4.13 26.16,-9.41 44.03,-7.78 82.71,-2.15 128.3,-13.6 10.03,-120.33 -21.84,-60.77 -37.18,-137.75 -12.32,-61.82 14.54,-99.46 36.15,-135.22 151.92,-251.41 -60.37,-272.54 -37.91,-359.99 6.84,-26.62 22.6,-27.76 45.49,-38.2 27.72,-12.64 28.42,-23.48 55.43,-20.6 119,12.71 111.87,154.4 173.32,172.52 36.4,0.16 84.26,-32.66 99.9,-61.19 72.09,-131.48 100.09,-202.89 112.3,-378.65 14.29,-205.65 -17.7,-399.38 -126.29,-526.38 -132.4,-154.86 -242.7,-148.87 -472.1,-72.9 -227.25,75.27 -458.72,195.25 -679.67,295.03 -238.27,107.61 -273.94,65.9 -375.74,-159.24 -56.81,-125.63 -55.22,-115.56 -55.1,-273.49 0.11,-157.42 99.65,-237.95 96.61,-389.55 -1.44,-71.57 -23.86,-71.93 13.41,-133.86 27.45,-45.61 104.57,-157.15 92.3,-229.05 -12.37,-72.48 -26.51,-222.08 -51.82,-280.97 -79.2,-18.61 -241.24,6.86 -334.11,-4.08l-7.31 -106.75 322.47 0.6c12.53,-44.42 -37.07,-103.5 -1.83,-119.68l100.18 -46c31.48,-10.71 45.5,10.58 63.49,-14.55 11.04,-15.43 -11.01,-52.25 5.39,-72.87 16.4,-20.62 56.32,-22.69 67.33,12.77 11.93,38.41 7.84,100.09 27.51,131.78 58.53,3.97 36.51,-84.16 76.32,-58.37 51.82,33.57 -10.86,108.03 5.4,155.24l538.38 3.03c43.89,-68.02 21.55,-71.51 88.35,-130.99 91.38,-81.37 225.1,-78.46 312.75,2.32 48.08,44.32 46.02,90.94 81.88,137.88 23.12,1.06 136.48,6.28 150.7,-10.93 15.07,-28.1 3.6,-86.39 10.82,-124.19 141.55,-293.54 -294.4,83.66 -88.79,-237.07 -31.55,-78.89 -131.76,-86.5 -39.46,-142.81 -1.73,-130.3 -15.96,-68.53 -66.15,-120.56 -53.3,-55.26 1.4,-76.87 13.68,-117.63 -7.88,-88.98 -112.47,-37.92 -49.69,-145.12 23.11,-30.84 72.63,-24.83 51.63,-74.77 -123.7,-170.13 12.21,-49.28 2.23,-169.27 -8.64,-103.83 -117.12,-83.97 100.32,-119.75 -15.72,-88.11 -54.43,-137.58 41.04,-152.51 101.65,-15.91 59.5,-27.97 80.41,-159 2.38,-14.95 125.06,9.71 156.48,5.29 2.16,-27.88 -8.49,-49.26 -12.56,-70.41 75.92,-44.74 95.59,8.19 170.55,-31.92l3.04 -80.43c79.52,-10.21 127.71,23.47 168.77,-18.11 -8.86,-41.64 -45.68,-79.15 -55.95,-120.39 -4.96,-11.93 -46.35,-109.33 -44.19,-116.25 1.08,-3.45 15.96,-14.17 33.72,-17.39 82.62,-15.02 155.3,73.06 193.11,86.57 14.48,5.18 30.88,5.54 50.93,5 4.88,-24.14 4.28,-47.99 4.42,-71.23l7.11 -48.16c3.56,-23.59 -3.75,-98.37 15.98,-125.58 22.43,-30.92 37,-7.45 59.02,6.27 27.18,19.29 37.5,103.94 42.17,148.21 65.05,27.38 1.26,78.01 75.92,79.66 22.91,-70.05 1.21,-82.15 78.4,-105.37 51.63,-15.54 82.8,-24.56 119.84,12.03 16.51,17.4 -8.25,30.02 -22.22,70.14 -16.87,48.44 -86.57,128.17 -89.21,163.44 -1.86,24.82 3.74,25.02 23.4,23.28 21.32,-1.89 25.99,-14.48 51.62,-21.4 47.15,-12.71 46.9,-7.53 82.17,8.44 7.79,42.47 2.25,93.04 36.59,115.35 43.63,29.15 120.54,-15.4 132.36,38.13 7.83,35.44 -16.69,97.38 18.12,124.47 36.82,28.66 95.42,-4.17 128.83,72.84l12.8 39.61c0.88,2.38 4.42,10.85 5.76,13.33l-35.37 0c25.6,56.35 66.47,21.74 96.37,62.87 34.05,46.83 7.97,64.89 12.08,126.72 93.17,39.09 25.43,42.99 83.4,81.34 -15.77,63.78 -17.25,76.51 40.62,110.07 -22.46,22.91 -21.39,13.88 -28.22,53.92 -3.02,17.66 -10.96,50.85 -9.98,53.49 31.11,63.98 96.93,-2.73 38.28,163.52l22.73 23.2c12.05,10.95 17.16,14.56 27.81,23.27 97.3,79.6 16.14,72.6 -38.18,122.87l2.63 116.79 -71.75 1.31c-25.32,46.84 -52.6,34.48 -63.54,79.23 -13.33,54.59 9.8,64.88 -39.45,71.48l-17.08 2.12c-35.47,109.1 27.17,129.71 43.84,205.21 9.47,42.89 0.16,82.61 7.46,120.13 8.78,45.07 36.33,40.75 62.67,70.94 34.92,40.02 37.02,25.27 27.44,88.09 -7.44,48.71 -12.65,84.88 17,113.1 22.62,21.52 53.22,26.53 79.47,47.67 18.65,15.02 39.72,46.42 64.23,70.88 94.2,94.01 165.93,143.72 225.07,299.29 32.08,84.4 -0.98,139.02 -20.86,208.78 -44.37,155.67 -106.83,205.21 -212.58,311.96 -141.29,142.62 -295.22,181.16 -401.74,386.05 -39.22,75.43 -60.71,93.67 -66.92,194.37 -5.08,82.4 0.07,168.1 15.78,247.12 14.4,72.41 82.44,380.03 105.12,427.33 74.47,23.67 428.64,-134.97 266.23,77.47 -39,51 -95.41,126.17 -110.48,194.77 -42.34,192.68 79.01,437.15 159.81,580.08 46.29,81.88 77.54,104.56 132.22,164.45 178.8,195.84 473.35,533.67 192.68,555.3 -13.03,62.76 -17.66,71.98 9.29,140.31 71.88,182.25 61.96,434.87 165.17,680.57 136.26,324.41 167.26,305.18 -216.71,209.87 -31.9,40.53 -23.84,142.15 -32.09,202.49 -20.44,149.57 -54.32,240.03 -124.79,368.47 -20.4,37.18 -37.17,84.63 -79.78,99.51 -50.79,17.74 -7.7,2.62 -36.98,-5.02 -7.38,20.57 -17.77,22.92 -40.54,34.38 -42.68,21.47 -17.51,67.04 -48.7,104.6 -46.12,55.54 -68.15,50.23 -139.51,59.43l-104.95 68.55z"/>
  <path class="fil1 str0" d="M11518.01 18181.64c746.72,-27.22 2498.45,-850.4 3015.73,-1435.11 -15.56,-47.81 -126.68,-187.13 -163.89,-220.76l-150.31 -137.58c-16.53,-16.48 -31.24,-37.05 -47.99,-53.59 -82.41,-81.39 -228.44,-199.38 -302.04,-282.2 -32.07,-36.09 -57.28,-71.21 -117.12,-41.42 -306.77,152.68 -397.5,340.61 -700.9,457.4 -179.36,69.04 -341.5,159.61 -540.87,229.93 -251.45,88.7 -657.92,220.38 -908.61,258.44 -73.11,11.1 -132.75,-11.57 -46.1,154.16 39.69,75.92 48.53,345.28 50.68,440 2.85,126.04 40.92,232.83 18.34,354.5 -17.4,93.78 -105.93,239.21 -106.92,276.23z"/>
  <path class="fil1 str0" d="M8361.38 17816.55l109.91 -338.26c42.37,-116.31 79.72,-222.09 89.82,-359.05 16.39,-222.44 -88.34,-582.82 -182.08,-712.51 -80.43,-2.27 -116.68,82.8 -149.21,152.42 -77.54,165.91 -280.01,396.62 -314.96,581.01 -29.18,154.01 -35.13,245.21 -40.13,402.6 -1.95,61.4 2.9,72.23 55.64,96.71 71.04,32.98 135.37,61.23 207.97,89.38 61.09,23.7 164.46,80.36 223.04,87.7z"/>
  <path class="fil1 str0" d="M12836.79 13822.12c66.44,-118.66 -40.84,-877.91 -64.51,-1058.3 -14.03,-106.88 -56.97,-430.9 -49.74,-518.84 11.29,-137.25 3.48,-425.15 -14.59,-560.09 -223.3,92.76 -279.12,194.29 -401.95,382.1 -81.01,123.85 -25.21,162.16 16.4,291.23 32.52,100.9 66.31,196.6 90.27,307.74 61.9,287.14 86.19,325.87 212.99,574.53 56.03,109.87 133.84,305.8 162.94,429.78 12.24,52.16 17.41,122.14 48.19,151.85z"/>
  <path class="fil1 str0" d="M10510.89 4687.94c-252.9,39.7 -386.41,270.51 -348.21,500.92 32.57,196.45 239.55,393.16 491.92,340.91 293.71,-60.81 517.85,-478.2 174.48,-753.9 -78.29,-62.86 -182.23,-109.28 -318.19,-87.93z"/>
  <path class="fil1 str0" d="M6821.16 10578.91c-28.94,37.61 -20.47,13.43 -55.94,37.75 -15.16,30.31 -23.26,160.41 -7.81,191.28 2.52,3.3 -9.53,38.05 67.37,-13.98 26.84,-18.16 41.96,-27.63 64.83,-45.21 76.82,-59.05 184.67,-130.83 284.86,-147.63 70.03,-11.75 125.89,-5.55 181.29,-37.57 15.55,-114.64 3.33,-118.3 67.02,-196.3 54.87,-67.19 166.48,-12.23 206.34,-55.82l5.4 -60.45c0.65,-32.77 8.23,-19.07 20.37,-49.01 -44.49,-39.77 -52.77,-32.37 -78.02,-100.14 -17.06,-45.82 -26.98,-108.23 -44.42,-141.4 -233.68,1.84 -638.31,-90.11 -625.47,199.78 2.36,53.41 -8.22,95.99 -28.57,137.3 -136.97,278.08 8.04,196.51 -57.25,281.4z"/>
  <path class="fil1 str0" d="M14269.67 17419c-62.15,8.78 -83.19,14.47 -118.4,55.05 -25.07,28.89 -47.02,106.63 -41.34,152.59 28.63,231.84 381.98,180.87 354,-52.93 -9.91,-82.82 -82.93,-170.42 -194.26,-154.71z"/>
  <path class="fil1 str0" d="M9403.3 18464.4c-94.59,8.13 -173.61,87.16 -159.24,187.05 12.35,85.79 78.53,189.63 195.57,167.54 106.62,-20.11 165.24,-77.54 163.08,-195.42 -1.64,-89 -85.25,-168.97 -199.41,-159.17z"/>
  <path class="fil1 str0" d="M12022.55 18407.98c-41.11,6.42 -99.83,24.83 -123.07,46.71 -30.1,28.32 -59.28,83.33 -54.33,132.43 26.56,263.58 365.11,217.34 359.54,-6.71 -1.97,-79.37 -74.84,-189.21 -182.14,-172.43z"/>
  <path class="fil1 str0" d="M7022.49 17468.08c-43.77,11.19 -87.44,19.9 -115.08,48.35 -80.25,82.55 -103.65,285.2 141.39,306.25 84.15,7.23 170.55,-85.47 163.72,-195.61 -4.62,-74.49 -99.37,-182.17 -190.03,-158.99z"/>
  <path class="fil1 str0" d="M8067.96 8887.18c-34.98,170.27 -24.92,241.1 63.79,364.39 15.07,20.95 17.18,18.8 34.3,25.56 20.08,7.92 29.84,16.88 61.11,6.64 49.19,-16.11 31.78,-75.71 23.65,-118.41 -22.44,-117.79 3.36,-171.94 -80.66,-223.56 -40.41,-24.83 -55.24,-51.3 -102.19,-54.62z"/>
  <path class="fil1 str0" d="M9227.17 8849.89c67.03,-8.08 105.63,-16.81 154.1,-45.29 1.28,-77.28 -20.38,-105.39 -84.16,-185.36 -37.19,-46.63 -77.51,-115.05 -160.59,-111.41 -2.77,103.71 35.72,89.07 53.94,156.78 16.42,61.01 21.2,128.41 36.71,185.28z"/>
  <path class="fil1 str0" d="M8316.05 8772.03c61.94,-216.64 28.73,-106.56 102.21,-228.63 6.97,-11.58 15.73,-30.05 21.49,-37.94 16.53,-22.66 11.97,-7.39 30.01,-30.97 -64.94,0.58 -62,-1.74 -136.49,26.12 -67.81,25.37 -198.96,129.52 -130.27,196.42 17.68,17.22 35.04,23.57 54.5,38.59 27.15,20.96 14.98,28.61 58.55,36.41z"/>
  <path class="fil1 str0" d="M9289.26 9291.02c56.53,-14.79 154.45,-180.23 132.27,-295.98 -19.64,-1.5 -69.64,13.87 -101.26,19.95 -55.29,10.62 -46.54,11.96 -58.84,66.79 -15.42,68.74 -17.07,161.48 27.83,209.24z"/>
 </g>
</svg>
