<?xml version="1.0" encoding="UTF-8"?>
<!DOCTYPE svg PUBLIC "-//W3C//DTD SVG 1.1//EN" "http://www.w3.org/Graphics/SVG/1.1/DTD/svg11.dtd">
<!-- Creator: CorelDRAW -->
<svg xmlns="http://www.w3.org/2000/svg" xml:space="preserve" width="210mm" height="297mm" version="1.1" style="shape-rendering:geometricPrecision; text-rendering:geometricPrecision; image-rendering:optimizeQuality; fill-rule:evenodd; clip-rule:evenodd"
viewBox="0 0 21000 29700"
 xmlns:xlink="http://www.w3.org/1999/xlink"
 xmlns:xodm="http://www.corel.com/coreldraw/odm/2003">
 <defs>
  <style type="text/css">
   <![CDATA[
    .str0 {stroke:#2B2A29;stroke-width:7.62;stroke-miterlimit:22.9256}
    .fil1 {fill:none}
    .fil0 {fill:#2B2A29}
   ]]>
  </style>
 </defs>
 <g id="Layer_x0020_1">
  <metadata id="CorelCorpID_0Corel-Layer"/>
  <g>
   <path class="fil0" d="M9422.81 16980.26c52.89,0 95.76,39.87 95.76,89.04 0,49.18 -42.87,89.05 -95.76,89.05 -52.88,0 -95.76,-39.87 -95.76,-89.05 0,-49.17 42.88,-89.04 95.76,-89.04zm888.5 -7712.83c97.75,0 176.98,79.23 176.98,176.98 0,97.75 -79.23,176.98 -176.98,176.98 -97.75,0 -176.98,-79.23 -176.98,-176.98 0,-97.75 79.23,-176.98 176.98,-176.98zm3371.5 9622.4c79.46,0 143.87,64.41 143.87,143.87 0,79.46 -64.41,143.87 -143.87,143.87 -79.46,0 -143.87,-64.41 -143.87,-143.87 0,-79.46 64.41,-143.87 143.87,-143.87zm-2129.9 1045.42c79.46,0 143.87,64.41 143.87,143.87 0,79.46 -64.41,143.87 -143.87,143.87 -79.46,0 -143.87,-64.41 -143.87,-143.87 0,-79.46 64.41,-143.87 143.87,-143.87zm-2533.39 -10.96c79.46,0 143.87,64.41 143.87,143.87 0,79.46 -64.41,143.87 -143.87,143.87 -79.46,0 -143.87,-64.41 -143.87,-143.87 0,-79.46 64.41,-143.87 143.87,-143.87zm-1991 -1020.92c79.46,0 143.87,64.41 143.87,143.87 0,79.46 -64.41,143.87 -143.87,143.87 -79.46,0 -143.87,-64.41 -143.87,-143.87 0,-79.46 64.41,-143.87 143.87,-143.87zm2575.44 -1801.79c53.29,0 96.48,40.78 96.48,91.06 0,50.3 -43.19,91.07 -96.48,91.07 -53.28,0 -96.47,-40.77 -96.47,-91.07 0,-50.28 43.19,-91.06 96.47,-91.06zm234.03 105.87c52.4,0 94.86,40.08 94.86,89.52 0,49.45 -42.46,89.53 -94.86,89.53 -52.38,0 -94.84,-40.08 -94.84,-89.53 0,-49.44 42.46,-89.52 94.84,-89.52zm248.14 98.68c52.39,0 94.84,40.08 94.84,89.53 0,49.44 -42.45,89.52 -94.84,89.52 -52.4,0 -94.85,-40.08 -94.85,-89.52 0,-49.45 42.45,-89.53 94.85,-89.53zm248.11 87.4c52.4,0 94.86,40.09 94.86,89.53 0,49.44 -42.46,89.53 -94.86,89.53 -52.38,0 -94.84,-40.09 -94.84,-89.53 0,-49.44 42.46,-89.53 94.84,-89.53zm265.05 56.4c52.39,0 94.84,40.09 94.84,89.53 0,49.43 -42.45,89.52 -94.84,89.52 -52.39,0 -94.85,-40.09 -94.85,-89.52 0,-49.44 42.46,-89.53 94.85,-89.53zm270.68 -19.74c52.39,0 94.85,40.09 94.85,89.53 0,49.44 -42.46,89.53 -94.85,89.53 -52.39,0 -94.85,-40.09 -94.85,-89.53 0,-49.44 42.46,-89.53 94.85,-89.53zm267.86 -84.58c52.39,0 94.85,40.09 94.85,89.53 0,49.44 -42.46,89.53 -94.85,89.53 -52.39,0 -94.85,-40.09 -94.85,-89.53 0,-49.44 42.46,-89.53 94.85,-89.53zm234.04 -95.86c52.38,0 94.84,40.08 94.84,89.52 0,49.44 -42.46,89.53 -94.84,89.53 -52.39,0 -94.85,-40.09 -94.85,-89.53 0,-49.44 42.46,-89.52 94.85,-89.52zm-2174.63 -60.84c52.89,0 95.76,39.87 95.76,89.04 0,49.18 -42.87,89.05 -95.76,89.05 -52.88,0 -95.76,-39.87 -95.76,-89.05 0,-49.17 42.88,-89.04 95.76,-89.04zm160.72 163.54c52.88,0 95.76,39.86 95.76,89.04 0,49.18 -42.88,89.04 -95.76,89.04 -52.89,0 -95.76,-39.86 -95.76,-89.04 0,-49.18 42.87,-89.04 95.76,-89.04zm211.47 157.9c52.88,0 95.76,39.87 95.76,89.04 0,49.18 -42.88,89.05 -95.76,89.05 -52.89,0 -95.76,-39.87 -95.76,-89.05 0,-49.17 42.87,-89.04 95.76,-89.04zm200.19 149.44c52.89,0 95.76,39.87 95.76,89.04 0,49.18 -42.87,89.04 -95.76,89.04 -52.88,0 -95.76,-39.86 -95.76,-89.04 0,-49.17 42.88,-89.04 95.76,-89.04zm208.65 166.36c52.89,0 95.76,39.87 95.76,89.04 0,49.18 -42.87,89.04 -95.76,89.04 -52.88,0 -95.76,-39.86 -95.76,-89.04 0,-49.17 42.88,-89.04 95.76,-89.04zm231.2 112.79c52.89,0 95.77,39.87 95.77,89.04 0,49.18 -42.88,89.05 -95.77,89.05 -52.87,0 -95.76,-39.87 -95.76,-89.05 0,-49.17 42.89,-89.04 95.76,-89.04zm267.87 107.14c52.89,0 95.76,39.86 95.76,89.04 0,49.18 -42.87,89.04 -95.76,89.04 -52.88,0 -95.76,-39.86 -95.76,-89.04 0,-49.18 42.88,-89.04 95.76,-89.04zm256.59 11.29c52.88,0 95.76,39.86 95.76,89.04 0,49.17 -42.88,89.04 -95.76,89.04 -52.89,0 -95.76,-39.87 -95.76,-89.04 0,-49.18 42.87,-89.04 95.76,-89.04zm273.5 -16.91c52.89,0 95.76,39.86 95.76,89.04 0,49.18 -42.87,89.04 -95.76,89.04 -52.88,0 -95.76,-39.86 -95.76,-89.04 0,-49.18 42.88,-89.04 95.76,-89.04zm236.85 -64.86c52.89,0 95.77,39.86 95.77,89.04 0,49.18 -42.88,89.04 -95.77,89.04 -52.88,0 -95.76,-39.86 -95.76,-89.04 0,-49.18 42.88,-89.04 95.76,-89.04zm248.13 -129.71c52.88,0 95.76,39.87 95.76,89.05 0,49.17 -42.88,89.04 -95.76,89.04 -52.89,0 -95.76,-39.87 -95.76,-89.04 0,-49.18 42.87,-89.05 95.76,-89.05zm200.18 -177.63c52.88,0 95.76,39.87 95.76,89.04 0,49.18 -42.88,89.05 -95.76,89.05 -52.89,0 -95.76,-39.87 -95.76,-89.05 0,-49.17 42.87,-89.04 95.76,-89.04zm157.9 -186.1c52.89,0 95.76,39.87 95.76,89.04 0,49.18 -42.87,89.05 -95.76,89.05 -52.88,0 -95.76,-39.87 -95.76,-89.05 0,-49.17 42.88,-89.04 95.76,-89.04zm155.07 -222.74c52.89,0 95.76,39.86 95.76,89.03 0,49.18 -42.87,89.05 -95.76,89.05 -52.88,0 -95.76,-39.87 -95.76,-89.05 0,-49.17 42.88,-89.03 95.76,-89.03zm-1689.14 -7448.41c2757.44,0 4992.79,2235.35 4992.79,4992.79 0,930.85 -255.03,1802.01 -698.6,2547.96 -235.63,-119.36 -337.31,-278.37 -523.43,-296.79 -196.21,-549.12 -443.83,-659.05 -681.98,-661.25 33.97,-227.3 -119.15,-346.57 -300.34,-459.35 -295.9,-97.51 -368.92,-276.15 -349.98,-488.12 15.88,-210.39 -16.54,-392.54 -89.89,-550.9 -150.09,-214.3 -211.62,-397.5 -183.22,-549.32 62.38,-198.4 34.31,-404.46 -29.44,-613.27 -117.92,-156.44 -232.87,-241.96 -183.5,-359.95 23.99,-123.23 -4.24,-198.29 -58.98,-248.66 -122.21,-200.86 -91.98,-419.73 -88.26,-662.18 -8.62,-146.54 -64.21,-196.45 -135.82,-212.88 35.62,-95.39 -97.03,-113.66 -119.17,-203.86 272.07,126.86 414.22,65.36 602.33,-78.43 -649.1,-60.65 -984.52,-544.3 -795.49,-1137.82 -190.92,74.72 -299.67,106.45 -344.28,179.92 -160.84,-214.45 -419.62,-242.68 -596.57,-68.7 -37.36,-102.83 -9.93,-223.7 -298.98,-214.33 -326.26,10.57 -449.52,203.16 -467.28,355.19 -91.09,-140.57 -168.4,-274.28 -483.05,-252.08 -284.63,20.08 -455.88,161.51 -226.64,553.29 -384.96,-176.03 -741.48,77.91 -609.88,695.94 -171.03,-57.24 -371.27,618.71 -196.04,764.45 -86.34,165.01 -104.26,324.52 -64.53,479.18 -190.47,99.99 -268.91,261.27 -249.45,475.75 67.61,382.48 31.93,545.1 -47.48,615.38 -98.2,73.43 -152.3,165.37 -150.78,280.47 -13.18,167.38 -135.98,276.64 -248.88,376.36 -80.46,173.3 -92.81,343 26.37,505.87 -77.07,169.95 -80.79,263.31 -18.92,402.7 73.16,131.15 90.39,222.77 -44.46,272.04 -147.38,63.37 -205.22,162.09 -174.13,313.95 -423.19,-43.65 -976.79,31.39 -1081.05,627.72 -102.54,7.07 -243.23,48.22 -404.01,110.92 -425.94,-734.97 -669.77,-1588.6 -669.77,-2499.2 0,-2757.44 2235.35,-4992.79 4992.79,-4992.79zm-2128.02 5873.41c30.73,0 55.64,24.43 55.64,54.55 0,30.13 -24.91,54.59 -55.64,54.59 -30.74,0 -55.65,-24.46 -55.65,-54.59 0,-30.12 24.91,-54.55 55.65,-54.55zm175.16 5.79c30.74,0 55.65,24.48 55.65,54.55 0,30.12 -24.91,54.6 -55.65,54.6 -30.74,0 -55.64,-24.48 -55.64,-54.6 0,-30.07 24.9,-54.55 55.64,-54.55zm543.07 -1473.76c32.92,0 59.58,26.15 59.58,58.4 0,32.27 -26.66,58.43 -59.58,58.43 -32.9,0 -59.56,-26.16 -59.56,-58.43 0,-32.25 26.66,-58.4 59.56,-58.4zm2516.63 2750.49l-541.45 118.33c13.62,-229.54 -11.59,-388.64 -60.92,-503.72 -39.86,233 -109.11,407.75 -211.95,515.82 -57.99,90.69 -181.28,98.35 -236.69,-32.78 -60.29,-277.74 -159.09,-508.63 -287.7,-703.14l13.75 712.66c-430.04,-123.01 -659.04,-556.59 -732.17,-1231.13 282.79,-386.05 515,-508.79 629.85,-20.51 56.86,-105.35 76.08,-229.35 48.95,-376.35 63.83,-340.09 843.15,-393.78 685.23,257.36 173.91,-181.42 100.75,-508.38 317.95,-579.36 195.94,-48.03 324.08,-213.62 435.92,-407.57 -40.33,412.93 -36.65,814.93 49.09,1196.62 -144.49,-125.53 -155.19,-368.1 -232.77,-552.2 -80.24,617.53 70.14,1071.06 472.8,1345.18 16.16,136.98 -120.23,77.48 -156.46,165.79 -0.14,-0.52 -111.08,62.95 -193.43,95zm-1434.3 -5405.96c-228.13,-133.16 -287.56,-280.38 -509.5,-217.63 -230.17,-561.67 390.62,-253.29 509.5,217.63zm161.68 -302.01c-107.83,-52.96 51.21,-289.31 120.56,-178.05 57.01,-345.44 450.71,-210.67 376.46,138.99 13.1,269.35 -448.16,289.47 -426.86,-48.74 -34.54,14.22 -58.52,42.75 -70.16,87.8zm717.51 -195.98c205.59,-100.03 495.89,0.67 500.5,388.59l-12.67 30.1c-96.49,-62.14 -201.75,-38.92 -265.34,63.25 -79.58,-53.59 -58.4,-92.06 16.26,-171.73 -173.88,3.74 -94.83,-118.26 62.43,-133.77 -75.14,-105.25 -166.87,-162.16 -301.18,-176.44zm304.19 725.33c-68.22,-237.1 87,-239.82 300.98,-203.72 215.82,167.18 278.64,383.42 256.63,692.62 -7.49,59.45 -41.22,99.37 -88.1,129.54 -59.13,-106.83 -54.18,-220.37 11.36,-340.18 -117.64,-100.06 -201.59,-207.55 -260.15,-320.63 -82.02,58.84 -132.21,55.08 -220.72,42.37zm658.95 788.93c-5,244.73 31.7,462.51 147.5,629.19 65.96,33.08 94.22,88.98 65.72,179.25 -12.2,134.34 21.1,246.16 113.91,328.51 145.15,165.45 -26.14,330.84 -141.23,496.23 180.34,86.06 116.64,496.02 174.92,744.02 -0.95,468.47 182.46,818.9 406.1,1069.91 -140.3,-317.01 -259.4,-607.75 -188.68,-663.3 88.71,27.54 132.19,102.33 121.16,233.98 13.53,227.25 76.37,336.95 216.01,417.18 102.89,19.52 228.16,103.11 317.11,207.73 -180.86,16.9 -377.46,25.96 -548.47,-54.69 78.53,235.19 287.14,388.36 712.13,404.95 219.35,56.69 336.61,179.56 419.43,324.8 -457.78,53.76 -784.26,-28.95 -1021.6,-204.23 -968.14,-998.14 -439.81,-1337.51 -610.63,-2350.58 -68.55,-65.62 -50.84,-180.54 5.65,-234.22 122.58,-77.27 118.35,-258.98 15.32,-528.76 -72.22,-162.27 -194.24,-289.13 -179.12,-498.05 -171.58,-255.12 -54.44,-342.4 -25.23,-501.92zm-3010.23 1768.39c-32.3,480 201.51,473.91 179.13,11.67 96.2,66.9 172.57,238.42 72.84,466.3 -45.15,103.17 -259.67,98.81 -326.77,-15.59 -93.84,-160 32.22,-402.54 74.8,-462.38zm2815.09 54.48c-80.18,482.92 311.53,444.59 241.13,22.44 223.73,174.78 -69.87,587.41 -268.64,337.09 -115.34,-145.27 -15.08,-299.68 27.51,-359.53zm-2609.42 -2692.76c-121.94,-162.25 154.85,-154.88 306.13,-91.17 71.77,109.34 187.78,179.69 281.69,269.51 -93.1,12.92 -172.61,42.24 -206.65,126.78 -141.9,-82.06 -278.75,-170.75 -381.17,-305.12zm294.25 1372.07c63.77,-602.79 812.8,-545.86 800.17,-154.88l-39.39 8.11c19.12,-373.42 -728.59,-281.51 -760.78,146.77 57.22,-50.72 215.92,-178.93 289.47,-184.2 97.3,42 177.05,28.55 238.25,-43.28 101.81,-6.72 108.33,14.16 124.77,82.13 -206.77,-5.84 -453.12,34.12 -652.49,145.35zm-955.7 4020.76c-58.76,-323.58 -4.18,-809.52 84.07,-1216.43 76.38,-33.9 69.98,-124.36 56.98,-205.21 187.4,-60.2 326.96,-39.02 257.45,342.64 -69.51,381.66 -523.49,685.51 -353.77,961.71 15.89,-119.93 86.47,-163.49 139.1,-143 -57.81,253.92 -205.06,362.25 -338.37,174.43 -66.56,-93.78 -51.81,-252.22 -80.43,-382.34 -87.6,-321.21 -435.26,-678.21 -286.66,-923 48.5,-79.9 154.82,-58.29 219.53,-12.24 -0.98,85.75 -17.72,135.54 49.5,169.22 -31.52,172.75 24.57,435.94 49.35,621.57l80.64 -593.52 48.93 0.7c0.24,196.76 -104.46,765.27 73.68,1205.47l0 0zm1876.4 -4967.48l50.15 -3.66c40.46,178.71 195.36,139.53 221.66,-17.1 26.3,-156.63 -32.17,-271.62 -107.03,-369.75 -71.09,86.7 -123.27,120.12 -120.82,251.12l-60.66 1.43c-31.86,-193.67 41.51,-272.22 186.89,-374.93 113.78,-50.58 199.8,-42.33 267.64,4.66 72.93,158.37 229.53,207.03 381.18,263.06 55.83,153.49 149.67,285.46 297.37,387 140.62,157.91 229.16,294.19 245.18,575.63l-44.99 5.7c-54.08,-251.84 -216.21,-373.36 -453.99,-508.16 -371.32,-115.36 -634.35,-72.42 -644.75,339.18l-5 496.63c133.33,3.49 230.65,57.88 318,126.46 -55.97,-83.26 -108.21,-153.06 -105.1,-308.25 93.93,32.81 201.63,84.75 289.07,62.3 -92.38,-30.15 -167.2,-79.27 -180.87,-125.78 32.75,-19.11 92.35,-69.22 159.53,-45.7 29.11,55.47 111.89,75.38 156.26,4.06 19.16,-0.29 18.28,-47.06 313.18,99.3 -72.38,-243.52 -410.05,-404.45 -711.75,-158.62 -10.08,-49.32 -7.47,-54.07 13.58,-78.96 170.69,-153.32 365.49,-171.61 588.61,-32.27 94.32,140.41 159.09,329.6 282.9,421.27l-3.82 -116.18 55.47 0.91c21.96,190.38 -0.44,324.4 -37.52,501.8 110.05,-195.09 181.82,-190.61 285.27,-1.92 -11.26,41.23 -32.74,43.9 -65.34,3.75 -144.96,-245.03 -356.07,302.23 -127.16,600.13 85.88,-76.24 -41.66,-274.48 8.13,-384.96l126.66 248.78c-21.48,-295.32 12.9,-366.04 89.73,-336.1l-5.59 362.97c-23.5,101.26 -42.69,24.85 -46.51,204.16 -0.47,-66.73 -29.94,-76.45 -108.41,-47.09 -78.47,29.36 -60.24,157.34 30.82,213.2l5.51 45.76c-107.74,-14.47 -144.11,-119.28 -133.7,-283.35l-85.14 0.49c5.29,169.68 -137.35,625.91 -305.52,626.9l-1762.76 10.43c-302.78,1.78 -253.14,-230.74 -270.28,-325.45 79.06,112.12 87.16,232.41 238.44,253.51l1711.66 -2.97c158.25,-24.09 275.64,-291.21 228.34,-405.05 -49.65,208.78 -268.16,272.13 -555.11,252.94l-721.96 -5.64c-40.33,-217.21 40.92,-226.29 117.85,-111.46 -1.83,-282.14 276.45,-305.68 456.32,-434.04 -104.49,-68.59 -310.5,-72.36 -434.64,-41.72 -80.05,-135.59 -332.37,-26.57 -139.26,130.53 -70.57,-24.37 -135.31,-17.52 -189.39,45.83 -137.19,47.97 -210.06,4.27 -160.19,-214.46 87.6,103.94 160.29,86.98 224.88,5.6 76.17,-103.32 176.28,-151.97 285.21,-180.44 99.82,34.09 207,29.88 296.94,13.6 111.27,41.6 161.02,118.3 268.91,208.61 41.92,20.76 189.76,1.27 187.4,-70.65 -9.7,-79.28 -102.98,-7.38 -147.08,-43.97 -106.61,-142.82 -194.85,-243.79 -307.58,-266.68l8.09 -44.08c40.18,-17.5 212.91,54.08 262.94,75.61 16.55,-48.19 -115.35,-146.26 -195.88,-135.75l5.67 -52.93c85.23,-24.24 46.35,-144.18 -84.03,-151.4 -130.38,-7.22 -182.4,165 -24.72,159.29 16.98,88.34 -163,2.44 -230.93,38.71 36.91,64.25 123.14,96.32 196.95,50.93l-18.07 52.9c-54.84,29.43 -146.35,37.3 -227.8,5.01 -117.22,36.68 -209.88,129.48 -314.8,194.22 27.89,-174.36 315.85,-224.09 324.84,-322.13 107.52,-23.78 87.63,-175.47 -47.35,-173.08 -134.98,2.39 -171.96,134.56 -67.38,156.59 -135.71,168.71 -378.7,-230.13 169.18,-266.05l-11.54 -623.56c-24.45,-72.59 -57.66,-143.83 -124.8,-209.93 -38.35,-66.87 -4.14,-70.32 28.83,-50.65 26.53,50.41 70.34,86.14 119.86,116.99 -46.88,-103.8 -98.69,-164.74 -115.88,-293.08zm74.74 -3064.99c3152.5,0 5708.13,2555.63 5708.13,5708.13 0,3152.5 -2555.63,5708.13 -5708.13,5708.13 -3152.5,0 -5708.13,-2555.63 -5708.13,-5708.13 0,-3152.5 2555.63,-5708.13 5708.13,-5708.13z"/>
   <path id="_1" class="fil1 str0" d="M9422.81 16980.26c52.89,0 95.76,39.87 95.76,89.04 0,49.18 -42.87,89.05 -95.76,89.05 -52.88,0 -95.76,-39.87 -95.76,-89.05 0,-49.17 42.88,-89.04 95.76,-89.04zm888.5 -7712.83c97.75,0 176.98,79.23 176.98,176.98 0,97.75 -79.23,176.98 -176.98,176.98 -97.75,0 -176.98,-79.23 -176.98,-176.98 0,-97.75 79.23,-176.98 176.98,-176.98zm3371.5 9622.4c79.46,0 143.87,64.41 143.87,143.87 0,79.46 -64.41,143.87 -143.87,143.87 -79.46,0 -143.87,-64.41 -143.87,-143.87 0,-79.46 64.41,-143.87 143.87,-143.87zm-2129.9 1045.42c79.46,0 143.87,64.41 143.87,143.87 0,79.46 -64.41,143.87 -143.87,143.87 -79.46,0 -143.87,-64.41 -143.87,-143.87 0,-79.46 64.41,-143.87 143.87,-143.87zm-2533.39 -10.96c79.46,0 143.87,64.41 143.87,143.87 0,79.46 -64.41,143.87 -143.87,143.87 -79.46,0 -143.87,-64.41 -143.87,-143.87 0,-79.46 64.41,-143.87 143.87,-143.87zm-1991 -1020.92c79.46,0 143.87,64.41 143.87,143.87 0,79.46 -64.41,143.87 -143.87,143.87 -79.46,0 -143.87,-64.41 -143.87,-143.87 0,-79.46 64.41,-143.87 143.87,-143.87zm2575.44 -1801.79c53.29,0 96.48,40.78 96.48,91.06 0,50.3 -43.19,91.07 -96.48,91.07 -53.28,0 -96.47,-40.77 -96.47,-91.07 0,-50.28 43.19,-91.06 96.47,-91.06zm234.03 105.87c52.4,0 94.86,40.08 94.86,89.52 0,49.45 -42.46,89.53 -94.86,89.53 -52.38,0 -94.84,-40.08 -94.84,-89.53 0,-49.44 42.46,-89.52 94.84,-89.52zm248.14 98.68c52.39,0 94.84,40.08 94.84,89.53 0,49.44 -42.45,89.52 -94.84,89.52 -52.4,0 -94.85,-40.08 -94.85,-89.52 0,-49.45 42.45,-89.53 94.85,-89.53zm248.11 87.4c52.4,0 94.86,40.09 94.86,89.53 0,49.44 -42.46,89.53 -94.86,89.53 -52.38,0 -94.84,-40.09 -94.84,-89.53 0,-49.44 42.46,-89.53 94.84,-89.53zm265.05 56.4c52.39,0 94.84,40.09 94.84,89.53 0,49.43 -42.45,89.52 -94.84,89.52 -52.39,0 -94.85,-40.09 -94.85,-89.52 0,-49.44 42.46,-89.53 94.85,-89.53zm270.68 -19.74c52.39,0 94.85,40.09 94.85,89.53 0,49.44 -42.46,89.53 -94.85,89.53 -52.39,0 -94.85,-40.09 -94.85,-89.53 0,-49.44 42.46,-89.53 94.85,-89.53zm267.86 -84.58c52.39,0 94.85,40.09 94.85,89.53 0,49.44 -42.46,89.53 -94.85,89.53 -52.39,0 -94.85,-40.09 -94.85,-89.53 0,-49.44 42.46,-89.53 94.85,-89.53zm234.04 -95.86c52.38,0 94.84,40.08 94.84,89.52 0,49.44 -42.46,89.53 -94.84,89.53 -52.39,0 -94.85,-40.09 -94.85,-89.53 0,-49.44 42.46,-89.52 94.85,-89.52zm-2174.63 -60.84c52.89,0 95.76,39.87 95.76,89.04 0,49.18 -42.87,89.05 -95.76,89.05 -52.88,0 -95.76,-39.87 -95.76,-89.05 0,-49.17 42.88,-89.04 95.76,-89.04zm160.72 163.54c52.88,0 95.76,39.86 95.76,89.04 0,49.18 -42.88,89.04 -95.76,89.04 -52.89,0 -95.76,-39.86 -95.76,-89.04 0,-49.18 42.87,-89.04 95.76,-89.04zm211.47 157.9c52.88,0 95.76,39.87 95.76,89.04 0,49.18 -42.88,89.05 -95.76,89.05 -52.89,0 -95.76,-39.87 -95.76,-89.05 0,-49.17 42.87,-89.04 95.76,-89.04zm200.19 149.44c52.89,0 95.76,39.87 95.76,89.04 0,49.18 -42.87,89.04 -95.76,89.04 -52.88,0 -95.76,-39.86 -95.76,-89.04 0,-49.17 42.88,-89.04 95.76,-89.04zm208.65 166.36c52.89,0 95.76,39.87 95.76,89.04 0,49.18 -42.87,89.04 -95.76,89.04 -52.88,0 -95.76,-39.86 -95.76,-89.04 0,-49.17 42.88,-89.04 95.76,-89.04zm231.2 112.79c52.89,0 95.77,39.87 95.77,89.04 0,49.18 -42.88,89.05 -95.77,89.05 -52.87,0 -95.76,-39.87 -95.76,-89.05 0,-49.17 42.89,-89.04 95.76,-89.04zm267.87 107.14c52.89,0 95.76,39.86 95.76,89.04 0,49.18 -42.87,89.04 -95.76,89.04 -52.88,0 -95.76,-39.86 -95.76,-89.04 0,-49.18 42.88,-89.04 95.76,-89.04zm256.59 11.29c52.88,0 95.76,39.86 95.76,89.04 0,49.17 -42.88,89.04 -95.76,89.04 -52.89,0 -95.76,-39.87 -95.76,-89.04 0,-49.18 42.87,-89.04 95.76,-89.04zm273.5 -16.91c52.89,0 95.76,39.86 95.76,89.04 0,49.18 -42.87,89.04 -95.76,89.04 -52.88,0 -95.76,-39.86 -95.76,-89.04 0,-49.18 42.88,-89.04 95.76,-89.04zm236.85 -64.86c52.89,0 95.77,39.86 95.77,89.04 0,49.18 -42.88,89.04 -95.77,89.04 -52.88,0 -95.76,-39.86 -95.76,-89.04 0,-49.18 42.88,-89.04 95.76,-89.04zm248.13 -129.71c52.88,0 95.76,39.87 95.76,89.05 0,49.17 -42.88,89.04 -95.76,89.04 -52.89,0 -95.76,-39.87 -95.76,-89.04 0,-49.18 42.87,-89.05 95.76,-89.05zm200.18 -177.63c52.88,0 95.76,39.87 95.76,89.04 0,49.18 -42.88,89.05 -95.76,89.05 -52.89,0 -95.76,-39.87 -95.76,-89.05 0,-49.17 42.87,-89.04 95.76,-89.04zm157.9 -186.1c52.89,0 95.76,39.87 95.76,89.04 0,49.18 -42.87,89.05 -95.76,89.05 -52.88,0 -95.76,-39.87 -95.76,-89.05 0,-49.17 42.88,-89.04 95.76,-89.04zm155.07 -222.74c52.89,0 95.76,39.86 95.76,89.03 0,49.18 -42.87,89.05 -95.76,89.05 -52.88,0 -95.76,-39.87 -95.76,-89.05 0,-49.17 42.88,-89.03 95.76,-89.03zm-1689.14 -7448.41c2757.44,0 4992.79,2235.35 4992.79,4992.79 0,930.85 -255.03,1802.01 -698.6,2547.96 -235.63,-119.36 -337.31,-278.37 -523.43,-296.79 -196.21,-549.12 -443.83,-659.05 -681.98,-661.25 33.97,-227.3 -119.15,-346.57 -300.34,-459.35 -295.9,-97.51 -368.92,-276.15 -349.98,-488.12 15.88,-210.39 -16.54,-392.54 -89.89,-550.9 -150.09,-214.3 -211.62,-397.5 -183.22,-549.32 62.38,-198.4 34.31,-404.46 -29.44,-613.27 -117.92,-156.44 -232.87,-241.96 -183.5,-359.95 23.99,-123.23 -4.24,-198.29 -58.98,-248.66 -122.21,-200.86 -91.98,-419.73 -88.26,-662.18 -8.62,-146.54 -64.21,-196.45 -135.82,-212.88 35.62,-95.39 -97.03,-113.66 -119.17,-203.86 272.07,126.86 414.22,65.36 602.33,-78.43 -649.1,-60.65 -984.52,-544.3 -795.49,-1137.82 -190.92,74.72 -299.67,106.45 -344.28,179.92 -160.84,-214.45 -419.62,-242.68 -596.57,-68.7 -37.36,-102.83 -9.93,-223.7 -298.98,-214.33 -326.26,10.57 -449.52,203.16 -467.28,355.19 -91.09,-140.57 -168.4,-274.28 -483.05,-252.08 -284.63,20.08 -455.88,161.51 -226.64,553.29 -384.96,-176.03 -741.48,77.91 -609.88,695.94 -171.03,-57.24 -371.27,618.71 -196.04,764.45 -86.34,165.01 -104.26,324.52 -64.53,479.18 -190.47,99.99 -268.91,261.27 -249.45,475.75 67.61,382.48 31.93,545.1 -47.48,615.38 -98.2,73.43 -152.3,165.37 -150.78,280.47 -13.18,167.38 -135.98,276.64 -248.88,376.36 -80.46,173.3 -92.81,343 26.37,505.87 -77.07,169.95 -80.79,263.31 -18.92,402.7 73.16,131.15 90.39,222.77 -44.46,272.04 -147.38,63.37 -205.22,162.09 -174.13,313.95 -423.19,-43.65 -976.79,31.39 -1081.05,627.72 -102.54,7.07 -243.23,48.22 -404.01,110.92 -425.94,-734.97 -669.77,-1588.6 -669.77,-2499.2 0,-2757.44 2235.35,-4992.79 4992.79,-4992.79zm-2128.02 5873.41c30.73,0 55.64,24.43 55.64,54.55 0,30.13 -24.91,54.59 -55.64,54.59 -30.74,0 -55.65,-24.46 -55.65,-54.59 0,-30.12 24.91,-54.55 55.65,-54.55zm175.16 5.79c30.74,0 55.65,24.48 55.65,54.55 0,30.12 -24.91,54.6 -55.65,54.6 -30.74,0 -55.64,-24.48 -55.64,-54.6 0,-30.07 24.9,-54.55 55.64,-54.55zm543.07 -1473.76c32.92,0 59.58,26.15 59.58,58.4 0,32.27 -26.66,58.43 -59.58,58.43 -32.9,0 -59.56,-26.16 -59.56,-58.43 0,-32.25 26.66,-58.4 59.56,-58.4zm2516.63 2750.49l-541.45 118.33c13.62,-229.54 -11.59,-388.64 -60.92,-503.72 -39.86,233 -109.11,407.75 -211.95,515.82 -57.99,90.69 -181.28,98.35 -236.69,-32.78 -60.29,-277.74 -159.09,-508.63 -287.7,-703.14l13.75 712.66c-430.04,-123.01 -659.04,-556.59 -732.17,-1231.13 282.79,-386.05 515,-508.79 629.85,-20.51 56.86,-105.35 76.08,-229.35 48.95,-376.35 63.83,-340.09 843.15,-393.78 685.23,257.36 173.91,-181.42 100.75,-508.38 317.95,-579.36 195.94,-48.03 324.08,-213.62 435.92,-407.57 -40.33,412.93 -36.65,814.93 49.09,1196.62 -144.49,-125.53 -155.19,-368.1 -232.77,-552.2 -80.24,617.53 70.14,1071.06 472.8,1345.18 16.16,136.98 -120.23,77.48 -156.46,165.79 -0.14,-0.52 -111.08,62.95 -193.43,95zm-1434.3 -5405.96c-228.13,-133.16 -287.56,-280.38 -509.5,-217.63 -230.17,-561.67 390.62,-253.29 509.5,217.63zm161.68 -302.01c-107.83,-52.96 51.21,-289.31 120.56,-178.05 57.01,-345.44 450.71,-210.67 376.46,138.99 13.1,269.35 -448.16,289.47 -426.86,-48.74 -34.54,14.22 -58.52,42.75 -70.16,87.8zm717.51 -195.98c205.59,-100.03 495.89,0.67 500.5,388.59l-12.67 30.1c-96.49,-62.14 -201.75,-38.92 -265.34,63.25 -79.58,-53.59 -58.4,-92.06 16.26,-171.73 -173.88,3.74 -94.83,-118.26 62.43,-133.77 -75.14,-105.25 -166.87,-162.16 -301.18,-176.44zm304.19 725.33c-68.22,-237.1 87,-239.82 300.98,-203.72 215.82,167.18 278.64,383.42 256.63,692.62 -7.49,59.45 -41.22,99.37 -88.1,129.54 -59.13,-106.83 -54.18,-220.37 11.36,-340.18 -117.64,-100.06 -201.59,-207.55 -260.15,-320.63 -82.02,58.84 -132.21,55.08 -220.72,42.37zm658.95 788.93c-5,244.73 31.7,462.51 147.5,629.19 65.96,33.08 94.22,88.98 65.72,179.25 -12.2,134.34 21.1,246.16 113.91,328.51 145.15,165.45 -26.14,330.84 -141.23,496.23 180.34,86.06 116.64,496.02 174.92,744.02 -0.95,468.47 182.46,818.9 406.1,1069.91 -140.3,-317.01 -259.4,-607.75 -188.68,-663.3 88.71,27.54 132.19,102.33 121.16,233.98 13.53,227.25 76.37,336.95 216.01,417.18 102.89,19.52 228.16,103.11 317.11,207.73 -180.86,16.9 -377.46,25.96 -548.47,-54.69 78.53,235.19 287.14,388.36 712.13,404.95 219.35,56.69 336.61,179.56 419.43,324.8 -457.78,53.76 -784.26,-28.95 -1021.6,-204.23 -968.14,-998.14 -439.81,-1337.51 -610.63,-2350.58 -68.55,-65.62 -50.84,-180.54 5.65,-234.22 122.58,-77.27 118.35,-258.98 15.32,-528.76 -72.22,-162.27 -194.24,-289.13 -179.12,-498.05 -171.58,-255.12 -54.44,-342.4 -25.23,-501.92zm-3010.23 1768.39c-32.3,480 201.51,473.91 179.13,11.67 96.2,66.9 172.57,238.42 72.84,466.3 -45.15,103.17 -259.67,98.81 -326.77,-15.59 -93.84,-160 32.22,-402.54 74.8,-462.38zm2815.09 54.48c-80.18,482.92 311.53,444.59 241.13,22.44 223.73,174.78 -69.87,587.41 -268.64,337.09 -115.34,-145.27 -15.08,-299.68 27.51,-359.53zm-2609.42 -2692.76c-121.94,-162.25 154.85,-154.88 306.13,-91.17 71.77,109.34 187.78,179.69 281.69,269.51 -93.1,12.92 -172.61,42.24 -206.65,126.78 -141.9,-82.06 -278.75,-170.75 -381.17,-305.12zm294.25 1372.07c63.77,-602.79 812.8,-545.86 800.17,-154.88l-39.39 8.11c19.12,-373.42 -728.59,-281.51 -760.78,146.77 57.22,-50.72 215.92,-178.93 289.47,-184.2 97.3,42 177.05,28.55 238.25,-43.28 101.81,-6.72 108.33,14.16 124.77,82.13 -206.77,-5.84 -453.12,34.12 -652.49,145.35zm-955.7 4020.76c-58.76,-323.58 -4.18,-809.52 84.07,-1216.43 76.38,-33.9 69.98,-124.36 56.98,-205.21 187.4,-60.2 326.96,-39.02 257.45,342.64 -69.51,381.66 -523.49,685.51 -353.77,961.71 15.89,-119.93 86.47,-163.49 139.1,-143 -57.81,253.92 -205.06,362.25 -338.37,174.43 -66.56,-93.78 -51.81,-252.22 -80.43,-382.34 -87.6,-321.21 -435.26,-678.21 -286.66,-923 48.5,-79.9 154.82,-58.29 219.53,-12.24 -0.98,85.75 -17.72,135.54 49.5,169.22 -31.52,172.75 24.57,435.94 49.35,621.57l80.64 -593.52 48.93 0.7c0.24,196.76 -104.46,765.27 73.68,1205.47m1876.4 -4967.48l50.15 -3.66c40.46,178.71 195.36,139.53 221.66,-17.1 26.3,-156.63 -32.17,-271.62 -107.03,-369.75 -71.09,86.7 -123.27,120.12 -120.82,251.12l-60.66 1.43c-31.86,-193.67 41.51,-272.22 186.89,-374.93 113.78,-50.58 199.8,-42.33 267.64,4.66 72.93,158.37 229.53,207.03 381.18,263.06 55.83,153.49 149.67,285.46 297.37,387 140.62,157.91 229.16,294.19 245.18,575.63l-44.99 5.7c-54.08,-251.84 -216.21,-373.36 -453.99,-508.16 -371.32,-115.36 -634.35,-72.42 -644.75,339.18l-5 496.63c133.33,3.49 230.65,57.88 318,126.46 -55.97,-83.26 -108.21,-153.06 -105.1,-308.25 93.93,32.81 201.63,84.75 289.07,62.3 -92.38,-30.15 -167.2,-79.27 -180.87,-125.78 32.75,-19.11 92.35,-69.22 159.53,-45.7 29.11,55.47 111.89,75.38 156.26,4.06 19.16,-0.29 18.28,-47.06 313.18,99.3 -72.38,-243.52 -410.05,-404.45 -711.75,-158.62 -10.08,-49.32 -7.47,-54.07 13.58,-78.96 170.69,-153.32 365.49,-171.61 588.61,-32.27 94.32,140.41 159.09,329.6 282.9,421.27l-3.82 -116.18 55.47 0.91c21.96,190.38 -0.44,324.4 -37.52,501.8 110.05,-195.09 181.82,-190.61 285.27,-1.92 -11.26,41.23 -32.74,43.9 -65.34,3.75 -144.96,-245.03 -356.07,302.23 -127.16,600.13 85.88,-76.24 -41.66,-274.48 8.13,-384.96l126.66 248.78c-21.48,-295.32 12.9,-366.04 89.73,-336.1l-5.59 362.97c-23.5,101.26 -42.69,24.85 -46.51,204.16 -0.47,-66.73 -29.94,-76.45 -108.41,-47.09 -78.47,29.36 -60.24,157.34 30.82,213.2l5.51 45.76c-107.74,-14.47 -144.11,-119.28 -133.7,-283.35l-85.14 0.49c5.29,169.68 -137.35,625.91 -305.52,626.9l-1762.76 10.43c-302.78,1.78 -253.14,-230.74 -270.28,-325.45 79.06,112.12 87.16,232.41 238.44,253.51l1711.66 -2.97c158.25,-24.09 275.64,-291.21 228.34,-405.05 -49.65,208.78 -268.16,272.13 -555.11,252.94l-721.96 -5.64c-40.33,-217.21 40.92,-226.29 117.85,-111.46 -1.83,-282.14 276.45,-305.68 456.32,-434.04 -104.49,-68.59 -310.5,-72.36 -434.64,-41.72 -80.05,-135.59 -332.37,-26.57 -139.26,130.53 -70.57,-24.37 -135.31,-17.52 -189.39,45.83 -137.19,47.97 -210.06,4.27 -160.19,-214.46 87.6,103.94 160.29,86.98 224.88,5.6 76.17,-103.32 176.28,-151.97 285.21,-180.44 99.82,34.09 207,29.88 296.94,13.6 111.27,41.6 161.02,118.3 268.91,208.61 41.92,20.76 189.76,1.27 187.4,-70.65 -9.7,-79.28 -102.98,-7.38 -147.08,-43.97 -106.61,-142.82 -194.85,-243.79 -307.58,-266.68l8.09 -44.08c40.18,-17.5 212.91,54.08 262.94,75.61 16.55,-48.19 -115.35,-146.26 -195.88,-135.75l5.67 -52.93c85.23,-24.24 46.35,-144.18 -84.03,-151.4 -130.38,-7.22 -182.4,165 -24.72,159.29 16.98,88.34 -163,2.44 -230.93,38.71 36.91,64.25 123.14,96.32 196.95,50.93l-18.07 52.9c-54.84,29.43 -146.35,37.3 -227.8,5.01 -117.22,36.68 -209.88,129.48 -314.8,194.22 27.89,-174.36 315.85,-224.09 324.84,-322.13 107.52,-23.78 87.63,-175.47 -47.35,-173.08 -134.98,2.39 -171.96,134.56 -67.38,156.59 -135.71,168.71 -378.7,-230.13 169.18,-266.05l-11.54 -623.56c-24.45,-72.59 -57.66,-143.83 -124.8,-209.93 -38.35,-66.87 -4.14,-70.32 28.83,-50.65 26.53,50.41 70.34,86.14 119.86,116.99 -46.88,-103.8 -98.69,-164.74 -115.88,-293.08zm74.74 -3064.99c3152.5,0 5708.13,2555.63 5708.13,5708.13 0,3152.5 -2555.63,5708.13 -5708.13,5708.13 -3152.5,0 -5708.13,-2555.63 -5708.13,-5708.13 0,-3152.5 2555.63,-5708.13 5708.13,-5708.13z"/>
  </g>
 </g>
</svg>
