<?xml version="1.0" encoding="UTF-8"?>
<!DOCTYPE svg PUBLIC "-//W3C//DTD SVG 1.1//EN" "http://www.w3.org/Graphics/SVG/1.1/DTD/svg11.dtd">
<!-- Creator: CorelDRAW -->
<svg xmlns="http://www.w3.org/2000/svg" xml:space="preserve" width="210mm" height="297mm" version="1.1" style="shape-rendering:geometricPrecision; text-rendering:geometricPrecision; image-rendering:optimizeQuality; fill-rule:evenodd; clip-rule:evenodd"
viewBox="0 0 21000 29700"
 xmlns:xlink="http://www.w3.org/1999/xlink"
 xmlns:xodm="http://www.corel.com/coreldraw/odm/2003">
 <defs>
  <style type="text/css">
   <![CDATA[
    .str0 {stroke:#2B2A29;stroke-width:7.62;stroke-miterlimit:22.9256}
    .fil0 {fill:#2B2A29}
   ]]>
  </style>
 </defs>
 <g id="Layer_x0020_1">
  <metadata id="CorelCorpID_0Corel-Layer"/>
  <path class="fil0 str0" d="M11890.77 14980.46c0,33.03 9.01,51.05 30.03,51.05 15.02,0 27.03,-6.01 42.04,-15.02l5417.39 -3522.51c96.1,-63.06 183.18,-96.1 312.31,-96.1l1192.2 0.01c183.18,0 306.31,123.12 306.31,306.31l0 3003.26c0,273.27 -60.06,432.43 -306.31,579.58l-1444.44 867.87c-18.02,12.01 -36.04,18.02 -48.05,18.02 -18.02,0 -33.03,-12.01 -33.03,-63.06l0 -2654.64c0,-30.03 -9.01,-51.05 -30.03,-51.05 -15.02,0 -27.03,6.01 -42.04,15.02l-3960.95 2573.56c-111.11,72.07 -201.2,93.09 -303.3,93.09l-2627.63 -0.01c-183.18,0 -306.31,-123.12 -306.31,-306.31l-24.29 -3182.61c0,-24.02 -12.01,-45.05 -30.03,-45.05 -15.02,0 -27.03,6.01 -42.04,15.02l-2588.31 1479.92c-27.03,15.02 -33.03,30.03 -33.03,42.04 0,12.01 3,21.02 24.02,39.04l1864.85 1864.85c24.02,24.02 42.04,45.05 42.04,63.06 0,21.02 -27.03,33.03 -60.06,33.03l-1687.67 0.01c-132.13,0 -234.23,-21.02 -306.31,-93.09l-1132.13 -1132.13c-12.01,-12.01 -21.02,-18.02 -33.03,-18.02 -9.01,0 -24.02,6.01 -36.04,12.01l-1891.89 1138.14c-114.11,69.07 -192.19,90.09 -306.31,90.09l-1741.73 0c-183.18,0 -306.31,-123.12 -306.31,-306.31l0 -2961.22c0,-276.28 60.06,-432.43 306.31,-579.58l1453.45 -873.87c15.02,-9.01 27.03,-12.01 39.04,-12.01 21.02,0 33.03,24.02 33.03,72.07l0 2984.98c0,30.03 9.01,45.05 30.03,45.05 12.01,0 27.03,-9.01 42.04,-18.02l4909.89 -2951.94c117.12,-69.07 189.19,-90.09 324.32,-90.09 1145.3,-0.01 1677.09,-0.02 2642.66,-0.02 183.18,0 306.31,123.12 306.31,306.31l3 3279.27zm-1821.07 -3189.91c85,0 153.91,68.91 153.91,153.91 0,85 -68.91,153.91 -153.91,153.91 -85,0 -153.91,-68.91 -153.91,-153.91 0,-85 68.91,-153.91 153.91,-153.91z"/>
 </g>
</svg>
