<?xml version="1.0" encoding="UTF-8"?>
<!DOCTYPE svg PUBLIC "-//W3C//DTD SVG 1.1//EN" "http://www.w3.org/Graphics/SVG/1.1/DTD/svg11.dtd">
<!-- Creator: CorelDRAW -->
<svg xmlns="http://www.w3.org/2000/svg" xml:space="preserve" width="210mm" height="297mm" version="1.1" style="shape-rendering:geometricPrecision; text-rendering:geometricPrecision; image-rendering:optimizeQuality; fill-rule:evenodd; clip-rule:evenodd"
viewBox="0 0 21000 29700"
 xmlns:xlink="http://www.w3.org/1999/xlink"
 xmlns:xodm="http://www.corel.com/coreldraw/odm/2003">
 <defs>
  <style type="text/css">
   <![CDATA[
    .str0 {stroke:black;stroke-width:7.62;stroke-miterlimit:2.61313}
    .fil0 {fill:#2B2A29}
   ]]>
  </style>
 </defs>
 <g id="Layer_x0020_1">
  <metadata id="CorelCorpID_0Corel-Layer"/>
  <path class="fil0 str0" d="M18363.73 17931.75c-235.35,-148.08 -363.56,-284.18 -768.08,-386.2 -363.87,-91.73 96.29,-1023.38 -1128.5,-1314.6 -78.93,-220.44 149.13,-452.51 -365.73,-781.54 -256.53,-163.97 -755.12,-185.58 -790.71,-549.68 -34.44,-352.49 -184.16,-831.46 -273.99,-1155.69 -95.12,-343.32 -307.63,-558.95 -357.82,-929.34 -60.78,-448.2 309.04,-1201.81 49.73,-1423.2 -233.01,-198.97 -366.38,-224.41 -302.37,-619.94 12.88,-79.48 40.06,-200.29 7.12,-277.19 -29.61,-69.03 -110.25,-104.87 -159.41,-165.27 -112.28,-137.98 -110.56,-286.66 -156.77,-481.35 -80.59,-339.7 -77.12,-747.33 -107.13,-855.55 -81.61,-294.46 -309.07,-336.05 -310.78,-437.28 -2.25,-134.37 -35.19,-161.16 -51.46,-270.73 173.09,1.35 88.96,70.15 310.78,55.78 221.82,-14.35 727.04,-128.36 753.14,-206.58 -693.22,-268.91 -1311.08,-335.47 -1443.92,-1229.53 -77.22,-519.86 -8.28,-815.35 -11.12,-892.44 -174.44,87.75 -373.48,282.39 -453.17,468.24 -28,39.75 -543.93,-413.91 -687.84,-441.87 -346.13,-67.29 -374.9,103.45 -528.13,140.92 -35.46,-42.99 -80.4,-93.34 -110.38,-150.22 -32.6,-61.85 -101.41,-156.88 -140.62,-196.87 -116.62,-131.41 -298.05,-162.89 -526.28,-121.04 -180.83,33.17 -321.83,116.53 -419.51,206.43 -119.89,110.29 -151.89,269.62 -181.81,458.06 -56.21,-10.51 -136.39,-71.86 -184.59,-100.48 -208.9,-124.07 -791.87,-281.5 -1045.28,-116.15 -335.49,185.5 -299.9,538.31 -297.15,859.74 -1152.35,-255.14 -1202.94,1041.86 -1146.67,1322.92 -756.72,185.94 -496.31,800.98 -377.51,1223 -16.05,73.04 -46.37,83.64 -77.43,273.83 -17.53,107.35 -44.92,194.48 -42.51,309.21 2.32,109.96 47.97,232.26 45,324.74 -83.19,60.14 -118.95,-5.17 -239.2,115.12 -215.54,215.69 -247.78,497.6 -213.37,813.61 36.7,336.53 130.68,545.67 -44.15,878.84 -159.27,303.43 -234.02,130.54 -340.38,707.67 -87.05,472.27 -419.14,455.29 -447.38,951.66 -7.41,130.12 17.84,328.6 87.56,433.73 27.15,40.97 50.32,52.28 80.51,96.19 -35.88,86.09 -86.38,90.6 -116.15,228.1 -21.51,99.41 -4.88,211.74 19.55,305.45 44.1,169.08 180.64,460.52 182.2,513.62 -195.44,148.72 41.26,33.65 -384.44,275.37 -257.3,146.1 -184.57,262.45 -214.11,458.6 -157.73,20.34 -55.56,172.64 -332.16,205.47 -446.73,53.02 -732.77,200.55 -893.67,637.39 -35.35,96.02 -59.16,197.4 -87.93,298.46 -13.86,48.63 -30.4,101.03 -43.79,148.56 -24.01,85.26 1.41,84.68 -79.71,112.18 -595.25,201.95 -663.14,295.97 -1116.78,676.53 -83.99,70.48 -339.21,313.11 -372.71,397.03 59.86,-0.56 320.38,-89.75 387.01,-116.06 117.6,-46.4 256.88,-83.96 379.61,-124.5 166.12,-54.88 1994.45,-627.58 1994.67,-627.53 -0.77,69.18 -98.22,77.54 -224.6,132 -450.06,193.82 -1208.6,774.77 -1469.33,1191.69 164.83,-30.14 426.9,-149.82 585.5,-210.22 180.9,-85.46 820.78,-352.33 1029.62,-402.7 226.67,-54.67 503.42,-136.77 584.68,-108.92l20.12 10.32c-22.74,67.83 -137.91,97.47 -197.25,133.35 -721.31,412.97 -3985.55,2475.84 -872.63,1420.04 1930.54,-654.8 4191.12,534.14 6871.71,572.99 2098.5,-50.63 2878.65,-1235.46 3967.55,-1498.88 1928.75,-466.71 733.13,-53.4 2662.22,-791.74 -979.55,-353.82 -2778.5,-346.32 -3796.36,-55.87 -26.35,9.65 -45.71,17.56 -73.21,25.13 -77.44,21.33 -95.51,-3.67 -48.9,-73.19 246.06,-319.39 750.54,-550.61 866.55,-761.03 32.77,-59.44 42.05,-130.35 72.08,-180.15 164.19,-33.81 687.79,283.02 859.36,347.22 170.8,63.9 315.57,126.2 499.68,159.09 406.1,22.89 550.16,52.57 934.12,157.79 73.76,15.92 1044.46,207.75 804.81,7.46zm-1682.89 344.91c94.56,0 171.22,76.66 171.22,171.22 0,94.56 -76.66,171.22 -171.22,171.22 -94.56,0 -171.22,-76.66 -171.22,-171.22 0,-94.56 76.66,-171.22 171.22,-171.22zm-2584.01 825.61c94.56,0 171.22,76.66 171.22,171.22 0,94.56 -76.66,171.22 -171.22,171.22 -94.56,0 -171.22,-76.66 -171.22,-171.22 0,-94.56 76.66,-171.22 171.22,-171.22zm-3230.83 829.68c94.56,0 171.22,76.66 171.22,171.22 0,94.56 -76.66,171.22 -171.22,171.22 -94.56,0 -171.22,-76.66 -171.22,-171.22 0,-94.56 76.66,-171.22 171.22,-171.22zm-2858.18 -523.92c94.56,0 171.22,76.66 171.22,171.22 0,94.56 -76.66,171.22 -171.22,171.22 -94.56,0 -171.22,-76.66 -171.22,-171.22 0,-94.56 76.66,-171.22 171.22,-171.22zm-3032.69 -14.36c94.56,0 171.22,76.66 171.22,171.22 0,94.56 -76.66,171.22 -171.22,171.22 -94.56,0 -171.22,-76.66 -171.22,-171.22 0,-94.56 76.66,-171.22 171.22,-171.22zm3616.63 -2543.92c90.36,0 163.61,68.1 163.61,152.11 0,84.02 -73.25,152.14 -163.61,152.14 -90.35,0 -163.61,-68.12 -163.61,-152.14 0,-84.01 73.26,-152.11 163.61,-152.11zm-337.44 275.31c90.37,0 163.61,68.1 163.61,152.11 0,84.03 -73.24,152.15 -163.61,152.15 -90.35,0 -163.61,-68.12 -163.61,-152.15 0,-84.01 73.26,-152.11 163.61,-152.11zm4430.2 245.33c90.37,0 163.61,68.1 163.61,152.11 0,84.03 -73.24,152.14 -163.61,152.14 -90.34,0 -163.61,-68.11 -163.61,-152.14 0,-84.01 73.27,-152.11 163.61,-152.11zm899.17 -148.4c90.37,0 163.61,68.1 163.61,152.11 0,84.02 -73.24,152.14 -163.61,152.14 -90.35,0 -163.61,-68.12 -163.61,-152.14 0,-84.01 73.26,-152.11 163.61,-152.11zm-4701.45 -133.68c90.37,0 163.61,68.12 163.61,152.13 0,84.02 -73.24,152.14 -163.61,152.14 -90.34,0 -163.61,-68.12 -163.61,-152.14 0,-84.01 73.27,-152.13 163.61,-152.13zm309.5 207.28c91.05,0 164.84,69.67 164.84,155.58 0,85.94 -73.79,155.59 -164.84,155.59 -91.03,0 -164.82,-69.65 -164.82,-155.59 0,-85.91 73.79,-155.58 164.82,-155.58zm399.85 180.88c89.53,0 162.08,68.48 162.08,152.95 0,84.49 -72.55,152.97 -162.08,152.97 -89.49,0 -162.03,-68.48 -162.03,-152.97 0,-84.47 72.54,-152.95 162.03,-152.95zm423.96 168.6c89.51,0 162.04,68.48 162.04,152.97 0,84.47 -72.53,152.94 -162.04,152.94 -89.53,0 -162.05,-68.47 -162.05,-152.94 0,-84.49 72.52,-152.97 162.05,-152.97zm423.9 149.33c89.53,0 162.08,68.49 162.08,152.96 0,84.47 -72.55,152.97 -162.08,152.97 -89.49,0 -162.03,-68.5 -162.03,-152.97 0,-84.47 72.54,-152.96 162.03,-152.96zm452.85 96.36c89.51,0 162.04,68.49 162.04,152.96 0,84.46 -72.53,152.95 -162.04,152.95 -89.51,0 -162.05,-68.49 -162.05,-152.95 0,-84.47 72.54,-152.96 162.05,-152.96zm462.47 -33.73c89.51,0 162.05,68.5 162.05,152.97 0,84.47 -72.54,152.96 -162.05,152.96 -89.51,0 -162.06,-68.49 -162.06,-152.96 0,-84.47 72.55,-152.97 162.06,-152.97zm457.65 -144.51c89.51,0 162.05,68.5 162.05,152.97 0,84.47 -72.54,152.96 -162.05,152.96 -89.51,0 -162.06,-68.49 -162.06,-152.96 0,-84.47 72.55,-152.97 162.06,-152.97zm399.86 -163.78c89.5,0 162.04,68.48 162.04,152.95 0,84.47 -72.54,152.97 -162.04,152.97 -89.51,0 -162.05,-68.5 -162.05,-152.97 0,-84.47 72.54,-152.95 162.05,-152.95zm-3715.43 -103.94c90.36,0 163.61,68.11 163.61,152.12 0,84.03 -73.25,152.15 -163.61,152.15 -90.35,0 -163.61,-68.12 -163.61,-152.15 0,-84.01 73.26,-152.12 163.61,-152.12zm274.59 279.41c90.35,0 163.61,68.1 163.61,152.13 0,84.02 -73.26,152.13 -163.61,152.13 -90.36,0 -163.6,-68.11 -163.6,-152.13 0,-84.03 73.24,-152.13 163.6,-152.13zm361.31 269.78c90.35,0 163.61,68.12 163.61,152.13 0,84.02 -73.26,152.14 -163.61,152.14 -90.37,0 -163.61,-68.12 -163.61,-152.14 0,-84.01 73.24,-152.13 163.61,-152.13zm342.03 255.32c90.37,0 163.61,68.12 163.61,152.13 0,84.02 -73.24,152.13 -163.61,152.13 -90.35,0 -163.61,-68.11 -163.61,-152.13 0,-84.01 73.26,-152.13 163.61,-152.13zm356.49 284.23c90.36,0 163.61,68.12 163.61,152.13 0,84.03 -73.25,152.13 -163.61,152.13 -90.35,0 -163.61,-68.1 -163.61,-152.13 0,-84.01 73.26,-152.13 163.61,-152.13zm395.01 192.71c90.37,0 163.63,68.12 163.63,152.13 0,84.02 -73.26,152.14 -163.63,152.14 -90.33,0 -163.61,-68.12 -163.61,-152.14 0,-84.01 73.28,-152.13 163.61,-152.13zm457.67 183.05c90.36,0 163.61,68.1 163.61,152.13 0,84.03 -73.25,152.13 -163.61,152.13 -90.35,0 -163.61,-68.1 -163.61,-152.13 0,-84.03 73.26,-152.13 163.61,-152.13zm438.39 19.29c90.35,0 163.61,68.1 163.61,152.13 0,84.01 -73.26,152.13 -163.61,152.13 -90.36,0 -163.61,-68.12 -163.61,-152.13 0,-84.03 73.25,-152.13 163.61,-152.13zm467.28 -28.89c90.37,0 163.61,68.1 163.61,152.13 0,84.02 -73.24,152.13 -163.61,152.13 -90.34,0 -163.6,-68.11 -163.6,-152.13 0,-84.03 73.26,-152.13 163.6,-152.13zm404.67 -110.82c90.37,0 163.63,68.11 163.63,152.13 0,84.03 -73.26,152.13 -163.63,152.13 -90.35,0 -163.61,-68.1 -163.61,-152.13 0,-84.02 73.26,-152.13 163.61,-152.13zm423.94 -221.61c90.35,0 163.61,68.12 163.61,152.14 0,84.01 -73.26,152.13 -163.61,152.13 -90.36,0 -163.61,-68.12 -163.61,-152.13 0,-84.02 73.25,-152.14 163.61,-152.14zm342.02 -303.49c90.34,0 163.6,68.12 163.6,152.13 0,84.03 -73.26,152.15 -163.6,152.15 -90.37,0 -163.61,-68.12 -163.61,-152.15 0,-84.01 73.24,-152.13 163.61,-152.13zm269.77 -317.96c90.37,0 163.61,68.12 163.61,152.13 0,84.03 -73.24,152.15 -163.61,152.15 -90.34,0 -163.61,-68.12 -163.61,-152.15 0,-84.01 73.27,-152.13 163.61,-152.13zm264.95 -380.56c90.36,0 163.61,68.11 163.61,152.12 0,84.02 -73.25,152.14 -163.61,152.14 -90.35,0 -163.61,-68.12 -163.61,-152.14 0,-84.01 73.26,-152.12 163.61,-152.12zm-5965.82 -2643.94c112.52,-178.1 -29.18,-213.22 -99.21,-170.75 -51.76,31.39 -113.13,174.82 99.21,170.75zm-398.55 -185.26c-76.34,54.46 -23.31,279.25 121.43,172.14 129.13,-95.56 -37.39,-232.05 -121.43,-172.14zm1358.97 -2590.22c-60.36,18.76 -88.2,99.49 -62.41,172.94 16.74,47.73 93.06,110.15 165.76,93.21 142.8,-33.21 31.67,-308.13 -103.35,-266.15zm5248.49 306.15c-31.18,96.62 58.12,88.64 49.36,323.61 -14.12,376.96 -348.19,394.83 -394.35,128.95 -19.09,-109.95 9.57,-322.42 -25.46,-392.28 -107.38,49.27 -97.06,386.66 -62.07,502.73 29.63,98.07 62.23,133.15 125.39,186.95 138.15,117.65 499.42,64.77 498.5,-354.42 -0.17,-81.56 -58.21,-461.8 -191.37,-395.54zm-5256.64 -6.63c-45.77,-18.79 -66.55,-43.24 -129.68,-46.42 -66.97,133.68 -135.43,237.3 -144.81,436.28 -8.92,189.34 83.13,334.6 204.85,389.63 357.92,161.81 597.68,-259.75 483.64,-603.41 -79.21,-238.73 -182.61,-243.36 -172.86,-165.09 2.55,20.23 39.26,76.35 49.89,94.97 80.13,140.36 60.67,376.22 -38.2,469.77 -132.74,125.56 -322.42,79.43 -356.44,-97.61 -47.82,-249.07 91.99,-397.39 103.61,-478.12zm2025.55 -5408.8c41.57,43.43 78.15,134.31 139.76,108.51 25.85,-70.15 -10.74,-143.65 -43.92,-203.91 -48.9,-88.95 -55.87,-84.98 -149.57,-127.85 -136.82,-62.57 -213.57,-150.25 -327.64,-225.75 -98.88,-65.46 -258.56,-158.96 -415.69,-90.91 -95.25,41.24 -33.73,108.28 -46.73,207.35 -65.49,500.07 355.39,-177.3 843.79,332.56zm1471.02 -521.43c59.47,41.45 244.13,55.17 348.76,110.15 73.52,38.63 238.11,139.45 264.72,203.44 -0.08,0.05 -372.83,119.78 -307.38,199.91 39.57,43.66 104.91,15.88 172.21,21.36 -9.57,60.33 -83.04,87.15 -90.3,176.51 -5.55,68.53 36.34,141.02 71.06,178.41 72.93,-5.98 461.39,-112.32 488.16,-163.15 120.98,-229.89 -112.95,-899.12 -728.33,-834.43 -84.9,8.91 -199.73,40.18 -218.9,107.8zm-3292.37 955.28c5.23,224.69 284.49,464.86 462.25,576.19 211.31,132.38 236.25,166 335.32,101.55 54.17,-35.24 93.93,-74.56 160.02,-105.33 53.63,-24.96 147.99,-33.55 193.54,-71 -50.86,-133.36 -286.27,-182.7 -459.56,-419.21 -68.31,-93.25 -135.25,-113 -299.61,-132.91 -138.8,-16.78 -283.96,-11.02 -391.96,50.71zm626.47 2637.72c105.62,-14.24 174.63,-72.62 266.26,-106.4 100.98,-37.23 188.47,-58.2 292.64,-76.61 108.01,-19.12 220.14,-34.74 332.94,-46.27 99.13,-10.13 182.17,1.95 255.67,-16.47 -18.28,-67.98 -103.61,-144.85 -193.19,-141.78 -165.64,-18.36 -53.73,88.75 -247.72,129.46 -193.98,40.71 -143.46,-130.41 -307.23,-35.98 -91.37,36.95 -295.71,282.15 -399.37,294.05 134.11,-580.09 898.97,-1027.83 1244.38,-455.9 43.38,59.83 58.6,224.07 160.28,212.06 19.13,-235.13 -118.04,-365.21 -242.54,-446.95 -290.63,-190.83 -784.02,-120.98 -975.48,178.63 -44.86,70.23 -192.57,411.62 -186.64,512.16zm3654.68 -2330.61l338.48 349.26c33.62,37.4 78.3,83.22 106,123.36 47.24,68.41 8.25,97.28 -18.88,159.59 -75.25,172.84 -90.13,476.2 43.89,534.31 61.76,-51.07 143.01,-215.72 149.21,-333.54 21.75,-307.18 -205.9,-1129.91 -645.66,-1146.53 -453.31,-37.98 -683.82,506.36 -154.28,387.03 86.57,-16.45 105.96,-57.11 181.24,-73.48zm-2024.32 -808.14c106.25,102.31 433.54,199.01 599.69,1.71 388.92,-463.73 -169.91,-825.68 -367.83,-788.83 -259.63,48.33 -643.38,377.3 -231.86,787.12zm-3511.34 10028.17c-55.16,-172.44 -130.72,-812.89 -127.37,-982.08 7.76,-387.91 96.83,-623.31 162.52,-982.65 -61.15,1.61 -97.92,-18.69 -146.53,3.42l-95.06 918.64c-9.33,82.08 0.89,257.16 -34.39,310.92 -13.04,-199.32 -58.83,-414.01 -58.25,-614.01 0.62,-212.1 -67.76,-413.96 -60.65,-606.5 -258.35,-155 40.55,-317.84 -153.36,-372.82 -76.44,-21.68 -89.61,-5.99 -172.27,8.36 -290.21,50.47 -284.52,282.44 -207,549.46 145.61,501.41 470.92,781.81 580.56,1428.9 16.19,95.85 27.69,188.95 41.79,285.89 28.12,193.27 106.15,346.32 316.18,332.69 194.45,-12.61 295.3,-125.73 343.06,-341.93 4.45,-20.16 25.73,-112.52 23.49,-127.37 -8.53,-56.5 -72.82,-40.08 -94.91,-3.49 -111.59,185.14 -92.36,332.48 -131.35,-199.11 -22.21,-303.13 108.56,-107.77 385.87,-667.83 78.47,-158.5 183.86,-399.46 224.98,-580.99 95.95,-423.8 -4.15,-773.54 -368.82,-672.79 -191.82,52.97 -201.25,371.49 -235.75,545.18 -70.11,353.2 -164.39,599.97 -146.91,1044 3.98,42.03 1.59,804.24 -35.69,748.95 -2.7,-3.96 -6.07,-12.08 -10.14,-24.84zm6669.43 -3837.06c2.36,295.85 -47.05,568.02 -44.37,857.49 4.73,506.96 81.75,1030.3 289.7,1444.02 117.94,280.09 298.63,677.18 506.85,883.11 117.26,115.94 160.86,226.5 237.87,219.36 54.82,-117.85 526.89,259.73 775.35,342.32 170.8,71.01 381.91,93.87 567.95,113.59 188.72,-5.35 400.63,0.66 582.4,-15.57 -11.22,-126.24 -82.42,-212.57 -143.29,-274.56 -139.73,-142.35 -320.85,-253.49 -511.84,-331.2 -282.82,-115 -571.75,-7.12 -992.1,-271.81 -151.91,-95.64 -348.7,-293.08 -404.87,-444.7 138.9,39.69 83.02,143.76 458.45,141.35 134.05,-0.87 447.38,-23.51 555.36,-51.14 -7.72,-105.96 -329.13,-204.08 -441.83,-266.44 -1012.15,-591.22 -224.3,-1269.34 -789.51,-1311.63 -55.39,96.24 289.32,983.55 364.14,1192.42 -86.32,-42.81 -473.37,-544.27 -527.1,-662.35 -56.83,-124.87 -110.68,-254.21 -161.8,-379.6 -52.68,-129.27 -85.34,-274.51 -126.31,-414.8 -122.52,-419.44 80.83,-1320.39 -179.76,-1645.66 -46.42,-57.97 -51.12,-79.1 -70.15,-147.48 72.77,-102.43 312.22,-149.74 407.02,-620.08 54.06,-268.21 -41.94,-164.5 -159.34,-321.24 -74.98,-100.1 -150.67,-194.69 -146.93,-370.89 3.55,-167.23 84.44,-317.26 -29.98,-427.37 -115.18,-110.8 -148.17,-98.51 -209.59,-308 -41.06,-139.93 -61.56,-277.91 -85.97,-430.55 -12.46,-77.84 -39.33,-426.93 -59.58,-457.99 -3.28,0.82 -92.59,381 -103.95,444.58 -34.94,195.83 99.34,303.45 142.24,489 25.68,111.17 17.95,190.79 181.32,457.9 79.9,130.57 97.39,301.12 157.55,456.42 119.14,307.52 114.81,397.01 114.45,694.88 -0.06,43.6 15.57,130.4 -19.85,151.82 -84.96,51.36 -110.27,-13.89 -192.47,187.14 -76.66,187.47 28.59,329.3 75.74,504.13 52.35,194.15 -15.01,352.85 -15.8,573.53zm-2375.79 -1025.36l-271.66 221.8c-257.98,187.7 -43.67,286.42 -221.11,430.74l1018.44 28.29c630,-41.31 681.21,-332.16 764.48,-451.51 54.83,54.84 34.22,336.51 -108.82,470.53 -301.55,282.49 -1267.08,209.77 -1708.99,207.34 -202,-1.11 -434.16,8.63 -628.39,-8.47 -203.07,-17.89 -412.57,-3.86 -619.14,-22.78 -248.76,-22.77 -537.72,-67.91 -700.41,-250.01 -50.15,-56.12 -80.66,-150.82 -148.69,-175.7 -84.73,125.39 53.97,329.39 271.23,414.15 450.26,154.28 1815.9,133.79 2813.43,142.1 801.88,6.66 1064.98,-366.62 1081.11,-1089.11l145.99 -1.96c39.49,58.14 -3.06,250.21 34.98,351.82 30.97,82.78 43.72,127.08 156.45,115.72 9.63,-164.77 -165.7,-145.42 -97.05,-276.75 41.04,-78.54 227.46,-133.71 262.64,-29.32 11.36,33.73 2.15,75.96 6.73,113.51 78.9,-9.7 98.46,-146.06 116.11,-214.13 28.38,-109.51 47.26,-197.01 58.45,-314.14 11.46,-120.3 19.44,-236.91 20.98,-358.28 1.25,-94.78 -0.65,-116.58 -13.19,-211.13 -421.68,-582.1 231.25,1217.68 -272.19,250.3 -35.72,-90.11 -57.98,-130.24 -112.49,-195.16 -43.97,120.87 228.85,675.19 -4.93,807.96 -137.42,-194.72 -340.7,-1532.88 258.82,-1228.5 -37.24,-263.61 -224.64,-277.73 -368.97,-27 -26.57,46.18 -67.23,175.4 -106.55,194.23 -41.57,-52.04 -41.14,-232.91 -27.39,-300.64 113.66,-336.65 72.22,-1069.42 -36.23,-484.2 -27.24,-8.26 -144.24,-160.46 -162.54,-192.87 -45.87,-81.24 -85.75,-160.28 -127.57,-245.02 -89.82,-181.74 -158.25,-324.86 -337.01,-409.81 -379.57,-180.44 -901.36,-1.88 -944.29,190.74 -11.16,50.11 -20.2,126.23 -10.83,174.8 35.89,-435.32 1215.76,-504.41 1257.8,145.34 -125.35,-47.25 -201.76,-162.65 -376.08,-141.79 -152.06,60.6 -127.46,279.64 -503.76,20.76 -321.19,-220.95 -386.9,438.41 -242.12,791.53 -140.66,-42.32 -4.9,-157.35 -470.58,-214.68 -7.67,-0.95 -34.94,-4.63 -41.54,-6.23 -68.64,-16.73 -49.87,-83.79 -49.59,-146.53l0.37 -433.49c1.86,-183.54 18.2,-364.46 50.74,-539.41 64.49,-346.85 270.57,-510.5 672.59,-505.03 463.96,6.28 1015.98,328.96 1165.24,764.85 304.51,-2.89 -54.64,-557.42 -140.34,-685.3 -51.84,-77.36 -112.15,-131.32 -166.67,-194.62 -141.01,-163.73 -312.17,-292.78 -407.93,-494.95 -19.24,-40.63 -20.73,-115.58 -46.51,-146.33 -22.98,-27.44 -197.33,-86.28 -250.81,-110.24 -76.39,-34.2 -165.47,-86.33 -229.54,-131.67 -190.71,-134.89 -207.78,-295.48 -441.18,-290.2 -339.3,7.65 -507.78,229.56 -563.01,518.64 -13.78,71.98 -31.49,234.3 33.98,273.87 45.96,-18.71 43.48,-96.64 55.78,-147.47 29.3,-120.96 91.12,-285 196.11,-356.11 215,151.45 315.24,1012.77 -73.32,890.35 -149.95,-47.25 -75.58,-171.81 -169.5,-214.09 -0.7,248.5 135.86,372.46 141.47,555.44 -79.59,-36.58 -204.1,-283.87 -258.78,-234.43 -50.67,62.93 26.4,116.75 58.66,156.25 151.87,185.94 186.88,239.13 207.81,517.19 23.39,311.18 32.37,632.48 24.51,954.46 -251.01,21.17 -462.57,49.9 -553.31,240.3 -110.25,231.32 144.31,423.43 243.54,245.79 -39.71,-66.48 -52.54,-44.79 -77.81,-132.05 -57.15,-197.23 274.7,-226.57 366.3,-97.86 65.65,92.34 -17.89,183.97 -63.12,227.13 -130.41,124.41 -80.98,100.36 -328.28,295.83 -81.92,64.75 -289.94,231.71 -322.02,310.15 66.68,-15.24 166.32,-122.35 215.92,-163.93 254.42,-213.52 279.69,-245.35 536.67,-216.17 98.52,11.19 246.9,40.39 232.64,-77.44 -107.74,-41.3 -255.55,15.39 -341.27,-39.45 190.18,-150.3 416.83,-65.15 434.95,-137.17 -39.11,-56.1 -83.11,6.02 -132.64,-85.03 -53.77,-98.79 56.33,-174.7 138.46,-189.87 96.52,-17.82 219.1,38.15 243.66,100.91 84.43,221.47 -114.9,90.7 -108.17,206.88 39.18,61.99 363.1,176.73 382.08,230.42 -102.39,90.29 -418.03,-117.11 -453.38,-46.66 34.8,64.53 108.42,77.55 165.56,126.67 124.65,107.21 223.82,253.15 340.71,357.59 87.96,78.58 185.02,27.78 287.89,60.5 37.66,137.76 -79.96,221.24 -188.36,226.59 -222.69,11 -362.86,-424.64 -854.31,-431.35 -273.11,-3.73 -497.86,52.65 -662.29,188.99 -74.26,61.58 -138.8,147.66 -229.56,193.84 -139.73,71.11 -216.13,-46.49 -300.21,-80.94 -19.34,33.63 -49.02,205.05 -40.13,255.29 12.91,72.97 74.64,155.99 151.73,166.02 53.58,7.01 178.37,-59.68 220.87,-81.96 104.51,-54.72 122.63,-57.3 255.95,-71.7 -22.28,-63.08 -115.63,-68.41 -144.27,-139.98 25.05,-67.39 182.15,-237.94 278.19,-229.12 85.17,147.24 41.77,166.16 351.73,184.32 275.83,16.11 1073.66,-23.12 537.08,379.81zm-827.72 1975.63c-110.69,108.83 -233.31,415.58 -253.29,567.16 -14.08,106.94 -76.62,367.37 -156.96,382.77 -60.16,-108.87 -145.69,-297.39 -321.34,-457.17 -192.5,-175.13 -374.22,-24.5 -504.31,82.06 -108.07,88.55 -156.88,203.93 -247.79,314.47 -78.87,95.9 -85.67,144.03 -63.74,298.02 68.01,477.3 237.74,1021.94 478.47,1375 154.47,226.53 462.96,672.07 841.4,655.68 7.3,-113.75 -28.22,-338.51 -34.51,-472.39 -0.96,-656.9 -109.55,-1279.68 389.04,-222.25 293.2,1578.69 616.45,-109.74 825.76,-310.92 133,-127.83 175.2,280.1 286.03,964.69 576.68,247.26 1203.66,-132.43 1529.65,-563.8 8.77,-121.35 -1253.31,-461.57 -926.3,-2343.95 186.44,167.26 -23.39,1036.55 526.93,934.14 0.21,-1.32 -275.75,-351.6 -186.52,-1274.96 -0.82,-203.2 85.28,-938.37 78.89,-999.22 -71.17,11.82 -122.97,159.66 -159.94,224.38 -50.76,88.86 -115.87,152.88 -181.38,215.97 -691.68,759.07 -359.12,75.21 -978.89,1285.39 -164.17,320.55 -119.85,-1430.8 -941.2,-655.07z"/>
 </g>
</svg>
