<?xml version="1.0" encoding="UTF-8"?>
<!DOCTYPE svg PUBLIC "-//W3C//DTD SVG 1.1//EN" "http://www.w3.org/Graphics/SVG/1.1/DTD/svg11.dtd">
<!-- Creator: CorelDRAW -->
<svg xmlns="http://www.w3.org/2000/svg" xml:space="preserve" width="210mm" height="297mm" version="1.1" style="shape-rendering:geometricPrecision; text-rendering:geometricPrecision; image-rendering:optimizeQuality; fill-rule:evenodd; clip-rule:evenodd"
viewBox="0 0 21000 29700"
 xmlns:xlink="http://www.w3.org/1999/xlink"
 xmlns:xodm="http://www.corel.com/coreldraw/odm/2003">
 <defs>
  <style type="text/css">
   <![CDATA[
    .str0 {stroke:#2B2A29;stroke-width:7.62;stroke-miterlimit:22.9256}
    .fil0 {fill:#2B2A29}
   ]]>
  </style>
 </defs>
 <g id="Layer_x0020_1">
  <metadata id="CorelCorpID_0Corel-Layer"/>
  <path class="fil0 str0" d="M12734.83 9559.08c1535.05,274.93 2894,1654.81 2894,3273.79 0,1817.7 -1468.86,3291.25 -3280.8,3291.25 -1811.93,0 -3280.79,-1473.55 -3280.79,-3291.25 0,-1737 1225.08,-3027.92 2889.59,-3280.85 -63.59,-309.07 30.27,-511.19 356.61,-555.39 369.71,-10.39 491.26,193.42 421.39,562.45zm-2524.14 5490.55c48.94,0 88.62,39.1 88.62,87.32 0,48.22 -39.68,87.32 -88.62,87.32 -48.94,0 -88.62,-39.1 -88.62,-87.32 0,-48.22 39.68,-87.32 88.62,-87.32zm1377.81 754.28c48.94,0 88.62,39.1 88.62,87.32 0,48.22 -39.68,87.32 -88.62,87.32 -48.94,0 -88.62,-39.1 -88.62,-87.32 0,-48.22 39.68,-87.32 88.62,-87.32zm1699.5 -70.23c48.94,0 88.62,39.1 88.62,87.32 0,48.22 -39.68,87.32 -88.62,87.32 -48.94,0 -88.62,-39.1 -88.62,-87.32 0,-48.22 39.68,-87.32 88.62,-87.32zm1216.14 -747.87c48.94,0 88.62,39.1 88.62,87.32 0,48.22 -39.68,87.32 -88.62,87.32 -48.94,0 -88.62,-39.1 -88.62,-87.32 0,-48.22 39.68,-87.32 88.62,-87.32zm-2463.56 -4901.47c129.69,-37.34 175.1,165.06 59.53,251.35 -179.69,-94.39 -173.53,-237.27 -59.53,-251.35zm315.98 -943.14c112.81,0 204.25,85.33 204.25,190.59 0,105.26 -91.44,190.58 -204.25,190.58 -112.81,0 -204.26,-85.32 -204.26,-190.58 0,-105.26 91.45,-190.59 204.26,-190.59zm-685.45 2606.4l259.93 52.67c-7.29,-95.15 -63.01,-154.75 -131.45,-207.9 -74.35,-13.01 -18.35,-7.84 -84.66,-4.48 -9.35,28.28 -9.91,51.58 -16.62,79.07 -8.38,34.35 -20.33,47.59 -27.2,80.64zm-294.61 -114.24c54.33,38.06 114,80.77 202.96,91.59 60.99,-101.94 9.24,-229.94 -31.24,-243.76 -35.96,-12.27 -93.07,19.49 -116.59,37.4 -32.87,25.03 -58.8,55.42 -55.13,114.77zm-598.14 -534.17c96.37,-5.19 547.48,-187.68 664.32,-235.33 134.42,-54.83 318.79,-150.7 437.48,-231.69 173.69,-118.55 106.96,-123.01 62.43,-158.04 -36.57,-28.77 -103.14,-105.07 -120.59,-149.73 -19.98,-51.14 -20.04,-112.97 -7.66,-163.02 5.8,-23.45 11.51,-39.85 22.09,-63 10.98,-24.02 31.74,-43.76 12.9,-52.85 -18.46,-8.91 -120.18,21.09 -139.72,28.92 -179.49,71.9 -542.36,450.68 -656.27,585.82 -65.17,77.31 -240.2,328.22 -274.98,438.92zm1713.26 4649.28c18.52,-38.85 20.74,-84 8.78,-124.59 -386.2,-38.22 -612,-46.33 -964.16,-180.06 -282.09,-107.11 -529.62,-262.51 -726.21,-416.53 -209.28,-163.95 -397.29,-372.52 -555.19,-587.69 -360.4,-491.12 -544.29,-1119.97 -531.6,-1751.34 6.17,-306.89 78.86,-694.5 183.18,-956.51 109.51,-275.05 229.79,-515.43 401.59,-741.11 110.1,-144.63 277.05,-329.89 416.44,-448.11 25.73,-21.83 141.02,-110.77 155.22,-131.73 -465.47,145.64 -998.68,830.99 -1192.78,1253.11 -466.52,1014.62 -302.26,2222.82 413.85,3082.56 99.45,119.39 202.74,213 311.4,314.25 53.95,50.27 110.61,89.84 174.17,139.33 348.52,271.35 850.55,480.41 1318.14,539.32 148.09,18.65 455.99,45.91 587.17,9.1zm-2022.42 -3112.85c-20.01,243 126.91,683.08 214.78,875.24 150.19,328.42 233.64,432.29 437.63,688.59 18.37,23.07 45.13,47.44 65.63,69.64 255.7,276.87 570.9,484.42 928.41,621.12 68.65,26.25 371.49,138.7 437.06,123.46 11.57,-144.18 12.75,-302.37 15.11,-447.66 1.96,-120.82 20.22,-356.51 3.99,-463.77 -29.83,-17.65 -94.43,-18.07 -191.53,-69.06 -428.79,-225.15 -399.73,-792.37 -316.36,-1208.3 11.5,-57.4 40.23,-155.87 46.74,-216.56 -3.39,26.23 -59.15,124.09 -76.49,166.29l-213.39 575.19c-91.03,248.09 -149.62,602.81 -461.11,579.67 -453.76,-33.71 -511.65,-717.58 -466.31,-1076.29 20.31,-160.74 61.61,-267.23 95.79,-410.11 -56.95,25.48 -481.62,185.13 -519.95,192.55zm1875.21 -2640.15l-55.97 197.98c-15.22,46.03 -62.45,158.02 -63.37,200.39 40.59,55.13 84.25,62.41 122.21,143.94 0.93,14.07 -99.75,167.2 -121.1,187.31 -48.78,-7.25 -107.03,-65.09 -135.27,-96.65 -83.89,61.67 -128.49,113.32 -246.95,192.5 -92.39,61.75 -185.13,113.55 -290.67,158.63 -235.47,100.6 -418.67,161.82 -693.71,212.4 -132.93,23.47 -123.65,-28.03 -218.02,190.65 -44.37,110.29 -79.31,221.17 -108.24,341.07 -61.43,254.56 -105.4,517.79 -85.02,792.29 123.03,-27.63 939.32,-479.31 1010.3,-582.45l-10.83 -8.58c-7.45,-5.13 -7.01,-5.18 -16.55,-10.79 -13.15,-7.74 -20.58,-10.61 -33.13,-17.38 -272.93,-147.28 -56.35,-384.01 -46.8,-437.26 9.47,-52.78 -64.32,-471.47 357.13,-183.9 99.34,67.78 129.28,97.13 199.22,181.91 45.82,55.55 120.13,166.64 120.6,265.65 0.38,79.64 -71.48,241.9 -110.59,275.58 -43.13,37.14 -246.4,-13.14 -326.18,-7.68l-112.94 114.79c-98.08,92.56 -141.63,126.55 -263.22,202.41 -62.33,38.89 -61.33,36.55 -85.71,163.16 -52.25,271.36 -109.61,551.28 -27.16,823.87 33.88,112.02 99.76,242.56 211.31,254.22 197.21,20.61 325.31,-414.64 374.57,-560.81 103.98,-308.58 244.2,-743.68 449.21,-964.69 40.91,-44.1 168.3,-203.33 288.73,-171.22 129.73,34.6 40.24,282.82 21.75,354.47 -66.41,257.38 -125.81,494.37 -175,765.87 -37.55,207.23 -15.18,400.98 148.1,527.96 43.04,33.46 92.89,74.02 158.53,73.78 14.23,-61.72 12.94,-580.14 13.6,-683.38 1.15,-178.71 22.24,-1755.46 4.84,-1871.2 -8.87,-58.94 -51.29,-164.39 -35.83,-213.6 30.97,-98.61 140.06,-290.05 197.33,-338 92.12,46.65 298.08,712.82 273.47,924.71l-141.13 30.79c-16.03,73.61 -39.69,2108.66 -28.27,2150.22 123.21,-61.45 236.46,-140.5 306.64,-272.16 134.45,-252.24 107.29,-758.21 25.09,-1032.82 -64.86,-216.65 -5.86,-327.11 -70.14,-624.86 -16.44,-76.21 -6.05,-141.31 -0.71,-217.74 7.39,-105.82 47.53,-299.5 146.69,-342.38 0.37,219.68 -87.49,279.94 -53.04,416.35 31.81,125.97 204.83,116.07 270.09,-22.63 57.31,-121.8 -23.57,-317.49 38.64,-410.21 53.68,-80.01 2.8,-313.42 -20.07,-404.57 -39.6,-157.81 -235.65,-497.86 -374.3,-558 -118,-51.18 -232.43,-83.58 -364.71,-101.38 -97.43,-13.12 -337.53,-49.12 -423.42,-8.56zm1514.3 1001.41c26.76,69.35 34.14,202.03 57.18,289.49 30.02,113.9 27.82,196.82 -13.22,301.32 -87.62,223.1 -296.9,226.92 -387.49,27.79 -23.24,36.57 -70.69,42.93 -47.65,101.37 54.94,139.31 79.28,291.6 100.03,441.85 30.61,221.72 34.76,439.81 59.49,660.67 31.2,278.68 90.41,601.74 326.98,748.67 76.75,47.66 327.24,114.88 426.9,21.96 204.21,-190.38 -635.81,-2006.79 -60.28,-2013.39l129.61 174.64c41.8,62.05 78.06,127.73 118.15,195.07 29.93,50.28 89.14,151.89 107.97,205.22 71.9,203.62 -106.45,133.41 -152.6,114.95 18.25,129 63.71,280.18 94.88,408.06 34.69,142.31 64.35,282.56 87.61,429.66 60.53,382.78 -43.51,944.87 -470.57,1026.65 -465.64,89.16 -744.18,-265.5 -861.62,-659.88 -6.62,39.5 -182.47,296.97 -210.51,332.49 -82.38,104.37 -177.06,197.81 -311.83,245.58 -7.18,258.74 4.69,517.91 -2.54,773.08 -1.69,59.59 -16.68,189.59 -7.14,239.33 280.62,53.07 743.12,-16.55 999.38,-97.53 524.35,-165.72 980,-534.33 1191.11,-1061.31 111.79,-279.05 191.88,-581.06 202.05,-926.43 9.99,-339.57 -28.53,-719.51 -129.33,-999.52 -76.77,-213.27 -58.58,-183.33 -159.56,-398.08 -162.91,-346.46 -449,-713.33 -750.83,-943.58 -239.34,-182.58 -255.28,-187.71 -523.11,-323.7 -82.96,-42.13 -193.25,-78.44 -226.52,-99.86 34.33,135.6 154.84,249.92 169.98,515.41 3.34,58.58 -16.58,259.74 -6.15,281.31 22.1,45.75 22.08,15 33.32,117.07 23.06,209.45 -54.64,349.84 36.44,415.47 30.62,22.06 75.22,39.21 120.34,29.24 99.45,-21.97 -17.65,-124.23 -33.02,-355.52 -5.84,-87.86 45.62,-197.27 92.55,-217.55z"/>
 </g>
</svg>
