<?xml version="1.0" encoding="UTF-8"?>
<!DOCTYPE svg PUBLIC "-//W3C//DTD SVG 1.1//EN" "http://www.w3.org/Graphics/SVG/1.1/DTD/svg11.dtd">
<!-- Creator: CorelDRAW -->
<svg xmlns="http://www.w3.org/2000/svg" xml:space="preserve" width="210mm" height="297mm" version="1.1" style="shape-rendering:geometricPrecision; text-rendering:geometricPrecision; image-rendering:optimizeQuality; fill-rule:evenodd; clip-rule:evenodd"
viewBox="0 0 21000 29700"
 xmlns:xlink="http://www.w3.org/1999/xlink"
 xmlns:xodm="http://www.corel.com/coreldraw/odm/2003">
 <defs>
  <style type="text/css">
   <![CDATA[
    .fil0 {fill:#2B2A29}
   ]]>
  </style>
 </defs>
 <g id="Layer_x0020_1">
  <metadata id="CorelCorpID_0Corel-Layer"/>
  <g>
   <path class="fil0" d="M6075.48 14872.53c0,-2282.23 1733.43,-4159.84 3956.46,-4390.14 -22.08,65.78 -18.22,126.63 11.58,182.58 -91.67,84.02 -182.13,355.2 -271.38,813.51 28.89,35.51 39.49,88.47 31.81,158.89 -47.37,23.65 -65.04,68.85 -53.01,135.59 6.98,39.51 -1.52,69.17 -25.45,88.98 -23.84,14.56 -44.34,48.45 -61.48,101.68 -13.43,58.33 -39.58,94.35 -78.44,108.05 -43.96,9.29 -53.9,17.76 -80.62,25.42 -59.43,-12.46 -70.77,-40.71 -84.84,-84.74 0.05,-42.33 -40.23,-71.98 -120.84,-88.97 -83.37,-5.79 -137.78,-47.46 -163.26,-124.99 -86.93,-183.54 -150.53,-331.83 -190.8,-444.9 17.05,-21.64 8.57,-64.02 -25.45,-127.11 -35.98,-76.81 -122.12,-101.52 -156.81,-74.15 -53.28,27.23 -85.08,54.77 -95.41,82.63 -123.58,54.45 -196.36,68.56 -218.36,42.37 -77.42,39.74 -195.27,84.94 -150.37,135.58 36.75,55.09 55.12,82.62 55.12,82.62 26.73,41.94 50.75,60.31 72.09,55.09 48.19,45.14 111.1,135.53 188.69,271.16 97.96,166.52 136.83,277.39 116.61,332.61 7.94,45.74 26.3,81.06 55.12,105.93 10.88,41.01 29.26,81.26 55.13,120.76 17.29,35.19 104.75,100.86 59.2,197.02 -29.68,110.06 -72.07,182.8 -127.21,218.2 -111.55,93 -200.6,193.99 -267.14,302.96 -24.69,34.48 -55.79,74.03 -93.29,118.63 -47.03,76.94 -112.05,254.18 -195.06,531.75 -9.74,49.07 16.41,90.74 78.45,125 109.15,138.43 266.75,232.35 472.8,281.76 82.94,35.32 183.3,50.14 301.05,44.49 76.33,18.36 114.49,27.54 114.49,27.54 -5.51,70.68 -30.96,143.41 -76.32,218.2 -43.59,119.94 -90.24,230.1 -139.93,330.5 -28.31,130.24 -69.29,181.09 -122.97,152.53 -116.15,-23.03 -219.33,-113.42 -309.54,-271.17 -108.94,-200.61 -217.07,-341.84 -324.39,-423.71 -152.8,-120.87 -270.81,-154.06 -354.07,-99.57 -72.74,89.49 -154.73,180.59 -245.92,273.29 -53.84,60.18 -75.04,125.85 -63.61,197.02 -32.9,166.88 -63.28,311.64 -91.17,434.29 -19.04,75.03 50.92,103.27 209.9,84.75 19.59,68.22 42.91,114.83 69.97,139.83 -16.73,31.6 -13.91,65.49 8.48,101.68 -8.11,55.6 -6.69,94.44 4.23,116.52 -15.31,61.58 -11.77,115.24 10.6,161.01 -11.52,173.84 32.3,293.89 131.46,360.15 38.41,-15.46 91.41,-47.24 159.01,-95.33 135.35,-89.16 270.34,-142.13 404.94,-158.89 20.15,-4.5 79.51,-24.28 178.09,-59.33 96.76,-41.73 141.99,-34.67 135.7,21.19 1.11,35.34 -0.3,81.24 -4.24,137.71 -1.61,152.81 -76.51,300.4 -224.74,442.77 -72.69,37.6 -134.87,144.94 -186.58,322.02 -17.13,74.41 -77.2,159.16 -180.21,254.21 -239.16,380.82 -173.44,745.91 197.17,1095.28 -26.05,263.72 -119.33,458.62 -279.85,584.72l-6.34 25.11c-1209.38,-787.48 -2009.05,-2150.62 -2009.05,-3700.58zm4439.83 -4413.31c17.92,-0.21 35.79,-0.68 53.76,-0.68 1038.87,0 1866.85,333.11 2621.14,932.88 -0.6,12.7 -2.21,25.06 -4.87,37.08 -17.01,42.98 -23.71,124.28 21.97,210.24 125.07,281.43 317.09,1771.29 -67.67,2097.15 -73.45,-7.07 -117.65,37.14 -234.15,81.81 -44.2,29.42 -87.21,32.11 -129.03,8.06 -88.33,25.34 -151.95,45.93 -190.86,61.78 -241.49,-64.84 -419.81,-126.62 -534.95,-185.34 -116.74,-69.78 -262.8,-109.16 -438.18,-118.19 -134.96,-314.58 -235.33,-502.61 -301.08,-564.08 -22.48,-50.58 -21.59,-97.13 2.69,-139.69 12.37,-9.12 3.42,-37.77 -26.88,-85.96 18.88,-33.11 9.03,-68.03 -29.57,-104.75 6.17,-98.97 -26.08,-173.29 -96.77,-222.95 -98.59,-38.63 -153.24,-88.77 -163.99,-150.42 -133.03,-82.32 -155.42,-196.04 -67.2,-341.14 19.7,-24.55 17.91,-62.16 -5.38,-112.82 2.35,-62.59 23.58,-102.55 -37.91,-170.69 1.5,-83.5 -9.24,-155.13 -32.26,-214.88 30.3,-137.95 23.13,-251.67 -21.51,-341.15 3.6,-72.28 -60.9,-177.03 -193.55,-314.28 -107.38,-71.17 -113.92,-166.41 -121.23,-234.91 24.58,-25.47 6.8,-67.82 -2.52,-127.07zm2912.15 1092.1c954.04,809.66 1482.8,1816.33 1482.8,3321.21 0,1504.89 -766.01,3006.02 -2122.98,3759.29l-13.27 -20.19c-14.8,-56.09 -27.51,-123.88 -38.17,-203.38 -3.69,-29 -33.36,-51.59 -89.04,-67.78 -87.96,-38.67 -320.97,-8.4 -445.02,-163.23 -23.3,-65.49 135.36,-26.11 169.97,-72.22 32.49,-40.84 38.85,-79.68 19.09,-116.52 737.39,-1030.74 1009.49,-1955.67 670.3,-2876.96 29.37,-28.12 44.93,-92.63 46.68,-193.53 34.36,-53.82 47.16,-117.74 38.39,-191.78 45.85,-59.86 68.89,-135.3 69.1,-226.3 86.55,-9.02 167.16,-87 241.83,-233.98 46.09,-107.61 66.57,-220.12 61.42,-337.53 320.81,-578.55 318.87,-1296.48 -9.05,-2146.05 22.96,-42.39 -80.23,-167.63 -82.05,-231.05zm-1031.86 7331.67c-589.02,290.72 -1213.26,403.54 -1902.73,403.54 -689.47,0 -1243.14,-127.16 -1816.9,-399.6l-14.9 -52.96c19.45,-118.69 39.94,-239.45 61.48,-362.25 68.15,-216.33 97.83,-334.97 89.04,-355.92 30.98,-73.65 51.49,-142.16 61.49,-205.5 26.14,-49.91 71.36,-155.13 135.68,-315.67 39.27,-85.32 67.67,-261.14 237.59,-476.64 43.47,-165.16 90.82,-265.44 142.04,-300.83 163.96,-177.96 245.94,-266.93 245.94,-266.93 108.59,-69.83 134.03,-52.17 76.32,52.96 -108.03,154.04 -167.4,248.67 -178.09,283.88 -13.39,27.95 19.83,54.79 99.65,80.5 51.58,43.01 89.03,76.21 112.37,99.58 52.72,61.8 100.78,119.7 144.17,173.71 36.6,-14.05 76.16,-94.56 118.73,-241.5 49.47,-152.73 115.19,-248.77 197.17,-288.12 28.7,59.84 40.71,95.14 36.04,105.92 41.91,66.37 91.39,122.15 148.42,167.36 64.37,404.91 142.93,736.77 388.11,893.98 107.65,40.13 226.03,54.36 355.14,42.66 254.64,64.31 394.2,115.77 418.71,154.37 1.08,24.03 -1.04,81.23 -6.36,171.6 -8.85,60.82 47.69,106 169.6,135.58 118.1,42.79 182.42,100.7 192.93,173.72 25.75,76.56 59.68,111.86 101.78,105.93 33.57,-12.52 75.98,0.9 127.21,40.25 34.88,23.27 110.45,40.93 175.93,52.96 47.77,-4.44 75.59,38.05 83.44,127.42zm-4665.51 -4118.38c543.74,-168.11 163.2,330.21 988.59,388.55l113.95 43.47c-761.54,159.95 -669.39,-427.16 -1102.54,-432.02zm63.14 273.37c354.33,-192.64 121.1,340.73 946.49,399.07l113.95 43.47c-779.08,163.46 -732.52,-441.19 -1060.44,-442.54zm2049.99 -26.82c327.95,399.9 27.94,916.12 -133.69,1322.26l-59.12 -87.86c95.03,-534.65 308.66,-653.3 192.81,-1234.4zm230.82 361.84c306.89,397.34 103.98,836.14 -153.78,1323.9 -3.57,-176.37 17.49,-238.85 68.71,-400.63 163.16,-515.39 149.13,-495.14 85.07,-923.27zm-754.04 -1773.43c46.99,58.72 68.58,112.8 64.76,162.24 2.14,27.64 6.79,49.21 13.93,64.71 11.96,11.87 11.96,24.14 0,36.82 -18.18,8.27 -24.82,18.22 -19.91,29.86l-58.78 -293.63zm56.78 299.6c-2.09,18.01 -13.39,23.32 -33.87,15.94 -20.79,-5.33 -34.41,-1.02 -40.84,12.93 -175.94,-22.71 -329.01,-87.08 -459.2,-193.1 -92.06,-82.43 -120.95,-145.81 -86.67,-190.11 63.79,-60.23 114.26,-87.43 151.41,-81.63 29.49,-2.27 49.41,-12.56 59.77,-30.85 67.28,-52.29 131.36,-65.89 192.26,-40.81 64.64,70.99 119.42,143.65 164.35,217.98l52.79 289.65zm-671.07 -2349.94c100.76,183.25 331.15,434.45 162.91,461.7 0,0 -82.57,-133.93 -222.84,-411.75 0,0 30.89,-27.56 59.93,-49.95zm330.74 393.28c-30.11,-27.02 -147.85,-187.62 -242.81,-432.74 10.43,-33.54 47.43,-45.86 61.91,-20.64 154.83,236.33 216.2,420.17 180.9,453.38zm3644.13 3042.18c-36.39,-100.48 -36.39,-212.33 0,-335.56 47.26,-182.37 143.44,-264.8 186.96,-298.08 51.51,-41.97 27.12,-50.83 -22.38,-77.37 -41.76,-10.28 -76.88,-2.58 -105.89,21.15 -24.82,6.25 -67.18,-12.91 -127.07,-57.44 -33.62,-25.9 -113.17,-42.78 -238.68,-50.64 -177.28,-9.49 -327.83,-5.68 -451.64,11.42 -193.42,20.94 -397.14,-59.16 -611.13,-240.33 -178.43,-153.12 -302.97,-270.52 -373.65,-352.19 -74.62,-61.46 -111.93,-92.2 -111.93,-92.2 -33.74,-7.22 -56.93,43.37 -69.59,100.97 -70.59,227.74 -80.48,265.41 -80.48,265.41 -14.16,83.28 9.04,131.64 69.57,145.11 86.74,22.17 130.11,33.26 130.11,33.26 49.08,15.76 71.77,77.24 68.07,184.4 -14.2,37.73 -16.23,118.86 -6.05,243.37 3.89,30.72 -0.14,61.45 -12.11,92.19 79.67,219.69 119.5,329.53 119.5,329.53 -33.69,21.41 -20.57,74.31 39.33,158.71 37.25,91.28 52.87,158.29 46.9,201.04 42.54,132.48 98.51,263.98 167.92,394.51 52.85,274.06 102.77,432.77 149.76,476.14 14.04,97.95 34.21,160.93 60.49,188.94 7.84,14.83 8.35,36 1.53,63.49 38.13,178.49 74.94,288.83 110.42,331.04 -9.52,281.02 118.06,462.91 260.18,695.3 28.07,113.97 81.52,181.99 160.36,204.07 72.61,23.82 85.21,68.15 37.81,133.02 -32.23,17.81 -27.7,38.46 13.62,61.97 24.82,34.65 49.53,27.09 74.12,-22.68 458.78,-823.22 942.66,-1851.39 513.95,-2808.55zm-2187.71 4945.84c2805.59,0 5080,-2272.66 5080,-5076.09 0,-2597.22 -1952.1,-4738.88 -4470.17,-5039.9 -505.12,-55.75 -712.58,-61.52 -1219.66,0.01 -2518.07,301.01 -4470.17,2442.67 -4470.17,5039.89 0,2803.43 2274.41,5076.09 5080,5076.09zm2925.23 -1420.28c5.49,-57.32 49.09,-107.41 105.29,-120.29 38.96,-11.64 83.23,-6.55 114.39,21.15 28.02,25.77 58.62,58.65 56.2,99.61 2.22,44.43 -16.44,95.1 -59.07,115.01 -24.25,12.31 -48.79,28.75 -77.18,27.11 -74.38,-1.44 -140.49,-67.89 -139.63,-142.59zm-4275.57 929c17.33,-43.25 56.1,-77.49 100.56,-90.67 83.53,-29.52 182.55,52.5 166.77,140.38 -7.7,41.07 -26.95,85.31 -67.35,103.57 -55.83,31.73 -135.51,16.93 -173.03,-36.06 -26.28,-32.59 -34.84,-76.73 -26.95,-117.22zm-1624.81 -826.9c16.55,-56.26 70.82,-94.43 127.21,-102.8 91.23,1.16 164.93,99.33 133.86,187.03 -22.81,45.67 -65.05,82.29 -114.7,95.67 -42.93,6.54 -85.73,-16.44 -112.01,-49.63 -31.38,-34.21 -54.47,-84.7 -34.36,-130.27zm4087.14 791.56c15.88,-25.78 43.5,-41.94 71.7,-51.06 41.56,-12.22 88.13,-4.91 126.53,13.92 36.48,35.87 61.69,90.19 45.42,141.85 -15.68,80.65 -123.65,134.7 -193.51,84.6 -64.37,-35.56 -88.82,-126.82 -50.14,-189.31zm-1114.29 -9427.03c76.24,0 138.05,61.77 138.05,137.94 0,76.18 -61.81,137.94 -138.05,137.94 -76.23,0 -138.04,-61.76 -138.04,-137.94 0,-76.17 61.81,-137.94 138.04,-137.94z"/>
  </g>
 </g>
</svg>
