<?xml version="1.0" encoding="UTF-8"?>
<!DOCTYPE svg PUBLIC "-//W3C//DTD SVG 1.1//EN" "http://www.w3.org/Graphics/SVG/1.1/DTD/svg11.dtd">
<!-- Creator: CorelDRAW -->
<svg xmlns="http://www.w3.org/2000/svg" xml:space="preserve" width="210mm" height="297mm" version="1.1" style="shape-rendering:geometricPrecision; text-rendering:geometricPrecision; image-rendering:optimizeQuality; fill-rule:evenodd; clip-rule:evenodd"
viewBox="0 0 21000 29700"
 xmlns:xlink="http://www.w3.org/1999/xlink"
 xmlns:xodm="http://www.corel.com/coreldraw/odm/2003">
 <defs>
  <style type="text/css">
   <![CDATA[
    .str0 {stroke:#2B2A29;stroke-width:20;stroke-miterlimit:22.9256}
    .fil0 {fill:#2B2A29}
   ]]>
  </style>
 </defs>
 <g id="Layer_x0020_1">
  <metadata id="CorelCorpID_0Corel-Layer"/>
  <path class="fil0 str0" d="M21839.64 7922.8l10253.05 -10253.03 10253.03 10253.05 -10253.05 10253.03 -10253.03 -10253.05zm6734.67 4619.6l6999.99 0.01 0 400 -6999.99 0 0 -400.01zm10275.28 -4876.47c143,-0.01 258.93,115.92 258.93,258.91 -0.01,143.01 -115.95,258.93 -258.94,258.93 -143,0.01 -258.93,-115.92 -258.92,-258.93 -0.01,-142.98 115.92,-258.91 258.93,-258.91zm-13520.83 0c143,-0.01 258.93,115.92 258.91,258.91 0.02,143 -115.91,258.93 -258.91,258.94 -143,-0.01 -258.93,-115.94 -258.93,-258.93 0,-143 115.93,-258.93 258.93,-258.92zm3102.13 256.88l3661.79 -3661.79 3661.79 3661.79 -3661.79 3661.79 -3661.79 -3661.79z"/>
  <polygon class="fil0 str0" points="39151.96,18513.19 42904.11,18513.19 42904.11,18113.19 49904.11,18113.19 49904.11,18513.19 53656.27,18513.19 53656.27,24514.97 39151.96,24514.97 "/>
 </g>
</svg>
