<?xml version="1.0" encoding="UTF-8"?>
<!DOCTYPE svg PUBLIC "-//W3C//DTD SVG 1.1//EN" "http://www.w3.org/Graphics/SVG/1.1/DTD/svg11.dtd">
<!-- Creator: CorelDRAW -->
<svg xmlns="http://www.w3.org/2000/svg" xml:space="preserve" width="210mm" height="297mm" version="1.1" style="shape-rendering:geometricPrecision; text-rendering:geometricPrecision; image-rendering:optimizeQuality; fill-rule:evenodd; clip-rule:evenodd"
viewBox="0 0 21000 29700"
 xmlns:xlink="http://www.w3.org/1999/xlink"
 xmlns:xodm="http://www.corel.com/coreldraw/odm/2003">
 <defs>
  <style type="text/css">
   <![CDATA[
    .fil0 {fill:#2B2A29}
   ]]>
  </style>
 </defs>
 <g id="Layer_x0020_1">
  <metadata id="CorelCorpID_0Corel-Layer"/>
  <path class="fil0" d="M11102.71 9800.19c-206.83,-39.54 -613.39,-39.54 -1219.67,0.01 -2518.06,301.45 -4470.17,2446.14 -4470.17,5047.05 0,2807.4 2274.42,5083.28 5080.01,5083.28 2805.59,0 5079.99,-2275.88 5079.99,-5083.28 0,-2600.91 -1952.11,-4745.6 -4470.16,-5047.06zm-5027.22 5065.17c0,-2441.22 1977.74,-4420.25 4417.39,-4420.25 2439.64,0 4417.39,1979.03 4417.39,4420.25 0,1574.53 -822.74,2956.79 -2061.47,3739.8 -3.43,-39.78 -6.6,-79.54 -9.45,-119.31 -34.1,-475.79 -46.28,-951.92 -45.46,-1428.85 0.49,-291.18 5.72,-592.32 -39.86,-880.5 -40.46,-255.92 -121,-487.67 -232.94,-720.77 -22.28,-46.36 -30.95,-81.44 -31.33,-132.43 -0.44,-57.41 1.61,-105.54 -8.08,-163.37 -34.21,-204.38 -316.11,-280.22 -479.81,-352.7l-3.65 -1.63 -324.84 -109.19c29.06,-5.73 62.23,-5.95 88.95,0.33l32.7 7.68 29.34 -16.37c22.67,-12.65 106.3,-16.9 133.93,-19.16 84.99,-6.96 188.21,-17.61 244.5,-90.35 11.97,-15.48 20.99,-32.85 26.81,-51.54l14.4 -46.23 -31.77 -36.53c-23.32,-26.82 -51.9,-46.59 -85.44,-58.4 -58.81,-20.7 -111.42,-11.92 -165.43,-9.58 7.18,-62.63 62.7,-102.07 105.62,-157.42 72.91,-94 123.5,-200.35 158.37,-313.79 81.72,-265.96 99.56,-522.09 82.05,-799.28 -15.19,-240.76 -77.8,-495.84 -171.91,-717.34 -64.43,-151.61 -209.15,-426.31 -372.96,-506.73 48.63,87.76 82.9,216.09 117.2,410.42 3.61,20.69 -10.23,40.4 -30.91,44.01 -20.67,3.62 -40.38,-10.24 -43.99,-30.93 -81.97,-464.62 -154.46,-513.61 -568.22,-580.28 -136.88,-22.06 -308.61,-49.74 -525.28,-102.91 -0.12,189.22 -6.46,344.58 -11.76,474.37 -18.42,451.43 -49.56,487.5 232.24,640.63 19.44,7.88 28.83,30.06 20.95,49.52 -7.87,19.46 -30.04,28.85 -49.49,20.97 -331.22,-158.34 -299.62,-221.09 -279.49,-714.1 5.74,-140.63 12.71,-311.32 11.66,-519.96 -0.01,-2.03 0.14,-4.03 0.44,-5.97l-21.98 -3.42c-18.08,-51.84 -39.89,-102.24 -71.46,-147.56 -86.21,-123.74 -222.41,-173.82 -364.88,-202.08l-80.86 -16.04 -11.21 44.66c-3.77,-2.25 -7.62,-4.49 -11.55,-6.74 -53.22,-30.36 -99.77,-46.8 -160.87,-55.95l-99.61 -14.93 0.23 353.48c-0.33,0.35 -0.66,0.71 -1,1.05 -24.92,25.14 -67.67,46.35 -98.26,64.58 -55.84,33.28 -103.59,69.74 -137.46,126.71 -43.04,72.45 -52.15,147.83 -52.14,230.3 0.02,47.3 5.12,111.27 -8.04,156.49 -1.75,5.99 -3.87,11.85 -6.49,17.51 -2.79,6.05 -6.25,11.76 -10.05,17.22 -22.86,32.86 -56.32,62.43 -81.47,95.37 -109.44,143.28 -200.15,298.46 -256.97,470.27 -176.96,535.3 -67.61,1058.69 228.66,1526.35l3.61 5.7 4.45 5.05c30.51,34.83 59.68,71.17 88.67,107.48 -11.25,16.88 -23.31,33.87 -32.14,50.86 -35.54,68.35 -35.28,136.15 -6.91,207.27 13.16,33.01 29.56,54.82 52.95,80.69 6.17,6.82 11.86,12.84 15.52,21.39 4.6,10.73 7.03,26.16 8.29,42.47 -27.52,7.14 -55.42,13.28 -83.21,19.15 -79.81,16.8 -160.44,31.12 -240.89,44.47 -81.17,13.47 -162.71,25.94 -244.31,36.52 -21.86,2.83 -43.78,5.56 -65.71,7.93 -1.4,-62.55 8.94,-135.83 10.92,-187.28l0.08 -2.28 -0.04 -2.29c-1.34,-91.02 3.62,-205.82 -64.3,-276.14 -26.29,-27.21 -59.5,-43.82 -96.45,-51.02l-50.39 -9.82 -32.83 39.48c-51.08,61.41 -68.37,128.35 -68.1,206.7 0.05,17.59 4.74,81.07 -1.39,95.54 -5.29,7.28 -35.17,14.97 -42.86,16.63 -34.27,7.39 -73.68,10.13 -112.64,10.68 -0.4,-35.88 -6.28,-70.83 -28.92,-100.91 -34.64,-45.98 -88.76,-57.09 -143.11,-55.89l-48.72 1.07 -24.41 42.21c-64.26,111.09 -58.13,266.24 -62.42,397.98 -57.33,24.69 -174.22,47.74 -213.43,54.33 -68.65,11.58 -182.13,27.83 -250.93,19.2l-31.56 -3.97 -22.67 14.8c-27.62,10.37 -88.09,17.72 -116.4,21.71 -73.43,10.37 -147.52,18.2 -221.33,25.34 -71.85,6.94 -143.82,13.06 -215.8,18.37 -38.4,2.82 -77.32,5.8 -115.95,7.57 -38.28,-36.43 -77.5,-33.62 -128.94,-30.03l-63.94 4.42 -14.52 62.46c-14.46,62.35 -10.16,120 20.88,176.52 12.16,22.12 27.21,41.1 41.5,60.83 -6.36,43.94 -14.19,99.13 -4.56,133.78 4.82,17.3 12.68,31.23 20.7,46.94 10.36,20.29 19.08,41.17 27.17,62.45 9.88,26.01 17.68,51.8 12.45,79.65 -2.77,14.8 -7.91,29.9 -12.54,44.2 -7.96,24.59 -15.49,48.86 -21.52,74.03 -12.08,50.54 -16.26,106.57 -18.88,158.41 -3.49,68.82 -3.79,138.1 -3.38,206.99 0.98,167.93 6.56,335.89 8.41,503.83 1.25,113.32 1.17,226.93 -3.39,340.17 -2.7,67.3 -6.79,136.04 -14.73,203.69 -446.91,-690.85 -706.37,-1514.46 -706.37,-2398.71zm3798.05 -1992.64c-237.61,-75.78 -230.76,-376.66 -31.49,-384.88 74.74,-3.08 115.99,33.28 158.24,73.3l-126.75 311.58zm-166.4 844.81c-202.24,-120.87 -276.87,-552.77 -153.86,-803.43 72.69,8.89 123.88,79.8 169.62,120.02 16.55,259.69 -96.75,64.79 -15.76,683.41zm-2016.08 1662.28l423.07 -34.04c36.01,145.67 9.04,392.35 -1.82,517.83 -12.14,140.14 -26.69,286.98 -19.59,427.47 6.01,118.76 29.83,257.58 126.97,337.56 52.66,43.35 116.62,60.96 184.03,60.6 89.87,-0.51 176.8,-28.82 261.32,-56.58 28.81,-9.45 59.01,-19.62 89.56,-28.23 -1.33,40.71 -4.92,81.71 -8.69,119.76 -10.51,106.61 -27.01,213.37 -45.3,318.9 -46.17,266.43 -105.62,532.35 -168.27,795.36 -69.2,290.56 -143.45,581.53 -222.6,870.52 -457.12,-260.54 -863.25,-600.39 -1199.66,-1000.83 154.91,-120.21 31.67,-1083.41 37.26,-1260.8 5.25,-166.78 12.25,-336.34 1.31,-502.94 -9.47,-144.23 -33.7,-284.34 -64.15,-425.02 29.06,-30.67 62.21,-55.2 101.86,-73.61 64.46,-29.93 139.24,-40.71 209.45,-47.09 98.03,-8.91 196.96,-10.94 295.25,-18.86zm1135.56 -261.41l509.11 -98.01c-61.42,150.75 -320.52,435.26 -511.33,424.88 -38.21,-131.04 -25.89,-191.19 2.22,-326.87zm451.43 1068.21c28.6,-62.41 230.98,-232.58 314.78,-271.09 111.76,220.21 186.12,483.58 202.18,761.3 -140.57,-48.54 -461.15,-367.22 -516.96,-490.21zm-63.62 591.36c129.25,42.25 353.95,253.78 400.25,372.75 3.43,84.33 -268.54,389.38 -396.9,451.17l-3.35 -823.92zm-2239.92 1375.57c16.56,-56.34 70.82,-94.56 127.21,-102.94 91.23,1.14 164.94,99.46 133.85,187.29 -22.8,45.73 -65.04,82.41 -114.69,95.81 -42.93,6.53 -85.74,-16.47 -112.01,-49.7 -31.38,-34.28 -54.47,-84.83 -34.36,-130.46zm3399.95 1398.33c15.88,-25.82 43.5,-41.99 71.69,-51.14 41.56,-12.22 88.14,-4.91 126.54,13.97 36.47,35.92 61.68,90.3 45.42,142.03 -15.68,80.78 -123.66,134.9 -193.53,84.74 -64.36,-35.63 -88.8,-127.02 -50.12,-189.6zm-1896.76 -348.3c17.32,-43.32 56.1,-77.61 100.56,-90.8 83.53,-29.56 182.53,52.58 166.75,140.59 -7.68,41.12 -26.93,85.4 -67.35,103.71 -55.82,31.78 -135.5,16.95 -173.02,-36.12 -26.28,-32.62 -34.82,-76.82 -26.94,-117.38zm3213.13 -82.43c-85.9,-298.42 -38.84,-846.28 -131.37,-1165.31 -148.24,-511.06 -300.03,-637.05 146.51,-1219.55l179.12 -234.39c86.97,-106.9 256.55,-321.89 386.69,-312.61 62.58,129.32 -128.28,1370.18 -160.84,1599.07 -55.89,392.76 -109.18,860.06 -196.36,1263.34 -73.69,25.07 -148.33,48.23 -223.75,69.45zm2041.03 -908.48c-8.25,-74.05 47.84,-144.25 119.72,-158.98 41.86,-13.58 83.72,13.48 113.44,40.92 29.57,30.81 54.48,75.02 42.35,119.02 -12.6,56.52 -60.82,98.79 -112.78,119.2 -73.04,9.92 -150.02,-47.37 -162.73,-120.16zm-1506.54 1020.1c5.49,-57.39 49.08,-107.55 105.28,-120.47 38.97,-11.65 83.23,-6.55 114.41,21.19 28.01,25.8 58.61,58.74 56.2,99.75 2.21,44.49 -16.45,95.24 -59.09,115.17 -24.25,12.32 -48.78,28.8 -77.18,27.16 -74.37,-1.45 -140.48,-67.99 -139.62,-142.8zm-1411.66 -7398.85c47.01,-48.43 580.69,-9.15 689.8,180.06 77.12,133.74 93.96,213.76 9.66,321.31l-141.38 -11.19 10.43 -108.36 93.87 18.09c42.13,-130.35 -73.08,-195.45 -166.93,-239.96 -381.87,-181.13 -451.29,-21.59 -452.73,305.7 -0.61,139.91 13.75,267.35 155.34,289.99l-32.13 -115.27c94.79,-28.52 147.3,-11.04 141.82,99.49 -6.59,133.36 -354.71,222.53 -355.56,-320.14 -0.12,-71.79 9.99,-380.75 47.81,-419.72zm155.11 171.51c97.57,-46.93 135.48,60.94 131.58,154.23 -72.41,-25.69 -153.51,-73.55 -131.58,-154.23zm249.11 172.38c-30.94,-32.09 -34.14,-82.45 -45.27,-140.7 79.25,18.45 94.21,63.16 45.27,140.7zm93.34 59.99c-50.94,-33.05 -84.3,-87.91 22.82,-92.75l-22.82 92.75zm-132.54 22.53c402.67,114.78 91.87,556.98 0,0zm-243.89 -76.14c78.71,-65.37 128.07,3.94 150.58,69.19 -99.25,-6.91 -123.48,5.28 -150.58,-69.19zm463.09 474.89c46.6,-64.79 60.62,-167.41 117.5,-214.73 313.6,-260.89 506.67,434.75 162.74,324.46 -33.41,-10.71 -49.06,-94.56 -15.34,-104.2 69.48,-19.83 57.36,56.13 109.09,18.63 35.07,-25.4 17.29,-99.72 -38.39,-116.69 -227.02,-69.21 -154.13,235.15 -104.55,362.99 113.03,291.41 224.73,642.73 110.28,964.55l-180.99 388.63c-1.03,-2.36 -4.98,7.1 -7.52,10.62 0.29,-187.68 107.71,-283.52 158.59,-430.63 40.88,-118.15 21.98,-390.29 -9.22,-513.34 -173.3,-683.1 -533.52,-587.46 -529.8,-467.06 0.84,27.37 1.61,70.3 28.08,77.21 47.85,12.51 50.91,-22.68 70.65,-25.72 36.91,-5.7 41.4,12.3 48.14,17.01 39.45,125.74 -270.15,168.68 -265.91,-84.96 3.3,-198.38 164.59,-202.13 346.65,-206.77zm439.18 937.23c9.15,-231.25 -134.62,-552.68 149.91,-689.92 -15.54,105.14 -50.74,196.34 -43.16,309.06 12.18,104.01 34.57,125.54 -23.64,278.79l134.74 -60.89c-29.46,94.6 -49.11,98.01 -217.85,162.96zm-239.63 -222.93c-139.67,-74.25 -305.3,60.25 -329.79,-239.14 60.26,28.11 63.67,52.92 132.97,67.51 169.41,35.65 260.84,-55.51 287.91,257.11 -87.28,-34.35 -34.18,-55.23 -91.09,-85.48zm-209.11 56.58c98.67,-13.48 225.21,-26.38 257.65,63.2 -185.36,-31.49 -214.94,1.96 -257.65,-63.2zm314.67 291.11c-102.71,-22.86 -186.03,-115.2 -215.66,-211.5 178.81,13.72 213.84,27.05 215.66,211.5zm107.08 40.28c14.12,-79.77 39.1,-137.85 100.56,-155.88 67.91,-19.92 153.01,7.03 192.48,42.99 -117.79,61.32 -128.45,93.15 -293.04,112.89zm-178.27 51.09c-78.55,-68.15 -90.52,-62.91 -147.35,-160.31 109.57,26.56 187.9,99.76 199.83,211 -108.79,2.11 -167.1,35.05 -203.06,-68.66l150.58 17.97zm174 8.78c57.48,-46.04 131.45,1.71 219.98,-13.41 -57.08,86.78 -154.07,100.37 -219.98,13.41zm-311.4 156.27c18.12,-30.42 36.51,-41.36 61.82,-53.89 90.21,-44.62 92.34,-2.17 92.83,-1.88 -4.28,5.53 -12.6,31.67 -60.24,49.25 -37.66,13.91 -55.98,8.72 -94.41,6.52zm294.31 -55.77c58.53,-24.23 125.45,16.01 164.91,51.56 -79.95,14.4 -124.07,3.64 -164.91,-51.56zm-14.15 176.04c-21.51,-22.33 -46.97,-83.92 -16.92,-91.51 51.12,-12.9 93.67,62.72 111.29,115.59 -31.45,-8.03 -71.85,-0.69 -94.37,-24.08zm-73.99 -18.56c65.48,20.42 88.36,41.81 95.73,112.3 -64.98,-18.17 -80.39,-40.03 -95.73,-112.3zm-1207.7 -4096.16c69.03,0 125,55.97 125,125 0,69.03 -55.97,125 -125,125 -69.03,0 -125,-55.97 -125,-125 0,-69.03 55.97,-125 125,-125z"/>
 </g>
</svg>
