<?xml version="1.0" encoding="UTF-8"?>
<!DOCTYPE svg PUBLIC "-//W3C//DTD SVG 1.1//EN" "http://www.w3.org/Graphics/SVG/1.1/DTD/svg11.dtd">
<!-- Creator: CorelDRAW -->
<svg xmlns="http://www.w3.org/2000/svg" xml:space="preserve" width="210mm" height="297mm" version="1.1" style="shape-rendering:geometricPrecision; text-rendering:geometricPrecision; image-rendering:optimizeQuality; fill-rule:evenodd; clip-rule:evenodd"
viewBox="0 0 21000 29700"
 xmlns:xlink="http://www.w3.org/1999/xlink"
 xmlns:xodm="http://www.corel.com/coreldraw/odm/2003">
 <defs>
  <style type="text/css">
   <![CDATA[
    .str0 {stroke:#2B2A29;stroke-width:20;stroke-miterlimit:22.9256}
    .fil0 {fill:#2B2A29}
   ]]>
  </style>
 </defs>
 <g id="Layer_x0020_1">
  <metadata id="CorelCorpID_0Corel-Layer"/>
  <path class="fil0 str0" d="M10282.76 3747.01c5638.12,0 10208.71,4570.59 10208.71,10208.71 0,5638.12 -4570.59,10208.71 -10208.71,10208.71 -5638.12,0 -10208.71,-4570.59 -10208.71,-10208.71 0,-5638.12 4570.59,-10208.71 10208.71,-10208.71zm-9.25 339.31c166.65,0 301.75,135.1 301.75,301.75 0,166.65 -135.1,301.75 -301.75,301.75 -166.65,0 -301.75,-135.1 -301.75,-301.75 0,-166.65 135.1,-301.75 301.75,-301.75zm4716.4 18018.68c124.22,0 224.9,100.68 224.9,224.9 0,124.22 -100.68,224.9 -224.9,224.9 -124.22,0 -224.9,-100.68 -224.9,-224.9 0,-124.22 100.68,-224.9 224.9,-224.9zm-2574.07 953.4c124.22,0 224.9,100.68 224.9,224.9 0,124.22 -100.68,224.9 -224.9,224.9 -124.22,0 -224.9,-100.68 -224.9,-224.9 0,-124.22 100.68,-224.9 224.9,-224.9zm-3828.17 87.38c124.22,0 224.9,100.68 224.9,224.9 0,124.22 -100.68,224.9 -224.9,224.9 -124.22,0 -224.9,-100.68 -224.9,-224.9 0,-124.22 100.68,-224.9 224.9,-224.9zm-3363.18 -1266.05c124.22,0 224.9,100.68 224.9,224.9 0,124.22 -100.68,224.9 -224.9,224.9 -124.22,0 -224.9,-100.68 -224.9,-224.9 0,-124.22 100.68,-224.9 224.9,-224.9zm5058.27 -16835.39c4939.04,0 8942.93,4003.89 8942.93,8942.93 0,3678.46 -2221.19,6837.69 -5395.25,8210.98 -185.44,-244.83 -443.36,-450.79 -627.79,-702.24 -283.42,-386.45 -477.02,-964.16 -445.15,-1509.24 20.53,-350.98 472.67,-368.91 391.76,-799.79 -323.95,-70.51 -442.1,136.53 -663.46,188.98 -248.33,-291.28 -582.61,-1406.6 -470.95,-1904.67 133.58,-595.85 681.08,-940.05 1124.3,-1308.12 354.54,-294.42 1029.25,-821.39 684.72,-1603.02 -117.3,-266.1 -336.81,-532.22 -524.88,-674.87 -299.7,-227.31 -622.01,-150.1 -439.93,-667.73 -94.72,-91.24 -146.86,-44.7 -172.17,-211.18 -27.75,-182.5 52.14,-191.98 -55.82,-355.89 -94.47,-143.44 -239.29,-366.37 -288.23,-527.04l271.82 -12.03 33.49 -354.15 326.72 -25.04 10.36 -348.93 246.14 -131.38c-73.63,-86.76 -165.13,-114.32 -249.59,-191.43l-59.2 -65.15c49,-136.22 86.1,-123.88 115.99,-246.92l-244.48 -206.15c27.17,-148.27 65.72,-119.98 121.04,-259.72 -37.72,-11.42 -61.32,-11.78 -105.32,-34.21 -83.98,-42.81 -50.78,-25.05 -90.32,-64.29l122.58 -210.04 -219.34 -109.12 32.21 -381.95 -270.98 -16.71 -28.22 -349.45c-128.02,-58.37 -273.34,-96.69 -428.57,-132.16l133.27 -345.85 -507.41 -57.79 -34.65 -294.31 -478.14 87.54c106.57,-261.2 285.27,-373.68 313.95,-727.07 -386.15,25.7 -420.78,154.02 -592.54,381.76 -32.66,-311.67 -36.55,-577.74 -215.88,-770.89 -221.09,178.82 -167.8,588.76 -182.52,835.7 -120.04,-121.22 -438.85,-390.52 -669.86,-455.7 13.46,156.8 58.54,273.24 112.08,393.78 36.07,81.21 113.55,174.33 124.22,261.38 28.82,235.06 -331.57,89.77 -428.26,35.86l-50.2 334.92 -420.3 -68.91 -22.17 339.33c-129.43,18.39 -299.97,-57.05 -432.91,-85.8l37.3 417.46 -396.44 2.29 144.43 416.8 -467.33 3.44c37.9,180.11 137.47,279.89 139.18,445.29l-267.83 20.64 273.05 230.7 -252.19 245.24 221.6 288.85c-74.11,133.5 -116.82,108.81 -156.74,265.36l304.91 198.7 -192.23 312.08 258.9 82.22 -110.72 398.27 547.78 18.4c15.72,241.54 27.68,191.33 -123.63,317.4 -186.1,155.06 -111.32,150.15 -68.55,358.42l-550.46 4.62c-163.13,-654.41 -886.63,-517.16 -1149.53,-20.63 -1481.1,75.02 -1127.61,-165.5 -1688.12,-208.95 -470.62,-36.47 -442.12,193.21 -774.51,204.51 -305.12,10.37 -627.03,-7.28 -935.4,-1.23l-18.7 395.07 1066.59 3.04c23.94,428.93 171.7,631.82 167.33,1104.04 -601.41,342.97 -311.19,276.32 -372.23,574.49 -13.04,63.7 -62.95,193.86 -81.88,271.59 -131.13,538.39 -216.02,1414.04 149.48,1817.26 300.11,331.07 696.86,135.22 1060.59,-9.42 363.45,-144.52 682.15,-275.8 1055.44,-422.85 731.36,-288.09 1561.96,-759.49 1992.79,169.05 298.19,642.67 347.07,2095.82 -466.64,2117.92 -114.03,-325.46 -275.8,-459.6 -653.9,-288.37 120.06,199.43 507.53,358.1 194.46,724.56 -228,266.89 -258.3,494.88 -53.8,826.31 -7.64,5.23 -20.75,1.21 -24.99,12.13 -4.27,10.99 -19.47,9.32 -25.46,11.54 -32.75,12.1 -46.48,16.6 -80.93,27.12 -701.55,214.08 -411.4,872.55 -486.18,1453.86 -43.66,339.35 -62.69,305.01 -215.96,491.78 -3088.65,-1408.98 -5235.5,-4523.8 -5235.5,-8140.29 0,-4939.04 4003.89,-8942.93 8942.93,-8942.93zm-4964.67 9619.42c-76.1,-186.65 -184.05,-78.16 -160.6,-312.78 15.08,-150.8 113.15,-148.41 202.6,-286.96 170.7,-264.41 -9.55,-498 145.82,-808.79l1830.52 -4.09c29.44,253.59 43.97,391.91 279.7,452.38 -3.92,195.3 -8.05,252.02 -83.21,416.21 -261.72,15.8 -386.4,-3.54 -561.95,145.38 -158.33,134.32 -190.46,302.13 -170.38,534.26 -405.9,39.57 -599.72,36.24 -958.19,204.84 -162.38,76.36 -269.1,147.67 -371.91,228.71 -101.21,79.78 -215.49,207.24 -321.54,243.31 -104,-173.1 -85.25,-423.58 -64.79,-636.11 114.23,-108.32 127.23,-31.23 233.93,-176.36zm7065.13 -4088.31c36.79,383.79 -121.13,912.08 -456.09,901.51 -160.98,-215.66 -105.54,-467.74 -67.03,-751.99l523.12 -149.52zm-3389.48 991.34c-386.12,-178.93 -524.82,-751.07 -369.01,-1253.17 178.58,51.47 285.7,142.17 521.44,209.9 46.06,253.6 129.96,617.97 156.42,824.54 -107.38,90.7 -187.23,157.78 -308.85,218.73zm2762.76 -1177.35c-109.24,-777.33 -175.42,-596.16 -295.33,-982.45 426,31.35 878.34,374.41 790.1,828.66 -229.46,36.13 -320.04,76.49 -494.77,153.79zm-2837.12 -522.86c62.85,-400.65 528.36,-617.75 989.43,-622.21 -45.09,91.8 -221.18,281.87 -317.09,443.19 -85.15,143.24 -153.42,353.37 -245.24,485.69 -90.72,-28.94 -372.87,-251.66 -427.1,-306.67z"/>
 </g>
</svg>
