<?xml version="1.0" encoding="UTF-8"?>
<!DOCTYPE svg PUBLIC "-//W3C//DTD SVG 1.1//EN" "http://www.w3.org/Graphics/SVG/1.1/DTD/svg11.dtd">
<!-- Creator: CorelDRAW -->
<svg xmlns="http://www.w3.org/2000/svg" xml:space="preserve" width="210mm" height="297mm" version="1.1" style="shape-rendering:geometricPrecision; text-rendering:geometricPrecision; image-rendering:optimizeQuality; fill-rule:evenodd; clip-rule:evenodd"
viewBox="0 0 21000 29700"
 xmlns:xlink="http://www.w3.org/1999/xlink"
 xmlns:xodm="http://www.corel.com/coreldraw/odm/2003">
 <defs>
  <style type="text/css">
   <![CDATA[
    .fil0 {fill:#2B2A29}
   ]]>
  </style>
 </defs>
 <g id="Layer_x0020_1">
  <metadata id="CorelCorpID_0Corel-Layer"/>
  <path class="fil0" d="M11547.02 14671.03c-145.39,-159.26 -253.4,-351.69 -324.03,-577.29 -149.22,-335.44 -254.74,-707.89 -316.58,-1117.35l15.68 -68.31c212.12,-27.31 376.02,-208.57 376.02,-428.11 0,-238.41 -193.27,-431.68 -431.67,-431.68 -170.93,0 -318.64,99.35 -388.57,243.45 -59.15,107.68 -86.4,257.68 -81.73,450.01 -2.96,251.45 85.18,577.34 264.44,977.68 5.78,56.08 -12.84,64.77 -55.87,26.07 -149.02,-197.44 -236.54,-415.32 -355.68,-653.64 -110.14,-225.02 -166.76,-526.28 -279.34,-845.46 -157.64,-446.95 -471.3,-687.69 -744.89,-798.9 220.56,306.96 374.5,655.82 461.83,1046.58 61.02,317.41 196.97,624.67 407.83,921.81 24.24,57.04 6.86,72.55 -52.14,46.55 -121.49,-71.15 -236.95,-205.86 -346.38,-404.1 -58.3,-99.4 -154.51,-303.01 -288.65,-610.82 -62.24,-172.18 -119.97,-307.5 -173.18,-405.97 -290.3,-452.66 -666.47,-715.24 -1128.52,-787.72 -382.09,-19.04 -717.29,-63.73 -1005.61,-134.08 118.52,167.05 308.47,261.41 569.85,283.06 276.65,-3.36 483.98,25.2 621.98,85.66 372.2,158.71 577.67,354.86 616.4,588.46 6.87,47.37 -17.95,67.24 -74.48,59.6 -233.4,-57.59 -471.77,-194.77 -715.1,-411.56 -195.59,-162.6 -541.97,-241.43 -1039.13,-236.5 -223.51,16.61 -473.67,14.75 -750.49,-5.59 209.7,188.11 520.69,262.6 932.99,223.47 309.75,-0.97 533.84,31.93 672.27,98.7 101.27,122.62 74.58,200.84 -80.08,234.64 -67.9,17.41 -133.7,12.45 -197.4,-14.9 -229.48,-109.71 -488.96,-162.47 -778.41,-158.29 -456.42,49.09 -761.83,73.3 -916.23,72.63 -150.11,-12.54 -262.46,-18.13 -337.06,-16.76 149.04,184.23 463.14,248.79 942.29,193.67 339.85,-24.57 585.67,-4.09 737.45,61.46 39.38,37.31 53.04,77.04 40.97,119.18 -13.14,50.39 -43.56,80.81 -91.25,91.25 -228.46,-106.89 -463.1,-138.55 -703.93,-94.97 -305.5,53.83 -568.7,56.93 -789.59,9.31 -79.74,-29.48 -169.13,-54.31 -268.16,-74.49 70.2,119.32 157.1,193.81 260.71,223.47 227.29,64.43 641.95,87.4 1243.98,68.9 65.56,15.63 113.36,55.98 143.39,121.04 26.46,80.23 20.87,146.65 -16.76,199.26 -225.78,-18.24 -456.7,-30.04 -692.75,-35.38 -264.29,26.74 -533.08,29.85 -806.35,9.31 137.77,90.48 289.23,149.45 454.39,176.92 276.58,41.77 624.15,51.86 1042.7,30.29 6.27,1.36 12.54,3.05 18.77,5.09 48.14,15.73 83.52,48.63 106.15,98.7 24.77,55.58 8.63,103.38 -48.42,143.39 -138.39,-35.38 -322.13,-38.48 -551.22,-9.31 -295.14,38.12 -554.61,46.19 -778.42,24.21 201.57,171.61 407.66,240.51 618.26,206.71 0,0 217.26,-24.84 651.79,-74.49 120.25,-31.65 215.84,-9.92 286.78,65.17 50.47,58.38 54.81,95.01 13.04,109.88 -226.25,137.07 -609.87,202.86 -1150.87,197.39 229.08,140.04 482.97,230.67 761.66,271.89 -80.57,64.94 -200.37,106.53 -359.41,124.77 259.05,133.3 682.41,195.99 1270.05,188.09 -166.39,166.43 -422.14,242.78 -767.25,229.05 221.44,187.16 621.2,197.71 1199.29,31.66 221.14,245.26 476.89,348.31 767.24,309.13 119.84,211.75 317.74,270.36 593.7,175.84 352.25,-81.51 560.43,-101.18 624.53,-59.04 -206.44,65.39 -372.74,217.06 -476.3,424.94l-2304.83 0 0 -4.9c0,-44.94 -36.77,-81.7 -81.7,-81.7 -44.93,0 -81.69,36.76 -81.69,81.7l0 -71.62c0,-83.2 -68.08,-151.28 -151.29,-151.28 -83.21,0 -151.29,68.08 -151.29,151.28l0 43.38c0,-34.95 -28.59,-63.54 -63.54,-63.54 -34.95,0 -63.54,28.59 -63.54,63.54l0 13.38 0 61.98c-16.4,20.3 -48.41,34.09 -85.22,34.09 -29.15,0 -55.29,-8.65 -73.05,-22.32 -5.53,-8.46 -12.04,-16.23 -19.36,-23.15 -22.79,-21.5 -53.47,-34.73 -87.09,-34.73 -69.9,0 -127.08,57.18 -127.08,127.07l0 0.65c-24.13,-6.37 -50.13,-9.85 -77.24,-9.85 -126.02,0 -228.17,75.02 -228.17,167.55 0,92.54 102.15,167.56 228.17,167.56 27.11,0 53.11,-3.48 77.24,-9.85l0 0.65c0,69.89 57.18,127.07 127.08,127.07 35.66,0 68.01,-14.88 91.14,-38.74 2.7,-4.01 5.99,-7.81 9.79,-11.34 17.6,-16.35 46.23,-26.99 78.57,-26.99 36.81,0 68.82,13.79 85.22,34.09l0 61.98 0 10.26c0,34.94 28.59,63.53 63.54,63.53 34.95,0 63.54,-28.59 63.54,-63.53l0 43.37c0,83.2 68.08,151.28 151.29,151.28 83.21,0 151.29,-68.08 151.29,-151.28l0 -71.62c0,44.94 36.76,81.7 81.69,81.7 44.93,0 81.7,-36.76 81.7,-81.7l0 -4.9 1117.76 0 0 474.93c-102.61,-72.8 -209.09,-124.35 -312.98,-155.19 -137.57,-40.82 -271.96,-45.74 -389.48,-16.11 -127.45,32.13 -234.78,103.53 -307.03,212.82 -54.57,82.54 -87.49,185.25 -91.66,307.06 -8.47,247.38 117.01,402.44 298.28,478.69 80.35,33.8 171.17,50.24 264.56,50.83 89.74,0.55 182.44,-13.48 270.47,-40.72 96.87,-29.98 189.16,-76.03 267.84,-136.55 0,126.83 -0.57,253.92 0,380.73 0.14,30.9 6.69,44.82 -30.82,43.31 -16.8,-0.67 -31.99,-0.79 -48.66,-0.93 -125.61,-1.07 -240.4,45.89 -329.88,133.92 -78.33,78.09 -126.05,179.47 -135.75,289.72 -1.16,13.22 -2.44,31.13 -2.46,44.49 -0.13,123.39 50.8,241.88 137.46,329.1 84.95,84.95 202.29,137.48 331.88,137.48 13.2,0 29.3,-0.98 48.13,-2.91 15.11,-1.55 29.94,-3.8 44.41,-6.7l5739.29 -930.45 -521.85 -340.73 0 -1252.79 256.38 0 0 4.9c0,44.94 36.76,81.7 81.69,81.7 44.94,0 81.7,-36.76 81.7,-81.7l0 71.62c0,83.2 68.08,151.28 151.28,151.28 83.22,0 151.29,-68.08 151.29,-151.28l0 -43.37c0,34.94 28.59,63.53 63.54,63.53 34.96,0 63.55,-28.59 63.55,-63.53l0 -10.26 0 -61.98c16.4,-20.3 48.41,-34.09 85.22,-34.09 32.33,0 60.97,10.64 78.57,26.99 3.8,3.53 7.09,7.33 9.79,11.34 23.13,23.86 55.48,38.74 91.14,38.74 69.89,0 127.08,-57.18 127.08,-127.07l0 -0.65c24.12,6.37 50.12,9.85 77.24,9.85 126.01,0 228.17,-75.02 228.17,-167.56 0,-92.53 -102.16,-167.55 -228.17,-167.55 -27.12,0 -53.12,3.48 -77.24,9.85l0 -0.65c0,-69.89 -57.19,-127.07 -127.08,-127.07 -33.62,0 -64.3,13.23 -87.09,34.73 -7.33,6.92 -13.84,14.69 -19.36,23.15 -17.76,13.67 -43.91,22.32 -73.05,22.32 -36.81,0 -68.82,-13.79 -85.22,-34.09l0 -61.98 0 -13.38c0,-34.95 -28.59,-63.54 -63.55,-63.54 -34.95,0 -63.54,28.59 -63.54,63.54l0 -43.38c0,-83.2 -68.07,-151.28 -151.29,-151.28 -83.2,0 -151.28,68.08 -151.28,151.28l0 71.62c0,-44.94 -36.76,-81.7 -81.7,-81.7 -44.93,0 -81.69,36.76 -81.69,81.7l0 4.9 -525.91 0c-19.6,-74.81 18.86,-227.55 115.39,-458.23 42.91,-123.32 31.18,-169.54 -35.18,-138.66 -82.46,57.54 -147.99,128.59 -196.61,213.16 -66.33,133.37 -141.03,261.28 -224.11,383.73l-581.77 0c-27.33,-148.89 -7.69,-448.65 58.92,-899.29 23.76,-531.03 -101.63,-905.97 -450.66,-1087.55 149.94,388.72 158.63,764.89 26.07,1128.51 -52.9,263.46 -27.89,549.57 75.03,858.33l-172.94 0c-61.62,-117.13 -160.58,-364.75 -296.88,-742.87 -79.29,-368.31 -144.29,-652.1 -126.64,-849.17 45.24,-504.89 -97.24,-836.31 -495.35,-1001.89 169.63,306.7 253.33,603.99 197.4,953.46 -19.87,124.13 -19.87,252.01 0,383.63 41.1,201.58 33.65,349.31 -22.35,443.21zm-680.58 -2441.08c138.06,0 249.99,111.94 249.99,250.02 0,138.07 -111.93,250 -249.99,250 -138.07,0 -250.01,-111.93 -250.01,-250 0,-138.08 111.94,-250.02 250.01,-250.02zm-1433.88 2638.09c401.57,-456.11 1462.51,-586.4 1858.64,-95.72 -516.74,-137.31 -967,-113.38 -1350.77,71.79 -237.61,109.6 -406.9,117.58 -507.87,23.93zm-295.78 1179.69l870.11 0c96.62,7.91 143.33,82.32 140.12,223.2 -0.17,7.71 -0.5,15.63 -0.97,23.74 -13.87,339.84 -23.72,721.9 218.81,964.43 131.71,131.71 313.67,213.19 514.63,213.19 180,0 344.75,-65.38 471.81,-173.66l2.66 2.69c106.03,106.04 252.52,171.64 414.3,171.64 161.79,0 308.27,-65.6 414.32,-171.64 106.04,-106.04 171.63,-252.53 171.63,-414.31 0,-7.32 -0.25,-0.08 -0.77,-11.95l0 -827.33 398.85 0 0 1450.19c-1345.39,239.75 -2690.68,480.34 -4036.19,719.37 -21.06,3.74 -47.11,9.5 -67.86,11.48 -50.2,4.8 -99.93,-22.83 -119.51,-69.62 -13.58,-32.45 -14.34,-66.05 1.24,-97.82 7.29,-14.37 16.19,-29.32 31.51,-35.66 14.21,-5.88 34.82,-11.07 50.19,-16.14 102.52,-33.83 205.4,-69.91 307.27,-105.76 71.99,-25.35 147.41,-51.45 217.85,-80.59l0 -849.41c125.01,-110.28 242.15,-148.05 334.47,-132.93 43.25,7.09 81.65,26.51 112.58,55.69 32.57,30.74 57.61,73.26 72.37,124.86 37.71,131.84 7.49,314.86 -128.24,515.58l233.15 157.26c187.11,-276.72 224.05,-545.6 165.63,-749.82 -28.81,-100.77 -80.93,-186.82 -150.45,-252.43 -71.16,-67.16 -159.82,-111.87 -259.95,-128.27 -116.35,-19.07 -246.7,0.81 -379.56,69.86l0 -585.84zm1173.63 -563.07c96.45,-547.8 976.32,-463.02 1283.07,0l-1283.07 0zm346.7 563.07l526.23 0 0 602.1 -526.23 -602.1zm527.97 -421.29c87.47,0 158.37,70.9 158.37,158.37 0,87.46 -70.9,158.36 -158.37,158.36 -87.46,0 -158.36,-70.9 -158.36,-158.36 0,-87.47 70.9,-158.37 158.36,-158.37zm420.98 1088.92l-0.42 -10.38 0 -657.25 325.49 0 0 855.21c-3.75,38.84 -21.07,73.72 -47.15,99.8 -29.6,29.6 -70.52,47.91 -115.73,47.91 -45.21,0 -86.12,-18.31 -115.72,-47.91 -25.52,-25.52 -42.65,-59.45 -46.89,-97.29l0 -111.67c1.09,-16.3 1.66,-32.74 1.66,-49.31 0,-1.43 -0.42,-8.47 -1.24,-29.11zm1568.52 712.74l0 -1380.37 349.34 0 0 1322.61 -349.34 57.76zm-4852.26 -791.19c111.69,33.15 229.49,100.97 338.91,205.07 -37.28,119.4 -159.35,207.1 -297.07,249.72 -61.84,19.13 -125.9,29 -186.89,28.62 -57.34,-0.36 -111.28,-9.69 -156.78,-28.83 -77.17,-32.46 -130.51,-100.69 -126.72,-211.45 2.27,-66.56 18.59,-120.15 45.46,-160.8 31.81,-48.1 81.16,-80.06 140.98,-95.14 69.74,-17.59 153.22,-13.57 242.11,12.81zm2253.3 -309.36l536.99 614.41c-5.44,6.42 -11.14,12.61 -17.08,18.56 -55.27,55.27 -131.66,89.46 -216.05,89.46 -84.39,0 -160.78,-34.19 -216.05,-89.46 -48.2,-48.2 -80.36,-112.45 -87.81,-184.06l0 -448.91zm-255.73 -542.74c0,-87.47 70.9,-158.37 158.37,-158.37 87.46,0 158.36,70.9 158.36,158.37 0,87.46 -70.9,158.36 -158.36,158.36 -87.47,0 -158.37,-70.9 -158.37,-158.36zm1413.66 0c0,-87.47 70.9,-158.37 158.36,-158.37 87.47,0 158.37,70.9 158.37,158.37 0,87.46 -70.9,158.36 -158.37,158.36 -87.46,0 -158.36,-70.9 -158.36,-158.36zm706.83 0c0,-87.47 70.9,-158.37 158.36,-158.37 87.46,0 158.36,70.9 158.36,158.37 0,87.46 -70.9,158.36 -158.36,158.36 -87.46,0 -158.36,-70.9 -158.36,-158.36zm706.83 0c0,-87.47 70.9,-158.37 158.36,-158.37 87.46,0 158.36,70.9 158.36,158.37 0,87.46 -70.9,158.36 -158.36,158.36 -87.46,0 -158.36,-70.9 -158.36,-158.36zm706.82 0c0,-87.47 70.91,-158.37 158.37,-158.37 87.46,0 158.36,70.9 158.36,158.37 0,87.46 -70.9,158.36 -158.36,158.36 -87.46,0 -158.37,-70.9 -158.37,-158.36zm-5912.69 -158.37c87.46,0 158.36,70.9 158.36,158.37 0,87.46 -70.9,158.36 -158.36,158.36 -87.46,0 -158.36,-70.9 -158.36,-158.36 0,-87.47 70.9,-158.37 158.36,-158.37zm1200.09 -3026.6c189.92,197.39 314.31,399.42 373.16,606.09 -149.84,-41.55 -311.47,-93.05 -484.88,-154.49 -19.17,-138.71 18.07,-289.25 111.72,-451.6zm1261.66 1640.68c-381.91,-52.54 -697.45,36.09 -946.6,265.9 -263.32,284.75 -467.14,304.65 -664.75,109.01 -59.8,-59.2 -70.75,-81.18 10.64,-124.97 238.55,-72.22 520.4,-177.69 845.56,-316.42 340.38,-100.43 610.71,-111.95 810.99,-34.56 46.5,66.47 27.89,100.14 -55.84,101.04zm-531.98 -359.56c-346.36,6.26 -630.79,65.68 -853.28,178.26 -225.2,129.57 -431.2,181.86 -617.98,156.87 367.49,-494.73 879.3,-640.51 1535.44,-437.34 90.91,52.99 69.52,87.06 -64.18,102.21zm-442.09 -396.94c0,0 -109.33,12.68 -328,38.03 -143.61,22.68 -176.89,-44.67 -99.83,-202.03 130.09,-69.78 279.04,-38.88 446.85,92.7 37.88,33.86 31.54,57.63 -19.02,71.3zm-1226.98 -1279.1c329.7,30.87 588.2,323.13 588.2,679.1 0,355.98 -258.5,648.24 -588.2,679.11l0 -360c0,-120.75 225.23,-278.52 225.23,-399.31 0,-120.78 -225.23,-151.83 -225.23,-272.61 0,-108.77 0,-217.53 0,-326.29zm-250.03 998.21c0,95.12 0,222.99 0,332.02 -262.94,-86.35 -453.85,-345.21 -453.85,-651.13 0,-305.91 190.91,-564.78 453.85,-651.12l0 298.3c0,120.79 -184.75,151.83 -184.75,272.62 0,120.78 184.75,278.52 184.75,399.31zm1520.88 4946.08c55.23,0 100,44.77 100,100 0,55.23 -44.77,100 -100,100 -55.23,0 -100,-44.77 -100,-100 0,-55.23 44.77,-100 100,-100zm1307.75 -216.63c55.23,0 100,44.77 100,100 0,55.23 -44.77,100 -100,100 -55.23,0 -100,-44.77 -100,-100 0,-55.23 44.77,-100 100,-100zm1307.75 -216.61c55.23,0 100,44.77 100,100 0,55.23 -44.77,100 -100,100 -55.23,0 -100,-44.77 -100,-100 0,-55.23 44.77,-100 100,-100zm1307.77 -216.61c55.23,0 100,44.77 100,100 0,55.23 -44.77,100 -100,100 -55.23,0 -100,-44.77 -100,-100 0,-55.23 44.77,-100 100,-100z"/>
 </g>
</svg>
