<?xml version="1.0" encoding="UTF-8"?>
<!DOCTYPE svg PUBLIC "-//W3C//DTD SVG 1.1//EN" "http://www.w3.org/Graphics/SVG/1.1/DTD/svg11.dtd">
<!-- Creator: CorelDRAW -->
<svg xmlns="http://www.w3.org/2000/svg" xml:space="preserve" width="210mm" height="297mm" version="1.1" style="shape-rendering:geometricPrecision; text-rendering:geometricPrecision; image-rendering:optimizeQuality; fill-rule:evenodd; clip-rule:evenodd"
viewBox="0 0 21000 29700"
 xmlns:xlink="http://www.w3.org/1999/xlink"
 xmlns:xodm="http://www.corel.com/coreldraw/odm/2003">
 <defs>
  <style type="text/css">
   <![CDATA[
    .str0 {stroke:#E31E24;stroke-width:7.62;stroke-miterlimit:22.9256}
    .fil0 {fill:none}
   ]]>
  </style>
 </defs>
 <g id="Layer_x0020_1">
  <metadata id="CorelCorpID_0Corel-Layer"/>
  <path class="fil0 str0" d="M9492.87 5860.59c3302.44,0 5979.6,2677.16 5979.6,5979.6 0,1124.22 -310.25,2175.98 -849.8,3074.33 0.01,0.41 0.01,0.81 0.01,1.22l0 875.97c-5.06,72.49 -12.78,137.28 -24.28,189.24 -20.34,91.9 -11.61,204.52 -60.84,415.82 -85.81,-22.91 -33.34,-45.18 -119.16,-68.09 -15.06,64.64 -39.43,97.24 -58.06,180.27 -55.85,248.92 -25.58,216.36 -46.27,430.4 -7.61,78.77 -5.1,126.92 -39.07,143.36 -64.94,31.4 -21.83,-82.57 -84.23,20.43 -16.87,27.85 -22.58,53.87 -35.23,86.17 -25.63,65.41 -44.91,110.5 -59.68,178.7 -23.85,110.2 7.8,320.79 4.1,444.72 20.85,69.39 -535.9,2479.81 -627.84,870.87 -14.91,-260.9 -55.38,-861.35 -278.27,-1008.3 -242.16,-159.62 -181.29,692.68 -256.48,849.39 -61.78,-41.37 -111.27,-160.55 -119.16,-255.35 -61.65,45.17 -122.29,231.87 -146.7,329.96 -24.04,96.63 -60.15,319.42 -91.63,385.02 -48.22,-35.33 -31.06,-33.78 -62.81,-90.4 -21.7,-38.7 -35.05,-53.89 -63.25,-89.97 -195.25,-249.8 -298.44,-132.84 -398.59,92.16l-82.39 512.01c-51.33,-34.37 -139.84,-204.63 -155.93,-273.67 -103.42,0 148.87,715.08 133.8,837.91l-233.45 1136.93c-54.94,267.61 -525.39,-879.02 -585.4,-1136.74 -48.5,-208.33 -68.33,-921.06 -76.54,-936.58 -173.58,116.3 -276.52,862 -320.96,1098.94 -25,127.89 -20.3,208.32 -95.14,228.3 0,-75.03 -12.49,-99.06 -35.55,-151.71 -27.54,-62.89 -33.21,-53.79 -66.59,-103.64 -637.39,330.78 -659.09,1220.95 -709.01,1465.83 -569.08,2791.53 -670.38,-1348.58 -1078.44,-1363.69 -192.47,0 -196.63,974.94 -279.19,398.36 -215.6,-519.14 -865.53,-2321.13 -596.15,-265.82 49.52,210.85 193.67,1216.39 -9.87,1365.51 -49.98,-600.6 -547.62,-701.55 -741.18,-1097.44 -148.09,-302.89 -146.49,-1404.6 -263.2,-1490.1 -13.45,50.38 -98.4,227.66 -136.18,255.35 -25.79,-53.73 -65.06,-420.08 -83.53,-512.3l-103.73 -492.08c-67.85,18.12 -92.35,84.28 -118.03,-16.54 -43.35,-170.19 -90.5,-942.76 -222.44,-1192.12 -154,35.88 -102.89,152.49 -206.17,1.9 -119.17,-201.42 -187.9,1214.32 -253.46,1411.04 -231.86,-169.89 -172.06,-719.76 -585.58,-719.76 -25.33,-47.88 -123.4,-791.3 -129.4,-863.41 -63.87,17.05 -56.29,38.65 -80.89,106.36 -34.41,94.7 -56.99,268.54 -96.19,346.42 -19.14,38.01 -4.62,26.56 -44.22,40.89l-85.12 -544.74c-14.33,-87.26 -31.48,-173.17 -51.07,-255.35 -19.73,-82.76 -32.75,-166.07 -54.35,-252.07 -41.1,-163.58 -79.33,-334.65 -119.47,-510.4l-81.53 -531.3 0 -403.17c-567.64,-914.53 -895.41,-1993.51 -895.41,-3149.04 0,-3302.44 2677.16,-5979.6 5979.6,-5979.6zm-30.08 178.91c88.67,0 160.56,71.89 160.56,160.56 0,88.67 -71.89,160.56 -160.56,160.56 -88.67,0 -160.56,-71.89 -160.56,-160.56 0,-88.67 71.89,-160.56 160.56,-160.56zm-191.48 1437.4c1066.07,0 1930.29,864.22 1930.29,1930.29 0,407.5 -126.38,785.42 -341.93,1096.94 36.07,17.56 73.35,38.72 112.09,64.94 194.71,131.8 219.74,360.23 285.29,573.05 49.26,159.92 109.65,260.32 169.03,408.15 72.05,179.41 68.36,245.54 191.38,385.79l220.77 223.19c30.89,24.93 39.05,39.26 71.92,61.27 0,-267.76 21.86,-645.23 -3.53,-899.37l-26.07 -832.13c-203.5,0 -339.42,89.53 -387.93,-41.23 -40.72,-109.78 -26.44,-254.49 -26.44,-373.14 0,-336.2 251.14,-106.96 419.81,-103.21 -3.51,-157.25 -34.97,-142.96 -29.6,-384.77 -114.86,-26.77 -262,-36.76 -361.52,-108.56 -75.39,-54.39 -162.25,-139.44 -162.25,-266.93 0,-142.41 28.53,-213.69 93.71,-335.46 53.08,-99.17 124.16,-223.8 141.02,-347.37 39.18,-287.27 -23.99,-267.93 -27.54,-427.1 59.27,4.93 127.69,28.45 154.38,73.08 21.35,35.73 27.16,49.37 44.87,88.34 60.61,133.4 64.18,258.51 17.72,400.68 -49.18,150.42 -142.61,372.48 -142.61,523.35 0,180.29 286.34,155.74 286.34,-40.11 0,-40.27 -21.95,-75.11 -35.94,-126.85 -37.65,-139.25 24.95,-876.67 142.57,-962.81 118,245.9 197.87,778.12 107.93,1057.62 -68.96,214.37 255.27,282.31 293.26,66.6 9.89,-56.18 -38.79,-177.28 -56.07,-229.36 -39.38,-118.67 -131.32,-315.11 -131.32,-460.65 0,-138.19 154.89,-332.24 233.35,-384.77 0,368.16 -100.72,331.52 93.55,720.4 100.53,201.24 201.09,282.89 89.58,513.47 -85.94,177.73 -237.91,225.35 -457.66,225.35 12.55,150.79 21.84,242.32 -14.8,399.57 157.95,-13.14 220.6,-131.45 429.77,-68.1 69.98,21.19 44.39,92.75 44.39,192.38 0,613.32 -32.58,403.81 -426.85,371 0,146.51 -20,1955.46 6.19,2054.03 23.63,88.93 70.28,311.8 126.71,395.76 129.47,192.58 196.56,386.17 470.03,417.92 164.08,19.05 297.6,78.28 355.02,236.95 117.63,325.12 225.73,183.48 264.24,327.72 -207.7,109.91 -400.71,0.74 -582.24,-98.52 -57.69,-31.54 -104.15,-73.38 -172.52,-79.07 0,156.45 -33.7,271.7 -153.88,364.09 -149.72,115.09 -286.01,146.14 -304.88,198.28 172.38,0 294.92,15.42 473.61,14.75 36.63,-0.14 81.87,-2.17 117.57,0.82l210.11 1.4c177.03,-20.27 557.51,-2.17 752.61,-2.17 713.69,0 916.35,-1879.69 916.35,-2555.32 0,-2870.95 -2327.37,-5198.32 -5198.32,-5198.32 -2870.95,0 -5198.32,2327.37 -5198.32,5198.32 0,598.84 194.34,2673.68 924.66,2568.36 344.35,-49.61 1484.77,-27.84 1792.44,-27.84 0,-49.62 -588.54,-136.98 -680.76,-532.77 -163.74,43.72 -239.42,351.06 -651.16,133.19 52.58,-78.52 144.45,-97.78 211.71,-173.07 59.63,-66.76 44.97,-188.34 106.78,-278 70.12,-101.72 160.99,-79.7 270.86,-113.91 218.76,-68.12 407.49,-449.78 505.78,-648.54 121.39,-245.46 290.22,-493.97 379.44,-760.1 37.66,-112.31 65.57,-180.12 108.68,-276.09 40.89,-91.02 82.67,-174.17 118.83,-265.96 112.5,-285.52 170.55,-566.23 381.48,-750.29 -264.2,-330.24 -422.27,-749.07 -422.27,-1204.87 0,-1066.07 864.22,-1930.29 1930.29,-1930.29zm0 251.44c927.21,0 1678.85,751.64 1678.85,1678.85 0,380.25 -126.48,730.92 -339.58,1012.38 -187.26,-47.74 -346.88,-87.17 -521.02,-418.61 -40.75,-77.56 -130.43,-333.86 -132.89,-444.28 43.63,31.96 105.07,223.98 118.4,281.18 57.07,-39.65 19.43,-81.61 4.35,-137.55 -12.75,-47.35 -13.14,-60.25 -28.11,-105.08 -69.33,-207.66 -105.28,-393.25 -159.66,-609.89 -71.91,-286.38 -103.87,-308.43 -252.63,-517.32 -74.79,-105.03 -7.92,-89 -7.92,-198.86 0,-38.27 -16.17,-68.55 -23.49,-109.71 -13.53,-76 -3.08,-148.09 -69,-197.38 -32,-23.94 -70.55,-39.81 -111.64,-48.09l-140.91 0c-55.82,10.83 -108.23,34.38 -147.68,69.65 -114.78,102.61 -52.89,271.99 -79.07,408.34 -14.25,74.22 11.02,35.87 -34.98,69.58 0,-143.67 -47.11,-136.11 -74,-236.79l-44.4 0c2.85,127.69 58.6,290.2 -98.95,359.81 -60.21,26.6 -160.29,29.84 -211.83,54.57 30.53,41.66 53.01,51.53 128.3,41.2 54.89,-7.53 90.77,-11.6 167.69,-11.6 -7.66,92.04 -59.72,195.29 -80.01,289.97 -55.77,260.17 -79.57,541.09 -107.12,796.71 -8.98,83.24 16.89,56.81 68.73,38.05 -74.56,155.39 -87.66,460.83 -251.58,547.56 -2.67,-2.31 -7.41,-8.74 -8.6,-6.19 -13.72,29.37 -229.22,-389.43 -118.77,-598.52 210.56,-398.57 -279.07,-594.91 -357.79,-201.92 -78.83,393.47 233.57,633.9 233.57,821.43 0,76.21 -201.18,95.14 -255.78,114.19 -10.98,3.83 -21.65,7.84 -32.15,11.95 -242.94,-291.2 -389.18,-665.89 -389.18,-1074.78 0,-927.21 751.64,-1678.85 1678.85,-1678.85zm2289.35 12244.51c-109.34,0 -197.99,88.65 -197.99,197.99 0,109.34 88.65,197.99 197.99,197.99 109.34,0 197.99,-88.65 197.99,-197.99 0,-109.34 -88.65,-197.99 -197.99,-197.99zm-4117.03 245.35c-109.34,0 -197.99,88.65 -197.99,197.99 0,109.34 88.65,197.99 197.99,197.99 109.34,0 197.99,-88.65 197.99,-197.99 0,-109.34 -88.65,-197.99 -197.99,-197.99zm2050.75 1002.94c-109.34,0 -197.99,88.65 -197.99,197.99 0,109.34 88.65,197.99 197.99,197.99 109.34,0 197.99,-88.65 197.99,-197.99 0,-109.34 -88.65,-197.99 -197.99,-197.99zm4233.52 -3453.79c-109.34,0 -197.99,88.65 -197.99,197.99 0,109.34 88.65,197.99 197.99,197.99 109.34,0 197.99,-88.65 197.99,-197.99 0,-109.34 -88.65,-197.99 -197.99,-197.99zm-8242.94 -455.16c-109.34,0 -197.99,88.65 -197.99,197.99 0,109.34 88.65,197.99 197.99,197.99 109.34,0 197.99,-88.65 197.99,-197.99 0,-109.34 -88.65,-197.99 -197.99,-197.99zm5048.88 -5994.42c109.35,469.4 316.03,684.1 603.17,1009.93 174.42,197.91 411.25,425.23 599.22,614.3 182.77,183.81 173.92,119.91 173.92,388.46 -183.53,0 -375.13,-37.9 -573.12,-10.76 -164.66,22.57 -411.25,4.07 -583.37,23.39 -145.41,16.32 -293.56,25.96 -379.72,-59.94 -32.81,-32.7 -51.27,-44.97 -71.33,-91.45 -134.41,-311.55 -105.1,-649.29 -7.46,-973.09 15.73,-52.17 24.62,-104.56 61.1,-131.28 16.25,69.75 46.64,209.2 68.68,275.14l57.89 164.1c22.95,42.06 31.71,46.76 79.67,59.56 0,-90.58 6.47,-207.84 -0.78,-295.2 -4.48,-54 -16.07,-67.12 -16.3,-135.08 -0.27,-76.41 -7.57,-81.94 61.48,-87.69 62.55,-425.87 -117.82,-688.69 -73.05,-750.39zm-2379.15 985.95c105.74,-28.24 23.57,-101.79 107.07,-162.95 22.48,96.5 15.59,378.25 85.32,429.33 0,-210.01 11.29,-552.95 11.29,-704.76l11.25 18.35c23.76,54.26 71.7,415.52 88.98,488.19 35.3,148.44 121.76,236.93 121.76,485 0,225.47 -77.46,517.97 -295.98,517.97 -166.95,0 -473.2,-68.31 -680.28,-74.48 -246.53,-7.35 -507.09,0.48 -755.24,0.48 14.7,-55.05 343.03,-358.19 448.56,-483.78 20.61,-24.55 27.08,-28.27 48.31,-55.28 236.91,-301.42 397.42,-523.78 586.02,-879.1 46,-86.68 92.32,-177.5 140.5,-273.86 36.39,-72.78 122.21,-222.72 138.13,-291.06l29.59 0c-1.11,49.98 -33.35,51.63 -30.87,94.72 6.39,111.08 -25.45,251.12 -43.66,384.01 -19.18,139.96 -10.75,342.23 -10.75,507.22z"/>
 </g>
</svg>
