<?xml version="1.0" encoding="UTF-8"?>
<!DOCTYPE svg PUBLIC "-//W3C//DTD SVG 1.1//EN" "http://www.w3.org/Graphics/SVG/1.1/DTD/svg11.dtd">
<!-- Creator: CorelDRAW -->
<svg xmlns="http://www.w3.org/2000/svg" xml:space="preserve" width="210mm" height="297mm" version="1.1" style="shape-rendering:geometricPrecision; text-rendering:geometricPrecision; image-rendering:optimizeQuality; fill-rule:evenodd; clip-rule:evenodd"
viewBox="0 0 21000 29700"
 xmlns:xlink="http://www.w3.org/1999/xlink"
 xmlns:xodm="http://www.corel.com/coreldraw/odm/2003">
 <defs>
  <style type="text/css">
   <![CDATA[
    .str0 {stroke:black;stroke-width:7.62;stroke-miterlimit:22.9256}
    .fil0 {fill:#2B2A29}
   ]]>
  </style>
 </defs>
 <g id="Layer_x0020_1">
  <metadata id="CorelCorpID_0Corel-Layer"/>
  <path class="fil0 str0" d="M14324.44 15078.46c-89.75,651.72 -1012.57,806.98 -1124.59,545.18 -112.81,-263.72 446.67,-788.65 1124.59,-545.18zm357.72 2396.46c54.07,0 97.9,43.83 97.9,97.9 0,54.07 -43.83,97.9 -97.9,97.9 -54.07,0 -97.9,-43.83 -97.9,-97.9 0,-54.07 43.83,-97.9 97.9,-97.9zm-2470.97 -439.29c54.07,0 97.9,43.83 97.9,97.9 0,54.07 -43.83,97.9 -97.9,97.9 -54.07,0 -97.9,-43.83 -97.9,-97.9 0,-54.07 43.83,-97.9 97.9,-97.9zm-2408.26 594.49c54.07,0 97.9,43.83 97.9,97.9 0,54.07 -43.83,97.9 -97.9,97.9 -54.07,0 -97.9,-43.83 -97.9,-97.9 0,-54.07 43.83,-97.9 97.9,-97.9zm-2785.64 34.32c54.07,0 97.9,43.83 97.9,97.9 0,54.07 -43.83,97.9 -97.9,97.9 -54.07,0 -97.9,-43.83 -97.9,-97.9 0,-54.07 43.83,-97.9 97.9,-97.9zm2701.32 -5870.51c69.53,0 125.9,56.37 125.9,125.9 0,69.53 -56.37,125.9 -125.9,125.9 -69.53,0 -125.9,-56.37 -125.9,-125.9 0,-69.53 56.37,-125.9 125.9,-125.9zm-1082.35 3052.04l0.19 247.11c-309.23,31.63 -826.5,-75.67 -959.44,184.68 -73.43,143.8 -42.65,269.7 17.89,412.26 39.84,93.81 71.24,86.78 26.87,173.89 -30.75,60.37 -59.85,107.57 -77.07,183.85 -148.86,576.01 1024.53,1282.71 1139.32,1110.4 -15.3,-64.63 -422.3,-449.04 -498.62,-511.14 -294.19,-239.34 -354.7,-654.18 81.36,-728.62 404,-68.97 281.32,376.69 137.66,429.94 26.88,38.84 209.27,224.6 240.82,241.16 253.9,-190.28 419.06,-628.83 158.93,-890.02 -327.84,-329.21 -771.48,-29.96 -853.1,-45.43 -8.46,-101.65 -13.02,-157.07 35.85,-217.13 144.62,-177.72 465.84,-59.42 826.49,-107.58l-0.14 -496.77 629.64 -4.64c18.23,397.09 -58.45,2680.98 50.16,2942.26 43.28,104.06 276.47,349.34 417.02,346.65l-56.99 -3318.09 1367.36 -15.6 3.09 134.71c-360.62,50.67 -556.34,43.78 -862.19,164.12 -926.01,364.31 147.59,1335.8 1433.65,1309.17 134.07,227.89 249.93,710.86 -115.05,686.72l-1.01 82.9c119.5,89.59 537.7,403.43 699.51,154.15 190.41,-293.31 -198.71,-792.09 -425.13,-951.27 18.97,-150.32 313.2,-176.71 153.98,-394.89 -64.57,-88.48 -644.47,-486.76 -867.32,-302.06 -195.49,161.98 86.79,399.83 86.83,399.87 -634.03,70.14 -1380.74,-555.88 -573.65,-732.36 1611.23,-231.26 485.9,-435.24 1444.47,-576.31 319.39,-47.01 593.37,-68.33 952.58,-51.31 -616.76,758.68 -1127.32,1739.46 1115.32,1264.91l55.97 1184.28c23.67,624.67 -57.52,497.55 260.15,697.53 79.41,49.96 91,95.69 196.06,85.08 198.54,-888.94 -491.53,-3222.8 468.56,-3338.37 382.11,-46 825.02,61.95 1200.27,141.56 -0.68,-810.85 -3312.52,-121.11 -3386.55,-412.28 -9.13,-35.83 102.18,-147.77 85.96,-171.45 -511.44,174.64 -1061.6,428.47 -1683.92,46.37 -851.47,-522.76 -286.71,-1191.58 -277.54,-1372.62 -492.71,88.56 -752.56,1044.01 -243.9,1565.95l-1090.76 40.6 -40.72 -859.34c207.34,-33.2 348.53,-47 522.06,-111.5 187.66,-69.81 355.68,-138.21 343.55,-348.9 -110.09,-74.31 -232.65,-372.11 -255.71,-566.65 -51.71,-435.36 134.64,-429.12 170.23,-676.38 -621.89,65.93 -67.07,1224.32 -524.74,1312.6 -451.94,87.23 -197.5,-621.17 -206.5,-951.8 -5.87,-216.97 -124.63,-704.41 -239.4,-825.42 -137.8,116.68 -225.27,629.2 -227.68,854.56 -2.39,223.69 213.51,780.87 -5.54,912.45 -132.83,76.16 -292.53,1.35 -349.14,-101.9 -79.79,-182.78 197.49,-1101.88 -345.8,-1148.6 33.91,198.68 287.83,305.52 109,848.63 -64.67,187.86 -165.31,320.58 -198.02,456.1 99.59,279.19 465.16,331.65 826.75,357.04l25.22 867.61c-1722.91,71.77 -3638.07,287.08 -5291.82,-111.95 68.75,608.85 1389.29,576.52 1772.45,598.78l17.69 434.56 -716.49 44.92c-32.55,438.17 647.49,1067.95 1096.98,1005.48 21.26,-145.06 -2.64,-590.49 38.35,-674.86l315.12 -20.34c33.87,332.44 -50.92,1979.22 18.43,2118.99 40.02,80.72 328.35,254.99 426.93,257.81 48.45,-230.98 9.47,-1431.92 2.82,-1750.97 -11.14,-534.91 -93.9,-1443.57 483.45,-1494.82l918.95 -18.28zm-2585.71 909.54l-18.61 321.12c-196.42,-0.13 -458.09,-300.64 -194.76,-333.87 69.91,-8.83 159.11,-5.05 213.37,12.75zm341.94 -849.24l497.68 13.64c-65.98,186.75 -64.47,230.97 -104.12,443.68l-349.27 1.81c-2.69,-45.53 -52.44,-452.74 -44.29,-459.13zm7360.84 -196.02l690.78 -27.93 -47.18 296.24c-1.26,-0.15 -622.41,-256.12 -643.6,-268.31z"/>
 </g>
</svg>
