<?xml version="1.0" encoding="UTF-8"?>
<!DOCTYPE svg PUBLIC "-//W3C//DTD SVG 1.1//EN" "http://www.w3.org/Graphics/SVG/1.1/DTD/svg11.dtd">
<!-- Creator: CorelDRAW -->
<svg xmlns="http://www.w3.org/2000/svg" xml:space="preserve" width="210mm" height="297mm" version="1.1" style="shape-rendering:geometricPrecision; text-rendering:geometricPrecision; image-rendering:optimizeQuality; fill-rule:evenodd; clip-rule:evenodd"
viewBox="0 0 21000 29700"
 xmlns:xlink="http://www.w3.org/1999/xlink"
 xmlns:xodm="http://www.corel.com/coreldraw/odm/2003">
 <defs>
  <style type="text/css">
   <![CDATA[
    .str0 {stroke:#2B2A29;stroke-width:7.62;stroke-miterlimit:22.9256}
    .fil0 {fill:#2B2A29}
   ]]>
  </style>
 </defs>
 <g id="Layer_x0020_1">
  <metadata id="CorelCorpID_0Corel-Layer"/>
  <path class="fil0 str0" d="M10397.8 8740.83c3302.44,0 5979.6,2677.16 5979.6,5979.6 0,1124.22 -310.25,2175.98 -849.8,3074.33 0.01,0.41 0.01,0.81 0.01,1.22l0 875.97c-5.06,72.49 -12.78,137.28 -24.28,189.24 -20.34,91.9 -11.61,204.52 -60.84,415.82 -85.81,-22.91 -33.34,-45.18 -119.16,-68.09 -15.06,64.64 -39.43,97.24 -58.06,180.27 99.6,517.93 -459.18,4606.88 -898.63,2210.81 -48.87,-266.47 -95.77,-846.71 -307.81,-1004.51 -230.38,-171.4 -148.4,659.79 -216.53,809.44 -61.78,-41.37 -111.27,-160.55 -119.16,-255.35 -61.65,45.17 -122.29,231.87 -146.7,329.96 -24.04,96.63 -60.15,319.42 -91.63,385.02 -48.22,-35.33 -31.06,-33.78 -62.81,-90.4 -21.7,-38.7 -35.05,-53.89 -63.25,-89.97 -195.25,-249.8 -352.59,-78.69 -452.74,146.31l-136.18 408.57c-51.33,-34.37 -86.05,-101.19 -102.14,-170.23l-34.05 0c-21.22,91.11 -35.78,176.32 -47.95,275.49l-122.28 865.07c0,-273.34 -52.54,-531.97 -112.55,-789.69 -29.09,-124.96 -49.61,-250.63 -73.29,-369.31 -20.04,-100.44 -47.76,-282.81 -86.53,-356.07 -133.72,89.54 -207.98,247.3 -264.51,399.63 -36.61,98.64 -20.49,97.88 -110.01,77.02 -21.07,90.44 -49.28,169.54 -69.69,270.78l-107.54 573.39c-25,127.89 -20.3,208.32 -95.14,228.3 0,-75.03 -12.49,-99.06 -35.55,-151.71 -27.54,-62.89 -33.21,-53.79 -66.59,-103.64 -369.8,201.69 -280.32,928.96 -274.27,1330.26 -155.96,1486.25 -202.12,-55.26 -279.03,-318.92l-151.05 500.46c-623.49,1455.38 -337.89,1006.91 -650.93,-143.62 -26.71,-98.15 1.31,-427.29 -74.68,-482.96 0,155.02 -52.17,460.13 -73.09,624.86 -111.33,666.62 -70.18,976.87 -176.89,106.24 -21.59,-176.22 -24.45,-372.51 -39.53,-543.82l-63.7 -527.42c7.41,-79.29 51.89,-442.94 -46.03,-442.94 -182.96,0 -183.67,974.94 -237.44,398.36l-105.35 -507.5c-19.99,-79.55 -135.12,-538.07 -228.3,-571.79 -96.18,200.42 -17.37,1014.92 -119.16,1089.49 -5.28,-236.7 -167.52,-763.61 -244.93,-997.78 -34.14,-103.31 -86.45,-203.77 -95.54,-313.01l-34.04 0c5.19,322.42 19.52,539.87 119.18,840.06 38.84,213.57 267.02,1138.42 50.61,1299.58 -70.6,-609.46 -503.4,-762.28 -712.32,-1165.42 -109.66,-201.39 -117.63,-568.8 -150.88,-808.55 -12.42,-64.43 -23.24,-133.36 -35.1,-186.2 -22.1,-98.44 3.37,-124.28 -54.57,-166.73 -13.45,50.38 -98.4,227.66 -136.18,255.35 -25.79,-53.73 -65.06,-420.08 -83.53,-512.3l-103.73 -492.08c-67.85,18.12 -92.35,84.28 -118.03,-16.54 -43.35,-170.19 -90.5,-942.76 -222.44,-1192.12 -154,35.88 -102.89,152.49 -206.17,1.9 -84.06,-122.6 -111.22,26.96 -127.39,107.15l-60.84 721.58c-21.81,336.67 10.16,717.66 -37.16,1018.41 -96.43,-83.51 -247.28,-454.1 -309.87,-585.3 -38.14,-93.11 -97.23,-140.14 -118.23,-254.61 -21,-114.47 -11.15,-123.61 -114.72,-162.97 -64.99,-150.77 -69.54,-320.16 -98.83,-520.59 -21.85,-149.5 -91.46,-371.08 -101.4,-495.8 -63.87,17.05 -56.29,38.65 -80.89,106.36 -34.41,94.7 -56.99,268.54 -96.19,346.42 -19.14,38.01 -4.62,26.56 -44.22,40.89l-85.12 -544.74c-14.33,-87.26 -31.48,-173.17 -51.07,-255.35 -19.73,-82.76 -32.75,-166.07 -54.35,-252.07 -41.1,-163.58 -79.33,-334.65 -119.47,-510.4l-81.53 -531.3 0 -403.17c-567.64,-914.53 -895.41,-1993.51 -895.41,-3149.04 0,-3302.44 2677.16,-5979.6 5979.6,-5979.6zm4298.95 12506.75c102.83,0 186.19,83.36 186.19,186.19 0,102.83 -83.36,186.19 -186.19,186.19 -102.83,0 -186.19,-83.36 -186.19,-186.19 0,-102.83 83.36,-186.19 186.19,-186.19zm-4262.21 3003.34c102.83,0 186.19,83.36 186.19,186.19 0,102.83 -83.36,186.19 -186.19,186.19 -102.83,0 -186.19,-83.36 -186.19,-186.19 0,-102.83 83.36,-186.19 186.19,-186.19zm-4040.23 -3816.44c102.83,0 186.19,83.36 186.19,186.19 0,102.83 -83.36,186.19 -186.19,186.19 -102.83,0 -186.19,-83.36 -186.19,-186.19 0,-102.83 83.36,-186.19 186.19,-186.19zm5728.13 -6223.94c25.81,0.01 46.73,20.93 46.74,46.74 0,25.81 -20.92,46.75 -46.74,46.74 -25.81,0 -46.74,-20.91 -46.74,-46.72 0,-25.83 20.92,-46.76 46.74,-46.76zm-70.84 -152.93c25.82,0 46.75,20.94 46.74,46.75 0,25.81 -20.93,46.74 -46.74,46.74 -25.82,-0.01 -46.74,-20.93 -46.74,-46.74 0,-25.81 20.93,-46.75 46.74,-46.75zm-71.54 245.93c25.81,0 46.74,20.94 46.74,46.75 0,25.81 -20.93,46.74 -46.74,46.74 -25.8,0 -46.74,-20.93 -46.74,-46.74 0,-25.81 20.93,-46.75 46.74,-46.75zm-70.83 -152.92c25.81,0 46.74,20.93 46.74,46.74 0,25.81 -20.93,46.74 -46.74,46.74 -25.81,0 -46.75,-20.94 -46.75,-46.75 0,-25.8 20.94,-46.73 46.75,-46.73zm-82.07 242.75c25.81,0 46.74,20.94 46.74,46.75 0,25.81 -20.94,46.74 -46.75,46.74 -25.81,0 -46.74,-20.93 -46.73,-46.74 0,-25.81 20.92,-46.75 46.74,-46.75zm-70.84 -152.92c25.82,0 46.74,20.93 46.74,46.74 0,25.81 -20.93,46.75 -46.74,46.74 -25.81,0 -46.74,-20.93 -46.74,-46.74 0,-25.81 20.93,-46.74 46.74,-46.74zm-78.74 230.75c25.82,0 46.75,20.92 46.75,46.73 0,25.81 -20.93,46.75 -46.75,46.74 -25.81,0 -46.74,-20.92 -46.74,-46.74 0,-25.81 20.93,-46.73 46.74,-46.73zm-70.83 -152.93c25.82,0 46.75,20.93 46.75,46.74 0,25.82 -20.93,46.74 -46.75,46.74 -25.81,0 -46.74,-20.93 -46.74,-46.75 0,-25.81 20.93,-46.73 46.74,-46.73zm-3246.12 2.56c-12.21,-21.15 -4.96,-48.2 16.18,-60.41 21.15,-12.21 48.2,-4.97 60.41,16.18 12.21,21.15 4.97,48.2 -16.18,60.41 -21.15,12.21 -48.2,4.97 -60.41,-16.18zm-91.8 130.38c-12.21,-21.15 -4.96,-48.2 16.19,-60.41 21.15,-12.21 48.2,-4.96 60.41,16.19 12.21,21.15 4.96,48.2 -16.19,60.41 -21.15,12.21 -48.2,4.96 -60.41,-16.19zm235.35 -57.72c-12.21,-21.15 -4.96,-48.2 16.19,-60.41 21.15,-12.21 48.2,-4.96 60.41,16.19 12.21,21.14 4.96,48.19 -16.19,60.4 -21.15,12.22 -48.2,4.97 -60.41,-16.18zm-91.79 130.38c-12.22,-21.15 -4.97,-48.2 16.18,-60.41 21.15,-12.21 48.2,-4.96 60.41,16.19 12.21,21.15 4.96,48.2 -16.19,60.41 -21.14,12.21 -48.19,4.96 -60.4,-16.19zm237.73 -47.59c-12.21,-21.15 -4.96,-48.2 16.19,-60.41 21.15,-12.21 48.2,-4.96 60.41,16.19 12.21,21.15 4.96,48.2 -16.19,60.41 -21.15,12.21 -48.2,4.96 -60.41,-16.19zm-91.79 130.38c-12.22,-21.15 -4.97,-48.2 16.18,-60.41 21.15,-12.21 48.2,-4.96 60.41,16.19 12.21,21.15 4.96,48.2 -16.19,60.41 -21.14,12.21 -48.19,4.96 -60.4,-16.19zm226.31 -44.64c-12.21,-21.15 -4.97,-48.2 16.18,-60.41 21.15,-12.21 48.2,-4.96 60.41,16.19 12.21,21.15 4.97,48.2 -16.18,60.41 -21.15,12.21 -48.2,4.96 -60.41,-16.19zm-91.8 130.38c-12.21,-21.15 -4.96,-48.2 16.19,-60.41 21.15,-12.21 48.2,-4.96 60.41,16.19 12.21,21.15 4.96,48.2 -16.19,60.41 -21.15,12.21 -48.2,4.96 -60.41,-16.19zm2440.53 -1444.25c25.8,0 46.72,20.92 46.72,46.72 0,25.8 -20.92,46.72 -46.72,46.72 -25.8,0 -46.72,-20.92 -46.72,-46.72 0,-25.8 20.92,-46.72 46.72,-46.72zm-66.66 151.88c25.8,0 46.72,20.92 46.72,46.72 0,25.8 -20.92,46.72 -46.72,46.72 -25.8,0 -46.72,-20.92 -46.72,-46.72 0,-25.8 20.92,-46.72 46.72,-46.72zm-63.33 145.94c25.8,0 46.72,20.92 46.72,46.72 0,25.8 -20.92,46.72 -46.72,46.72 -25.8,0 -46.72,-20.92 -46.72,-46.72 0,-25.8 20.92,-46.72 46.72,-46.72zm-63.33 155.94c25.8,0 46.72,20.92 46.72,46.72 0,25.8 -20.92,46.72 -46.72,46.72 -25.8,0 -46.72,-20.92 -46.72,-46.72 0,-25.8 20.92,-46.72 46.72,-46.72zm-73.33 165.94c25.8,0 46.72,20.92 46.72,46.72 0,25.8 -20.92,46.72 -46.72,46.72 -25.8,0 -46.72,-20.92 -46.72,-46.72 0,-25.8 20.92,-46.72 46.72,-46.72zm-80.99 162.57c25.8,0 46.72,20.92 46.72,46.72 0,25.8 -20.92,46.72 -46.72,46.72 -25.8,0 -46.72,-20.92 -46.72,-46.72 0,-25.8 20.92,-46.72 46.72,-46.72zm-75.92 154.45c25.8,0 46.72,20.92 46.72,46.72 0,25.8 -20.92,46.72 -46.72,46.72 -25.8,0 -46.72,-20.92 -46.72,-46.72 0,-25.8 20.92,-46.72 46.72,-46.72zm-120.75 145.99c25.8,0 46.72,20.92 46.72,46.72 0,25.8 -20.92,46.72 -46.72,46.72 -25.8,0 -46.72,-20.92 -46.72,-46.72 0,-25.8 20.92,-46.72 46.72,-46.72zm-148.4 131.36c25.8,0 46.72,20.92 46.72,46.72 0,25.8 -20.92,46.72 -46.72,46.72 -25.8,0 -46.72,-20.92 -46.72,-46.72 0,-25.8 20.92,-46.72 46.72,-46.72zm-211.58 1.29c25.8,0 46.72,20.92 46.72,46.72 0,25.8 -20.92,46.72 -46.72,46.72 -25.8,0 -46.72,-20.92 -46.72,-46.72 0,-25.8 20.92,-46.72 46.72,-46.72zm-171.65 -116.94c25.8,0 46.72,20.92 46.72,46.72 0,25.8 -20.92,46.72 -46.72,46.72 -25.8,0 -46.72,-20.92 -46.72,-46.72 0,-25.8 20.92,-46.72 46.72,-46.72zm-93.04 -159.5c25.8,0 46.72,20.92 46.72,46.72 0,25.8 -20.92,46.72 -46.72,46.72 -25.8,0 -46.72,-20.92 -46.72,-46.72 0,-25.8 20.92,-46.72 46.72,-46.72zm-91.2 -152.64c25.8,0 46.72,20.92 46.72,46.72 0,25.8 -20.92,46.72 -46.72,46.72 -25.8,0 -46.72,-20.92 -46.72,-46.72 0,-25.8 20.92,-46.72 46.72,-46.72zm-81.25 -157.12c25.8,0 46.72,20.92 46.72,46.72 0,25.8 -20.92,46.72 -46.72,46.72 -25.8,0 -46.72,-20.92 -46.72,-46.72 0,-25.8 20.92,-46.72 46.72,-46.72zm-87.53 -170.97c25.8,0 46.72,20.92 46.72,46.72 0,25.8 -20.92,46.72 -46.72,46.72 -25.8,0 -46.72,-20.92 -46.72,-46.72 0,-25.8 20.92,-46.72 46.72,-46.72zm-82.72 -168.63c25.8,0 46.72,20.92 46.72,46.72 0,25.8 -20.92,46.72 -46.72,46.72 -25.8,0 -46.72,-20.92 -46.72,-46.72 0,-25.8 20.92,-46.72 46.72,-46.72zm-73.5 -151.76c25.8,0 46.72,20.92 46.72,46.72 0,25.8 -20.92,46.72 -46.72,46.72 -25.8,0 -46.72,-20.92 -46.72,-46.72 0,-25.8 20.92,-46.72 46.72,-46.72zm-62.4 -154.44c25.8,0 46.72,20.92 46.72,46.72 0,25.8 -20.92,46.72 -46.72,46.72 -25.8,0 -46.72,-20.92 -46.72,-46.72 0,-25.8 20.92,-46.72 46.72,-46.72zm882.8 -4346.64c-109.34,0 -197.99,88.65 -197.99,197.99 0,109.34 88.65,197.99 197.99,197.99 109.34,0 197.99,-88.65 197.99,-197.99 0,-109.34 -88.65,-197.99 -197.99,-197.99zm29.21 534.13c2870.95,0 5198.32,2327.37 5198.32,5198.32 0,675.63 -202.66,2555.32 -916.35,2555.32 -195.1,0 -575.58,-18.1 -752.61,2.17l-210.11 -1.4c-35.7,-2.99 -80.94,-0.96 -117.57,-0.82 -178.69,0.67 -301.23,-14.75 -473.61,-14.75 18.87,-52.14 155.16,-83.19 304.88,-198.28 120.18,-92.39 153.88,-207.64 153.88,-364.09 68.37,5.69 114.83,47.53 172.52,79.07 181.53,99.26 374.54,208.43 582.24,98.52 -38.51,-144.24 -146.61,-2.6 -264.24,-327.72 -57.42,-158.67 -190.94,-217.9 -355.02,-236.95 -273.47,-31.75 -340.56,-225.34 -470.03,-417.92 -56.43,-83.96 -103.08,-306.83 -126.71,-395.76 -26.19,-98.57 -6.19,-1907.52 -6.19,-2054.03 394.27,32.81 426.85,242.32 426.85,-371 0,-99.63 25.59,-171.19 -44.39,-192.38 -209.17,-63.35 -271.82,54.96 -429.77,68.1 36.64,-157.25 27.35,-248.78 14.8,-399.57 219.75,0 371.72,-47.62 457.66,-225.35 111.51,-230.58 10.95,-312.23 -89.58,-513.47 -194.27,-388.88 -93.55,-352.24 -93.55,-720.4 -78.46,52.53 -233.35,246.58 -233.35,384.77 0,145.54 91.94,341.98 131.32,460.65 17.28,52.08 65.96,173.18 56.07,229.36 -37.99,215.71 -362.22,147.77 -293.26,-66.6 89.94,-279.5 10.07,-811.72 -107.93,-1057.62 -117.62,86.14 -180.22,823.56 -142.57,962.81 13.99,51.74 35.94,86.58 35.94,126.85 0,195.85 -286.34,220.4 -286.34,40.11 0,-150.87 93.43,-372.93 142.61,-523.35 46.46,-142.17 42.89,-267.28 -17.72,-400.68 -17.71,-38.97 -23.52,-52.61 -44.87,-88.34 -26.69,-44.63 -95.11,-68.15 -154.38,-73.08 3.55,159.17 66.72,139.83 27.54,427.1 -16.86,123.57 -87.94,248.2 -141.02,347.37 -65.18,121.77 -93.71,193.05 -93.71,335.46 0,127.49 86.86,212.54 162.25,266.93 99.52,71.8 246.66,81.79 361.52,108.56 -5.37,241.81 26.09,227.52 29.6,384.77 -168.67,-3.75 -419.81,-232.99 -419.81,103.21 0,118.65 -14.28,263.36 26.44,373.14 48.51,130.76 184.43,41.23 387.93,41.23l26.07 832.13c25.39,254.14 3.53,631.61 3.53,899.37 -32.87,-22.01 -41.03,-36.34 -71.92,-61.27l-220.77 -223.19c-123.02,-140.25 -119.33,-206.38 -191.38,-385.79 -59.38,-147.83 -119.77,-248.23 -169.03,-408.15 -65.55,-212.82 -90.58,-441.25 -285.29,-573.05 -368.5,-249.44 -607.24,-44.79 -882.2,-568.11 -40.75,-77.56 -130.43,-333.86 -132.89,-444.28 43.63,31.96 105.07,223.98 118.4,281.18 57.07,-39.65 19.43,-81.61 4.35,-137.55 -12.75,-47.35 -13.14,-60.25 -28.11,-105.08 -69.33,-207.66 -105.28,-393.25 -159.66,-609.89 -71.91,-286.38 -103.87,-308.43 -252.63,-517.32 -74.79,-105.03 -7.92,-89 -7.92,-198.86 0,-38.27 -16.17,-68.55 -23.49,-109.71 -13.53,-76 -3.08,-148.09 -69,-197.38 -32,-23.94 -70.55,-39.81 -111.64,-48.09l-140.91 0c-55.82,10.83 -108.23,34.38 -147.68,69.65 -114.78,102.61 -52.89,271.99 -79.07,408.34 -14.25,74.22 11.02,35.87 -34.98,69.58 0,-143.67 -47.11,-136.11 -74,-236.79l-44.4 0c2.85,127.69 58.6,290.2 -98.95,359.81 -60.21,26.6 -160.29,29.84 -211.83,54.57 30.53,41.66 53.01,51.53 128.3,41.2 54.89,-7.53 90.77,-11.6 167.69,-11.6 -7.66,92.04 -59.72,195.29 -80.01,289.97 -55.77,260.17 -79.57,541.09 -107.12,796.71 -8.98,83.24 16.89,56.81 68.73,38.05 -74.56,155.39 -87.66,460.83 -251.58,547.56 -2.67,-2.31 -7.41,-8.74 -8.6,-6.19 -13.72,29.37 -229.22,-389.43 -118.77,-598.52 210.56,-398.57 -279.07,-594.91 -357.79,-201.92 -78.83,393.47 233.57,633.9 233.57,821.43 0,76.21 -201.18,95.14 -255.78,114.19 -430.4,150.14 -484.14,517.1 -631.98,892.33 -36.16,91.79 -77.94,174.94 -118.83,265.96 -43.11,95.97 -71.02,163.78 -108.68,276.09 -89.22,266.13 -258.05,514.64 -379.44,760.1 -98.29,198.76 -287.02,580.42 -505.78,648.54 -109.87,34.21 -200.74,12.19 -270.86,113.91 -61.81,89.66 -47.15,211.24 -106.78,278 -67.26,75.29 -159.13,94.55 -211.71,173.07 411.74,217.87 487.42,-89.47 651.16,-133.19 92.22,395.79 680.76,483.15 680.76,532.77 -307.67,0 -1448.09,-21.77 -1792.44,27.84 -730.32,105.32 -924.66,-1969.52 -924.66,-2568.36 0,-2870.95 2327.37,-5198.32 5198.32,-5198.32zm1040.97 4779.01c109.35,469.4 316.03,684.1 603.17,1009.93 174.42,197.91 411.25,425.23 599.22,614.3 182.77,183.81 173.92,119.91 173.92,388.46 -183.53,0 -375.13,-37.9 -573.12,-10.76 -164.66,22.57 -411.25,4.07 -583.37,23.39 -145.41,16.32 -293.56,25.96 -379.72,-59.94 -32.81,-32.7 -51.27,-44.97 -71.33,-91.45 -134.41,-311.55 -105.1,-649.29 -7.46,-973.09 15.73,-52.17 24.62,-104.56 61.1,-131.28 16.25,69.75 46.64,209.2 68.68,275.14l57.89 164.1c22.95,42.06 31.71,46.76 79.67,59.56 0,-90.58 6.47,-207.84 -0.78,-295.2 -4.48,-54 -16.07,-67.12 -16.3,-135.08 -0.27,-76.41 -7.57,-81.94 61.48,-87.69 62.55,-425.87 -117.82,-688.69 -73.05,-750.39zm-2379.15 985.95c105.74,-28.24 23.57,-101.79 107.07,-162.95 22.48,96.5 15.59,378.25 85.32,429.33 0,-210.01 11.29,-552.95 11.29,-704.76l11.25 18.35c23.76,54.26 71.7,415.52 88.98,488.19 35.3,148.44 121.76,236.93 121.76,485 0,225.47 -77.46,517.97 -295.98,517.97 -166.95,0 -473.2,-68.31 -680.28,-74.48 -246.53,-7.35 -507.09,0.48 -755.24,0.48 14.7,-55.05 343.03,-358.19 448.56,-483.78 20.61,-24.55 27.08,-28.27 48.31,-55.28 236.91,-301.42 397.42,-523.78 586.02,-879.1 46,-86.68 92.32,-177.5 140.5,-273.86 36.39,-72.78 122.21,-222.72 138.13,-291.06l29.59 0c-1.11,49.98 -33.35,51.63 -30.87,94.72 6.39,111.08 -25.45,251.12 -43.66,384.01 -19.18,139.96 -10.75,342.23 -10.75,507.22z"/>
 </g>
</svg>
