<?xml version="1.0" encoding="UTF-8"?>
<!DOCTYPE svg PUBLIC "-//W3C//DTD SVG 1.1//EN" "http://www.w3.org/Graphics/SVG/1.1/DTD/svg11.dtd">
<!-- Creator: CorelDRAW -->
<svg xmlns="http://www.w3.org/2000/svg" xml:space="preserve" width="210mm" height="297mm" version="1.1" style="shape-rendering:geometricPrecision; text-rendering:geometricPrecision; image-rendering:optimizeQuality; fill-rule:evenodd; clip-rule:evenodd"
viewBox="0 0 21000 29700"
 xmlns:xlink="http://www.w3.org/1999/xlink"
 xmlns:xodm="http://www.corel.com/coreldraw/odm/2003">
 <defs>
  <style type="text/css">
   <![CDATA[
    .str0 {stroke:#2B2A29;stroke-width:20;stroke-miterlimit:22.9256}
    .fil0 {fill:none}
   ]]>
  </style>
 </defs>
 <g id="Layer_x0020_1">
  <metadata id="CorelCorpID_0Corel-Layer"/>
  <rect class="fil0 str0" x="226407.69" y="6692.77" width="121920" height="81076.8"/>
  <g id="_2634171985104">
   <rect class="fil0 str0" x="226407.69" y="37172.79" width="30480" height="30480"/>
   <rect class="fil0 str0" x="256887.69" y="37172.79" width="30480" height="30480"/>
   <rect class="fil0 str0" x="287367.69" y="37172.79" width="30480" height="30480"/>
   <rect class="fil0 str0" x="317847.69" y="37172.79" width="30480" height="30480"/>
  </g>
  <g id="_2634171987600">
   <rect class="fil0 str0" x="226407.69" y="6692.79" width="30480" height="30480"/>
   <rect class="fil0 str0" x="256887.69" y="6692.79" width="30480" height="30480"/>
   <rect class="fil0 str0" x="287367.69" y="6692.79" width="30480" height="30480"/>
   <rect class="fil0 str0" x="317847.69" y="6692.79" width="30480" height="30480"/>
  </g>
  <g id="_2634171987216">
   <rect class="fil0 str0" x="226407.69" y="67986.61" width="18288" height="18288"/>
   <rect class="fil0 str0" x="244695.69" y="67986.61" width="18288" height="18288"/>
   <rect class="fil0 str0" x="262983.69" y="67986.61" width="18288" height="18288"/>
   <rect class="fil0 str0" x="281271.69" y="67986.61" width="18288" height="18288"/>
   <rect class="fil0 str0" x="299559.69" y="67986.61" width="18288" height="18288"/>
   <rect class="fil0 str0" x="317847.69" y="67986.61" width="18288" height="18288"/>
  </g>
 </g>
</svg>
