<?xml version="1.0" encoding="UTF-8"?>
<!DOCTYPE svg PUBLIC "-//W3C//DTD SVG 1.1//EN" "http://www.w3.org/Graphics/SVG/1.1/DTD/svg11.dtd">
<!-- Creator: CorelDRAW -->
<svg xmlns="http://www.w3.org/2000/svg" xml:space="preserve" width="210mm" height="297mm" version="1.1" style="shape-rendering:geometricPrecision; text-rendering:geometricPrecision; image-rendering:optimizeQuality; fill-rule:evenodd; clip-rule:evenodd"
viewBox="0 0 21000 29700"
 xmlns:xlink="http://www.w3.org/1999/xlink"
 xmlns:xodm="http://www.corel.com/coreldraw/odm/2003">
 <defs>
  <style type="text/css">
   <![CDATA[
    .str0 {stroke:#2B2A29;stroke-width:20;stroke-miterlimit:22.9256}
    .str1 {stroke:#E31E24;stroke-width:20;stroke-miterlimit:22.9256}
    .fil0 {fill:none}
   ]]>
  </style>
 </defs>
 <g id="Layer_x0020_1">
  <metadata id="CorelCorpID_0Corel-Layer"/>
  <rect class="fil0 str0" x="-22929.49" y="-14899.54" width="59690" height="59690"/>
  <g id="_2837324994112">
   <g>
    <circle class="fil0 str1" cx="-20804.45" cy="42665.46" r="1270"/>
    <circle class="fil0 str1" cx="-18164.45" cy="42665.46" r="1270"/>
    <circle class="fil0 str1" cx="-15524.45" cy="42665.46" r="1270"/>
    <circle class="fil0 str1" cx="-12884.45" cy="42665.46" r="1270"/>
    <circle class="fil0 str1" cx="-10244.45" cy="42665.46" r="1270"/>
    <circle class="fil0 str1" cx="-7604.45" cy="42665.46" r="1270"/>
    <circle class="fil0 str1" cx="-4964.45" cy="42665.46" r="1270"/>
    <circle class="fil0 str1" cx="-2324.45" cy="42665.46" r="1270"/>
    <circle class="fil0 str1" cx="315.55" cy="42665.46" r="1270"/>
    <circle class="fil0 str1" cx="2955.55" cy="42665.46" r="1270"/>
    <circle class="fil0 str1" cx="5595.55" cy="42665.46" r="1270"/>
    <circle class="fil0 str1" cx="8235.55" cy="42665.46" r="1270"/>
    <circle class="fil0 str1" cx="10875.55" cy="42665.46" r="1270"/>
    <circle class="fil0 str1" cx="13515.55" cy="42665.46" r="1270"/>
    <circle class="fil0 str1" cx="16155.55" cy="42665.46" r="1270"/>
    <circle class="fil0 str1" cx="18795.55" cy="42665.46" r="1270"/>
    <circle class="fil0 str1" cx="21435.55" cy="42665.46" r="1270"/>
    <circle class="fil0 str1" cx="24075.55" cy="42665.46" r="1270"/>
    <circle class="fil0 str1" cx="26715.55" cy="42665.46" r="1270"/>
    <circle class="fil0 str1" cx="29355.55" cy="42665.46" r="1270"/>
    <circle class="fil0 str1" cx="31995.55" cy="42665.46" r="1270"/>
    <circle class="fil0 str1" cx="34635.55" cy="42665.46" r="1270"/>
   </g>
   <g>
    <circle class="fil0 str1" cx="-20804.45" cy="40025.46" r="1270"/>
    <circle class="fil0 str1" cx="-18164.45" cy="40025.46" r="1270"/>
    <circle class="fil0 str1" cx="-15524.45" cy="40025.46" r="1270"/>
    <circle class="fil0 str1" cx="-12884.45" cy="40025.46" r="1270"/>
    <circle class="fil0 str1" cx="-10244.45" cy="40025.46" r="1270"/>
    <circle class="fil0 str1" cx="-7604.45" cy="40025.46" r="1270"/>
    <circle class="fil0 str1" cx="-4964.45" cy="40025.46" r="1270"/>
    <circle class="fil0 str1" cx="-2324.45" cy="40025.46" r="1270"/>
    <circle class="fil0 str1" cx="315.55" cy="40025.46" r="1270"/>
    <circle class="fil0 str1" cx="2955.55" cy="40025.46" r="1270"/>
    <circle class="fil0 str1" cx="5595.55" cy="40025.46" r="1270"/>
    <circle class="fil0 str1" cx="8235.55" cy="40025.46" r="1270"/>
    <circle class="fil0 str1" cx="10875.55" cy="40025.46" r="1270"/>
    <circle class="fil0 str1" cx="13515.55" cy="40025.46" r="1270"/>
    <circle class="fil0 str1" cx="16155.55" cy="40025.46" r="1270"/>
    <circle class="fil0 str1" cx="18795.55" cy="40025.46" r="1270"/>
    <circle class="fil0 str1" cx="21435.55" cy="40025.46" r="1270"/>
    <circle class="fil0 str1" cx="24075.55" cy="40025.46" r="1270"/>
    <circle class="fil0 str1" cx="26715.55" cy="40025.46" r="1270"/>
    <circle class="fil0 str1" cx="29355.55" cy="40025.46" r="1270"/>
    <circle class="fil0 str1" cx="31995.55" cy="40025.46" r="1270"/>
    <circle class="fil0 str1" cx="34635.55" cy="40025.46" r="1270"/>
   </g>
   <g>
    <circle class="fil0 str1" cx="-20804.45" cy="37385.46" r="1270"/>
    <circle class="fil0 str1" cx="-18164.45" cy="37385.46" r="1270"/>
    <circle class="fil0 str1" cx="-15524.45" cy="37385.46" r="1270"/>
    <circle class="fil0 str1" cx="-12884.45" cy="37385.46" r="1270"/>
    <circle class="fil0 str1" cx="-10244.45" cy="37385.46" r="1270"/>
    <circle class="fil0 str1" cx="-7604.45" cy="37385.46" r="1270"/>
    <circle class="fil0 str1" cx="-4964.45" cy="37385.46" r="1270"/>
    <circle class="fil0 str1" cx="-2324.45" cy="37385.46" r="1270"/>
    <circle class="fil0 str1" cx="315.55" cy="37385.46" r="1270"/>
    <circle class="fil0 str1" cx="2955.55" cy="37385.46" r="1270"/>
    <circle class="fil0 str1" cx="5595.55" cy="37385.46" r="1270"/>
    <circle class="fil0 str1" cx="8235.55" cy="37385.46" r="1270"/>
    <circle class="fil0 str1" cx="10875.55" cy="37385.46" r="1270"/>
    <circle class="fil0 str1" cx="13515.55" cy="37385.46" r="1270"/>
    <circle class="fil0 str1" cx="16155.55" cy="37385.46" r="1270"/>
    <circle class="fil0 str1" cx="18795.55" cy="37385.46" r="1270"/>
    <circle class="fil0 str1" cx="21435.55" cy="37385.46" r="1270"/>
    <circle class="fil0 str1" cx="24075.55" cy="37385.46" r="1270"/>
    <circle class="fil0 str1" cx="26715.55" cy="37385.46" r="1270"/>
    <circle class="fil0 str1" cx="29355.55" cy="37385.46" r="1270"/>
    <circle class="fil0 str1" cx="31995.55" cy="37385.46" r="1270"/>
    <circle class="fil0 str1" cx="34635.55" cy="37385.46" r="1270"/>
   </g>
   <g>
    <circle class="fil0 str1" cx="-20804.45" cy="34745.46" r="1270"/>
    <circle class="fil0 str1" cx="-18164.45" cy="34745.46" r="1270"/>
    <circle class="fil0 str1" cx="-15524.45" cy="34745.46" r="1270"/>
    <circle class="fil0 str1" cx="-12884.45" cy="34745.46" r="1270"/>
    <circle class="fil0 str1" cx="-10244.45" cy="34745.46" r="1270"/>
    <circle class="fil0 str1" cx="-7604.45" cy="34745.46" r="1270"/>
    <circle class="fil0 str1" cx="-4964.45" cy="34745.46" r="1270"/>
    <circle class="fil0 str1" cx="-2324.45" cy="34745.46" r="1270"/>
    <circle class="fil0 str1" cx="315.55" cy="34745.46" r="1270"/>
    <circle class="fil0 str1" cx="2955.55" cy="34745.46" r="1270"/>
    <circle class="fil0 str1" cx="5595.55" cy="34745.46" r="1270"/>
    <circle class="fil0 str1" cx="8235.55" cy="34745.46" r="1270"/>
    <circle class="fil0 str1" cx="10875.55" cy="34745.46" r="1270"/>
    <circle class="fil0 str1" cx="13515.55" cy="34745.46" r="1270"/>
    <circle class="fil0 str1" cx="16155.55" cy="34745.46" r="1270"/>
    <circle class="fil0 str1" cx="18795.55" cy="34745.46" r="1270"/>
    <circle class="fil0 str1" cx="21435.55" cy="34745.46" r="1270"/>
    <circle class="fil0 str1" cx="24075.55" cy="34745.46" r="1270"/>
    <circle class="fil0 str1" cx="26715.55" cy="34745.46" r="1270"/>
    <circle class="fil0 str1" cx="29355.55" cy="34745.46" r="1270"/>
    <circle class="fil0 str1" cx="31995.55" cy="34745.46" r="1270"/>
    <circle class="fil0 str1" cx="34635.55" cy="34745.46" r="1270"/>
   </g>
   <g>
    <circle class="fil0 str1" cx="-20804.45" cy="32105.46" r="1270"/>
    <circle class="fil0 str1" cx="-18164.45" cy="32105.46" r="1270"/>
    <circle class="fil0 str1" cx="-15524.45" cy="32105.46" r="1270"/>
    <circle class="fil0 str1" cx="-12884.45" cy="32105.46" r="1270"/>
    <circle class="fil0 str1" cx="-10244.45" cy="32105.46" r="1270"/>
    <circle class="fil0 str1" cx="-7604.45" cy="32105.46" r="1270"/>
    <circle class="fil0 str1" cx="-4964.45" cy="32105.46" r="1270"/>
    <circle class="fil0 str1" cx="-2324.45" cy="32105.46" r="1270"/>
    <circle class="fil0 str1" cx="315.55" cy="32105.46" r="1270"/>
    <circle class="fil0 str1" cx="2955.55" cy="32105.46" r="1270"/>
    <circle class="fil0 str1" cx="5595.55" cy="32105.46" r="1270"/>
    <circle class="fil0 str1" cx="8235.55" cy="32105.46" r="1270"/>
    <circle class="fil0 str1" cx="10875.55" cy="32105.46" r="1270"/>
    <circle class="fil0 str1" cx="13515.55" cy="32105.46" r="1270"/>
    <circle class="fil0 str1" cx="16155.55" cy="32105.46" r="1270"/>
    <circle class="fil0 str1" cx="18795.55" cy="32105.46" r="1270"/>
    <circle class="fil0 str1" cx="21435.55" cy="32105.46" r="1270"/>
    <circle class="fil0 str1" cx="24075.55" cy="32105.46" r="1270"/>
    <circle class="fil0 str1" cx="26715.55" cy="32105.46" r="1270"/>
    <circle class="fil0 str1" cx="29355.55" cy="32105.46" r="1270"/>
    <circle class="fil0 str1" cx="31995.55" cy="32105.46" r="1270"/>
    <circle class="fil0 str1" cx="34635.55" cy="32105.46" r="1270"/>
   </g>
   <g>
    <circle class="fil0 str1" cx="-20804.45" cy="29465.46" r="1270"/>
    <circle class="fil0 str1" cx="-18164.45" cy="29465.46" r="1270"/>
    <circle class="fil0 str1" cx="-15524.45" cy="29465.46" r="1270"/>
    <circle class="fil0 str1" cx="-12884.45" cy="29465.46" r="1270"/>
    <circle class="fil0 str1" cx="-10244.45" cy="29465.46" r="1270"/>
    <circle class="fil0 str1" cx="-7604.45" cy="29465.46" r="1270"/>
    <circle class="fil0 str1" cx="-4964.45" cy="29465.46" r="1270"/>
    <circle class="fil0 str1" cx="-2324.45" cy="29465.46" r="1270"/>
    <circle class="fil0 str1" cx="315.55" cy="29465.46" r="1270"/>
    <circle class="fil0 str1" cx="2955.55" cy="29465.46" r="1270"/>
    <circle class="fil0 str1" cx="5595.55" cy="29465.46" r="1270"/>
    <circle class="fil0 str1" cx="8235.55" cy="29465.46" r="1270"/>
    <circle class="fil0 str1" cx="10875.55" cy="29465.46" r="1270"/>
    <circle class="fil0 str1" cx="13515.55" cy="29465.46" r="1270"/>
    <circle class="fil0 str1" cx="16155.55" cy="29465.46" r="1270"/>
    <circle class="fil0 str1" cx="18795.55" cy="29465.46" r="1270"/>
    <circle class="fil0 str1" cx="21435.55" cy="29465.46" r="1270"/>
    <circle class="fil0 str1" cx="24075.55" cy="29465.46" r="1270"/>
    <circle class="fil0 str1" cx="26715.55" cy="29465.46" r="1270"/>
    <circle class="fil0 str1" cx="29355.55" cy="29465.46" r="1270"/>
    <circle class="fil0 str1" cx="31995.55" cy="29465.46" r="1270"/>
    <circle class="fil0 str1" cx="34635.55" cy="29465.46" r="1270"/>
   </g>
   <g>
    <circle class="fil0 str1" cx="-20804.45" cy="26825.46" r="1270"/>
    <circle class="fil0 str1" cx="-18164.45" cy="26825.46" r="1270"/>
    <circle class="fil0 str1" cx="-15524.45" cy="26825.46" r="1270"/>
    <circle class="fil0 str1" cx="-12884.45" cy="26825.46" r="1270"/>
    <circle class="fil0 str1" cx="-10244.45" cy="26825.46" r="1270"/>
    <circle class="fil0 str1" cx="-7604.45" cy="26825.46" r="1270"/>
    <circle class="fil0 str1" cx="-4964.45" cy="26825.46" r="1270"/>
    <circle class="fil0 str1" cx="-2324.45" cy="26825.46" r="1270"/>
    <circle class="fil0 str1" cx="315.55" cy="26825.46" r="1270"/>
    <circle class="fil0 str1" cx="2955.55" cy="26825.46" r="1270"/>
    <circle class="fil0 str1" cx="5595.55" cy="26825.46" r="1270"/>
    <circle class="fil0 str1" cx="8235.55" cy="26825.46" r="1270"/>
    <circle class="fil0 str1" cx="10875.55" cy="26825.46" r="1270"/>
    <circle class="fil0 str1" cx="13515.55" cy="26825.46" r="1270"/>
    <circle class="fil0 str1" cx="16155.55" cy="26825.46" r="1270"/>
    <circle class="fil0 str1" cx="18795.55" cy="26825.46" r="1270"/>
    <circle class="fil0 str1" cx="21435.55" cy="26825.46" r="1270"/>
    <circle class="fil0 str1" cx="24075.55" cy="26825.46" r="1270"/>
    <circle class="fil0 str1" cx="26715.55" cy="26825.46" r="1270"/>
    <circle class="fil0 str1" cx="29355.55" cy="26825.46" r="1270"/>
    <circle class="fil0 str1" cx="31995.55" cy="26825.46" r="1270"/>
    <circle class="fil0 str1" cx="34635.55" cy="26825.46" r="1270"/>
   </g>
   <g>
    <circle class="fil0 str1" cx="-20804.45" cy="24185.46" r="1270"/>
    <circle class="fil0 str1" cx="-18164.45" cy="24185.46" r="1270"/>
    <circle class="fil0 str1" cx="-15524.45" cy="24185.46" r="1270"/>
    <circle class="fil0 str1" cx="-12884.45" cy="24185.46" r="1270"/>
    <circle class="fil0 str1" cx="-10244.45" cy="24185.46" r="1270"/>
    <circle class="fil0 str1" cx="-7604.45" cy="24185.46" r="1270"/>
    <circle class="fil0 str1" cx="-4964.45" cy="24185.46" r="1270"/>
    <circle class="fil0 str1" cx="-2324.45" cy="24185.46" r="1270"/>
    <circle class="fil0 str1" cx="315.55" cy="24185.46" r="1270"/>
    <circle class="fil0 str1" cx="2955.55" cy="24185.46" r="1270"/>
    <circle class="fil0 str1" cx="5595.55" cy="24185.46" r="1270"/>
    <circle class="fil0 str1" cx="8235.55" cy="24185.46" r="1270"/>
    <circle class="fil0 str1" cx="10875.55" cy="24185.46" r="1270"/>
    <circle class="fil0 str1" cx="13515.55" cy="24185.46" r="1270"/>
    <circle class="fil0 str1" cx="16155.55" cy="24185.46" r="1270"/>
    <circle class="fil0 str1" cx="18795.55" cy="24185.46" r="1270"/>
    <circle class="fil0 str1" cx="21435.55" cy="24185.46" r="1270"/>
    <circle class="fil0 str1" cx="24075.55" cy="24185.46" r="1270"/>
    <circle class="fil0 str1" cx="26715.55" cy="24185.46" r="1270"/>
    <circle class="fil0 str1" cx="29355.55" cy="24185.46" r="1270"/>
    <circle class="fil0 str1" cx="31995.55" cy="24185.46" r="1270"/>
    <circle class="fil0 str1" cx="34635.55" cy="24185.46" r="1270"/>
   </g>
   <g>
    <circle class="fil0 str1" cx="-20804.45" cy="21545.46" r="1270"/>
    <circle class="fil0 str1" cx="-18164.45" cy="21545.46" r="1270"/>
    <circle class="fil0 str1" cx="-15524.45" cy="21545.46" r="1270"/>
    <circle class="fil0 str1" cx="-12884.45" cy="21545.46" r="1270"/>
    <circle class="fil0 str1" cx="-10244.45" cy="21545.46" r="1270"/>
    <circle class="fil0 str1" cx="-7604.45" cy="21545.46" r="1270"/>
    <circle class="fil0 str1" cx="-4964.45" cy="21545.46" r="1270"/>
    <circle class="fil0 str1" cx="-2324.45" cy="21545.46" r="1270"/>
    <circle class="fil0 str1" cx="315.55" cy="21545.46" r="1270"/>
    <circle class="fil0 str1" cx="2955.55" cy="21545.46" r="1270"/>
    <circle class="fil0 str1" cx="5595.55" cy="21545.46" r="1270"/>
    <circle class="fil0 str1" cx="8235.55" cy="21545.46" r="1270"/>
    <circle class="fil0 str1" cx="10875.55" cy="21545.46" r="1270"/>
    <circle class="fil0 str1" cx="13515.55" cy="21545.46" r="1270"/>
    <circle class="fil0 str1" cx="16155.55" cy="21545.46" r="1270"/>
    <circle class="fil0 str1" cx="18795.55" cy="21545.46" r="1270"/>
    <circle class="fil0 str1" cx="21435.55" cy="21545.46" r="1270"/>
    <circle class="fil0 str1" cx="24075.55" cy="21545.46" r="1270"/>
    <circle class="fil0 str1" cx="26715.55" cy="21545.46" r="1270"/>
    <circle class="fil0 str1" cx="29355.55" cy="21545.46" r="1270"/>
    <circle class="fil0 str1" cx="31995.55" cy="21545.46" r="1270"/>
    <circle class="fil0 str1" cx="34635.55" cy="21545.46" r="1270"/>
   </g>
   <g>
    <circle class="fil0 str1" cx="-20804.45" cy="18905.46" r="1270"/>
    <circle class="fil0 str1" cx="-18164.45" cy="18905.46" r="1270"/>
    <circle class="fil0 str1" cx="-15524.45" cy="18905.46" r="1270"/>
    <circle class="fil0 str1" cx="-12884.45" cy="18905.46" r="1270"/>
    <circle class="fil0 str1" cx="-10244.45" cy="18905.46" r="1270"/>
    <circle class="fil0 str1" cx="-7604.45" cy="18905.46" r="1270"/>
    <circle class="fil0 str1" cx="-4964.45" cy="18905.46" r="1270"/>
    <circle class="fil0 str1" cx="-2324.45" cy="18905.46" r="1270"/>
    <circle class="fil0 str1" cx="315.55" cy="18905.46" r="1270"/>
    <circle class="fil0 str1" cx="2955.55" cy="18905.46" r="1270"/>
    <circle class="fil0 str1" cx="5595.55" cy="18905.46" r="1270"/>
    <circle class="fil0 str1" cx="8235.55" cy="18905.46" r="1270"/>
    <circle class="fil0 str1" cx="10875.55" cy="18905.46" r="1270"/>
    <circle class="fil0 str1" cx="13515.55" cy="18905.46" r="1270"/>
    <circle class="fil0 str1" cx="16155.55" cy="18905.46" r="1270"/>
    <circle class="fil0 str1" cx="18795.55" cy="18905.46" r="1270"/>
    <circle class="fil0 str1" cx="21435.55" cy="18905.46" r="1270"/>
    <circle class="fil0 str1" cx="24075.55" cy="18905.46" r="1270"/>
    <circle class="fil0 str1" cx="26715.55" cy="18905.46" r="1270"/>
    <circle class="fil0 str1" cx="29355.55" cy="18905.46" r="1270"/>
    <circle class="fil0 str1" cx="31995.55" cy="18905.46" r="1270"/>
    <circle class="fil0 str1" cx="34635.55" cy="18905.46" r="1270"/>
   </g>
   <g>
    <circle class="fil0 str1" cx="-20804.45" cy="16265.46" r="1270"/>
    <circle class="fil0 str1" cx="-18164.45" cy="16265.46" r="1270"/>
    <circle class="fil0 str1" cx="-15524.45" cy="16265.46" r="1270"/>
    <circle class="fil0 str1" cx="-12884.45" cy="16265.46" r="1270"/>
    <circle class="fil0 str1" cx="-10244.45" cy="16265.46" r="1270"/>
    <circle class="fil0 str1" cx="-7604.45" cy="16265.46" r="1270"/>
    <circle class="fil0 str1" cx="-4964.45" cy="16265.46" r="1270"/>
    <circle class="fil0 str1" cx="-2324.45" cy="16265.46" r="1270"/>
    <circle class="fil0 str1" cx="315.55" cy="16265.46" r="1270"/>
    <circle class="fil0 str1" cx="2955.55" cy="16265.46" r="1270"/>
    <circle class="fil0 str1" cx="5595.55" cy="16265.46" r="1270"/>
    <circle class="fil0 str1" cx="8235.55" cy="16265.46" r="1270"/>
    <circle class="fil0 str1" cx="10875.55" cy="16265.46" r="1270"/>
    <circle class="fil0 str1" cx="13515.55" cy="16265.46" r="1270"/>
    <circle class="fil0 str1" cx="16155.55" cy="16265.46" r="1270"/>
    <circle class="fil0 str1" cx="18795.55" cy="16265.46" r="1270"/>
    <circle class="fil0 str1" cx="21435.55" cy="16265.46" r="1270"/>
    <circle class="fil0 str1" cx="24075.55" cy="16265.46" r="1270"/>
    <circle class="fil0 str1" cx="26715.55" cy="16265.46" r="1270"/>
    <circle class="fil0 str1" cx="29355.55" cy="16265.46" r="1270"/>
    <circle class="fil0 str1" cx="31995.55" cy="16265.46" r="1270"/>
    <circle class="fil0 str1" cx="34635.55" cy="16265.46" r="1270"/>
   </g>
   <g>
    <circle class="fil0 str1" cx="-20804.45" cy="13625.46" r="1270"/>
    <circle class="fil0 str1" cx="-18164.45" cy="13625.46" r="1270"/>
    <circle class="fil0 str1" cx="-15524.45" cy="13625.46" r="1270"/>
    <circle class="fil0 str1" cx="-12884.45" cy="13625.46" r="1270"/>
    <circle class="fil0 str1" cx="-10244.45" cy="13625.46" r="1270"/>
    <circle class="fil0 str1" cx="-7604.45" cy="13625.46" r="1270"/>
    <circle class="fil0 str1" cx="-4964.45" cy="13625.46" r="1270"/>
    <circle class="fil0 str1" cx="-2324.45" cy="13625.46" r="1270"/>
    <circle class="fil0 str1" cx="315.55" cy="13625.46" r="1270"/>
    <circle class="fil0 str1" cx="2955.55" cy="13625.46" r="1270"/>
    <circle class="fil0 str1" cx="5595.55" cy="13625.46" r="1270"/>
    <circle class="fil0 str1" cx="8235.55" cy="13625.46" r="1270"/>
    <circle class="fil0 str1" cx="10875.55" cy="13625.46" r="1270"/>
    <circle class="fil0 str1" cx="13515.55" cy="13625.46" r="1270"/>
    <circle class="fil0 str1" cx="16155.55" cy="13625.46" r="1270"/>
    <circle class="fil0 str1" cx="18795.55" cy="13625.46" r="1270"/>
    <circle class="fil0 str1" cx="21435.55" cy="13625.46" r="1270"/>
    <circle class="fil0 str1" cx="24075.55" cy="13625.46" r="1270"/>
    <circle class="fil0 str1" cx="26715.55" cy="13625.46" r="1270"/>
    <circle class="fil0 str1" cx="29355.55" cy="13625.46" r="1270"/>
    <circle class="fil0 str1" cx="31995.55" cy="13625.46" r="1270"/>
    <circle class="fil0 str1" cx="34635.55" cy="13625.46" r="1270"/>
   </g>
   <g>
    <circle class="fil0 str1" cx="-20804.45" cy="10985.46" r="1270"/>
    <circle class="fil0 str1" cx="-18164.45" cy="10985.46" r="1270"/>
    <circle class="fil0 str1" cx="-15524.45" cy="10985.46" r="1270"/>
    <circle class="fil0 str1" cx="-12884.45" cy="10985.46" r="1270"/>
    <circle class="fil0 str1" cx="-10244.45" cy="10985.46" r="1270"/>
    <circle class="fil0 str1" cx="-7604.45" cy="10985.46" r="1270"/>
    <circle class="fil0 str1" cx="-4964.45" cy="10985.46" r="1270"/>
    <circle class="fil0 str1" cx="-2324.45" cy="10985.46" r="1270"/>
    <circle class="fil0 str1" cx="315.55" cy="10985.46" r="1270"/>
    <circle class="fil0 str1" cx="2955.55" cy="10985.46" r="1270"/>
    <circle class="fil0 str1" cx="5595.55" cy="10985.46" r="1270"/>
    <circle class="fil0 str1" cx="8235.55" cy="10985.46" r="1270"/>
    <circle class="fil0 str1" cx="10875.55" cy="10985.46" r="1270"/>
    <circle class="fil0 str1" cx="13515.55" cy="10985.46" r="1270"/>
    <circle class="fil0 str1" cx="16155.55" cy="10985.46" r="1270"/>
    <circle class="fil0 str1" cx="18795.55" cy="10985.46" r="1270"/>
    <circle class="fil0 str1" cx="21435.55" cy="10985.46" r="1270"/>
    <circle class="fil0 str1" cx="24075.55" cy="10985.46" r="1270"/>
    <circle class="fil0 str1" cx="26715.55" cy="10985.46" r="1270"/>
    <circle class="fil0 str1" cx="29355.55" cy="10985.46" r="1270"/>
    <circle class="fil0 str1" cx="31995.55" cy="10985.46" r="1270"/>
    <circle class="fil0 str1" cx="34635.55" cy="10985.46" r="1270"/>
   </g>
   <g>
    <circle class="fil0 str1" cx="-20804.45" cy="8345.46" r="1270"/>
    <circle class="fil0 str1" cx="-18164.45" cy="8345.46" r="1270"/>
    <circle class="fil0 str1" cx="-15524.45" cy="8345.46" r="1270"/>
    <circle class="fil0 str1" cx="-12884.45" cy="8345.46" r="1270"/>
    <circle class="fil0 str1" cx="-10244.45" cy="8345.46" r="1270"/>
    <circle class="fil0 str1" cx="-7604.45" cy="8345.46" r="1270"/>
    <circle class="fil0 str1" cx="-4964.45" cy="8345.46" r="1270"/>
    <circle class="fil0 str1" cx="-2324.45" cy="8345.46" r="1270"/>
    <circle class="fil0 str1" cx="315.55" cy="8345.46" r="1270"/>
    <circle class="fil0 str1" cx="2955.55" cy="8345.46" r="1270"/>
    <circle class="fil0 str1" cx="5595.55" cy="8345.46" r="1270"/>
    <circle class="fil0 str1" cx="8235.55" cy="8345.46" r="1270"/>
    <circle class="fil0 str1" cx="10875.55" cy="8345.46" r="1270"/>
    <circle class="fil0 str1" cx="13515.55" cy="8345.46" r="1270"/>
    <circle class="fil0 str1" cx="16155.55" cy="8345.46" r="1270"/>
    <circle class="fil0 str1" cx="18795.55" cy="8345.46" r="1270"/>
    <circle class="fil0 str1" cx="21435.55" cy="8345.46" r="1270"/>
    <circle class="fil0 str1" cx="24075.55" cy="8345.46" r="1270"/>
    <circle class="fil0 str1" cx="26715.55" cy="8345.46" r="1270"/>
    <circle class="fil0 str1" cx="29355.55" cy="8345.46" r="1270"/>
    <circle class="fil0 str1" cx="31995.55" cy="8345.46" r="1270"/>
    <circle class="fil0 str1" cx="34635.55" cy="8345.46" r="1270"/>
   </g>
   <g>
    <circle class="fil0 str1" cx="-20804.45" cy="5705.46" r="1270"/>
    <circle class="fil0 str1" cx="-18164.45" cy="5705.46" r="1270"/>
    <circle class="fil0 str1" cx="-15524.45" cy="5705.46" r="1270"/>
    <circle class="fil0 str1" cx="-12884.45" cy="5705.46" r="1270"/>
    <circle class="fil0 str1" cx="-10244.45" cy="5705.46" r="1270"/>
    <circle class="fil0 str1" cx="-7604.45" cy="5705.46" r="1270"/>
    <circle class="fil0 str1" cx="-4964.45" cy="5705.46" r="1270"/>
    <circle class="fil0 str1" cx="-2324.45" cy="5705.46" r="1270"/>
    <circle class="fil0 str1" cx="315.55" cy="5705.46" r="1270"/>
    <circle class="fil0 str1" cx="2955.55" cy="5705.46" r="1270"/>
    <circle class="fil0 str1" cx="5595.55" cy="5705.46" r="1270"/>
    <circle class="fil0 str1" cx="8235.55" cy="5705.46" r="1270"/>
    <circle class="fil0 str1" cx="10875.55" cy="5705.46" r="1270"/>
    <circle class="fil0 str1" cx="13515.55" cy="5705.46" r="1270"/>
    <circle class="fil0 str1" cx="16155.55" cy="5705.46" r="1270"/>
    <circle class="fil0 str1" cx="18795.55" cy="5705.46" r="1270"/>
    <circle class="fil0 str1" cx="21435.55" cy="5705.46" r="1270"/>
    <circle class="fil0 str1" cx="24075.55" cy="5705.46" r="1270"/>
    <circle class="fil0 str1" cx="26715.55" cy="5705.46" r="1270"/>
    <circle class="fil0 str1" cx="29355.55" cy="5705.46" r="1270"/>
    <circle class="fil0 str1" cx="31995.55" cy="5705.46" r="1270"/>
    <circle class="fil0 str1" cx="34635.55" cy="5705.46" r="1270"/>
   </g>
   <g>
    <circle class="fil0 str1" cx="-20804.45" cy="3065.46" r="1270"/>
    <circle class="fil0 str1" cx="-18164.45" cy="3065.46" r="1270"/>
    <circle class="fil0 str1" cx="-15524.45" cy="3065.46" r="1270"/>
    <circle class="fil0 str1" cx="-12884.45" cy="3065.46" r="1270"/>
    <circle class="fil0 str1" cx="-10244.45" cy="3065.46" r="1270"/>
    <circle class="fil0 str1" cx="-7604.45" cy="3065.46" r="1270"/>
    <circle class="fil0 str1" cx="-4964.45" cy="3065.46" r="1270"/>
    <circle class="fil0 str1" cx="-2324.45" cy="3065.46" r="1270"/>
    <circle class="fil0 str1" cx="315.55" cy="3065.46" r="1270"/>
    <circle class="fil0 str1" cx="2955.55" cy="3065.46" r="1270"/>
    <circle class="fil0 str1" cx="5595.55" cy="3065.46" r="1270"/>
    <circle class="fil0 str1" cx="8235.55" cy="3065.46" r="1270"/>
    <circle class="fil0 str1" cx="10875.55" cy="3065.46" r="1270"/>
    <circle class="fil0 str1" cx="13515.55" cy="3065.46" r="1270"/>
    <circle class="fil0 str1" cx="16155.55" cy="3065.46" r="1270"/>
    <circle class="fil0 str1" cx="18795.55" cy="3065.46" r="1270"/>
    <circle class="fil0 str1" cx="21435.55" cy="3065.46" r="1270"/>
    <circle class="fil0 str1" cx="24075.55" cy="3065.46" r="1270"/>
    <circle class="fil0 str1" cx="26715.55" cy="3065.46" r="1270"/>
    <circle class="fil0 str1" cx="29355.55" cy="3065.46" r="1270"/>
    <circle class="fil0 str1" cx="31995.55" cy="3065.46" r="1270"/>
    <circle class="fil0 str1" cx="34635.55" cy="3065.46" r="1270"/>
   </g>
   <g>
    <circle class="fil0 str1" cx="-20804.45" cy="425.46" r="1270"/>
    <circle class="fil0 str1" cx="-18164.45" cy="425.46" r="1270"/>
    <circle class="fil0 str1" cx="-15524.45" cy="425.46" r="1270"/>
    <circle class="fil0 str1" cx="-12884.45" cy="425.46" r="1270"/>
    <circle class="fil0 str1" cx="-10244.45" cy="425.46" r="1270"/>
    <circle class="fil0 str1" cx="-7604.45" cy="425.46" r="1270"/>
    <circle class="fil0 str1" cx="-4964.45" cy="425.46" r="1270"/>
    <circle class="fil0 str1" cx="-2324.45" cy="425.46" r="1270"/>
    <circle class="fil0 str1" cx="315.55" cy="425.46" r="1270"/>
    <circle class="fil0 str1" cx="2955.55" cy="425.46" r="1270"/>
    <circle class="fil0 str1" cx="5595.55" cy="425.46" r="1270"/>
    <circle class="fil0 str1" cx="8235.55" cy="425.46" r="1270"/>
    <circle class="fil0 str1" cx="10875.55" cy="425.46" r="1270"/>
    <circle class="fil0 str1" cx="13515.55" cy="425.46" r="1270"/>
    <circle class="fil0 str1" cx="16155.55" cy="425.46" r="1270"/>
    <circle class="fil0 str1" cx="18795.55" cy="425.46" r="1270"/>
    <circle class="fil0 str1" cx="21435.55" cy="425.46" r="1270"/>
    <circle class="fil0 str1" cx="24075.55" cy="425.46" r="1270"/>
    <circle class="fil0 str1" cx="26715.55" cy="425.46" r="1270"/>
    <circle class="fil0 str1" cx="29355.55" cy="425.46" r="1270"/>
    <circle class="fil0 str1" cx="31995.55" cy="425.46" r="1270"/>
    <circle class="fil0 str1" cx="34635.55" cy="425.46" r="1270"/>
   </g>
   <g>
    <circle class="fil0 str1" cx="-20804.45" cy="-2214.54" r="1270"/>
    <circle class="fil0 str1" cx="-18164.45" cy="-2214.54" r="1270"/>
    <circle class="fil0 str1" cx="-15524.45" cy="-2214.54" r="1270"/>
    <circle class="fil0 str1" cx="-12884.45" cy="-2214.54" r="1270"/>
    <circle class="fil0 str1" cx="-10244.45" cy="-2214.54" r="1270"/>
    <circle class="fil0 str1" cx="-7604.45" cy="-2214.54" r="1270"/>
    <circle class="fil0 str1" cx="-4964.45" cy="-2214.54" r="1270"/>
    <circle class="fil0 str1" cx="-2324.45" cy="-2214.54" r="1270"/>
    <circle class="fil0 str1" cx="315.55" cy="-2214.54" r="1270"/>
    <circle class="fil0 str1" cx="2955.55" cy="-2214.54" r="1270"/>
    <circle class="fil0 str1" cx="5595.55" cy="-2214.54" r="1270"/>
    <circle class="fil0 str1" cx="8235.55" cy="-2214.54" r="1270"/>
    <circle class="fil0 str1" cx="10875.55" cy="-2214.54" r="1270"/>
    <circle class="fil0 str1" cx="13515.55" cy="-2214.54" r="1270"/>
    <circle class="fil0 str1" cx="16155.55" cy="-2214.54" r="1270"/>
    <circle class="fil0 str1" cx="18795.55" cy="-2214.54" r="1270"/>
    <circle class="fil0 str1" cx="21435.55" cy="-2214.54" r="1270"/>
    <circle class="fil0 str1" cx="24075.55" cy="-2214.54" r="1270"/>
    <circle class="fil0 str1" cx="26715.55" cy="-2214.54" r="1270"/>
    <circle class="fil0 str1" cx="29355.55" cy="-2214.54" r="1270"/>
    <circle class="fil0 str1" cx="31995.55" cy="-2214.54" r="1270"/>
    <circle class="fil0 str1" cx="34635.55" cy="-2214.54" r="1270"/>
   </g>
   <g>
    <circle class="fil0 str1" cx="-20804.45" cy="-4854.54" r="1270"/>
    <circle class="fil0 str1" cx="-18164.45" cy="-4854.54" r="1270"/>
    <circle class="fil0 str1" cx="-15524.45" cy="-4854.54" r="1270"/>
    <circle class="fil0 str1" cx="-12884.45" cy="-4854.54" r="1270"/>
    <circle class="fil0 str1" cx="-10244.45" cy="-4854.54" r="1270"/>
    <circle class="fil0 str1" cx="-7604.45" cy="-4854.54" r="1270"/>
    <circle class="fil0 str1" cx="-4964.45" cy="-4854.54" r="1270"/>
    <circle class="fil0 str1" cx="-2324.45" cy="-4854.54" r="1270"/>
    <circle class="fil0 str1" cx="315.55" cy="-4854.54" r="1270"/>
    <circle class="fil0 str1" cx="2955.55" cy="-4854.54" r="1270"/>
    <circle class="fil0 str1" cx="5595.55" cy="-4854.54" r="1270"/>
    <circle class="fil0 str1" cx="8235.55" cy="-4854.54" r="1270"/>
    <circle class="fil0 str1" cx="10875.55" cy="-4854.54" r="1270"/>
    <circle class="fil0 str1" cx="13515.55" cy="-4854.54" r="1270"/>
    <circle class="fil0 str1" cx="16155.55" cy="-4854.54" r="1270"/>
    <circle class="fil0 str1" cx="18795.55" cy="-4854.54" r="1270"/>
    <circle class="fil0 str1" cx="21435.55" cy="-4854.54" r="1270"/>
    <circle class="fil0 str1" cx="24075.55" cy="-4854.54" r="1270"/>
    <circle class="fil0 str1" cx="26715.55" cy="-4854.54" r="1270"/>
    <circle class="fil0 str1" cx="29355.55" cy="-4854.54" r="1270"/>
    <circle class="fil0 str1" cx="31995.55" cy="-4854.54" r="1270"/>
    <circle class="fil0 str1" cx="34635.55" cy="-4854.54" r="1270"/>
   </g>
   <g>
    <circle class="fil0 str1" cx="-20804.45" cy="-7494.54" r="1270"/>
    <circle class="fil0 str1" cx="-18164.45" cy="-7494.54" r="1270"/>
    <circle class="fil0 str1" cx="-15524.45" cy="-7494.54" r="1270"/>
    <circle class="fil0 str1" cx="-12884.45" cy="-7494.54" r="1270"/>
    <circle class="fil0 str1" cx="-10244.45" cy="-7494.54" r="1270"/>
    <circle class="fil0 str1" cx="-7604.45" cy="-7494.54" r="1270"/>
    <circle class="fil0 str1" cx="-4964.45" cy="-7494.54" r="1270"/>
    <circle class="fil0 str1" cx="-2324.45" cy="-7494.54" r="1270"/>
    <circle class="fil0 str1" cx="315.55" cy="-7494.54" r="1270"/>
    <circle class="fil0 str1" cx="2955.55" cy="-7494.54" r="1270"/>
    <circle class="fil0 str1" cx="5595.55" cy="-7494.54" r="1270"/>
    <circle class="fil0 str1" cx="8235.55" cy="-7494.54" r="1270"/>
    <circle class="fil0 str1" cx="10875.55" cy="-7494.54" r="1270"/>
    <circle class="fil0 str1" cx="13515.55" cy="-7494.54" r="1270"/>
    <circle class="fil0 str1" cx="16155.55" cy="-7494.54" r="1270"/>
    <circle class="fil0 str1" cx="18795.55" cy="-7494.54" r="1270"/>
    <circle class="fil0 str1" cx="21435.55" cy="-7494.54" r="1270"/>
    <circle class="fil0 str1" cx="24075.55" cy="-7494.54" r="1270"/>
    <circle class="fil0 str1" cx="26715.55" cy="-7494.54" r="1270"/>
    <circle class="fil0 str1" cx="29355.55" cy="-7494.54" r="1270"/>
    <circle class="fil0 str1" cx="31995.55" cy="-7494.54" r="1270"/>
    <circle class="fil0 str1" cx="34635.55" cy="-7494.54" r="1270"/>
   </g>
   <g>
    <circle class="fil0 str1" cx="-20804.45" cy="-10134.54" r="1270"/>
    <circle class="fil0 str1" cx="-18164.45" cy="-10134.54" r="1270"/>
    <circle class="fil0 str1" cx="-15524.45" cy="-10134.54" r="1270"/>
    <circle class="fil0 str1" cx="-12884.45" cy="-10134.54" r="1270"/>
    <circle class="fil0 str1" cx="-10244.45" cy="-10134.54" r="1270"/>
    <circle class="fil0 str1" cx="-7604.45" cy="-10134.54" r="1270"/>
    <circle class="fil0 str1" cx="-4964.45" cy="-10134.54" r="1270"/>
    <circle class="fil0 str1" cx="-2324.45" cy="-10134.54" r="1270"/>
    <circle class="fil0 str1" cx="315.55" cy="-10134.54" r="1270"/>
    <circle class="fil0 str1" cx="2955.55" cy="-10134.54" r="1270"/>
    <circle class="fil0 str1" cx="5595.55" cy="-10134.54" r="1270"/>
    <circle class="fil0 str1" cx="8235.55" cy="-10134.54" r="1270"/>
    <circle class="fil0 str1" cx="10875.55" cy="-10134.54" r="1270"/>
    <circle class="fil0 str1" cx="13515.55" cy="-10134.54" r="1270"/>
    <circle class="fil0 str1" cx="16155.55" cy="-10134.54" r="1270"/>
    <circle class="fil0 str1" cx="18795.55" cy="-10134.54" r="1270"/>
    <circle class="fil0 str1" cx="21435.55" cy="-10134.54" r="1270"/>
    <circle class="fil0 str1" cx="24075.55" cy="-10134.54" r="1270"/>
    <circle class="fil0 str1" cx="26715.55" cy="-10134.54" r="1270"/>
    <circle class="fil0 str1" cx="29355.55" cy="-10134.54" r="1270"/>
    <circle class="fil0 str1" cx="31995.55" cy="-10134.54" r="1270"/>
    <circle class="fil0 str1" cx="34635.55" cy="-10134.54" r="1270"/>
   </g>
   <g>
    <circle class="fil0 str1" cx="-20804.45" cy="-12774.54" r="1270"/>
    <circle class="fil0 str1" cx="-18164.45" cy="-12774.54" r="1270"/>
    <circle class="fil0 str1" cx="-15524.45" cy="-12774.54" r="1270"/>
    <circle class="fil0 str1" cx="-12884.45" cy="-12774.54" r="1270"/>
    <circle class="fil0 str1" cx="-10244.45" cy="-12774.54" r="1270"/>
    <circle class="fil0 str1" cx="-7604.45" cy="-12774.54" r="1270"/>
    <circle class="fil0 str1" cx="-4964.45" cy="-12774.54" r="1270"/>
    <circle class="fil0 str1" cx="-2324.45" cy="-12774.54" r="1270"/>
    <circle class="fil0 str1" cx="315.55" cy="-12774.54" r="1270"/>
    <circle class="fil0 str1" cx="2955.55" cy="-12774.54" r="1270"/>
    <circle class="fil0 str1" cx="5595.55" cy="-12774.54" r="1270"/>
    <circle class="fil0 str1" cx="8235.55" cy="-12774.54" r="1270"/>
    <circle class="fil0 str1" cx="10875.55" cy="-12774.54" r="1270"/>
    <circle class="fil0 str1" cx="13515.55" cy="-12774.54" r="1270"/>
    <circle class="fil0 str1" cx="16155.55" cy="-12774.54" r="1270"/>
    <circle class="fil0 str1" cx="18795.55" cy="-12774.54" r="1270"/>
    <circle class="fil0 str1" cx="21435.55" cy="-12774.54" r="1270"/>
    <circle class="fil0 str1" cx="24075.55" cy="-12774.54" r="1270"/>
    <circle class="fil0 str1" cx="26715.55" cy="-12774.54" r="1270"/>
    <circle class="fil0 str1" cx="29355.55" cy="-12774.54" r="1270"/>
    <circle class="fil0 str1" cx="31995.55" cy="-12774.54" r="1270"/>
    <circle class="fil0 str1" cx="34635.55" cy="-12774.54" r="1270"/>
   </g>
  </g>
 </g>
</svg>
