<?xml version="1.0" encoding="UTF-8"?>
<!DOCTYPE svg PUBLIC "-//W3C//DTD SVG 1.1//EN" "http://www.w3.org/Graphics/SVG/1.1/DTD/svg11.dtd">
<!-- Creator: CorelDRAW -->
<svg xmlns="http://www.w3.org/2000/svg" xml:space="preserve" width="1371.6mm" height="914.4mm" version="1.1" style="shape-rendering:geometricPrecision; text-rendering:geometricPrecision; image-rendering:optimizeQuality; fill-rule:evenodd; clip-rule:evenodd"
viewBox="0 0 137160 91440"
 xmlns:xlink="http://www.w3.org/1999/xlink"
 xmlns:xodm="http://www.corel.com/coreldraw/odm/2003">
 <defs>
  <style type="text/css">
   <![CDATA[
    .str1 {stroke:#2B2A29;stroke-width:20;stroke-miterlimit:22.9256}
    .str0 {stroke:#E31E24;stroke-width:7.62;stroke-miterlimit:22.9256}
    .fil0 {fill:none}
   ]]>
  </style>
 </defs>
 <g id="Layer_x0020_1">
  <metadata id="CorelCorpID_0Corel-Layer"/>
  <g id="_2207504380608">
   <g>
    <g>
     <path class="fil0 str0" d="M14068.88 120996.31l11100 0 0 6700 -11100 0 0 -1664.87c930.67,0 1685.13,-754.46 1685.13,-1685.13 0,-930.67 -754.46,-1685.13 -1685.13,-1685.13l0 -1664.87z"/>
     <path class="fil0 str0" d="M25268.88 120996.31l11100 0 0 6700 -11100 0 0 -1664.87c930.67,0 1685.13,-754.46 1685.13,-1685.13 0,-930.67 -754.46,-1685.13 -1685.13,-1685.13l0 -1664.87z"/>
     <path class="fil0 str0" d="M36468.88 120996.31l11100 0 0 6700 -11100 0 0 -1664.87c930.67,0 1685.13,-754.46 1685.13,-1685.13 0,-930.67 -754.46,-1685.13 -1685.13,-1685.13l0 -1664.87z"/>
     <path class="fil0 str0" d="M47668.88 120996.31l11100 0 0 6700 -11100 0 0 -1664.87c930.67,0 1685.13,-754.46 1685.13,-1685.13 0,-930.67 -754.46,-1685.13 -1685.13,-1685.13l0 -1664.87z"/>
     <path class="fil0 str0" d="M58868.88 120996.31l11100 0 0 6700 -11100 0 0 -1664.87c930.67,0 1685.13,-754.46 1685.13,-1685.13 0,-930.67 -754.46,-1685.13 -1685.13,-1685.13l0 -1664.87z"/>
     <path class="fil0 str0" d="M70068.88 120996.31l11100 0 0 6700 -11100 0 0 -1664.87c930.67,0 1685.13,-754.46 1685.13,-1685.13 0,-930.67 -754.46,-1685.13 -1685.13,-1685.13l0 -1664.87z"/>
     <path class="fil0 str0" d="M81268.88 120996.31l11100 0 0 6700 -11100 0 0 -1664.87c930.67,0 1685.13,-754.46 1685.13,-1685.13 0,-930.67 -754.46,-1685.13 -1685.13,-1685.13l0 -1664.87z"/>
     <path class="fil0 str0" d="M92468.88 120996.31l11100 0 0 6700 -11100 0 0 -1664.87c930.67,0 1685.13,-754.46 1685.13,-1685.13 0,-930.67 -754.46,-1685.13 -1685.13,-1685.13l0 -1664.87z"/>
     <path class="fil0 str0" d="M103668.88 120996.31l11100 0 0 6700 -11100 0 0 -1664.87c930.67,0 1685.13,-754.46 1685.13,-1685.13 0,-930.67 -754.46,-1685.13 -1685.13,-1685.13l0 -1664.87z"/>
    </g>
   </g>
   <g>
    <g>
     <path class="fil0 str0" d="M14068.88 154996.31l11100 0 0 6700 -11100 0 0 -1664.87c930.67,0 1685.13,-754.46 1685.13,-1685.13 0,-930.67 -754.46,-1685.13 -1685.13,-1685.13l0 -1664.87z"/>
     <path class="fil0 str0" d="M25268.88 154996.31l11100 0 0 6700 -11100 0 0 -1664.87c930.67,0 1685.13,-754.46 1685.13,-1685.13 0,-930.67 -754.46,-1685.13 -1685.13,-1685.13l0 -1664.87z"/>
     <path class="fil0 str0" d="M36468.88 154996.31l11100 0 0 6700 -11100 0 0 -1664.87c930.67,0 1685.13,-754.46 1685.13,-1685.13 0,-930.67 -754.46,-1685.13 -1685.13,-1685.13l0 -1664.87z"/>
     <path class="fil0 str0" d="M47668.88 154996.31l11100 0 0 6700 -11100 0 0 -1664.87c930.67,0 1685.13,-754.46 1685.13,-1685.13 0,-930.67 -754.46,-1685.13 -1685.13,-1685.13l0 -1664.87z"/>
     <path class="fil0 str0" d="M58868.88 154996.31l11100 0 0 6700 -11100 0 0 -1664.87c930.67,0 1685.13,-754.46 1685.13,-1685.13 0,-930.67 -754.46,-1685.13 -1685.13,-1685.13l0 -1664.87z"/>
     <path class="fil0 str0" d="M70068.88 154996.31l11100 0 0 6700 -11100 0 0 -1664.87c930.67,0 1685.13,-754.46 1685.13,-1685.13 0,-930.67 -754.46,-1685.13 -1685.13,-1685.13l0 -1664.87z"/>
     <path class="fil0 str0" d="M81268.88 154996.31l11100 0 0 6700 -11100 0 0 -1664.87c930.67,0 1685.13,-754.46 1685.13,-1685.13 0,-930.67 -754.46,-1685.13 -1685.13,-1685.13l0 -1664.87z"/>
     <path class="fil0 str0" d="M92468.88 154996.31l11100 0 0 6700 -11100 0 0 -1664.87c930.67,0 1685.13,-754.46 1685.13,-1685.13 0,-930.67 -754.46,-1685.13 -1685.13,-1685.13l0 -1664.87z"/>
     <path class="fil0 str0" d="M103668.88 154996.31l11100 0 0 6700 -11100 0 0 -1664.87c930.67,0 1685.13,-754.46 1685.13,-1685.13 0,-930.67 -754.46,-1685.13 -1685.13,-1685.13l0 -1664.87z"/>
    </g>
   </g>
   <g>
    <g>
     <path class="fil0 str0" d="M14068.88 134596.31l11100 0 0 6700 -11100 0 0 -1664.87c930.67,0 1685.13,-754.46 1685.13,-1685.13 0,-930.67 -754.46,-1685.13 -1685.13,-1685.13l0 -1664.87z"/>
     <path class="fil0 str0" d="M25268.88 134596.31l11100 0 0 6700 -11100 0 0 -1664.87c930.67,0 1685.13,-754.46 1685.13,-1685.13 0,-930.67 -754.46,-1685.13 -1685.13,-1685.13l0 -1664.87z"/>
     <path class="fil0 str0" d="M36468.88 134596.31l11100 0 0 6700 -11100 0 0 -1664.87c930.67,0 1685.13,-754.46 1685.13,-1685.13 0,-930.67 -754.46,-1685.13 -1685.13,-1685.13l0 -1664.87z"/>
     <path class="fil0 str0" d="M47668.88 134596.31l11100 0 0 6700 -11100 0 0 -1664.87c930.67,0 1685.13,-754.46 1685.13,-1685.13 0,-930.67 -754.46,-1685.13 -1685.13,-1685.13l0 -1664.87z"/>
     <path class="fil0 str0" d="M58868.88 134596.31l11100 0 0 6700 -11100 0 0 -1664.87c930.67,0 1685.13,-754.46 1685.13,-1685.13 0,-930.67 -754.46,-1685.13 -1685.13,-1685.13l0 -1664.87z"/>
     <path class="fil0 str0" d="M70068.88 134596.31l11100 0 0 6700 -11100 0 0 -1664.87c930.67,0 1685.13,-754.46 1685.13,-1685.13 0,-930.67 -754.46,-1685.13 -1685.13,-1685.13l0 -1664.87z"/>
     <path class="fil0 str0" d="M81268.88 134596.31l11100 0 0 6700 -11100 0 0 -1664.87c930.67,0 1685.13,-754.46 1685.13,-1685.13 0,-930.67 -754.46,-1685.13 -1685.13,-1685.13l0 -1664.87z"/>
     <path class="fil0 str0" d="M92468.88 134596.31l11100 0 0 6700 -11100 0 0 -1664.87c930.67,0 1685.13,-754.46 1685.13,-1685.13 0,-930.67 -754.46,-1685.13 -1685.13,-1685.13l0 -1664.87z"/>
     <path class="fil0 str0" d="M103668.88 134596.31l11100 0 0 6700 -11100 0 0 -1664.87c930.67,0 1685.13,-754.46 1685.13,-1685.13 0,-930.67 -754.46,-1685.13 -1685.13,-1685.13l0 -1664.87z"/>
    </g>
   </g>
   <g>
    <g>
     <path class="fil0 str0" d="M14068.88 161796.31l11100 0 0 6700 -11100 0 0 -1664.87c930.67,0 1685.13,-754.46 1685.13,-1685.13 0,-930.67 -754.46,-1685.13 -1685.13,-1685.13l0 -1664.87z"/>
     <path class="fil0 str0" d="M25268.88 161796.31l11100 0 0 6700 -11100 0 0 -1664.87c930.67,0 1685.13,-754.46 1685.13,-1685.13 0,-930.67 -754.46,-1685.13 -1685.13,-1685.13l0 -1664.87z"/>
     <path class="fil0 str0" d="M36468.88 161796.31l11100 0 0 6700 -11100 0 0 -1664.87c930.67,0 1685.13,-754.46 1685.13,-1685.13 0,-930.67 -754.46,-1685.13 -1685.13,-1685.13l0 -1664.87z"/>
     <path class="fil0 str0" d="M47668.88 161796.31l11100 0 0 6700 -11100 0 0 -1664.87c930.67,0 1685.13,-754.46 1685.13,-1685.13 0,-930.67 -754.46,-1685.13 -1685.13,-1685.13l0 -1664.87z"/>
     <path class="fil0 str0" d="M58868.88 161796.31l11100 0 0 6700 -11100 0 0 -1664.87c930.67,0 1685.13,-754.46 1685.13,-1685.13 0,-930.67 -754.46,-1685.13 -1685.13,-1685.13l0 -1664.87z"/>
     <path class="fil0 str0" d="M70068.88 161796.31l11100 0 0 6700 -11100 0 0 -1664.87c930.67,0 1685.13,-754.46 1685.13,-1685.13 0,-930.67 -754.46,-1685.13 -1685.13,-1685.13l0 -1664.87z"/>
     <path class="fil0 str0" d="M81268.88 161796.31l11100 0 0 6700 -11100 0 0 -1664.87c930.67,0 1685.13,-754.46 1685.13,-1685.13 0,-930.67 -754.46,-1685.13 -1685.13,-1685.13l0 -1664.87z"/>
     <path class="fil0 str0" d="M92468.88 161796.31l11100 0 0 6700 -11100 0 0 -1664.87c930.67,0 1685.13,-754.46 1685.13,-1685.13 0,-930.67 -754.46,-1685.13 -1685.13,-1685.13l0 -1664.87z"/>
     <path class="fil0 str0" d="M103668.88 161796.31l11100 0 0 6700 -11100 0 0 -1664.87c930.67,0 1685.13,-754.46 1685.13,-1685.13 0,-930.67 -754.46,-1685.13 -1685.13,-1685.13l0 -1664.87z"/>
    </g>
   </g>
   <g>
    <g>
     <path class="fil0 str0" d="M14068.88 127796.31l11100 0 0 6700 -11100 0 0 -1664.87c930.67,0 1685.13,-754.46 1685.13,-1685.13 0,-930.67 -754.46,-1685.13 -1685.13,-1685.13l0 -1664.87z"/>
     <path class="fil0 str0" d="M25268.88 127796.31l11100 0 0 6700 -11100 0 0 -1664.87c930.67,0 1685.13,-754.46 1685.13,-1685.13 0,-930.67 -754.46,-1685.13 -1685.13,-1685.13l0 -1664.87z"/>
     <path class="fil0 str0" d="M36468.88 127796.31l11100 0 0 6700 -11100 0 0 -1664.87c930.67,0 1685.13,-754.46 1685.13,-1685.13 0,-930.67 -754.46,-1685.13 -1685.13,-1685.13l0 -1664.87z"/>
     <path class="fil0 str0" d="M47668.88 127796.31l11100 0 0 6700 -11100 0 0 -1664.87c930.67,0 1685.13,-754.46 1685.13,-1685.13 0,-930.67 -754.46,-1685.13 -1685.13,-1685.13l0 -1664.87z"/>
     <path class="fil0 str0" d="M58868.88 127796.31l11100 0 0 6700 -11100 0 0 -1664.87c930.67,0 1685.13,-754.46 1685.13,-1685.13 0,-930.67 -754.46,-1685.13 -1685.13,-1685.13l0 -1664.87z"/>
     <path class="fil0 str0" d="M70068.88 127796.31l11100 0 0 6700 -11100 0 0 -1664.87c930.67,0 1685.13,-754.46 1685.13,-1685.13 0,-930.67 -754.46,-1685.13 -1685.13,-1685.13l0 -1664.87z"/>
     <path class="fil0 str0" d="M81268.88 127796.31l11100 0 0 6700 -11100 0 0 -1664.87c930.67,0 1685.13,-754.46 1685.13,-1685.13 0,-930.67 -754.46,-1685.13 -1685.13,-1685.13l0 -1664.87z"/>
     <path class="fil0 str0" d="M92468.88 127796.31l11100 0 0 6700 -11100 0 0 -1664.87c930.67,0 1685.13,-754.46 1685.13,-1685.13 0,-930.67 -754.46,-1685.13 -1685.13,-1685.13l0 -1664.87z"/>
     <path class="fil0 str0" d="M103668.88 127796.31l11100 0 0 6700 -11100 0 0 -1664.87c930.67,0 1685.13,-754.46 1685.13,-1685.13 0,-930.67 -754.46,-1685.13 -1685.13,-1685.13l0 -1664.87z"/>
    </g>
   </g>
   <g>
    <g>
     <path class="fil0 str0" d="M14068.88 148196.31l11100 0 0 6700 -11100 0 0 -1664.87c930.67,0 1685.13,-754.46 1685.13,-1685.13 0,-930.67 -754.46,-1685.13 -1685.13,-1685.13l0 -1664.87z"/>
     <path class="fil0 str0" d="M25268.88 148196.31l11100 0 0 6700 -11100 0 0 -1664.87c930.67,0 1685.13,-754.46 1685.13,-1685.13 0,-930.67 -754.46,-1685.13 -1685.13,-1685.13l0 -1664.87z"/>
     <path class="fil0 str0" d="M36468.88 148196.31l11100 0 0 6700 -11100 0 0 -1664.87c930.67,0 1685.13,-754.46 1685.13,-1685.13 0,-930.67 -754.46,-1685.13 -1685.13,-1685.13l0 -1664.87z"/>
     <path class="fil0 str0" d="M47668.88 148196.31l11100 0 0 6700 -11100 0 0 -1664.87c930.67,0 1685.13,-754.46 1685.13,-1685.13 0,-930.67 -754.46,-1685.13 -1685.13,-1685.13l0 -1664.87z"/>
     <path class="fil0 str0" d="M58868.88 148196.31l11100 0 0 6700 -11100 0 0 -1664.87c930.67,0 1685.13,-754.46 1685.13,-1685.13 0,-930.67 -754.46,-1685.13 -1685.13,-1685.13l0 -1664.87z"/>
     <path class="fil0 str0" d="M70068.88 148196.31l11100 0 0 6700 -11100 0 0 -1664.87c930.67,0 1685.13,-754.46 1685.13,-1685.13 0,-930.67 -754.46,-1685.13 -1685.13,-1685.13l0 -1664.87z"/>
     <path class="fil0 str0" d="M81268.88 148196.31l11100 0 0 6700 -11100 0 0 -1664.87c930.67,0 1685.13,-754.46 1685.13,-1685.13 0,-930.67 -754.46,-1685.13 -1685.13,-1685.13l0 -1664.87z"/>
     <path class="fil0 str0" d="M92468.88 148196.31l11100 0 0 6700 -11100 0 0 -1664.87c930.67,0 1685.13,-754.46 1685.13,-1685.13 0,-930.67 -754.46,-1685.13 -1685.13,-1685.13l0 -1664.87z"/>
     <path class="fil0 str0" d="M103668.88 148196.31l11100 0 0 6700 -11100 0 0 -1664.87c930.67,0 1685.13,-754.46 1685.13,-1685.13 0,-930.67 -754.46,-1685.13 -1685.13,-1685.13l0 -1664.87z"/>
    </g>
   </g>
   <g>
    <g>
     <path class="fil0 str0" d="M14068.88 141396.31l11100 0 0 6700 -11100 0 0 -1664.87c930.67,0 1685.13,-754.46 1685.13,-1685.13 0,-930.67 -754.46,-1685.13 -1685.13,-1685.13l0 -1664.87z"/>
     <path class="fil0 str0" d="M25268.88 141396.31l11100 0 0 6700 -11100 0 0 -1664.87c930.67,0 1685.13,-754.46 1685.13,-1685.13 0,-930.67 -754.46,-1685.13 -1685.13,-1685.13l0 -1664.87z"/>
     <path class="fil0 str0" d="M36468.88 141396.31l11100 0 0 6700 -11100 0 0 -1664.87c930.67,0 1685.13,-754.46 1685.13,-1685.13 0,-930.67 -754.46,-1685.13 -1685.13,-1685.13l0 -1664.87z"/>
     <path class="fil0 str0" d="M47668.88 141396.31l11100 0 0 6700 -11100 0 0 -1664.87c930.67,0 1685.13,-754.46 1685.13,-1685.13 0,-930.67 -754.46,-1685.13 -1685.13,-1685.13l0 -1664.87z"/>
     <path class="fil0 str0" d="M58868.88 141396.31l11100 0 0 6700 -11100 0 0 -1664.87c930.67,0 1685.13,-754.46 1685.13,-1685.13 0,-930.67 -754.46,-1685.13 -1685.13,-1685.13l0 -1664.87z"/>
     <path class="fil0 str0" d="M70068.88 141396.31l11100 0 0 6700 -11100 0 0 -1664.87c930.67,0 1685.13,-754.46 1685.13,-1685.13 0,-930.67 -754.46,-1685.13 -1685.13,-1685.13l0 -1664.87z"/>
     <path class="fil0 str0" d="M81268.88 141396.31l11100 0 0 6700 -11100 0 0 -1664.87c930.67,0 1685.13,-754.46 1685.13,-1685.13 0,-930.67 -754.46,-1685.13 -1685.13,-1685.13l0 -1664.87z"/>
     <path class="fil0 str0" d="M92468.88 141396.31l11100 0 0 6700 -11100 0 0 -1664.87c930.67,0 1685.13,-754.46 1685.13,-1685.13 0,-930.67 -754.46,-1685.13 -1685.13,-1685.13l0 -1664.87z"/>
     <path class="fil0 str0" d="M103668.88 141396.31l11100 0 0 6700 -11100 0 0 -1664.87c930.67,0 1685.13,-754.46 1685.13,-1685.13 0,-930.67 -754.46,-1685.13 -1685.13,-1685.13l0 -1664.87z"/>
    </g>
   </g>
   <g>
    <g>
     <path class="fil0 str0" d="M14068.88 168596.31l11100 0 0 6700 -11100 0 0 -1664.87c930.67,0 1685.13,-754.46 1685.13,-1685.13 0,-930.67 -754.46,-1685.13 -1685.13,-1685.13l0 -1664.87z"/>
     <path class="fil0 str0" d="M25268.88 168596.31l11100 0 0 6700 -11100 0 0 -1664.87c930.67,0 1685.13,-754.46 1685.13,-1685.13 0,-930.67 -754.46,-1685.13 -1685.13,-1685.13l0 -1664.87z"/>
     <path class="fil0 str0" d="M36468.88 168596.31l11100 0 0 6700 -11100 0 0 -1664.87c930.67,0 1685.13,-754.46 1685.13,-1685.13 0,-930.67 -754.46,-1685.13 -1685.13,-1685.13l0 -1664.87z"/>
     <path class="fil0 str0" d="M47668.88 168596.31l11100 0 0 6700 -11100 0 0 -1664.87c930.67,0 1685.13,-754.46 1685.13,-1685.13 0,-930.67 -754.46,-1685.13 -1685.13,-1685.13l0 -1664.87z"/>
     <path class="fil0 str0" d="M58868.88 168596.31l11100 0 0 6700 -11100 0 0 -1664.87c930.67,0 1685.13,-754.46 1685.13,-1685.13 0,-930.67 -754.46,-1685.13 -1685.13,-1685.13l0 -1664.87z"/>
     <path class="fil0 str0" d="M70068.88 168596.31l11100 0 0 6700 -11100 0 0 -1664.87c930.67,0 1685.13,-754.46 1685.13,-1685.13 0,-930.67 -754.46,-1685.13 -1685.13,-1685.13l0 -1664.87z"/>
     <path class="fil0 str0" d="M81268.88 168596.31l11100 0 0 6700 -11100 0 0 -1664.87c930.67,0 1685.13,-754.46 1685.13,-1685.13 0,-930.67 -754.46,-1685.13 -1685.13,-1685.13l0 -1664.87z"/>
     <path class="fil0 str0" d="M92468.88 168596.31l11100 0 0 6700 -11100 0 0 -1664.87c930.67,0 1685.13,-754.46 1685.13,-1685.13 0,-930.67 -754.46,-1685.13 -1685.13,-1685.13l0 -1664.87z"/>
     <path class="fil0 str0" d="M103668.88 168596.31l11100 0 0 6700 -11100 0 0 -1664.87c930.67,0 1685.13,-754.46 1685.13,-1685.13 0,-930.67 -754.46,-1685.13 -1685.13,-1685.13l0 -1664.87z"/>
    </g>
   </g>
   <g>
    <g>
     <path class="fil0 str0" d="M14068.88 175396.31l11100 0 0 6700 -11100 0 0 -1664.87c930.67,0 1685.13,-754.46 1685.13,-1685.13 0,-930.67 -754.46,-1685.13 -1685.13,-1685.13l0 -1664.87z"/>
     <path class="fil0 str0" d="M25268.88 175396.31l11100 0 0 6700 -11100 0 0 -1664.87c930.67,0 1685.13,-754.46 1685.13,-1685.13 0,-930.67 -754.46,-1685.13 -1685.13,-1685.13l0 -1664.87z"/>
     <path class="fil0 str0" d="M36468.88 175396.31l11100 0 0 6700 -11100 0 0 -1664.87c930.67,0 1685.13,-754.46 1685.13,-1685.13 0,-930.67 -754.46,-1685.13 -1685.13,-1685.13l0 -1664.87z"/>
     <path class="fil0 str0" d="M47668.88 175396.31l11100 0 0 6700 -11100 0 0 -1664.87c930.67,0 1685.13,-754.46 1685.13,-1685.13 0,-930.67 -754.46,-1685.13 -1685.13,-1685.13l0 -1664.87z"/>
     <path class="fil0 str0" d="M58868.88 175396.31l11100 0 0 6700 -11100 0 0 -1664.87c930.67,0 1685.13,-754.46 1685.13,-1685.13 0,-930.67 -754.46,-1685.13 -1685.13,-1685.13l0 -1664.87z"/>
     <path class="fil0 str0" d="M70068.88 175396.31l11100 0 0 6700 -11100 0 0 -1664.87c930.67,0 1685.13,-754.46 1685.13,-1685.13 0,-930.67 -754.46,-1685.13 -1685.13,-1685.13l0 -1664.87z"/>
     <path class="fil0 str0" d="M81268.88 175396.31l11100 0 0 6700 -11100 0 0 -1664.87c930.67,0 1685.13,-754.46 1685.13,-1685.13 0,-930.67 -754.46,-1685.13 -1685.13,-1685.13l0 -1664.87z"/>
     <path class="fil0 str0" d="M92468.88 175396.31l11100 0 0 6700 -11100 0 0 -1664.87c930.67,0 1685.13,-754.46 1685.13,-1685.13 0,-930.67 -754.46,-1685.13 -1685.13,-1685.13l0 -1664.87z"/>
     <path class="fil0 str0" d="M103668.88 175396.31l11100 0 0 6700 -11100 0 0 -1664.87c930.67,0 1685.13,-754.46 1685.13,-1685.13 0,-930.67 -754.46,-1685.13 -1685.13,-1685.13l0 -1664.87z"/>
    </g>
   </g>
   <g>
    <g>
     <path class="fil0 str0" d="M14068.88 182196.31l11100 0 0 6700 -11100 0 0 -1664.87c930.67,0 1685.13,-754.46 1685.13,-1685.13 0,-930.67 -754.46,-1685.13 -1685.13,-1685.13l0 -1664.87z"/>
     <path class="fil0 str0" d="M25268.88 182196.31l11100 0 0 6700 -11100 0 0 -1664.87c930.67,0 1685.13,-754.46 1685.13,-1685.13 0,-930.67 -754.46,-1685.13 -1685.13,-1685.13l0 -1664.87z"/>
     <path class="fil0 str0" d="M36468.88 182196.31l11100 0 0 6700 -11100 0 0 -1664.87c930.67,0 1685.13,-754.46 1685.13,-1685.13 0,-930.67 -754.46,-1685.13 -1685.13,-1685.13l0 -1664.87z"/>
     <path class="fil0 str0" d="M47668.88 182196.31l11100 0 0 6700 -11100 0 0 -1664.87c930.67,0 1685.13,-754.46 1685.13,-1685.13 0,-930.67 -754.46,-1685.13 -1685.13,-1685.13l0 -1664.87z"/>
     <path class="fil0 str0" d="M58868.88 182196.31l11100 0 0 6700 -11100 0 0 -1664.87c930.67,0 1685.13,-754.46 1685.13,-1685.13 0,-930.67 -754.46,-1685.13 -1685.13,-1685.13l0 -1664.87z"/>
     <path class="fil0 str0" d="M70068.88 182196.31l11100 0 0 6700 -11100 0 0 -1664.87c930.67,0 1685.13,-754.46 1685.13,-1685.13 0,-930.67 -754.46,-1685.13 -1685.13,-1685.13l0 -1664.87z"/>
     <path class="fil0 str0" d="M81268.88 182196.31l11100 0 0 6700 -11100 0 0 -1664.87c930.67,0 1685.13,-754.46 1685.13,-1685.13 0,-930.67 -754.46,-1685.13 -1685.13,-1685.13l0 -1664.87z"/>
     <path class="fil0 str0" d="M92468.88 182196.31l11100 0 0 6700 -11100 0 0 -1664.87c930.67,0 1685.13,-754.46 1685.13,-1685.13 0,-930.67 -754.46,-1685.13 -1685.13,-1685.13l0 -1664.87z"/>
     <path class="fil0 str0" d="M103668.88 182196.31l11100 0 0 6700 -11100 0 0 -1664.87c930.67,0 1685.13,-754.46 1685.13,-1685.13 0,-930.67 -754.46,-1685.13 -1685.13,-1685.13l0 -1664.87z"/>
    </g>
   </g>
  </g>
  <g id="_2207504381568">
   <rect class="fil0 str0" x="122431.13" y="145791.1" width="10450" height="600"/>
   <rect class="fil0 str0" x="122431.13" y="145091.1" width="10450" height="600"/>
   <rect class="fil0 str0" x="122431.13" y="144391.1" width="10450" height="600"/>
   <rect class="fil0 str0" x="122431.13" y="143691.1" width="10450" height="600"/>
  </g>
  <g id="_2207504380560">
   <rect class="fil0 str0" transform="matrix(8.17639E-15 -0.308723 1.55955 4.13594E-14 114865 146282)" width="1943.49" height="4296.12"/>
   <rect class="fil0 str0" transform="matrix(8.17639E-15 -0.308723 1.55955 4.13594E-14 114865 143482)" width="1943.49" height="4296.12"/>
   <rect class="fil0 str0" transform="matrix(8.17639E-15 -0.308723 1.55955 4.13594E-14 114865 142782)" width="1943.49" height="4296.12"/>
   <rect class="fil0 str0" transform="matrix(8.17639E-15 -0.308723 1.55955 4.13594E-14 114865 142082)" width="1943.49" height="4296.12"/>
   <rect class="fil0 str0" transform="matrix(8.17639E-15 -0.308723 1.55955 4.13594E-14 114865 144182)" width="1943.49" height="4296.12"/>
   <rect class="fil0 str0" transform="matrix(8.17639E-15 -0.308723 1.55955 4.13594E-14 114865 144882)" width="1943.49" height="4296.12"/>
   <rect class="fil0 str0" transform="matrix(8.17639E-15 -0.308723 1.55955 4.13594E-14 114865 145582)" width="1943.49" height="4296.12"/>
  </g>
  <rect class="fil0 str1" x="13794.86" y="120720" width="119380" height="78740"/>
  <g id="_2207504374992">
   <rect class="fil0 str0" transform="matrix(3.80035E-14 -1.43493 0.68956 1.82627E-14 114888 188820)" width="7282.58" height="870.12"/>
   <rect class="fil0 str0" transform="matrix(3.80035E-14 -1.43493 0.68956 1.82627E-14 115588 188820)" width="7282.58" height="870.12"/>
   <rect class="fil0 str0" transform="matrix(3.80035E-14 -1.43493 0.68956 1.82627E-14 116288 188820)" width="7282.58" height="870.12"/>
   <rect class="fil0 str0" transform="matrix(3.80035E-14 -1.43493 0.68956 1.82627E-14 116988 188820)" width="7282.58" height="870.12"/>
   <rect class="fil0 str0" transform="matrix(3.80035E-14 -1.43493 0.68956 1.82627E-14 117688 188820)" width="7282.58" height="870.12"/>
   <rect class="fil0 str0" transform="matrix(3.80035E-14 -1.43493 0.68956 1.82627E-14 118388 188820)" width="7282.58" height="870.12"/>
   <rect class="fil0 str0" transform="matrix(3.80035E-14 -1.43493 0.68956 1.82627E-14 119088 188820)" width="7282.58" height="870.12"/>
   <rect class="fil0 str0" transform="matrix(3.80035E-14 -1.43493 0.68956 1.82627E-14 119788 188820)" width="7282.58" height="870.12"/>
   <rect class="fil0 str0" transform="matrix(3.80035E-14 -1.43493 0.68956 1.82627E-14 120488 188820)" width="7282.58" height="870.12"/>
   <rect class="fil0 str0" transform="matrix(3.80035E-14 -1.43493 0.68956 1.82627E-14 121188 188820)" width="7282.58" height="870.12"/>
   <rect class="fil0 str0" transform="matrix(3.80035E-14 -1.43493 0.68956 1.82627E-14 121888 188820)" width="7282.58" height="870.12"/>
   <rect class="fil0 str0" transform="matrix(3.80035E-14 -1.43493 0.68956 1.82627E-14 122588 188820)" width="7282.58" height="870.12"/>
   <rect class="fil0 str0" transform="matrix(3.80035E-14 -1.43493 0.68956 1.82627E-14 123288 188820)" width="7282.58" height="870.12"/>
   <rect class="fil0 str0" transform="matrix(3.80035E-14 -1.43493 0.68956 1.82627E-14 123988 188820)" width="7282.58" height="870.12"/>
   <rect class="fil0 str0" transform="matrix(3.80035E-14 -1.43493 0.68956 1.82627E-14 124688 188820)" width="7282.58" height="870.12"/>
   <rect class="fil0 str0" transform="matrix(3.80035E-14 -1.43493 0.68956 1.82627E-14 125388 188820)" width="7282.58" height="870.12"/>
   <rect class="fil0 str0" transform="matrix(3.80035E-14 -1.43493 0.68956 1.82627E-14 126088 188820)" width="7282.58" height="870.12"/>
   <rect class="fil0 str0" transform="matrix(3.80035E-14 -1.43493 0.68956 1.82627E-14 126788 188820)" width="7282.58" height="870.12"/>
   <rect class="fil0 str0" transform="matrix(3.80035E-14 -1.43493 0.68956 1.82627E-14 127488 188820)" width="7282.58" height="870.12"/>
   <rect class="fil0 str0" transform="matrix(3.80035E-14 -1.43493 0.68956 1.82627E-14 128188 188820)" width="7282.58" height="870.12"/>
   <rect class="fil0 str0" transform="matrix(3.80035E-14 -1.43493 0.68956 1.82627E-14 128888 188820)" width="7282.58" height="870.12"/>
   <rect class="fil0 str0" transform="matrix(3.80035E-14 -1.43493 0.68956 1.82627E-14 129588 188820)" width="7282.58" height="870.12"/>
   <rect class="fil0 str0" transform="matrix(3.80035E-14 -1.43493 0.68956 1.82627E-14 130288 188820)" width="7282.58" height="870.12"/>
   <rect class="fil0 str0" transform="matrix(3.80035E-14 -1.43493 0.68956 1.82627E-14 130988 188820)" width="7282.58" height="870.12"/>
   <rect class="fil0 str0" transform="matrix(3.80035E-14 -1.43493 0.68956 1.82627E-14 131688 188820)" width="7282.58" height="870.12"/>
   <rect class="fil0 str0" transform="matrix(3.80035E-14 -1.43493 0.68956 1.82627E-14 132388 188820)" width="7282.58" height="870.12"/>
  </g>
  <g id="_2207504372976">
   <rect class="fil0 str0" transform="matrix(3.80035E-14 -1.43493 0.68956 1.82627E-14 114888 178270)" width="7282.58" height="870.12"/>
   <rect class="fil0 str0" transform="matrix(3.80035E-14 -1.43493 0.68956 1.82627E-14 115588 178270)" width="7282.58" height="870.12"/>
   <rect class="fil0 str0" transform="matrix(3.80035E-14 -1.43493 0.68956 1.82627E-14 116288 178270)" width="7282.58" height="870.12"/>
   <rect class="fil0 str0" transform="matrix(3.80035E-14 -1.43493 0.68956 1.82627E-14 116988 178270)" width="7282.58" height="870.12"/>
   <rect class="fil0 str0" transform="matrix(3.80035E-14 -1.43493 0.68956 1.82627E-14 117688 178270)" width="7282.58" height="870.12"/>
   <rect class="fil0 str0" transform="matrix(3.80035E-14 -1.43493 0.68956 1.82627E-14 118388 178270)" width="7282.58" height="870.12"/>
   <rect class="fil0 str0" transform="matrix(3.80035E-14 -1.43493 0.68956 1.82627E-14 119088 178270)" width="7282.58" height="870.12"/>
   <rect class="fil0 str0" transform="matrix(3.80035E-14 -1.43493 0.68956 1.82627E-14 119788 178270)" width="7282.58" height="870.12"/>
   <rect class="fil0 str0" transform="matrix(3.80035E-14 -1.43493 0.68956 1.82627E-14 120488 178270)" width="7282.58" height="870.12"/>
   <rect class="fil0 str0" transform="matrix(3.80035E-14 -1.43493 0.68956 1.82627E-14 121188 178270)" width="7282.58" height="870.12"/>
   <rect class="fil0 str0" transform="matrix(3.80035E-14 -1.43493 0.68956 1.82627E-14 121888 178270)" width="7282.58" height="870.12"/>
   <rect class="fil0 str0" transform="matrix(3.80035E-14 -1.43493 0.68956 1.82627E-14 122588 178270)" width="7282.58" height="870.12"/>
   <rect class="fil0 str0" transform="matrix(3.80035E-14 -1.43493 0.68956 1.82627E-14 123288 178270)" width="7282.58" height="870.12"/>
   <rect class="fil0 str0" transform="matrix(3.80035E-14 -1.43493 0.68956 1.82627E-14 123988 178270)" width="7282.58" height="870.12"/>
   <rect class="fil0 str0" transform="matrix(3.80035E-14 -1.43493 0.68956 1.82627E-14 124688 178270)" width="7282.58" height="870.12"/>
   <rect class="fil0 str0" transform="matrix(3.80035E-14 -1.43493 0.68956 1.82627E-14 125388 178270)" width="7282.58" height="870.12"/>
   <rect class="fil0 str0" transform="matrix(3.80035E-14 -1.43493 0.68956 1.82627E-14 126088 178270)" width="7282.58" height="870.12"/>
   <rect class="fil0 str0" transform="matrix(3.80035E-14 -1.43493 0.68956 1.82627E-14 126788 178270)" width="7282.58" height="870.12"/>
   <rect class="fil0 str0" transform="matrix(3.80035E-14 -1.43493 0.68956 1.82627E-14 127488 178270)" width="7282.58" height="870.12"/>
   <rect class="fil0 str0" transform="matrix(3.80035E-14 -1.43493 0.68956 1.82627E-14 128188 178270)" width="7282.58" height="870.12"/>
   <rect class="fil0 str0" transform="matrix(3.80035E-14 -1.43493 0.68956 1.82627E-14 128888 178270)" width="7282.58" height="870.12"/>
   <rect class="fil0 str0" transform="matrix(3.80035E-14 -1.43493 0.68956 1.82627E-14 129588 178270)" width="7282.58" height="870.12"/>
   <rect class="fil0 str0" transform="matrix(3.80035E-14 -1.43493 0.68956 1.82627E-14 130288 178270)" width="7282.58" height="870.12"/>
   <rect class="fil0 str0" transform="matrix(3.80035E-14 -1.43493 0.68956 1.82627E-14 130988 178270)" width="7282.58" height="870.12"/>
   <rect class="fil0 str0" transform="matrix(3.80035E-14 -1.43493 0.68956 1.82627E-14 131688 178270)" width="7282.58" height="870.12"/>
   <rect class="fil0 str0" transform="matrix(3.80035E-14 -1.43493 0.68956 1.82627E-14 132388 178270)" width="7282.58" height="870.12"/>
  </g>
  <g id="_2207504370288">
   <rect class="fil0 str0" transform="matrix(3.80035E-14 -1.43493 0.68956 1.82627E-14 114888 167720)" width="7282.58" height="870.12"/>
   <rect class="fil0 str0" transform="matrix(3.80035E-14 -1.43493 0.68956 1.82627E-14 115588 167720)" width="7282.58" height="870.12"/>
   <rect class="fil0 str0" transform="matrix(3.80035E-14 -1.43493 0.68956 1.82627E-14 116288 167720)" width="7282.58" height="870.12"/>
   <rect class="fil0 str0" transform="matrix(3.80035E-14 -1.43493 0.68956 1.82627E-14 116988 167720)" width="7282.58" height="870.12"/>
   <rect class="fil0 str0" transform="matrix(3.80035E-14 -1.43493 0.68956 1.82627E-14 117688 167720)" width="7282.58" height="870.12"/>
   <rect class="fil0 str0" transform="matrix(3.80035E-14 -1.43493 0.68956 1.82627E-14 118388 167720)" width="7282.58" height="870.12"/>
   <rect class="fil0 str0" transform="matrix(3.80035E-14 -1.43493 0.68956 1.82627E-14 119088 167720)" width="7282.58" height="870.12"/>
   <rect class="fil0 str0" transform="matrix(3.80035E-14 -1.43493 0.68956 1.82627E-14 119788 167720)" width="7282.58" height="870.12"/>
   <rect class="fil0 str0" transform="matrix(3.80035E-14 -1.43493 0.68956 1.82627E-14 120488 167720)" width="7282.58" height="870.12"/>
   <rect class="fil0 str0" transform="matrix(3.80035E-14 -1.43493 0.68956 1.82627E-14 121188 167720)" width="7282.58" height="870.12"/>
   <rect class="fil0 str0" transform="matrix(3.80035E-14 -1.43493 0.68956 1.82627E-14 121888 167720)" width="7282.58" height="870.12"/>
   <rect class="fil0 str0" transform="matrix(3.80035E-14 -1.43493 0.68956 1.82627E-14 122588 167720)" width="7282.58" height="870.12"/>
   <rect class="fil0 str0" transform="matrix(3.80035E-14 -1.43493 0.68956 1.82627E-14 123288 167720)" width="7282.58" height="870.12"/>
   <rect class="fil0 str0" transform="matrix(3.80035E-14 -1.43493 0.68956 1.82627E-14 123988 167720)" width="7282.58" height="870.12"/>
   <rect class="fil0 str0" transform="matrix(3.80035E-14 -1.43493 0.68956 1.82627E-14 124688 167720)" width="7282.58" height="870.12"/>
   <rect class="fil0 str0" transform="matrix(3.80035E-14 -1.43493 0.68956 1.82627E-14 125388 167720)" width="7282.58" height="870.12"/>
   <rect class="fil0 str0" transform="matrix(3.80035E-14 -1.43493 0.68956 1.82627E-14 126088 167720)" width="7282.58" height="870.12"/>
   <rect class="fil0 str0" transform="matrix(3.80035E-14 -1.43493 0.68956 1.82627E-14 126788 167720)" width="7282.58" height="870.12"/>
   <rect class="fil0 str0" transform="matrix(3.80035E-14 -1.43493 0.68956 1.82627E-14 127488 167720)" width="7282.58" height="870.12"/>
   <rect class="fil0 str0" transform="matrix(3.80035E-14 -1.43493 0.68956 1.82627E-14 128188 167720)" width="7282.58" height="870.12"/>
   <rect class="fil0 str0" transform="matrix(3.80035E-14 -1.43493 0.68956 1.82627E-14 128888 167720)" width="7282.58" height="870.12"/>
   <rect class="fil0 str0" transform="matrix(3.80035E-14 -1.43493 0.68956 1.82627E-14 129588 167720)" width="7282.58" height="870.12"/>
   <rect class="fil0 str0" transform="matrix(3.80035E-14 -1.43493 0.68956 1.82627E-14 130288 167720)" width="7282.58" height="870.12"/>
   <rect class="fil0 str0" transform="matrix(3.80035E-14 -1.43493 0.68956 1.82627E-14 130988 167720)" width="7282.58" height="870.12"/>
   <rect class="fil0 str0" transform="matrix(3.80035E-14 -1.43493 0.68956 1.82627E-14 131688 167720)" width="7282.58" height="870.12"/>
   <rect class="fil0 str0" transform="matrix(3.80035E-14 -1.43493 0.68956 1.82627E-14 132388 167720)" width="7282.58" height="870.12"/>
  </g>
  <g id="_2207504368656">
   <rect class="fil0 str0" transform="matrix(3.80035E-14 -1.43493 0.68956 1.82627E-14 114888 157170)" width="7282.58" height="870.12"/>
   <rect class="fil0 str0" transform="matrix(3.80035E-14 -1.43493 0.68956 1.82627E-14 115588 157170)" width="7282.58" height="870.12"/>
   <rect class="fil0 str0" transform="matrix(3.80035E-14 -1.43493 0.68956 1.82627E-14 116288 157170)" width="7282.58" height="870.12"/>
   <rect class="fil0 str0" transform="matrix(3.80035E-14 -1.43493 0.68956 1.82627E-14 116988 157170)" width="7282.58" height="870.12"/>
   <rect class="fil0 str0" transform="matrix(3.80035E-14 -1.43493 0.68956 1.82627E-14 117688 157170)" width="7282.58" height="870.12"/>
   <rect class="fil0 str0" transform="matrix(3.80035E-14 -1.43493 0.68956 1.82627E-14 118388 157170)" width="7282.58" height="870.12"/>
   <rect class="fil0 str0" transform="matrix(3.80035E-14 -1.43493 0.68956 1.82627E-14 119088 157170)" width="7282.58" height="870.12"/>
   <rect class="fil0 str0" transform="matrix(3.80035E-14 -1.43493 0.68956 1.82627E-14 119788 157170)" width="7282.58" height="870.12"/>
   <rect class="fil0 str0" transform="matrix(3.80035E-14 -1.43493 0.68956 1.82627E-14 120488 157170)" width="7282.58" height="870.12"/>
   <rect class="fil0 str0" transform="matrix(3.80035E-14 -1.43493 0.68956 1.82627E-14 121188 157170)" width="7282.58" height="870.12"/>
   <rect class="fil0 str0" transform="matrix(3.80035E-14 -1.43493 0.68956 1.82627E-14 121888 157170)" width="7282.58" height="870.12"/>
   <rect class="fil0 str0" transform="matrix(3.80035E-14 -1.43493 0.68956 1.82627E-14 122588 157170)" width="7282.58" height="870.12"/>
   <rect class="fil0 str0" transform="matrix(3.80035E-14 -1.43493 0.68956 1.82627E-14 123288 157170)" width="7282.58" height="870.12"/>
   <rect class="fil0 str0" transform="matrix(3.80035E-14 -1.43493 0.68956 1.82627E-14 123988 157170)" width="7282.58" height="870.12"/>
   <rect class="fil0 str0" transform="matrix(3.80035E-14 -1.43493 0.68956 1.82627E-14 124688 157170)" width="7282.58" height="870.12"/>
   <rect class="fil0 str0" transform="matrix(3.80035E-14 -1.43493 0.68956 1.82627E-14 125388 157170)" width="7282.58" height="870.12"/>
   <rect class="fil0 str0" transform="matrix(3.80035E-14 -1.43493 0.68956 1.82627E-14 126088 157170)" width="7282.58" height="870.12"/>
   <rect class="fil0 str0" transform="matrix(3.80035E-14 -1.43493 0.68956 1.82627E-14 126788 157170)" width="7282.58" height="870.12"/>
   <rect class="fil0 str0" transform="matrix(3.80035E-14 -1.43493 0.68956 1.82627E-14 127488 157170)" width="7282.58" height="870.12"/>
   <rect class="fil0 str0" transform="matrix(3.80035E-14 -1.43493 0.68956 1.82627E-14 128188 157170)" width="7282.58" height="870.12"/>
   <rect class="fil0 str0" transform="matrix(3.80035E-14 -1.43493 0.68956 1.82627E-14 128888 157170)" width="7282.58" height="870.12"/>
   <rect class="fil0 str0" transform="matrix(3.80035E-14 -1.43493 0.68956 1.82627E-14 129588 157170)" width="7282.58" height="870.12"/>
   <rect class="fil0 str0" transform="matrix(3.80035E-14 -1.43493 0.68956 1.82627E-14 130288 157170)" width="7282.58" height="870.12"/>
   <rect class="fil0 str0" transform="matrix(3.80035E-14 -1.43493 0.68956 1.82627E-14 130988 157170)" width="7282.58" height="870.12"/>
   <rect class="fil0 str0" transform="matrix(3.80035E-14 -1.43493 0.68956 1.82627E-14 131688 157170)" width="7282.58" height="870.12"/>
   <rect class="fil0 str0" transform="matrix(3.80035E-14 -1.43493 0.68956 1.82627E-14 132388 157170)" width="7282.58" height="870.12"/>
  </g>
  <g id="_2207504366064">
   <rect class="fil0 str0" x="61613.83" y="198758.05" width="10450" height="600"/>
   <rect class="fil0 str0" x="61613.83" y="198058.05" width="10450" height="600"/>
   <rect class="fil0 str0" x="61613.83" y="197358.05" width="10450" height="600"/>
   <rect class="fil0 str0" x="61613.83" y="196658.05" width="10450" height="600"/>
   <rect class="fil0 str0" x="61613.83" y="195958.05" width="10450" height="600"/>
   <rect class="fil0 str0" x="61613.83" y="195258.05" width="10450" height="600"/>
   <rect class="fil0 str0" x="61613.83" y="194558.05" width="10450" height="600"/>
   <rect class="fil0 str0" x="61613.83" y="193858.05" width="10450" height="600"/>
   <rect class="fil0 str0" x="61613.83" y="193158.05" width="10450" height="600"/>
   <rect class="fil0 str0" x="61613.83" y="192458.05" width="10450" height="600"/>
   <rect class="fil0 str0" x="61613.83" y="191758.05" width="10450" height="600"/>
   <rect class="fil0 str0" x="61613.83" y="191058.05" width="10450" height="600"/>
   <rect class="fil0 str0" x="61613.83" y="190358.05" width="10450" height="600"/>
   <rect class="fil0 str0" x="61613.83" y="189658.05" width="10450" height="600"/>
   <rect class="fil0 str0" x="61613.83" y="188958.05" width="10450" height="600"/>
  </g>
  <g id="_2207504366784">
   <rect class="fil0 str0" transform="matrix(3.80035E-14 -1.43493 0.68956 1.82627E-14 114888 199370)" width="7282.58" height="870.12"/>
   <rect class="fil0 str0" transform="matrix(3.80035E-14 -1.43493 0.68956 1.82627E-14 115588 199370)" width="7282.58" height="870.12"/>
   <rect class="fil0 str0" transform="matrix(3.80035E-14 -1.43493 0.68956 1.82627E-14 116288 199370)" width="7282.58" height="870.12"/>
   <rect class="fil0 str0" transform="matrix(3.80035E-14 -1.43493 0.68956 1.82627E-14 116988 199370)" width="7282.58" height="870.12"/>
   <rect class="fil0 str0" transform="matrix(3.80035E-14 -1.43493 0.68956 1.82627E-14 117688 199370)" width="7282.58" height="870.12"/>
   <rect class="fil0 str0" transform="matrix(3.80035E-14 -1.43493 0.68956 1.82627E-14 118388 199370)" width="7282.58" height="870.12"/>
   <rect class="fil0 str0" transform="matrix(3.80035E-14 -1.43493 0.68956 1.82627E-14 119088 199370)" width="7282.58" height="870.12"/>
   <rect class="fil0 str0" transform="matrix(3.80035E-14 -1.43493 0.68956 1.82627E-14 119788 199370)" width="7282.58" height="870.12"/>
   <rect class="fil0 str0" transform="matrix(3.80035E-14 -1.43493 0.68956 1.82627E-14 120488 199370)" width="7282.58" height="870.12"/>
   <rect class="fil0 str0" transform="matrix(3.80035E-14 -1.43493 0.68956 1.82627E-14 121188 199370)" width="7282.58" height="870.12"/>
   <rect class="fil0 str0" transform="matrix(3.80035E-14 -1.43493 0.68956 1.82627E-14 121888 199370)" width="7282.58" height="870.12"/>
   <rect class="fil0 str0" transform="matrix(3.80035E-14 -1.43493 0.68956 1.82627E-14 122588 199370)" width="7282.58" height="870.12"/>
   <rect class="fil0 str0" transform="matrix(3.80035E-14 -1.43493 0.68956 1.82627E-14 123288 199370)" width="7282.58" height="870.12"/>
   <rect class="fil0 str0" transform="matrix(3.80035E-14 -1.43493 0.68956 1.82627E-14 123988 199370)" width="7282.58" height="870.12"/>
   <rect class="fil0 str0" transform="matrix(3.80035E-14 -1.43493 0.68956 1.82627E-14 124688 199370)" width="7282.58" height="870.12"/>
   <rect class="fil0 str0" transform="matrix(3.80035E-14 -1.43493 0.68956 1.82627E-14 125388 199370)" width="7282.58" height="870.12"/>
   <rect class="fil0 str0" transform="matrix(3.80035E-14 -1.43493 0.68956 1.82627E-14 126088 199370)" width="7282.58" height="870.12"/>
   <rect class="fil0 str0" transform="matrix(3.80035E-14 -1.43493 0.68956 1.82627E-14 126788 199370)" width="7282.58" height="870.12"/>
   <rect class="fil0 str0" transform="matrix(3.80035E-14 -1.43493 0.68956 1.82627E-14 127488 199370)" width="7282.58" height="870.12"/>
   <rect class="fil0 str0" transform="matrix(3.80035E-14 -1.43493 0.68956 1.82627E-14 128188 199370)" width="7282.58" height="870.12"/>
   <rect class="fil0 str0" transform="matrix(3.80035E-14 -1.43493 0.68956 1.82627E-14 128888 199370)" width="7282.58" height="870.12"/>
   <rect class="fil0 str0" transform="matrix(3.80035E-14 -1.43493 0.68956 1.82627E-14 129588 199370)" width="7282.58" height="870.12"/>
   <rect class="fil0 str0" transform="matrix(3.80035E-14 -1.43493 0.68956 1.82627E-14 130288 199370)" width="7282.58" height="870.12"/>
   <rect class="fil0 str0" transform="matrix(3.80035E-14 -1.43493 0.68956 1.82627E-14 130988 199370)" width="7282.58" height="870.12"/>
   <rect class="fil0 str0" transform="matrix(3.80035E-14 -1.43493 0.68956 1.82627E-14 131688 199370)" width="7282.58" height="870.12"/>
   <rect class="fil0 str0" transform="matrix(3.80035E-14 -1.43493 0.68956 1.82627E-14 132388 199370)" width="7282.58" height="870.12"/>
  </g>
  <g id="_2207504363328">
   <rect class="fil0 str0" transform="matrix(8.17639E-15 -0.308723 1.55955 4.13594E-14 14059.1 199365)" width="1943.49" height="4296.12"/>
   <rect class="fil0 str0" transform="matrix(8.17639E-15 -0.308723 1.55955 4.13594E-14 14059.1 195865)" width="1943.49" height="4296.12"/>
   <rect class="fil0 str0" transform="matrix(8.17639E-15 -0.308723 1.55955 4.13594E-14 14059.1 195165)" width="1943.49" height="4296.12"/>
   <rect class="fil0 str0" transform="matrix(8.17639E-15 -0.308723 1.55955 4.13594E-14 14059.1 194465)" width="1943.49" height="4296.12"/>
   <rect class="fil0 str0" transform="matrix(8.17639E-15 -0.308723 1.55955 4.13594E-14 14059.1 193765)" width="1943.49" height="4296.12"/>
   <rect class="fil0 str0" transform="matrix(8.17639E-15 -0.308723 1.55955 4.13594E-14 14059.1 193065)" width="1943.49" height="4296.12"/>
   <rect class="fil0 str0" transform="matrix(8.17639E-15 -0.308723 1.55955 4.13594E-14 14059.1 192365)" width="1943.49" height="4296.12"/>
   <rect class="fil0 str0" transform="matrix(8.17639E-15 -0.308723 1.55955 4.13594E-14 14059.1 191665)" width="1943.49" height="4296.12"/>
   <rect class="fil0 str0" transform="matrix(8.17639E-15 -0.308723 1.55955 4.13594E-14 14059.1 190965)" width="1943.49" height="4296.12"/>
   <rect class="fil0 str0" transform="matrix(8.17639E-15 -0.308723 1.55955 4.13594E-14 14059.1 190265)" width="1943.49" height="4296.12"/>
   <rect class="fil0 str0" transform="matrix(8.17639E-15 -0.308723 1.55955 4.13594E-14 14059.1 189565)" width="1943.49" height="4296.12"/>
   <rect class="fil0 str0" transform="matrix(8.17639E-15 -0.308723 1.55955 4.13594E-14 14059.1 197265)" width="1943.49" height="4296.12"/>
   <rect class="fil0 str0" transform="matrix(8.17639E-15 -0.308723 1.55955 4.13594E-14 14059.1 196565)" width="1943.49" height="4296.12"/>
   <rect class="fil0 str0" transform="matrix(8.17639E-15 -0.308723 1.55955 4.13594E-14 14059.1 197965)" width="1943.49" height="4296.12"/>
   <rect class="fil0 str0" transform="matrix(8.17639E-15 -0.308723 1.55955 4.13594E-14 14059.1 198665)" width="1943.49" height="4296.12"/>
  </g>
  <g id="_2207504361888">
   <rect class="fil0 str0" transform="matrix(8.17639E-15 -0.308723 1.55955 4.13594E-14 20859.1 199365)" width="1943.49" height="4296.12"/>
   <rect class="fil0 str0" transform="matrix(8.17639E-15 -0.308723 1.55955 4.13594E-14 20859.1 195865)" width="1943.49" height="4296.12"/>
   <rect class="fil0 str0" transform="matrix(8.17639E-15 -0.308723 1.55955 4.13594E-14 20859.1 195165)" width="1943.49" height="4296.12"/>
   <rect class="fil0 str0" transform="matrix(8.17639E-15 -0.308723 1.55955 4.13594E-14 20859.1 194465)" width="1943.49" height="4296.12"/>
   <rect class="fil0 str0" transform="matrix(8.17639E-15 -0.308723 1.55955 4.13594E-14 20859.1 193765)" width="1943.49" height="4296.12"/>
   <rect class="fil0 str0" transform="matrix(8.17639E-15 -0.308723 1.55955 4.13594E-14 20859.1 193065)" width="1943.49" height="4296.12"/>
   <rect class="fil0 str0" transform="matrix(8.17639E-15 -0.308723 1.55955 4.13594E-14 20859.1 192365)" width="1943.49" height="4296.12"/>
   <rect class="fil0 str0" transform="matrix(8.17639E-15 -0.308723 1.55955 4.13594E-14 20859.1 191665)" width="1943.49" height="4296.12"/>
   <rect class="fil0 str0" transform="matrix(8.17639E-15 -0.308723 1.55955 4.13594E-14 20859.1 190965)" width="1943.49" height="4296.12"/>
   <rect class="fil0 str0" transform="matrix(8.17639E-15 -0.308723 1.55955 4.13594E-14 20859.1 190265)" width="1943.49" height="4296.12"/>
   <rect class="fil0 str0" transform="matrix(8.17639E-15 -0.308723 1.55955 4.13594E-14 20859.1 189565)" width="1943.49" height="4296.12"/>
   <rect class="fil0 str0" transform="matrix(8.17639E-15 -0.308723 1.55955 4.13594E-14 20859.1 197265)" width="1943.49" height="4296.12"/>
   <rect class="fil0 str0" transform="matrix(8.17639E-15 -0.308723 1.55955 4.13594E-14 20859.1 196565)" width="1943.49" height="4296.12"/>
   <rect class="fil0 str0" transform="matrix(8.17639E-15 -0.308723 1.55955 4.13594E-14 20859.1 197965)" width="1943.49" height="4296.12"/>
   <rect class="fil0 str0" transform="matrix(8.17639E-15 -0.308723 1.55955 4.13594E-14 20859.1 198665)" width="1943.49" height="4296.12"/>
  </g>
  <g id="_2207504360688">
   <rect class="fil0 str0" transform="matrix(8.17639E-15 -0.308723 1.55955 4.13594E-14 27659.1 199365)" width="1943.49" height="4296.12"/>
   <rect class="fil0 str0" transform="matrix(8.17639E-15 -0.308723 1.55955 4.13594E-14 27659.1 195865)" width="1943.49" height="4296.12"/>
   <rect class="fil0 str0" transform="matrix(8.17639E-15 -0.308723 1.55955 4.13594E-14 27659.1 195165)" width="1943.49" height="4296.12"/>
   <rect class="fil0 str0" transform="matrix(8.17639E-15 -0.308723 1.55955 4.13594E-14 27659.1 194465)" width="1943.49" height="4296.12"/>
   <rect class="fil0 str0" transform="matrix(8.17639E-15 -0.308723 1.55955 4.13594E-14 27659.1 193765)" width="1943.49" height="4296.12"/>
   <rect class="fil0 str0" transform="matrix(8.17639E-15 -0.308723 1.55955 4.13594E-14 27659.1 193065)" width="1943.49" height="4296.12"/>
   <rect class="fil0 str0" transform="matrix(8.17639E-15 -0.308723 1.55955 4.13594E-14 27659.1 192365)" width="1943.49" height="4296.12"/>
   <rect class="fil0 str0" transform="matrix(8.17639E-15 -0.308723 1.55955 4.13594E-14 27659.1 191665)" width="1943.49" height="4296.12"/>
   <rect class="fil0 str0" transform="matrix(8.17639E-15 -0.308723 1.55955 4.13594E-14 27659.1 190965)" width="1943.49" height="4296.12"/>
   <rect class="fil0 str0" transform="matrix(8.17639E-15 -0.308723 1.55955 4.13594E-14 27659.1 190265)" width="1943.49" height="4296.12"/>
   <rect class="fil0 str0" transform="matrix(8.17639E-15 -0.308723 1.55955 4.13594E-14 27659.1 189565)" width="1943.49" height="4296.12"/>
   <rect class="fil0 str0" transform="matrix(8.17639E-15 -0.308723 1.55955 4.13594E-14 27659.1 197265)" width="1943.49" height="4296.12"/>
   <rect class="fil0 str0" transform="matrix(8.17639E-15 -0.308723 1.55955 4.13594E-14 27659.1 196565)" width="1943.49" height="4296.12"/>
   <rect class="fil0 str0" transform="matrix(8.17639E-15 -0.308723 1.55955 4.13594E-14 27659.1 197965)" width="1943.49" height="4296.12"/>
   <rect class="fil0 str0" transform="matrix(8.17639E-15 -0.308723 1.55955 4.13594E-14 27659.1 198665)" width="1943.49" height="4296.12"/>
  </g>
  <g id="_2207504358528">
   <rect class="fil0 str0" transform="matrix(8.17639E-15 -0.308723 1.55955 4.13594E-14 34459.1 199365)" width="1943.49" height="4296.12"/>
   <rect class="fil0 str0" transform="matrix(8.17639E-15 -0.308723 1.55955 4.13594E-14 34459.1 195865)" width="1943.49" height="4296.12"/>
   <rect class="fil0 str0" transform="matrix(8.17639E-15 -0.308723 1.55955 4.13594E-14 34459.1 195165)" width="1943.49" height="4296.12"/>
   <rect class="fil0 str0" transform="matrix(8.17639E-15 -0.308723 1.55955 4.13594E-14 34459.1 194465)" width="1943.49" height="4296.12"/>
   <rect class="fil0 str0" transform="matrix(8.17639E-15 -0.308723 1.55955 4.13594E-14 34459.1 193765)" width="1943.49" height="4296.12"/>
   <rect class="fil0 str0" transform="matrix(8.17639E-15 -0.308723 1.55955 4.13594E-14 34459.1 193065)" width="1943.49" height="4296.12"/>
   <rect class="fil0 str0" transform="matrix(8.17639E-15 -0.308723 1.55955 4.13594E-14 34459.1 192365)" width="1943.49" height="4296.12"/>
   <rect class="fil0 str0" transform="matrix(8.17639E-15 -0.308723 1.55955 4.13594E-14 34459.1 191665)" width="1943.49" height="4296.12"/>
   <rect class="fil0 str0" transform="matrix(8.17639E-15 -0.308723 1.55955 4.13594E-14 34459.1 190965)" width="1943.49" height="4296.12"/>
   <rect class="fil0 str0" transform="matrix(8.17639E-15 -0.308723 1.55955 4.13594E-14 34459.1 190265)" width="1943.49" height="4296.12"/>
   <rect class="fil0 str0" transform="matrix(8.17639E-15 -0.308723 1.55955 4.13594E-14 34459.1 189565)" width="1943.49" height="4296.12"/>
   <rect class="fil0 str0" transform="matrix(8.17639E-15 -0.308723 1.55955 4.13594E-14 34459.1 197265)" width="1943.49" height="4296.12"/>
   <rect class="fil0 str0" transform="matrix(8.17639E-15 -0.308723 1.55955 4.13594E-14 34459.1 196565)" width="1943.49" height="4296.12"/>
   <rect class="fil0 str0" transform="matrix(8.17639E-15 -0.308723 1.55955 4.13594E-14 34459.1 197965)" width="1943.49" height="4296.12"/>
   <rect class="fil0 str0" transform="matrix(8.17639E-15 -0.308723 1.55955 4.13594E-14 34459.1 198665)" width="1943.49" height="4296.12"/>
  </g>
  <g id="_2207504355744">
   <rect class="fil0 str0" transform="matrix(8.17639E-15 -0.308723 1.55955 4.13594E-14 41259.1 199365)" width="1943.49" height="4296.12"/>
   <rect class="fil0 str0" transform="matrix(8.17639E-15 -0.308723 1.55955 4.13594E-14 41259.1 195865)" width="1943.49" height="4296.12"/>
   <rect class="fil0 str0" transform="matrix(8.17639E-15 -0.308723 1.55955 4.13594E-14 41259.1 195165)" width="1943.49" height="4296.12"/>
   <rect class="fil0 str0" transform="matrix(8.17639E-15 -0.308723 1.55955 4.13594E-14 41259.1 194465)" width="1943.49" height="4296.12"/>
   <rect class="fil0 str0" transform="matrix(8.17639E-15 -0.308723 1.55955 4.13594E-14 41259.1 193765)" width="1943.49" height="4296.12"/>
   <rect class="fil0 str0" transform="matrix(8.17639E-15 -0.308723 1.55955 4.13594E-14 41259.1 193065)" width="1943.49" height="4296.12"/>
   <rect class="fil0 str0" transform="matrix(8.17639E-15 -0.308723 1.55955 4.13594E-14 41259.1 192365)" width="1943.49" height="4296.12"/>
   <rect class="fil0 str0" transform="matrix(8.17639E-15 -0.308723 1.55955 4.13594E-14 41259.1 191665)" width="1943.49" height="4296.12"/>
   <rect class="fil0 str0" transform="matrix(8.17639E-15 -0.308723 1.55955 4.13594E-14 41259.1 190965)" width="1943.49" height="4296.12"/>
   <rect class="fil0 str0" transform="matrix(8.17639E-15 -0.308723 1.55955 4.13594E-14 41259.1 190265)" width="1943.49" height="4296.12"/>
   <rect class="fil0 str0" transform="matrix(8.17639E-15 -0.308723 1.55955 4.13594E-14 41259.1 189565)" width="1943.49" height="4296.12"/>
   <rect class="fil0 str0" transform="matrix(8.17639E-15 -0.308723 1.55955 4.13594E-14 41259.1 197265)" width="1943.49" height="4296.12"/>
   <rect class="fil0 str0" transform="matrix(8.17639E-15 -0.308723 1.55955 4.13594E-14 41259.1 196565)" width="1943.49" height="4296.12"/>
   <rect class="fil0 str0" transform="matrix(8.17639E-15 -0.308723 1.55955 4.13594E-14 41259.1 197965)" width="1943.49" height="4296.12"/>
   <rect class="fil0 str0" transform="matrix(8.17639E-15 -0.308723 1.55955 4.13594E-14 41259.1 198665)" width="1943.49" height="4296.12"/>
  </g>
  <g id="_2207504356320">
   <rect class="fil0 str0" transform="matrix(8.17639E-15 -0.308723 1.55955 4.13594E-14 48059.1 199365)" width="1943.49" height="4296.12"/>
   <rect class="fil0 str0" transform="matrix(8.17639E-15 -0.308723 1.55955 4.13594E-14 48059.1 195865)" width="1943.49" height="4296.12"/>
   <rect class="fil0 str0" transform="matrix(8.17639E-15 -0.308723 1.55955 4.13594E-14 48059.1 195165)" width="1943.49" height="4296.12"/>
   <rect class="fil0 str0" transform="matrix(8.17639E-15 -0.308723 1.55955 4.13594E-14 48059.1 194465)" width="1943.49" height="4296.12"/>
   <rect class="fil0 str0" transform="matrix(8.17639E-15 -0.308723 1.55955 4.13594E-14 48059.1 193765)" width="1943.49" height="4296.12"/>
   <rect class="fil0 str0" transform="matrix(8.17639E-15 -0.308723 1.55955 4.13594E-14 48059.1 193065)" width="1943.49" height="4296.12"/>
   <rect class="fil0 str0" transform="matrix(8.17639E-15 -0.308723 1.55955 4.13594E-14 48059.1 192365)" width="1943.49" height="4296.12"/>
   <rect class="fil0 str0" transform="matrix(8.17639E-15 -0.308723 1.55955 4.13594E-14 48059.1 191665)" width="1943.49" height="4296.12"/>
   <rect class="fil0 str0" transform="matrix(8.17639E-15 -0.308723 1.55955 4.13594E-14 48059.1 190965)" width="1943.49" height="4296.12"/>
   <rect class="fil0 str0" transform="matrix(8.17639E-15 -0.308723 1.55955 4.13594E-14 48059.1 190265)" width="1943.49" height="4296.12"/>
   <rect class="fil0 str0" transform="matrix(8.17639E-15 -0.308723 1.55955 4.13594E-14 48059.1 189565)" width="1943.49" height="4296.12"/>
   <rect class="fil0 str0" transform="matrix(8.17639E-15 -0.308723 1.55955 4.13594E-14 48059.1 197265)" width="1943.49" height="4296.12"/>
   <rect class="fil0 str0" transform="matrix(8.17639E-15 -0.308723 1.55955 4.13594E-14 48059.1 196565)" width="1943.49" height="4296.12"/>
   <rect class="fil0 str0" transform="matrix(8.17639E-15 -0.308723 1.55955 4.13594E-14 48059.1 197965)" width="1943.49" height="4296.12"/>
   <rect class="fil0 str0" transform="matrix(8.17639E-15 -0.308723 1.55955 4.13594E-14 48059.1 198665)" width="1943.49" height="4296.12"/>
  </g>
  <g id="_2207504352288">
   <rect class="fil0 str0" transform="matrix(8.17639E-15 -0.308723 1.55955 4.13594E-14 54859.1 199365)" width="1943.49" height="4296.12"/>
   <rect class="fil0 str0" transform="matrix(8.17639E-15 -0.308723 1.55955 4.13594E-14 54859.1 195865)" width="1943.49" height="4296.12"/>
   <rect class="fil0 str0" transform="matrix(8.17639E-15 -0.308723 1.55955 4.13594E-14 54859.1 195165)" width="1943.49" height="4296.12"/>
   <rect class="fil0 str0" transform="matrix(8.17639E-15 -0.308723 1.55955 4.13594E-14 54859.1 194465)" width="1943.49" height="4296.12"/>
   <rect class="fil0 str0" transform="matrix(8.17639E-15 -0.308723 1.55955 4.13594E-14 54859.1 193765)" width="1943.49" height="4296.12"/>
   <rect class="fil0 str0" transform="matrix(8.17639E-15 -0.308723 1.55955 4.13594E-14 54859.1 193065)" width="1943.49" height="4296.12"/>
   <rect class="fil0 str0" transform="matrix(8.17639E-15 -0.308723 1.55955 4.13594E-14 54859.1 192365)" width="1943.49" height="4296.12"/>
   <rect class="fil0 str0" transform="matrix(8.17639E-15 -0.308723 1.55955 4.13594E-14 54859.1 191665)" width="1943.49" height="4296.12"/>
   <rect class="fil0 str0" transform="matrix(8.17639E-15 -0.308723 1.55955 4.13594E-14 54859.1 190965)" width="1943.49" height="4296.12"/>
   <rect class="fil0 str0" transform="matrix(8.17639E-15 -0.308723 1.55955 4.13594E-14 54859.1 190265)" width="1943.49" height="4296.12"/>
   <rect class="fil0 str0" transform="matrix(8.17639E-15 -0.308723 1.55955 4.13594E-14 54859.1 189565)" width="1943.49" height="4296.12"/>
   <rect class="fil0 str0" transform="matrix(8.17639E-15 -0.308723 1.55955 4.13594E-14 54859.1 197265)" width="1943.49" height="4296.12"/>
   <rect class="fil0 str0" transform="matrix(8.17639E-15 -0.308723 1.55955 4.13594E-14 54859.1 196565)" width="1943.49" height="4296.12"/>
   <rect class="fil0 str0" transform="matrix(8.17639E-15 -0.308723 1.55955 4.13594E-14 54859.1 197965)" width="1943.49" height="4296.12"/>
   <rect class="fil0 str0" transform="matrix(8.17639E-15 -0.308723 1.55955 4.13594E-14 54859.1 198665)" width="1943.49" height="4296.12"/>
  </g>
  <g id="_2207504354112">
   <rect class="fil0 str0" x="72163.83" y="198758.05" width="10450" height="600"/>
   <rect class="fil0 str0" x="72163.83" y="198058.05" width="10450" height="600"/>
   <rect class="fil0 str0" x="72163.83" y="197358.05" width="10450" height="600"/>
   <rect class="fil0 str0" x="72163.83" y="196658.05" width="10450" height="600"/>
   <rect class="fil0 str0" x="72163.83" y="195958.05" width="10450" height="600"/>
   <rect class="fil0 str0" x="72163.83" y="195258.05" width="10450" height="600"/>
   <rect class="fil0 str0" x="72163.83" y="194558.05" width="10450" height="600"/>
   <rect class="fil0 str0" x="72163.83" y="193858.05" width="10450" height="600"/>
   <rect class="fil0 str0" x="72163.83" y="193158.05" width="10450" height="600"/>
   <rect class="fil0 str0" x="72163.83" y="192458.05" width="10450" height="600"/>
   <rect class="fil0 str0" x="72163.83" y="191758.05" width="10450" height="600"/>
   <rect class="fil0 str0" x="72163.83" y="191058.05" width="10450" height="600"/>
   <rect class="fil0 str0" x="72163.83" y="190358.05" width="10450" height="600"/>
   <rect class="fil0 str0" x="72163.83" y="189658.05" width="10450" height="600"/>
   <rect class="fil0 str0" x="72163.83" y="188958.05" width="10450" height="600"/>
  </g>
  <g id="_2207504351328">
   <rect class="fil0 str0" x="82713.83" y="198758.05" width="10450" height="600"/>
   <rect class="fil0 str0" x="82713.83" y="198058.05" width="10450" height="600"/>
   <rect class="fil0 str0" x="82713.83" y="197358.05" width="10450" height="600"/>
   <rect class="fil0 str0" x="82713.83" y="196658.05" width="10450" height="600"/>
   <rect class="fil0 str0" x="82713.83" y="195958.05" width="10450" height="600"/>
   <rect class="fil0 str0" x="82713.83" y="195258.05" width="10450" height="600"/>
   <rect class="fil0 str0" x="82713.83" y="194558.05" width="10450" height="600"/>
   <rect class="fil0 str0" x="82713.83" y="193858.05" width="10450" height="600"/>
   <rect class="fil0 str0" x="82713.83" y="193158.05" width="10450" height="600"/>
   <rect class="fil0 str0" x="82713.83" y="192458.05" width="10450" height="600"/>
   <rect class="fil0 str0" x="82713.83" y="191758.05" width="10450" height="600"/>
   <rect class="fil0 str0" x="82713.83" y="191058.05" width="10450" height="600"/>
   <rect class="fil0 str0" x="82713.83" y="190358.05" width="10450" height="600"/>
   <rect class="fil0 str0" x="82713.83" y="189658.05" width="10450" height="600"/>
   <rect class="fil0 str0" x="82713.83" y="188958.05" width="10450" height="600"/>
  </g>
  <g id="_2207504351280">
   <rect class="fil0 str0" x="93263.83" y="198758.05" width="10450" height="600"/>
   <rect class="fil0 str0" x="93263.83" y="198058.05" width="10450" height="600"/>
   <rect class="fil0 str0" x="93263.83" y="197358.05" width="10450" height="600"/>
   <rect class="fil0 str0" x="93263.83" y="196658.05" width="10450" height="600"/>
   <rect class="fil0 str0" x="93263.83" y="195958.05" width="10450" height="600"/>
   <rect class="fil0 str0" x="93263.83" y="195258.05" width="10450" height="600"/>
   <rect class="fil0 str0" x="93263.83" y="194558.05" width="10450" height="600"/>
   <rect class="fil0 str0" x="93263.83" y="193858.05" width="10450" height="600"/>
   <rect class="fil0 str0" x="93263.83" y="193158.05" width="10450" height="600"/>
   <rect class="fil0 str0" x="93263.83" y="192458.05" width="10450" height="600"/>
   <rect class="fil0 str0" x="93263.83" y="191758.05" width="10450" height="600"/>
   <rect class="fil0 str0" x="93263.83" y="191058.05" width="10450" height="600"/>
   <rect class="fil0 str0" x="93263.83" y="190358.05" width="10450" height="600"/>
   <rect class="fil0 str0" x="93263.83" y="189658.05" width="10450" height="600"/>
   <rect class="fil0 str0" x="93263.83" y="188958.05" width="10450" height="600"/>
  </g>
  <g id="_2207504347440">
   <rect class="fil0 str0" x="103813.83" y="198758.05" width="10450" height="600"/>
   <rect class="fil0 str0" x="103813.83" y="198058.05" width="10450" height="600"/>
   <rect class="fil0 str0" x="103813.83" y="197358.05" width="10450" height="600"/>
   <rect class="fil0 str0" x="103813.83" y="196658.05" width="10450" height="600"/>
   <rect class="fil0 str0" x="103813.83" y="195958.05" width="10450" height="600"/>
   <rect class="fil0 str0" x="103813.83" y="195258.05" width="10450" height="600"/>
   <rect class="fil0 str0" x="103813.83" y="194558.05" width="10450" height="600"/>
   <rect class="fil0 str0" x="103813.83" y="193858.05" width="10450" height="600"/>
   <rect class="fil0 str0" x="103813.83" y="193158.05" width="10450" height="600"/>
   <rect class="fil0 str0" x="103813.83" y="192458.05" width="10450" height="600"/>
   <rect class="fil0 str0" x="103813.83" y="191758.05" width="10450" height="600"/>
   <rect class="fil0 str0" x="103813.83" y="191058.05" width="10450" height="600"/>
   <rect class="fil0 str0" x="103813.83" y="190358.05" width="10450" height="600"/>
   <rect class="fil0 str0" x="103813.83" y="189658.05" width="10450" height="600"/>
   <rect class="fil0 str0" x="103813.83" y="188958.05" width="10450" height="600"/>
  </g>
  <g id="_2207504347344">
   <path class="fil0 str0" d="M114860.51 134592.46l11100 0 0 6700 -11100 0 0 -1664.87c930.67,0 1685.13,-754.46 1685.13,-1685.13 0,-930.67 -754.46,-1685.13 -1685.13,-1685.13l0 -1664.87z"/>
   <path class="fil0 str0" d="M114860.51 127792.46l11100 0 0 6700 -11100 0 0 -1664.87c930.67,0 1685.13,-754.46 1685.13,-1685.13 0,-930.67 -754.46,-1685.13 -1685.13,-1685.13l0 -1664.87z"/>
   <path class="fil0 str0" d="M114860.51 120992.46l11100 0 0 6700 -11100 0 0 -1664.87c930.67,0 1685.13,-754.46 1685.13,-1685.13 0,-930.67 -754.46,-1685.13 -1685.13,-1685.13l0 -1664.87z"/>
  </g>
  <path class="fil0 str0" d="M126063.34 132083.33l0 -11100 6700 0 0 11100 -1664.87 0c0,-930.67 -754.46,-1685.13 -1685.13,-1685.13 -930.67,0 -1685.13,754.46 -1685.13,1685.13l-1664.87 0z"/>
  <path class="fil0 str0" d="M126063.34 143270.79l0 -11100 6700 0 0 11100 -1664.87 0c0,-930.67 -754.46,-1685.13 -1685.13,-1685.13 -930.67,0 -1685.13,754.46 -1685.13,1685.13l-1664.87 0z"/>
 </g>
</svg>
