<?xml version="1.0" encoding="UTF-8"?>
<!DOCTYPE svg PUBLIC "-//W3C//DTD SVG 1.1//EN" "http://www.w3.org/Graphics/SVG/1.1/DTD/svg11.dtd">
<!-- Creator: CorelDRAW -->
<svg xmlns="http://www.w3.org/2000/svg" xml:space="preserve" width="210mm" height="297mm" version="1.1" style="shape-rendering:geometricPrecision; text-rendering:geometricPrecision; image-rendering:optimizeQuality; fill-rule:evenodd; clip-rule:evenodd"
viewBox="0 0 21000 29700"
 xmlns:xlink="http://www.w3.org/1999/xlink"
 xmlns:xodm="http://www.corel.com/coreldraw/odm/2003">
 <defs>
  <style type="text/css">
   <![CDATA[
    .str0 {stroke:#2B2A29;stroke-width:20;stroke-miterlimit:22.9256}
    .str1 {stroke:#E31E24;stroke-width:7.62;stroke-miterlimit:22.9256}
    .fil0 {fill:none}
   ]]>
  </style>
 </defs>
 <g id="Layer_x0020_1">
  <metadata id="CorelCorpID_0Corel-Layer"/>
  <rect class="fil0 str0" x="-36706.08" y="18502.22" width="119380" height="78740"/>
  <g id="_2041362180448">
   <path class="fil0 str1" d="M-36616.8 86587.1l11100 0 0 6700 -11100 0 0 -1664.87c930.67,0 1685.13,-754.46 1685.13,-1685.13 0,-930.67 -754.46,-1685.13 -1685.13,-1685.13l0 -1664.87z"/>
   <path class="fil0 str1" d="M-25416.8 86587.1l11100 0 0 6700 -11100 0 0 -1664.87c930.67,0 1685.13,-754.46 1685.13,-1685.13 0,-930.67 -754.46,-1685.13 -1685.13,-1685.13l0 -1664.87z"/>
   <path class="fil0 str1" d="M-14216.8 86587.1l11100 0 0 6700 -11100 0 0 -1664.87c930.67,0 1685.13,-754.46 1685.13,-1685.13 0,-930.67 -754.46,-1685.13 -1685.13,-1685.13l0 -1664.87z"/>
   <path class="fil0 str1" d="M-3016.8 86587.1l11100 0 0 6700 -11100 0 0 -1664.87c930.67,0 1685.13,-754.46 1685.13,-1685.13 0,-930.67 -754.46,-1685.13 -1685.13,-1685.13l0 -1664.87z"/>
   <path class="fil0 str1" d="M8183.2 86587.1l11100 0 0 6700 -11100 0 0 -1664.87c930.67,0 1685.13,-754.46 1685.13,-1685.13 0,-930.67 -754.46,-1685.13 -1685.13,-1685.13l0 -1664.87z"/>
   <path class="fil0 str1" d="M19383.2 86587.1l11100 0 0 6700 -11100 0 0 -1664.87c930.67,0 1685.13,-754.46 1685.13,-1685.13 0,-930.67 -754.46,-1685.13 -1685.13,-1685.13l0 -1664.87z"/>
   <path class="fil0 str1" d="M30583.2 86587.1l11100 0 0 6700 -11100 0 0 -1664.87c930.67,0 1685.13,-754.46 1685.13,-1685.13 0,-930.67 -754.46,-1685.13 -1685.13,-1685.13l0 -1664.87z"/>
   <path class="fil0 str1" d="M41783.2 86587.1l11100 0 0 6700 -11100 0 0 -1664.87c930.67,0 1685.13,-754.46 1685.13,-1685.13 0,-930.67 -754.46,-1685.13 -1685.13,-1685.13l0 -1664.87z"/>
   <path class="fil0 str1" d="M52983.2 86587.1l11100 0 0 6700 -11100 0 0 -1664.87c930.67,0 1685.13,-754.46 1685.13,-1685.13 0,-930.67 -754.46,-1685.13 -1685.13,-1685.13l0 -1664.87z"/>
   <path class="fil0 str1" d="M64183.2 86587.1l11100 0 0 6700 -11100 0 0 -1664.87c930.67,0 1685.13,-754.46 1685.13,-1685.13 0,-930.67 -754.46,-1685.13 -1685.13,-1685.13l0 -1664.87z"/>
  </g>
  <g id="_2041362359504">
   <path class="fil0 str1" d="M-36616.8 79787.1l11100 0 0 6700 -11100 0 0 -1664.87c930.67,0 1685.13,-754.46 1685.13,-1685.13 0,-930.67 -754.46,-1685.13 -1685.13,-1685.13l0 -1664.87z"/>
   <path class="fil0 str1" d="M-25416.8 79787.1l11100 0 0 6700 -11100 0 0 -1664.87c930.67,0 1685.13,-754.46 1685.13,-1685.13 0,-930.67 -754.46,-1685.13 -1685.13,-1685.13l0 -1664.87z"/>
   <path class="fil0 str1" d="M-14216.8 79787.1l11100 0 0 6700 -11100 0 0 -1664.87c930.67,0 1685.13,-754.46 1685.13,-1685.13 0,-930.67 -754.46,-1685.13 -1685.13,-1685.13l0 -1664.87z"/>
   <path class="fil0 str1" d="M-3016.8 79787.1l11100 0 0 6700 -11100 0 0 -1664.87c930.67,0 1685.13,-754.46 1685.13,-1685.13 0,-930.67 -754.46,-1685.13 -1685.13,-1685.13l0 -1664.87z"/>
   <path class="fil0 str1" d="M8183.2 79787.1l11100 0 0 6700 -11100 0 0 -1664.87c930.67,0 1685.13,-754.46 1685.13,-1685.13 0,-930.67 -754.46,-1685.13 -1685.13,-1685.13l0 -1664.87z"/>
   <path class="fil0 str1" d="M19383.2 79787.1l11100 0 0 6700 -11100 0 0 -1664.87c930.67,0 1685.13,-754.46 1685.13,-1685.13 0,-930.67 -754.46,-1685.13 -1685.13,-1685.13l0 -1664.87z"/>
   <path class="fil0 str1" d="M30583.2 79787.1l11100 0 0 6700 -11100 0 0 -1664.87c930.67,0 1685.13,-754.46 1685.13,-1685.13 0,-930.67 -754.46,-1685.13 -1685.13,-1685.13l0 -1664.87z"/>
   <path class="fil0 str1" d="M41783.2 79787.1l11100 0 0 6700 -11100 0 0 -1664.87c930.67,0 1685.13,-754.46 1685.13,-1685.13 0,-930.67 -754.46,-1685.13 -1685.13,-1685.13l0 -1664.87z"/>
   <path class="fil0 str1" d="M52983.2 79787.1l11100 0 0 6700 -11100 0 0 -1664.87c930.67,0 1685.13,-754.46 1685.13,-1685.13 0,-930.67 -754.46,-1685.13 -1685.13,-1685.13l0 -1664.87z"/>
   <path class="fil0 str1" d="M64183.2 79787.1l11100 0 0 6700 -11100 0 0 -1664.87c930.67,0 1685.13,-754.46 1685.13,-1685.13 0,-930.67 -754.46,-1685.13 -1685.13,-1685.13l0 -1664.87z"/>
  </g>
  <g id="_2041362419312">
   <path class="fil0 str1" d="M-36616.8 72987.1l11100 0 0 6700 -11100 0 0 -1664.87c930.67,0 1685.13,-754.46 1685.13,-1685.13 0,-930.67 -754.46,-1685.13 -1685.13,-1685.13l0 -1664.87z"/>
   <path class="fil0 str1" d="M-25416.8 72987.1l11100 0 0 6700 -11100 0 0 -1664.87c930.67,0 1685.13,-754.46 1685.13,-1685.13 0,-930.67 -754.46,-1685.13 -1685.13,-1685.13l0 -1664.87z"/>
   <path class="fil0 str1" d="M-14216.8 72987.1l11100 0 0 6700 -11100 0 0 -1664.87c930.67,0 1685.13,-754.46 1685.13,-1685.13 0,-930.67 -754.46,-1685.13 -1685.13,-1685.13l0 -1664.87z"/>
   <path class="fil0 str1" d="M-3016.8 72987.1l11100 0 0 6700 -11100 0 0 -1664.87c930.67,0 1685.13,-754.46 1685.13,-1685.13 0,-930.67 -754.46,-1685.13 -1685.13,-1685.13l0 -1664.87z"/>
   <path class="fil0 str1" d="M8183.2 72987.1l11100 0 0 6700 -11100 0 0 -1664.87c930.67,0 1685.13,-754.46 1685.13,-1685.13 0,-930.67 -754.46,-1685.13 -1685.13,-1685.13l0 -1664.87z"/>
   <path class="fil0 str1" d="M19383.2 72987.1l11100 0 0 6700 -11100 0 0 -1664.87c930.67,0 1685.13,-754.46 1685.13,-1685.13 0,-930.67 -754.46,-1685.13 -1685.13,-1685.13l0 -1664.87z"/>
   <path class="fil0 str1" d="M30583.2 72987.1l11100 0 0 6700 -11100 0 0 -1664.87c930.67,0 1685.13,-754.46 1685.13,-1685.13 0,-930.67 -754.46,-1685.13 -1685.13,-1685.13l0 -1664.87z"/>
   <path class="fil0 str1" d="M41783.2 72987.1l11100 0 0 6700 -11100 0 0 -1664.87c930.67,0 1685.13,-754.46 1685.13,-1685.13 0,-930.67 -754.46,-1685.13 -1685.13,-1685.13l0 -1664.87z"/>
   <path class="fil0 str1" d="M52983.2 72987.1l11100 0 0 6700 -11100 0 0 -1664.87c930.67,0 1685.13,-754.46 1685.13,-1685.13 0,-930.67 -754.46,-1685.13 -1685.13,-1685.13l0 -1664.87z"/>
   <path class="fil0 str1" d="M64183.2 72987.1l11100 0 0 6700 -11100 0 0 -1664.87c930.67,0 1685.13,-754.46 1685.13,-1685.13 0,-930.67 -754.46,-1685.13 -1685.13,-1685.13l0 -1664.87z"/>
  </g>
  <g id="_2041362417920">
   <path class="fil0 str1" d="M-36616.8 66187.1l11100 0 0 6700 -11100 0 0 -1664.87c930.67,0 1685.13,-754.46 1685.13,-1685.13 0,-930.67 -754.46,-1685.13 -1685.13,-1685.13l0 -1664.87z"/>
   <path class="fil0 str1" d="M-25416.8 66187.1l11100 0 0 6700 -11100 0 0 -1664.87c930.67,0 1685.13,-754.46 1685.13,-1685.13 0,-930.67 -754.46,-1685.13 -1685.13,-1685.13l0 -1664.87z"/>
   <path class="fil0 str1" d="M-14216.8 66187.1l11100 0 0 6700 -11100 0 0 -1664.87c930.67,0 1685.13,-754.46 1685.13,-1685.13 0,-930.67 -754.46,-1685.13 -1685.13,-1685.13l0 -1664.87z"/>
   <path class="fil0 str1" d="M-3016.8 66187.1l11100 0 0 6700 -11100 0 0 -1664.87c930.67,0 1685.13,-754.46 1685.13,-1685.13 0,-930.67 -754.46,-1685.13 -1685.13,-1685.13l0 -1664.87z"/>
   <path class="fil0 str1" d="M8183.2 66187.1l11100 0 0 6700 -11100 0 0 -1664.87c930.67,0 1685.13,-754.46 1685.13,-1685.13 0,-930.67 -754.46,-1685.13 -1685.13,-1685.13l0 -1664.87z"/>
   <path class="fil0 str1" d="M19383.2 66187.1l11100 0 0 6700 -11100 0 0 -1664.87c930.67,0 1685.13,-754.46 1685.13,-1685.13 0,-930.67 -754.46,-1685.13 -1685.13,-1685.13l0 -1664.87z"/>
   <path class="fil0 str1" d="M30583.2 66187.1l11100 0 0 6700 -11100 0 0 -1664.87c930.67,0 1685.13,-754.46 1685.13,-1685.13 0,-930.67 -754.46,-1685.13 -1685.13,-1685.13l0 -1664.87z"/>
   <path class="fil0 str1" d="M41783.2 66187.1l11100 0 0 6700 -11100 0 0 -1664.87c930.67,0 1685.13,-754.46 1685.13,-1685.13 0,-930.67 -754.46,-1685.13 -1685.13,-1685.13l0 -1664.87z"/>
   <path class="fil0 str1" d="M52983.2 66187.1l11100 0 0 6700 -11100 0 0 -1664.87c930.67,0 1685.13,-754.46 1685.13,-1685.13 0,-930.67 -754.46,-1685.13 -1685.13,-1685.13l0 -1664.87z"/>
   <path class="fil0 str1" d="M64183.2 66187.1l11100 0 0 6700 -11100 0 0 -1664.87c930.67,0 1685.13,-754.46 1685.13,-1685.13 0,-930.67 -754.46,-1685.13 -1685.13,-1685.13l0 -1664.87z"/>
  </g>
  <g id="_2041362412016">
   <path class="fil0 str1" d="M-36616.8 59387.1l11100 0 0 6700 -11100 0 0 -1664.87c930.67,0 1685.13,-754.46 1685.13,-1685.13 0,-930.67 -754.46,-1685.13 -1685.13,-1685.13l0 -1664.87z"/>
   <path class="fil0 str1" d="M-25416.8 59387.1l11100 0 0 6700 -11100 0 0 -1664.87c930.67,0 1685.13,-754.46 1685.13,-1685.13 0,-930.67 -754.46,-1685.13 -1685.13,-1685.13l0 -1664.87z"/>
   <path class="fil0 str1" d="M-14216.8 59387.1l11100 0 0 6700 -11100 0 0 -1664.87c930.67,0 1685.13,-754.46 1685.13,-1685.13 0,-930.67 -754.46,-1685.13 -1685.13,-1685.13l0 -1664.87z"/>
   <path class="fil0 str1" d="M-3016.8 59387.1l11100 0 0 6700 -11100 0 0 -1664.87c930.67,0 1685.13,-754.46 1685.13,-1685.13 0,-930.67 -754.46,-1685.13 -1685.13,-1685.13l0 -1664.87z"/>
   <path class="fil0 str1" d="M8183.2 59387.1l11100 0 0 6700 -11100 0 0 -1664.87c930.67,0 1685.13,-754.46 1685.13,-1685.13 0,-930.67 -754.46,-1685.13 -1685.13,-1685.13l0 -1664.87z"/>
   <path class="fil0 str1" d="M19383.2 59387.1l11100 0 0 6700 -11100 0 0 -1664.87c930.67,0 1685.13,-754.46 1685.13,-1685.13 0,-930.67 -754.46,-1685.13 -1685.13,-1685.13l0 -1664.87z"/>
   <path class="fil0 str1" d="M30583.2 59387.1l11100 0 0 6700 -11100 0 0 -1664.87c930.67,0 1685.13,-754.46 1685.13,-1685.13 0,-930.67 -754.46,-1685.13 -1685.13,-1685.13l0 -1664.87z"/>
   <path class="fil0 str1" d="M41783.2 59387.1l11100 0 0 6700 -11100 0 0 -1664.87c930.67,0 1685.13,-754.46 1685.13,-1685.13 0,-930.67 -754.46,-1685.13 -1685.13,-1685.13l0 -1664.87z"/>
   <path class="fil0 str1" d="M52983.2 59387.1l11100 0 0 6700 -11100 0 0 -1664.87c930.67,0 1685.13,-754.46 1685.13,-1685.13 0,-930.67 -754.46,-1685.13 -1685.13,-1685.13l0 -1664.87z"/>
   <path class="fil0 str1" d="M64183.2 59387.1l11100 0 0 6700 -11100 0 0 -1664.87c930.67,0 1685.13,-754.46 1685.13,-1685.13 0,-930.67 -754.46,-1685.13 -1685.13,-1685.13l0 -1664.87z"/>
  </g>
  <g id="_2041362395696">
   <path class="fil0 str1" d="M-36616.8 52587.1l11100 0 0 6700 -11100 0 0 -1664.87c930.67,0 1685.13,-754.46 1685.13,-1685.13 0,-930.67 -754.46,-1685.13 -1685.13,-1685.13l0 -1664.87z"/>
   <path class="fil0 str1" d="M-25416.8 52587.1l11100 0 0 6700 -11100 0 0 -1664.87c930.67,0 1685.13,-754.46 1685.13,-1685.13 0,-930.67 -754.46,-1685.13 -1685.13,-1685.13l0 -1664.87z"/>
   <path class="fil0 str1" d="M-14216.8 52587.1l11100 0 0 6700 -11100 0 0 -1664.87c930.67,0 1685.13,-754.46 1685.13,-1685.13 0,-930.67 -754.46,-1685.13 -1685.13,-1685.13l0 -1664.87z"/>
   <path class="fil0 str1" d="M-3016.8 52587.1l11100 0 0 6700 -11100 0 0 -1664.87c930.67,0 1685.13,-754.46 1685.13,-1685.13 0,-930.67 -754.46,-1685.13 -1685.13,-1685.13l0 -1664.87z"/>
   <path class="fil0 str1" d="M8183.2 52587.1l11100 0 0 6700 -11100 0 0 -1664.87c930.67,0 1685.13,-754.46 1685.13,-1685.13 0,-930.67 -754.46,-1685.13 -1685.13,-1685.13l0 -1664.87z"/>
   <path class="fil0 str1" d="M19383.2 52587.1l11100 0 0 6700 -11100 0 0 -1664.87c930.67,0 1685.13,-754.46 1685.13,-1685.13 0,-930.67 -754.46,-1685.13 -1685.13,-1685.13l0 -1664.87z"/>
   <path class="fil0 str1" d="M30583.2 52587.1l11100 0 0 6700 -11100 0 0 -1664.87c930.67,0 1685.13,-754.46 1685.13,-1685.13 0,-930.67 -754.46,-1685.13 -1685.13,-1685.13l0 -1664.87z"/>
   <path class="fil0 str1" d="M41783.2 52587.1l11100 0 0 6700 -11100 0 0 -1664.87c930.67,0 1685.13,-754.46 1685.13,-1685.13 0,-930.67 -754.46,-1685.13 -1685.13,-1685.13l0 -1664.87z"/>
   <path class="fil0 str1" d="M52983.2 52587.1l11100 0 0 6700 -11100 0 0 -1664.87c930.67,0 1685.13,-754.46 1685.13,-1685.13 0,-930.67 -754.46,-1685.13 -1685.13,-1685.13l0 -1664.87z"/>
   <path class="fil0 str1" d="M64183.2 52587.1l11100 0 0 6700 -11100 0 0 -1664.87c930.67,0 1685.13,-754.46 1685.13,-1685.13 0,-930.67 -754.46,-1685.13 -1685.13,-1685.13l0 -1664.87z"/>
  </g>
  <g id="_2041362391184">
   <path class="fil0 str1" d="M-36616.8 45787.1l11100 0 0 6700 -11100 0 0 -1664.87c930.67,0 1685.13,-754.46 1685.13,-1685.13 0,-930.67 -754.46,-1685.13 -1685.13,-1685.13l0 -1664.87z"/>
   <path class="fil0 str1" d="M-25416.8 45787.1l11100 0 0 6700 -11100 0 0 -1664.87c930.67,0 1685.13,-754.46 1685.13,-1685.13 0,-930.67 -754.46,-1685.13 -1685.13,-1685.13l0 -1664.87z"/>
   <path class="fil0 str1" d="M-14216.8 45787.1l11100 0 0 6700 -11100 0 0 -1664.87c930.67,0 1685.13,-754.46 1685.13,-1685.13 0,-930.67 -754.46,-1685.13 -1685.13,-1685.13l0 -1664.87z"/>
   <path class="fil0 str1" d="M-3016.8 45787.1l11100 0 0 6700 -11100 0 0 -1664.87c930.67,0 1685.13,-754.46 1685.13,-1685.13 0,-930.67 -754.46,-1685.13 -1685.13,-1685.13l0 -1664.87z"/>
   <path class="fil0 str1" d="M8183.2 45787.1l11100 0 0 6700 -11100 0 0 -1664.87c930.67,0 1685.13,-754.46 1685.13,-1685.13 0,-930.67 -754.46,-1685.13 -1685.13,-1685.13l0 -1664.87z"/>
   <path class="fil0 str1" d="M19383.2 45787.1l11100 0 0 6700 -11100 0 0 -1664.87c930.67,0 1685.13,-754.46 1685.13,-1685.13 0,-930.67 -754.46,-1685.13 -1685.13,-1685.13l0 -1664.87z"/>
   <path class="fil0 str1" d="M30583.2 45787.1l11100 0 0 6700 -11100 0 0 -1664.87c930.67,0 1685.13,-754.46 1685.13,-1685.13 0,-930.67 -754.46,-1685.13 -1685.13,-1685.13l0 -1664.87z"/>
   <path class="fil0 str1" d="M41783.2 45787.1l11100 0 0 6700 -11100 0 0 -1664.87c930.67,0 1685.13,-754.46 1685.13,-1685.13 0,-930.67 -754.46,-1685.13 -1685.13,-1685.13l0 -1664.87z"/>
   <path class="fil0 str1" d="M52983.2 45787.1l11100 0 0 6700 -11100 0 0 -1664.87c930.67,0 1685.13,-754.46 1685.13,-1685.13 0,-930.67 -754.46,-1685.13 -1685.13,-1685.13l0 -1664.87z"/>
   <path class="fil0 str1" d="M64183.2 45787.1l11100 0 0 6700 -11100 0 0 -1664.87c930.67,0 1685.13,-754.46 1685.13,-1685.13 0,-930.67 -754.46,-1685.13 -1685.13,-1685.13l0 -1664.87z"/>
  </g>
  <g id="_2041362385616">
   <path class="fil0 str1" d="M-36616.8 38987.1l11100 0 0 6700 -11100 0 0 -1664.87c930.67,0 1685.13,-754.46 1685.13,-1685.13 0,-930.67 -754.46,-1685.13 -1685.13,-1685.13l0 -1664.87z"/>
   <path class="fil0 str1" d="M-25416.8 38987.1l11100 0 0 6700 -11100 0 0 -1664.87c930.67,0 1685.13,-754.46 1685.13,-1685.13 0,-930.67 -754.46,-1685.13 -1685.13,-1685.13l0 -1664.87z"/>
   <path class="fil0 str1" d="M-14216.8 38987.1l11100 0 0 6700 -11100 0 0 -1664.87c930.67,0 1685.13,-754.46 1685.13,-1685.13 0,-930.67 -754.46,-1685.13 -1685.13,-1685.13l0 -1664.87z"/>
   <path class="fil0 str1" d="M-3016.8 38987.1l11100 0 0 6700 -11100 0 0 -1664.87c930.67,0 1685.13,-754.46 1685.13,-1685.13 0,-930.67 -754.46,-1685.13 -1685.13,-1685.13l0 -1664.87z"/>
   <path class="fil0 str1" d="M8183.2 38987.1l11100 0 0 6700 -11100 0 0 -1664.87c930.67,0 1685.13,-754.46 1685.13,-1685.13 0,-930.67 -754.46,-1685.13 -1685.13,-1685.13l0 -1664.87z"/>
   <path class="fil0 str1" d="M19383.2 38987.1l11100 0 0 6700 -11100 0 0 -1664.87c930.67,0 1685.13,-754.46 1685.13,-1685.13 0,-930.67 -754.46,-1685.13 -1685.13,-1685.13l0 -1664.87z"/>
   <path class="fil0 str1" d="M30583.2 38987.1l11100 0 0 6700 -11100 0 0 -1664.87c930.67,0 1685.13,-754.46 1685.13,-1685.13 0,-930.67 -754.46,-1685.13 -1685.13,-1685.13l0 -1664.87z"/>
   <path class="fil0 str1" d="M41783.2 38987.1l11100 0 0 6700 -11100 0 0 -1664.87c930.67,0 1685.13,-754.46 1685.13,-1685.13 0,-930.67 -754.46,-1685.13 -1685.13,-1685.13l0 -1664.87z"/>
   <path class="fil0 str1" d="M52983.2 38987.1l11100 0 0 6700 -11100 0 0 -1664.87c930.67,0 1685.13,-754.46 1685.13,-1685.13 0,-930.67 -754.46,-1685.13 -1685.13,-1685.13l0 -1664.87z"/>
   <path class="fil0 str1" d="M64183.2 38987.1l11100 0 0 6700 -11100 0 0 -1664.87c930.67,0 1685.13,-754.46 1685.13,-1685.13 0,-930.67 -754.46,-1685.13 -1685.13,-1685.13l0 -1664.87z"/>
  </g>
  <g id="_2041362380624">
   <path class="fil0 str1" d="M-36616.8 32187.1l11100 0 0 6700 -11100 0 0 -1664.87c930.67,0 1685.13,-754.46 1685.13,-1685.13 0,-930.67 -754.46,-1685.13 -1685.13,-1685.13l0 -1664.87z"/>
   <path class="fil0 str1" d="M-25416.8 32187.1l11100 0 0 6700 -11100 0 0 -1664.87c930.67,0 1685.13,-754.46 1685.13,-1685.13 0,-930.67 -754.46,-1685.13 -1685.13,-1685.13l0 -1664.87z"/>
   <path class="fil0 str1" d="M-14216.8 32187.1l11100 0 0 6700 -11100 0 0 -1664.87c930.67,0 1685.13,-754.46 1685.13,-1685.13 0,-930.67 -754.46,-1685.13 -1685.13,-1685.13l0 -1664.87z"/>
   <path class="fil0 str1" d="M-3016.8 32187.1l11100 0 0 6700 -11100 0 0 -1664.87c930.67,0 1685.13,-754.46 1685.13,-1685.13 0,-930.67 -754.46,-1685.13 -1685.13,-1685.13l0 -1664.87z"/>
   <path class="fil0 str1" d="M8183.2 32187.1l11100 0 0 6700 -11100 0 0 -1664.87c930.67,0 1685.13,-754.46 1685.13,-1685.13 0,-930.67 -754.46,-1685.13 -1685.13,-1685.13l0 -1664.87z"/>
   <path class="fil0 str1" d="M19383.2 32187.1l11100 0 0 6700 -11100 0 0 -1664.87c930.67,0 1685.13,-754.46 1685.13,-1685.13 0,-930.67 -754.46,-1685.13 -1685.13,-1685.13l0 -1664.87z"/>
   <path class="fil0 str1" d="M30583.2 32187.1l11100 0 0 6700 -11100 0 0 -1664.87c930.67,0 1685.13,-754.46 1685.13,-1685.13 0,-930.67 -754.46,-1685.13 -1685.13,-1685.13l0 -1664.87z"/>
   <path class="fil0 str1" d="M41783.2 32187.1l11100 0 0 6700 -11100 0 0 -1664.87c930.67,0 1685.13,-754.46 1685.13,-1685.13 0,-930.67 -754.46,-1685.13 -1685.13,-1685.13l0 -1664.87z"/>
   <path class="fil0 str1" d="M52983.2 32187.1l11100 0 0 6700 -11100 0 0 -1664.87c930.67,0 1685.13,-754.46 1685.13,-1685.13 0,-930.67 -754.46,-1685.13 -1685.13,-1685.13l0 -1664.87z"/>
   <path class="fil0 str1" d="M64183.2 32187.1l11100 0 0 6700 -11100 0 0 -1664.87c930.67,0 1685.13,-754.46 1685.13,-1685.13 0,-930.67 -754.46,-1685.13 -1685.13,-1685.13l0 -1664.87z"/>
  </g>
  <g id="_2041362381152">
   <path class="fil0 str1" d="M-36616.8 25387.1l11100 0 0 6700 -11100 0 0 -1664.87c930.67,0 1685.13,-754.46 1685.13,-1685.13 0,-930.67 -754.46,-1685.13 -1685.13,-1685.13l0 -1664.87z"/>
   <path class="fil0 str1" d="M-25416.8 25387.1l11100 0 0 6700 -11100 0 0 -1664.87c930.67,0 1685.13,-754.46 1685.13,-1685.13 0,-930.67 -754.46,-1685.13 -1685.13,-1685.13l0 -1664.87z"/>
   <path class="fil0 str1" d="M-14216.8 25387.1l11100 0 0 6700 -11100 0 0 -1664.87c930.67,0 1685.13,-754.46 1685.13,-1685.13 0,-930.67 -754.46,-1685.13 -1685.13,-1685.13l0 -1664.87z"/>
   <path class="fil0 str1" d="M-3016.8 25387.1l11100 0 0 6700 -11100 0 0 -1664.87c930.67,0 1685.13,-754.46 1685.13,-1685.13 0,-930.67 -754.46,-1685.13 -1685.13,-1685.13l0 -1664.87z"/>
   <path class="fil0 str1" d="M8183.2 25387.1l11100 0 0 6700 -11100 0 0 -1664.87c930.67,0 1685.13,-754.46 1685.13,-1685.13 0,-930.67 -754.46,-1685.13 -1685.13,-1685.13l0 -1664.87z"/>
   <path class="fil0 str1" d="M19383.2 25387.1l11100 0 0 6700 -11100 0 0 -1664.87c930.67,0 1685.13,-754.46 1685.13,-1685.13 0,-930.67 -754.46,-1685.13 -1685.13,-1685.13l0 -1664.87z"/>
   <path class="fil0 str1" d="M30583.2 25387.1l11100 0 0 6700 -11100 0 0 -1664.87c930.67,0 1685.13,-754.46 1685.13,-1685.13 0,-930.67 -754.46,-1685.13 -1685.13,-1685.13l0 -1664.87z"/>
   <path class="fil0 str1" d="M41783.2 25387.1l11100 0 0 6700 -11100 0 0 -1664.87c930.67,0 1685.13,-754.46 1685.13,-1685.13 0,-930.67 -754.46,-1685.13 -1685.13,-1685.13l0 -1664.87z"/>
   <path class="fil0 str1" d="M52983.2 25387.1l11100 0 0 6700 -11100 0 0 -1664.87c930.67,0 1685.13,-754.46 1685.13,-1685.13 0,-930.67 -754.46,-1685.13 -1685.13,-1685.13l0 -1664.87z"/>
   <path class="fil0 str1" d="M64183.2 25387.1l11100 0 0 6700 -11100 0 0 -1664.87c930.67,0 1685.13,-754.46 1685.13,-1685.13 0,-930.67 -754.46,-1685.13 -1685.13,-1685.13l0 -1664.87z"/>
  </g>
  <g id="_2041360422448">
   <path class="fil0 str1" d="M-36616.8 18587.1l11100 0 0 6700 -11100 0 0 -1664.87c930.67,0 1685.13,-754.46 1685.13,-1685.13 0,-930.67 -754.46,-1685.13 -1685.13,-1685.13l0 -1664.87z"/>
   <path class="fil0 str1" d="M-25416.8 18587.1l11100 0 0 6700 -11100 0 0 -1664.87c930.67,0 1685.13,-754.46 1685.13,-1685.13 0,-930.67 -754.46,-1685.13 -1685.13,-1685.13l0 -1664.87z"/>
   <path class="fil0 str1" d="M-14216.8 18587.1l11100 0 0 6700 -11100 0 0 -1664.87c930.67,0 1685.13,-754.46 1685.13,-1685.13 0,-930.67 -754.46,-1685.13 -1685.13,-1685.13l0 -1664.87z"/>
   <path class="fil0 str1" d="M-3016.8 18587.1l11100 0 0 6700 -11100 0 0 -1664.87c930.67,0 1685.13,-754.46 1685.13,-1685.13 0,-930.67 -754.46,-1685.13 -1685.13,-1685.13l0 -1664.87z"/>
   <path class="fil0 str1" d="M8183.2 18587.1l11100 0 0 6700 -11100 0 0 -1664.87c930.67,0 1685.13,-754.46 1685.13,-1685.13 0,-930.67 -754.46,-1685.13 -1685.13,-1685.13l0 -1664.87z"/>
   <path class="fil0 str1" d="M19383.2 18587.1l11100 0 0 6700 -11100 0 0 -1664.87c930.67,0 1685.13,-754.46 1685.13,-1685.13 0,-930.67 -754.46,-1685.13 -1685.13,-1685.13l0 -1664.87z"/>
   <path class="fil0 str1" d="M30583.2 18587.1l11100 0 0 6700 -11100 0 0 -1664.87c930.67,0 1685.13,-754.46 1685.13,-1685.13 0,-930.67 -754.46,-1685.13 -1685.13,-1685.13l0 -1664.87z"/>
   <path class="fil0 str1" d="M41783.2 18587.1l11100 0 0 6700 -11100 0 0 -1664.87c930.67,0 1685.13,-754.46 1685.13,-1685.13 0,-930.67 -754.46,-1685.13 -1685.13,-1685.13l0 -1664.87z"/>
   <path class="fil0 str1" d="M52983.2 18587.1l11100 0 0 6700 -11100 0 0 -1664.87c930.67,0 1685.13,-754.46 1685.13,-1685.13 0,-930.67 -754.46,-1685.13 -1685.13,-1685.13l0 -1664.87z"/>
   <path class="fil0 str1" d="M64183.2 18587.1l11100 0 0 6700 -11100 0 0 -1664.87c930.67,0 1685.13,-754.46 1685.13,-1685.13 0,-930.67 -754.46,-1685.13 -1685.13,-1685.13l0 -1664.87z"/>
  </g>
  <g id="_2041360423840">
   <path class="fil0 str1" d="M75356.4 96896.05l0 -11100 6700 0 0 11100 -1664.87 0c0,-930.67 -754.46,-1685.13 -1685.13,-1685.13 -930.67,0 -1685.13,754.46 -1685.13,1685.13l-1664.87 0z"/>
   <path class="fil0 str1" d="M75356.4 85696.05l0 -11100 6700 0 0 11100 -1664.87 0c0,-930.67 -754.46,-1685.13 -1685.13,-1685.13 -930.67,0 -1685.13,754.46 -1685.13,1685.13l-1664.87 0z"/>
   <path class="fil0 str1" d="M75356.4 74496.05l0 -11100 6700 0 0 11100 -1664.87 0c0,-930.67 -754.46,-1685.13 -1685.13,-1685.13 -930.67,0 -1685.13,754.46 -1685.13,1685.13l-1664.87 0z"/>
   <path class="fil0 str1" d="M75356.4 63296.05l0 -11100 6700 0 0 11100 -1664.87 0c0,-930.67 -754.46,-1685.13 -1685.13,-1685.13 -930.67,0 -1685.13,754.46 -1685.13,1685.13l-1664.87 0z"/>
   <path class="fil0 str1" d="M75356.4 52096.05l0 -11100 6700 0 0 11100 -1664.87 0c0,-930.67 -754.46,-1685.13 -1685.13,-1685.13 -930.67,0 -1685.13,754.46 -1685.13,1685.13l-1664.87 0z"/>
   <path class="fil0 str1" d="M75356.4 40896.05l0 -11100 6700 0 0 11100 -1664.87 0c0,-930.67 -754.46,-1685.13 -1685.13,-1685.13 -930.67,0 -1685.13,754.46 -1685.13,1685.13l-1664.87 0z"/>
   <path class="fil0 str1" d="M75356.4 29696.05l0 -11100 6700 0 0 11100 -1664.87 0c0,-930.67 -754.46,-1685.13 -1685.13,-1685.13 -930.67,0 -1685.13,754.46 -1685.13,1685.13l-1664.87 0z"/>
  </g>
  <g id="_2041360452688">
   <rect class="fil0 str1" x="-36583.58" y="96387.1" width="10450" height="600"/>
   <rect class="fil0 str1" x="-36583.58" y="95687.1" width="10450" height="600"/>
   <rect class="fil0 str1" x="-36583.58" y="94987.1" width="10450" height="600"/>
   <rect class="fil0 str1" x="-36583.58" y="94287.1" width="10450" height="600"/>
   <rect class="fil0 str1" x="-36583.58" y="93587.1" width="10450" height="600"/>
  </g>
  <g id="_2041360453600">
   <rect class="fil0 str1" x="-26033.58" y="96387.1" width="10450" height="600"/>
   <rect class="fil0 str1" x="-26033.58" y="95687.1" width="10450" height="600"/>
   <rect class="fil0 str1" x="-26033.58" y="94987.1" width="10450" height="600"/>
   <rect class="fil0 str1" x="-26033.58" y="94287.1" width="10450" height="600"/>
   <rect class="fil0 str1" x="-26033.58" y="93587.1" width="10450" height="600"/>
  </g>
  <g id="_2041360452160">
   <rect class="fil0 str1" x="-15483.58" y="96387.1" width="10450" height="600"/>
   <rect class="fil0 str1" x="-15483.58" y="95687.1" width="10450" height="600"/>
   <rect class="fil0 str1" x="-15483.58" y="94987.1" width="10450" height="600"/>
   <rect class="fil0 str1" x="-15483.58" y="94287.1" width="10450" height="600"/>
   <rect class="fil0 str1" x="-15483.58" y="93587.1" width="10450" height="600"/>
  </g>
  <g id="_2041360452256">
   <rect class="fil0 str1" x="-4933.58" y="96387.1" width="10450" height="600"/>
   <rect class="fil0 str1" x="-4933.58" y="95687.1" width="10450" height="600"/>
   <rect class="fil0 str1" x="-4933.58" y="94987.1" width="10450" height="600"/>
   <rect class="fil0 str1" x="-4933.58" y="94287.1" width="10450" height="600"/>
   <rect class="fil0 str1" x="-4933.58" y="93587.1" width="10450" height="600"/>
  </g>
  <g id="_2041360449088">
   <rect class="fil0 str1" x="5616.42" y="96387.1" width="10450" height="600"/>
   <rect class="fil0 str1" x="5616.42" y="95687.1" width="10450" height="600"/>
   <rect class="fil0 str1" x="5616.42" y="94987.1" width="10450" height="600"/>
   <rect class="fil0 str1" x="5616.42" y="94287.1" width="10450" height="600"/>
   <rect class="fil0 str1" x="5616.42" y="93587.1" width="10450" height="600"/>
  </g>
  <g id="_2041360448992">
   <rect class="fil0 str1" x="16166.42" y="96387.1" width="10450" height="600"/>
   <rect class="fil0 str1" x="16166.42" y="95687.1" width="10450" height="600"/>
   <rect class="fil0 str1" x="16166.42" y="94987.1" width="10450" height="600"/>
   <rect class="fil0 str1" x="16166.42" y="94287.1" width="10450" height="600"/>
   <rect class="fil0 str1" x="16166.42" y="93587.1" width="10450" height="600"/>
  </g>
  <g id="_2041360449520">
   <rect class="fil0 str1" x="26716.42" y="96387.1" width="10450" height="600"/>
   <rect class="fil0 str1" x="26716.42" y="95687.1" width="10450" height="600"/>
   <rect class="fil0 str1" x="26716.42" y="94987.1" width="10450" height="600"/>
   <rect class="fil0 str1" x="26716.42" y="94287.1" width="10450" height="600"/>
   <rect class="fil0 str1" x="26716.42" y="93587.1" width="10450" height="600"/>
  </g>
  <g id="_2041360451344">
   <rect class="fil0 str1" x="37266.42" y="96387.1" width="10450" height="600"/>
   <rect class="fil0 str1" x="37266.42" y="95687.1" width="10450" height="600"/>
   <rect class="fil0 str1" x="37266.42" y="94987.1" width="10450" height="600"/>
   <rect class="fil0 str1" x="37266.42" y="94287.1" width="10450" height="600"/>
   <rect class="fil0 str1" x="37266.42" y="93587.1" width="10450" height="600"/>
  </g>
  <g id="_2041360450864">
   <rect class="fil0 str1" x="47816.42" y="96387.1" width="10450" height="600"/>
   <rect class="fil0 str1" x="47816.42" y="95687.1" width="10450" height="600"/>
   <rect class="fil0 str1" x="47816.42" y="94987.1" width="10450" height="600"/>
   <rect class="fil0 str1" x="47816.42" y="94287.1" width="10450" height="600"/>
   <rect class="fil0 str1" x="47816.42" y="93587.1" width="10450" height="600"/>
  </g>
  <g id="_2041360451584">
   <rect class="fil0 str1" x="58366.42" y="96387.1" width="10450" height="600"/>
   <rect class="fil0 str1" x="58366.42" y="95687.1" width="10450" height="600"/>
   <rect class="fil0 str1" x="58366.42" y="94987.1" width="10450" height="600"/>
   <rect class="fil0 str1" x="58366.42" y="94287.1" width="10450" height="600"/>
   <rect class="fil0 str1" x="58366.42" y="93587.1" width="10450" height="600"/>
  </g>
  <polygon class="fil0 str1" points="75266.35,96385.25 74851.54,96385.25 74851.54,93769.69 69382.71,93769.69 69382.71,93354.87 74851.54,93354.87 74864.26,93354.87 75266.35,93354.87 "/>
  <polygon class="fil0 str1" points="68914.68,93341.88 69329.49,93341.88 69329.49,96448.21 75258.94,96448.21 75258.94,96863.03 69329.49,96863.03 69316.77,96863.03 68914.68,96863.03 "/>
  <path class="fil0 str1" d="M70820.99 95750.92l0 -1077.76 -384.01 0 0 -219.17 1028.85 0 0 219.17 -382.19 0 0 1077.76 -262.65 0zm3595.02 -757.74c60.35,0 109.27,48.92 109.27,109.27 0,60.35 -48.92,109.27 -109.27,109.27 -60.35,0 -109.27,-48.92 -109.27,-109.27 0,-60.35 48.92,-109.27 109.27,-109.27zm-4639.6 0c60.35,0 109.27,48.92 109.27,109.27 0,60.35 -48.92,109.27 -109.27,109.27 -60.35,0 -109.27,-48.92 -109.27,-109.27 0,-60.35 48.92,-109.27 109.27,-109.27zm1790.56 337.5l255.4 -25.35c15.4,85.43 46.19,147.92 92.98,188.07 46.8,40.16 109.89,60.08 189.29,60.08 83.93,0 147.32,-17.81 189.89,-53.43 42.57,-35.63 64,-77.29 64,-124.99 0,-30.79 -9.05,-56.75 -26.87,-78.49 -17.81,-21.43 -49.21,-40.15 -93.89,-55.85 -30.49,-10.87 -99.92,-29.59 -208.6,-56.76 -139.78,-35.02 -237.9,-77.88 -294.35,-128.9 -79.4,-71.55 -118.95,-158.8 -118.95,-261.75 0,-66.11 18.72,-128.3 55.85,-185.96 37.44,-57.66 91.18,-101.44 161.52,-131.63 70.34,-30.19 154.87,-45.28 254.49,-45.28 162.12,0 284.39,35.92 366.2,108.08 82.12,72.15 124.98,168.15 129.21,288.61l-262.65 9.05c-11.17,-67.02 -35.02,-115.02 -71.55,-144.3 -36.52,-29.29 -91.47,-44.08 -164.53,-44.08 -75.47,0 -134.64,15.7 -177.21,47.1 -27.47,20.22 -41.36,47.09 -41.36,80.9 0,30.8 12.98,57.06 38.95,78.8 32.9,28.07 112.9,57.06 240,87.25 127.1,29.88 220.99,61.28 281.67,93.28 60.98,32.3 108.68,76.08 143.1,131.93 34.41,55.85 51.62,124.68 51.62,206.49 0,74.27 -20.53,144.01 -61.89,208.91 -41.36,64.91 -99.62,113.21 -175.1,144.61 -75.47,31.7 -169.66,47.4 -282.27,47.4 -163.93,0 -289.82,-37.74 -377.67,-113.51 -87.85,-75.48 -140.07,-185.67 -157.28,-330.28zm1277.01 420.24l0 -1296.93 891.19 0 0 219.17 -628.54 0 0 307.93 543.4 0 0 219.18 -543.4 0 0 550.65 -262.65 0zm-3154.86 -1841.97l4795.39 0c110.01,0 200.01,90 200.01,200l0 1987c0,110 -90,200 -200.01,200l-4795.39 0c-110.01,0 -200.01,-90 -200.01,-200l0 -1987c0,-110 90,-200 200.01,-200z"/>
 </g>
</svg>
